<svg width="41" height="42" viewBox="0 0 41 42" fill="none" xmlns="http://www.w3.org/2000/svg">
<circle cx="20.6471" cy="21" r="19.5588" fill="url(#paint0_linear_1897_15647)" stroke="#D1D4E2" stroke-width="1.11765"/>
<path d="M25.1597 27.7274V26.88H24.3377V24.3724H25.171V26.053H26.8529C26.8529 26.312 26.8515 26.5525 26.8536 26.7929C26.8544 26.8885 26.8227 26.9063 26.7221 26.8997C26.4888 26.8843 26.2541 26.8948 26.0104 26.8948C26.0104 27.1449 26.0119 27.3844 26.0095 27.6242C26.0087 27.7098 26.0577 27.7337 26.1291 27.7303C26.2631 27.7237 26.3969 27.7047 26.5307 27.7059C26.7695 27.7083 27.008 27.7268 27.2466 27.7295C27.6235 27.7337 28.0007 27.7302 28.3776 27.7307C28.4284 27.7307 28.4791 27.7353 28.5462 27.7383V29.404H29.3722V26.0513H28.5367V26.8736H27.6925V26.0388H26.8646V25.1947H28.5297V24.3566H27.7064V23.5192H29.3706V21.8508H28.537V22.6752H27.692V21.85H26.8464V24.3539H26.0096V21.8408H25.1637V19.3154H24.3237V18.4634H23.4754V19.3094C23.4388 19.3155 23.4203 19.3213 23.4015 19.3213C22.8994 19.322 22.3975 19.3203 21.8953 19.3237C21.801 19.3244 21.7831 19.2823 21.7843 19.2011C21.7877 18.9663 21.7855 18.7314 21.7855 18.4788H20.0974C20.0974 18.3901 20.0988 18.3194 20.0971 18.2487C20.0923 18.039 20.0865 17.8294 20.0811 17.6197C20.0298 17.6248 19.9784 17.6336 19.9272 17.6338C19.5407 17.6349 19.1542 17.6344 18.7676 17.6344H18.4087V15.9678H17.5643V17.6373H16.7353V19.3118C16.7622 19.3166 16.7806 19.3225 16.7991 19.3225C17.2774 19.3235 17.7558 19.3249 18.2341 19.3228C18.2891 19.3227 18.3441 19.3037 18.3993 19.293C18.3991 19.5765 18.3991 19.8605 18.3991 20.1626H17.5597V21.0168C17.3651 21.0128 17.1708 21.0072 16.9765 21.0041C16.7514 21.0007 16.7518 21.0017 16.7395 21.2306C16.7363 21.2929 16.7267 21.3549 16.7267 21.417C16.7259 22.3436 16.7262 23.2701 16.7264 24.1969V24.3556H17.5607C17.5636 24.3877 17.5689 24.4199 17.5689 24.4521C17.5691 25.4821 17.5687 26.5123 17.5686 27.5423V27.7385H20.0881V28.5744H17.582V29.4062H20.9435V28.5794H21.7865V29.403H22.6402V27.7393H23.4838V28.583H24.3228V27.7275H25.1597L25.1597 27.7274ZM24.3383 22.6807H25.1556V23.5132H24.3382C24.3382 23.238 24.3382 22.9595 24.3383 22.6807H24.3383ZM18.402 18.4906H19.2443V19.336C18.9601 19.3204 18.6812 19.305 18.402 19.2892V18.4907V18.4906ZM17.5646 24.352V23.5311H18.4122V24.3563C18.1297 24.3549 17.8472 24.3536 17.5646 24.352V24.352ZM20.0984 27.7188V26.8873H18.4171V24.361H19.2526V23.5319H20.0858V25.1974H19.2632V26.0448H19.4667C19.906 26.0444 20.3452 26.0448 20.7847 26.0432C20.8308 26.0431 20.877 26.0336 20.9231 26.0281C20.9291 26.079 20.9398 26.1299 20.94 26.1809C20.9414 26.6906 20.9408 27.2001 20.9408 27.7189C20.6596 27.7188 20.3868 27.7188 20.0984 27.7188L20.0984 27.7188ZM23.4797 26.8773H22.6389V27.7227H21.7918V26.025C21.4893 26.025 21.2078 26.025 20.9262 26.0248C20.9316 25.8203 20.9373 25.6157 20.942 25.4112C20.9434 25.3495 20.9422 25.2878 20.9422 25.2142H22.628V26.0443C22.8758 26.0443 23.1058 26.0506 23.3354 26.0417C23.4518 26.0373 23.4855 26.0763 23.4818 26.1886C23.4746 26.4131 23.4797 26.6382 23.4797 26.8773L23.4797 26.8773ZM20.951 24.3554V23.5164C21.223 23.5164 21.4939 23.5164 21.7642 23.5163V24.3554H20.951V24.3554ZM22.659 24.3552C22.659 24.0714 22.659 23.7935 22.6592 23.5154H23.4697V24.3552H22.659H22.659ZM22.8227 22.6843C22.7658 22.6846 22.7089 22.6843 22.6558 22.6843V23.5118C22.3602 23.5118 22.0645 23.5118 21.7685 23.512C21.7742 23.4423 21.7845 23.3728 21.7847 23.3035C21.7862 22.8236 21.7856 22.3438 21.7856 21.8543H20.0992V22.6763H17.5646C17.5646 22.1202 17.5646 21.5705 17.5643 21.0211C17.6729 21.0159 17.7814 21.0071 17.89 21.0066C18.2864 21.0047 18.6828 21.0059 19.0793 21.0059H19.2494V20.1692H20.0938V19.3353H20.9415V20.9978H21.784V20.1717H24.3159V21H22.643V21.8467H24.3338V22.6758C23.8303 22.6786 23.3265 22.6814 22.8226 22.6843L22.8227 22.6843Z" fill="white"/>
<path d="M28.5374 21.8509V21.8457H28.5319V21.8509H28.5374Z" fill="white"/>
<path d="M23.3542 17.6355C23.3915 17.6355 23.429 17.6294 23.4843 17.6244V16.7887H24.317V15.9539H22.6305V15.1307H21.7626C21.7614 15.4091 21.7606 15.6875 21.7595 15.9657C21.2075 15.9661 20.6561 15.9661 20.0928 15.9661V14.2856H17.5795V15.1239H19.2582V16.7982H20.0838V17.6171C20.1253 17.6234 20.1669 17.6342 20.2084 17.6342C21.2568 17.6354 22.3056 17.6356 23.3543 17.6354L23.3542 17.6355ZM22.6213 15.9679V16.785H21.7857C21.7857 16.5676 21.7873 16.3489 21.7847 16.1304C21.784 16.0761 21.7706 16.0218 21.7624 15.9679H22.6212L22.6213 15.9679Z" fill="white"/>
<path d="M21.7599 15.1306H21.7623V15.1289L21.7599 15.1306Z" fill="white"/>
<path d="M20.0836 17.6178L20.081 17.6174L20.0808 17.6172V17.6202L20.0836 17.62V17.6178Z" fill="white"/>
<path d="M15.2546 20.1633C15.1892 20.1634 15.124 20.1741 15.0586 20.1804C15.0588 19.9005 15.0588 19.6202 15.0588 19.3201H15.8716V17.6431H15.031V19.3279H14.1873V20.1627C13.9421 20.1627 13.7113 20.1575 13.4809 20.1651C13.3704 20.1688 13.3392 20.1308 13.3425 20.0245C13.3494 19.795 13.3447 19.5649 13.3447 19.3316H12.4976V19.4821C12.4976 19.9347 12.502 20.3872 12.4948 20.8394C12.4928 20.9686 12.5238 21.0166 12.662 21.0091C12.8863 20.9968 13.1117 21.0057 13.3494 21.0057V21.846H14.0993C14.6358 21.846 15.1725 21.8477 15.709 21.8435C15.755 21.8431 15.8335 21.8104 15.8405 21.7797C15.8672 21.6639 15.8761 21.5432 15.8815 21.4238C15.8876 21.2884 15.8829 21.1524 15.8829 21.0064C16.1339 21.0064 16.3673 21.0034 16.6006 21.0079C16.6954 21.0098 16.7298 20.9737 16.7281 20.8811C16.7244 20.6719 16.7273 20.4625 16.7259 20.2531C16.7257 20.2261 16.7157 20.1992 16.7084 20.1627C16.2204 20.1624 15.7375 20.1617 15.2546 20.1632L15.2546 20.1633ZM15.0359 20.7675C15.0339 20.8389 15.0356 20.9103 15.0356 20.9932H14.2065V20.1831C14.4923 20.1831 14.7737 20.1831 15.0555 20.1833C15.0489 20.3781 15.0416 20.5727 15.0359 20.7676L15.0359 20.7675Z" fill="white"/>
<path d="M12.5116 29.4051H16.7196V25.21H12.5116V29.4051ZM12.9986 25.6989H16.2316V28.918H12.9986V25.6989Z" fill="white"/>
<path d="M12.509 16.7851H16.7164V12.604H12.509V16.7851ZM12.996 13.0847H16.2284V16.3133H12.996V13.0847Z" fill="white"/>
<path d="M28.5317 20.1612H29.3722V17.6475H26.8628V18.4877H28.5295V19.3233H26.022V20.1661H27.6952V21.8458C27.9741 21.8458 28.2528 21.8458 28.5317 21.8457V20.1612V20.1612Z" fill="white"/>
<path d="M27.6966 21.848C27.6966 21.8517 27.691 21.8517 27.691 21.848C27.691 21.8443 27.6966 21.8443 27.6966 21.848Z" fill="white"/>
<path d="M29.3744 12.606H25.1771V16.7906H29.3744V12.606ZM28.8955 16.3084H25.6517V13.0717H28.8955V16.3084Z" fill="white"/>
<path d="M15.8726 24.3541V22.6945H15.0332V23.5119H14.1904V22.6934H13.345V23.5257H12.5079V24.3546H13.3519V23.5294H14.1916V24.3539C14.7609 24.3541 15.3138 24.3541 15.8726 24.3541L15.8726 24.3541Z" fill="white"/>
<path d="M22.6594 13.4521V13.4541H22.662L22.6594 13.4521Z" fill="white"/>
<path d="M22.6355 13.8164C22.6389 13.6955 22.651 13.575 22.6594 13.4543H21.7806V12.6094H18.4202V13.4395H21.7646V14.2667H22.6347C22.6345 14.1123 22.6313 13.9643 22.6355 13.8164L22.6355 13.8164Z" fill="white"/>
<path d="M21.7647 14.2666H21.761L21.7647 14.2701V14.2666Z" fill="white"/>
<path d="M22.6594 13.4521L22.6624 13.4544L22.6623 13.4521H22.6594Z" fill="white"/>
<path d="M23.4798 15.1077H24.3158V12.606H22.6324C22.6324 12.7909 22.629 12.9676 22.6338 13.1441C22.6365 13.2468 22.6518 13.3494 22.6617 13.452C22.9287 13.4518 23.196 13.4518 23.48 13.4518C23.4798 14.0041 23.4798 14.5539 23.4798 15.1076L23.4798 15.1077Z" fill="white"/>
<path d="M24.3267 28.5827H24.3221V28.5875L24.3271 28.5873L24.3269 28.5825L24.3267 28.5827Z" fill="white"/>
<path d="M24.9535 28.5705C24.7444 28.5718 24.5355 28.5808 24.3264 28.5866C24.3308 28.8094 24.3312 29.0327 24.3433 29.2553C24.3457 29.2987 24.3872 29.3675 24.423 29.3763C24.5243 29.4018 24.632 29.4109 24.7373 29.4113C25.3889 29.414 26.0407 29.4125 26.6924 29.4123H26.8423V28.5706C26.5842 28.5706 26.3381 28.5708 26.0921 28.5706C25.7124 28.5705 25.333 28.5679 24.9535 28.5705L24.9535 28.5705Z" fill="white"/>
<path d="M14.1824 17.6445H12.5092V18.4692H14.1824V17.6445Z" fill="white"/>
<path d="M24.3274 18.4601L24.3237 18.4597L24.3235 18.4595V18.464H24.3274V18.4601Z" fill="white"/>
<path d="M25.58 18.478H26.0017V17.6455H24.3268V18.4602C24.3774 18.4668 24.4278 18.4779 24.4783 18.4782C24.8454 18.4792 25.2127 18.4782 25.5799 18.478L25.58 18.478Z" fill="white"/>
<path d="M20.9496 14.2709V15.1294C21.2254 15.1294 21.4926 15.1294 21.7601 15.1293C21.7604 14.8429 21.7608 14.5567 21.7609 14.2705C21.4909 14.2708 21.2203 14.2708 20.9496 14.2708L20.9496 14.2709Z" fill="white"/>
<path d="M21.7603 15.1309L21.7625 15.1294H21.7603V15.1309Z" fill="white"/>
<path d="M21.7611 14.2666V14.2711H21.7659L21.7611 14.2666Z" fill="white"/>
<path d="M13.437 28.4778H15.7901V26.1304H13.437V28.4778Z" fill="white"/>
<path d="M13.4326 15.8609H15.7893V13.5303H13.4326V15.8609Z" fill="white"/>
<path d="M28.4485 13.5264H26.1047V15.8607H28.4485V13.5264Z" fill="white"/>
<path d="M10.2654 14.9463C10.4119 14.9463 10.5307 14.8279 10.5307 14.6821V10.5285H14.7023C14.8487 10.5285 14.9676 10.4101 14.9676 10.2643C14.9676 10.1185 14.8487 10.0002 14.7023 10.0002L10.2654 10C10.119 10 10.0001 10.1183 10.0001 10.2642V14.6819C10.0001 14.8279 10.119 14.9462 10.2654 14.9462L10.2654 14.9463Z" fill="white"/>
<path d="M31.6039 10.0001H27.167C27.0206 10.0001 26.9017 10.1185 26.9017 10.2643C26.9017 10.4101 27.0206 10.5284 27.167 10.5284H31.3386V14.6821C31.3386 14.8279 31.4574 14.9462 31.6039 14.9462C31.7503 14.9462 31.8691 14.8279 31.8691 14.6821V10.2643C31.8691 10.1183 31.7503 10 31.6039 10L31.6039 10.0001Z" fill="white"/>
<path d="M14.7024 31.4889H10.5308V27.335C10.5308 27.1891 10.4119 27.0708 10.2655 27.0708C10.1191 27.0708 10.0002 27.1891 10.0002 27.335V31.7531C10.0002 31.899 10.1191 32.0173 10.2655 32.0173L14.7024 32.0175C14.8489 32.0175 14.9677 31.8991 14.9677 31.7533C14.9677 31.6073 14.8489 31.489 14.7024 31.489L14.7024 31.4889Z" fill="white"/>
<path d="M31.6039 27.0708C31.4574 27.0708 31.3386 27.1892 31.3386 27.335V31.489H27.167C27.0206 31.489 26.9017 31.6073 26.9017 31.7531C26.9017 31.899 27.0206 32.0173 27.167 32.0173H31.6039C31.7504 32.0173 31.8692 31.899 31.8692 31.7531V27.335C31.8692 27.1891 31.7503 27.0708 31.6039 27.0708L31.6039 27.0708Z" fill="white"/>
<defs>
<linearGradient id="paint0_linear_1897_15647" x1="20.6471" y1="0.882324" x2="20.6471" y2="41.1176" gradientUnits="userSpaceOnUse">
<stop stop-color="#37DE8E"/>
<stop offset="1" stop-color="#27C077"/>
</linearGradient>
</defs>
</svg>
