<svg width="41" height="42" viewBox="0 0 41 42" fill="none" xmlns="http://www.w3.org/2000/svg">
<circle cx="20.6176" cy="21" r="20.1176" fill="#DE3737"/>
<path d="M31.5679 23.6025C31.3406 23.2633 30.9998 23.0372 30.5452 22.9242C30.1665 22.8112 29.712 22.8865 29.3711 23.0749L23.6899 26.2024H23.5763C23.4248 26.014 23.1975 25.8256 22.9703 25.7126L19.9403 24.3938C18.9176 23.9416 17.8193 23.7532 16.7588 23.8285L13.8803 24.0169C13.7666 23.4141 13.1985 22.9242 12.5546 22.9242H10.4715C10.2443 22.9242 10.0928 23.0749 10.0928 23.301V31.3272C10.0928 31.5533 10.2443 31.704 10.4715 31.704H12.5546C13.1606 31.704 13.653 31.2895 13.8424 30.762L18.274 31.7794C18.577 31.8548 18.9179 31.8924 19.2587 31.8924C19.7511 31.8924 20.2435 31.8171 20.8116 31.6664L25.167 30.1968C25.6594 30.0461 26.1139 29.7823 26.5305 29.4432L31.227 25.8635C31.8709 25.336 32.0602 24.2809 31.5679 23.6027V23.6025ZM13.1606 30.3471C13.1606 30.6862 12.8955 30.95 12.5546 30.95H10.8503V23.6774H12.5546C12.8955 23.6774 13.1606 23.9412 13.1606 24.2803V30.3471ZM30.7346 25.2604L26.0381 28.8401C25.6973 29.1038 25.3185 29.3299 24.9019 29.443L20.5465 30.9125C19.789 31.1386 19.0694 31.1763 18.4255 31.0256L13.9186 30.0082V24.7708L16.8349 24.5824C17.7818 24.507 18.7287 24.6954 19.6377 25.0722L22.6677 26.391C23.0843 26.5795 23.2737 27.0316 23.1979 27.4461C23.0843 27.8229 22.7056 28.0867 22.3268 28.0867C22.2132 28.0867 22.1374 28.0867 22.0617 28.049L17.2137 26.6548C17.0243 26.5795 16.7971 26.6925 16.7592 26.9186C16.6834 27.107 16.7971 27.3331 17.0243 27.3707L21.8342 28.7649C22.0236 28.8026 22.1751 28.8026 22.2887 28.8026C23.0462 28.8026 23.6901 28.3128 23.9173 27.5968C23.9931 27.3331 23.9931 27.0693 23.9173 26.8432L24.031 26.8055C24.031 26.8055 24.0688 26.8055 24.0688 26.7679L29.7878 23.6404C29.9393 23.5273 30.2044 23.5273 30.3937 23.565C30.6589 23.6404 30.8482 23.7534 30.9619 23.9418C31.227 24.394 31.1134 24.9592 30.7346 25.2606V25.2604Z" fill="white"/>
<path d="M12.0247 24.168C11.7975 24.168 11.646 24.3187 11.646 24.5448V25.3361C11.646 25.5622 11.7975 25.7129 12.0247 25.7129C12.252 25.7129 12.4035 25.5622 12.4035 25.3361V24.5448C12.4035 24.3187 12.252 24.168 12.0247 24.168Z" fill="white"/>
<path d="M19.9025 23.5651H25.546C25.7733 23.5651 25.9248 23.4143 25.9248 23.1883V14.2202C25.9248 13.9942 25.8112 13.7304 25.6218 13.542L23.3114 11.3565C23.2735 11.3188 23.1978 11.2811 23.1599 11.2435V10.3768C23.1599 10.1507 23.0084 10 22.7812 10C22.5539 10 22.4024 10.1507 22.4024 10.3768V11.1681L22.1752 11.2811L22.1373 11.3188L19.8269 13.5043C19.6376 13.6927 19.5239 13.9565 19.5239 14.1826V23.188C19.5239 23.4141 19.6754 23.5648 19.9027 23.5648L19.9025 23.5651ZM22.7052 13.7302C23.0082 13.7302 23.2355 13.9563 23.2355 14.2577C23.2355 14.5215 22.9703 14.7852 22.7052 14.7852C22.4401 14.7852 22.175 14.5215 22.175 14.2577C22.175 13.9939 22.4401 13.7302 22.7052 13.7302ZM20.2812 14.1823C20.2812 14.1447 20.3191 14.0693 20.357 14.0316L22.4022 12.1099V13.0142C21.872 13.165 21.4553 13.6548 21.4553 14.2577C21.4553 14.936 22.0613 15.5389 22.7431 15.5389C23.4248 15.5389 24.0308 14.936 24.0308 14.2577C24.0308 13.6925 23.69 13.2403 23.1597 13.0519V12.2229L25.0913 14.0693C25.1292 14.107 25.1671 14.1823 25.1671 14.22V22.8112H20.281L20.2812 14.1823Z" fill="white"/>
<path d="M23.6519 17.5738C23.4625 17.4984 23.2353 17.5738 23.1595 17.7622L21.6445 20.852C21.5688 21.0404 21.6445 21.2665 21.8339 21.3419C21.8718 21.3796 21.9475 21.3796 21.9854 21.3796C22.1369 21.3796 22.2505 21.3042 22.3263 21.1535L23.8413 18.0637C23.917 17.8752 23.8413 17.6492 23.6519 17.5738Z" fill="white"/>
<path d="M22.2511 18.9679V18.4404C22.2511 17.9882 21.8344 17.5737 21.3421 17.5737C20.8876 17.5737 20.4709 17.9882 20.4709 18.4404V18.9679C20.4709 19.4578 20.8497 19.8346 21.3421 19.8346H21.3799C21.8344 19.8346 22.2511 19.4201 22.2511 18.9679ZM21.4936 18.9679C21.4936 19.0056 21.4178 19.081 21.3799 19.081H21.3421C21.2663 19.081 21.2284 19.0433 21.2284 18.9679V18.4404C21.2284 18.4027 21.3042 18.3273 21.3799 18.3273C21.4178 18.3273 21.4936 18.4027 21.4936 18.4404V18.9679Z" fill="white"/>
<path d="M24.1065 19.0059H24.0686C23.6141 19.0059 23.1975 19.4203 23.1975 19.8725V20.4C23.1975 20.8522 23.6141 21.2667 24.0686 21.2667H24.1065C24.561 21.2667 24.9776 20.8522 24.9776 20.4V19.8725C24.9776 19.4203 24.561 19.0059 24.1065 19.0059ZM24.2201 20.4C24.2201 20.4377 24.1444 20.5131 24.1065 20.5131H24.0686C24.0308 20.5131 23.955 20.4377 23.955 20.4V19.8725C23.955 19.8348 24.0308 19.7595 24.0686 19.7595H24.1065C24.1444 19.7595 24.2201 19.8348 24.2201 19.8725V20.4Z" fill="white"/>
</svg>
