<svg width="41" height="42" viewBox="0 0 41 42" fill="none" xmlns="http://www.w3.org/2000/svg">
<circle cx="20.3824" cy="21" r="20.1176" fill="#DEAF37"/>
<path fill-rule="evenodd" clip-rule="evenodd" d="M27.1746 20.9748V13.05C27.1746 12.7714 27.064 12.5045 26.8671 12.3075C26.6703 12.1106 26.4032 12 26.1247 12H10.7855C10.507 12 10.24 12.1106 10.043 12.3075C9.8461 12.5044 9.73547 12.7714 9.73547 13.05V25.6372C9.73547 25.9158 9.8461 26.183 10.043 26.3797C10.2398 26.5765 10.5071 26.6872 10.7855 26.6872H22.9047C23.0978 26.6872 23.2547 26.5303 23.2547 26.3372C23.2547 26.1442 23.0978 25.9872 22.9047 25.9872H10.7855C10.6926 25.9872 10.6037 25.9503 10.538 25.8847C10.4723 25.819 10.4355 25.73 10.4355 25.6372V13.05C10.4355 12.9571 10.4723 12.8679 10.538 12.8025C10.6037 12.7368 10.6926 12.7 10.7855 12.7H26.1247C26.2175 12.7 26.3064 12.7368 26.3722 12.8025C26.4378 12.8681 26.4747 12.9571 26.4747 13.05V20.9748C26.4747 21.1679 26.6315 21.3248 26.8247 21.3248C27.0178 21.3248 27.1747 21.1679 27.1747 20.9748L27.1746 20.9748Z" fill="white"/>
<path fill-rule="evenodd" clip-rule="evenodd" d="M23.7363 23.2993H10.0855C9.89235 23.2993 9.73547 23.4562 9.73547 23.6493C9.73547 23.8424 9.89235 23.9993 10.0855 23.9993H23.7363C23.9294 23.9993 24.0863 23.8424 24.0863 23.6493C24.0863 23.4562 23.9294 23.2993 23.7363 23.2993Z" fill="white"/>
<path fill-rule="evenodd" clip-rule="evenodd" d="M19.6582 28.8562V26.3373C19.6582 26.1443 19.5013 25.9873 19.3082 25.9873C19.115 25.9873 18.9582 26.1443 18.9582 26.3373V28.8562C18.9582 29.0493 19.115 29.2062 19.3082 29.2062C19.5013 29.2062 19.6582 29.0493 19.6582 28.8562ZM17.2521 26.3373V28.8562C17.2521 29.0493 17.4091 29.2062 17.6021 29.2062C17.7952 29.2062 17.9521 29.0493 17.9521 28.8562V26.3373C17.9521 26.1443 17.7952 25.9873 17.6021 25.9873C17.4091 25.9873 17.2521 26.1443 17.2521 26.3373Z" fill="white"/>
<path fill-rule="evenodd" clip-rule="evenodd" d="M11.4859 14.0994H26.8251C27.0182 14.0994 27.1751 13.9425 27.1751 13.7494C27.1751 13.5563 27.0182 13.3994 26.8251 13.3994H11.4859C11.2927 13.3994 11.1359 13.5563 11.1359 13.7494C11.1359 13.9425 11.2927 14.0994 11.4859 14.0994Z" fill="white"/>
<path fill-rule="evenodd" clip-rule="evenodd" d="M13.8491 29.2059H23.0619C23.2549 29.2059 23.4119 29.049 23.4119 28.8559C23.4119 28.6627 23.2549 28.5059 23.0619 28.5059H13.8491C13.6562 28.5059 13.4991 28.6627 13.4991 28.8559C13.4991 29.049 13.6562 29.2059 13.8491 29.2059Z" fill="white"/>
<path fill-rule="evenodd" clip-rule="evenodd" d="M17.3451 25.3431H19.5646C19.7578 25.3431 19.9146 25.1862 19.9146 24.9931C19.9146 24.7999 19.7578 24.6431 19.5646 24.6431H17.3451C17.152 24.6431 16.9951 24.7999 16.9951 24.9931C16.9951 25.1862 17.152 25.3431 17.3451 25.3431Z" fill="white"/>
<path fill-rule="evenodd" clip-rule="evenodd" d="M22.5042 22.2493V15.6165C22.5042 15.3998 22.4183 15.1922 22.265 15.039C22.1119 14.8857 21.9042 14.7998 21.6875 14.7998H15.2219C15.0052 14.7998 14.7975 14.8857 14.6444 15.039C14.4911 15.1921 14.4052 15.3998 14.4052 15.6165V22.2493C14.4052 22.4425 14.562 22.5993 14.7552 22.5993C14.9483 22.5993 15.1052 22.4425 15.1052 22.2493V15.6165C15.1052 15.5855 15.1173 15.5559 15.1392 15.5339C15.1611 15.512 15.1908 15.4998 15.2219 15.4998H21.6875C21.7186 15.4998 21.7481 15.512 21.7701 15.5339C21.792 15.5558 21.8042 15.5855 21.8042 15.6165V22.2493C21.8042 22.4425 21.9611 22.5993 22.1542 22.5993C22.3473 22.5993 22.5042 22.4425 22.5042 22.2493H22.5042Z" fill="white"/>
<path fill-rule="evenodd" clip-rule="evenodd" d="M17.4579 22.0384L19.9468 19.5495C20.0835 19.413 20.0835 19.1911 19.9468 19.0547C19.8102 18.918 19.5883 18.918 19.4519 19.0547L16.963 21.5436C16.8263 21.6802 16.8263 21.902 16.963 22.0384C17.0996 22.1752 17.3215 22.1752 17.4579 22.0384Z" fill="white"/>
<path fill-rule="evenodd" clip-rule="evenodd" d="M17.1419 18.043C16.5619 18.043 16.0909 18.514 16.0909 19.094C16.0909 19.674 16.5619 20.145 17.1419 20.145C17.7219 20.145 18.1929 19.674 18.1929 19.094C18.1929 18.514 17.7219 18.043 17.1419 18.043ZM17.1419 18.743C17.3358 18.743 17.493 18.9003 17.493 19.0941C17.493 19.2877 17.3356 19.445 17.1419 19.445C16.9483 19.445 16.7909 19.2877 16.7909 19.0941C16.7909 18.9002 16.9483 18.743 17.1419 18.743Z" fill="white"/>
<path fill-rule="evenodd" clip-rule="evenodd" d="M19.7679 20.8081C19.1879 20.8081 18.7168 21.2792 18.7168 21.8592C18.7168 22.4392 19.1879 22.9101 19.7679 22.9101C20.3479 22.9101 20.8188 22.4392 20.8188 21.8592C20.8188 21.2792 20.3479 20.8081 19.7679 20.8081ZM19.7679 21.5081C19.9615 21.5081 20.1188 21.6654 20.1188 21.8592C20.1188 22.0528 19.9615 22.2101 19.7679 22.2101C19.574 22.2101 19.4168 22.0528 19.4168 21.8592C19.4168 21.6653 19.5741 21.5081 19.7679 21.5081Z" fill="white"/>
<path fill-rule="evenodd" clip-rule="evenodd" d="M16.9538 15.1498C16.9538 14.9564 16.797 14.7998 16.6038 14.7998H15.183C14.7537 14.7998 14.4055 15.1478 14.4055 15.5773V16.4632C14.4055 16.8011 14.5397 17.1253 14.7786 17.3642C15.0175 17.603 15.3416 17.7373 15.6796 17.7373H15.6797C16.0175 17.7373 16.3418 17.6031 16.5806 17.3642C16.8195 17.1253 16.9538 16.8012 16.9538 16.4632V15.1498H16.9538ZM16.2538 15.4998V16.4632C16.2538 16.6156 16.1934 16.7614 16.0856 16.8692C15.9781 16.9767 15.832 17.0371 15.6798 17.0371H15.6796C15.5273 17.0371 15.3815 16.9767 15.2737 16.8692C15.1662 16.7614 15.1057 16.6156 15.1057 16.4632V15.5773C15.1057 15.5344 15.1402 15.4998 15.1832 15.4998H16.254L16.2538 15.4998Z" fill="white"/>
<path fill-rule="evenodd" clip-rule="evenodd" d="M16.2539 15.1498V16.4632C16.2539 16.8011 16.3881 17.1253 16.627 17.3642C16.8659 17.603 17.19 17.7373 17.528 17.7373H17.5281C17.8659 17.7373 18.1901 17.6031 18.429 17.3642C18.6679 17.1253 18.8022 16.8012 18.8022 16.4632V15.1498C18.8022 14.9567 18.6453 14.7998 18.4522 14.7998C18.259 14.7998 18.1022 14.9567 18.1022 15.1498V16.4632C18.1022 16.6156 18.0417 16.7614 17.9339 16.8692C17.8264 16.9767 17.6803 17.0371 17.5281 17.0371H17.5279C17.3756 17.0371 17.2298 16.9767 17.122 16.8692C17.0145 16.7614 16.954 16.6156 16.954 16.4632V15.1498C16.954 14.9567 16.7971 14.7998 16.604 14.7998C16.4109 14.7998 16.254 14.9567 16.254 15.1498H16.2539Z" fill="white"/>
<path fill-rule="evenodd" clip-rule="evenodd" d="M22.5043 15.5773C22.5043 15.1478 22.1563 14.7998 21.7267 14.7998H20.3059C20.1128 14.7998 19.9559 14.9564 19.9559 15.1498V16.4632C19.9559 16.8011 20.0903 17.1253 20.3292 17.3642C20.568 17.6031 20.892 17.7373 21.2299 17.7373H21.23C21.5678 17.7373 21.892 17.6031 22.1309 17.3642C22.3698 17.1253 22.5041 16.8012 22.5041 16.4632V15.5773H22.5043ZM21.8043 15.5773V16.4632C21.8043 16.6156 21.7438 16.7614 21.6363 16.8692C21.5285 16.9767 21.3827 17.0371 21.2304 17.0371H21.2302C21.078 17.0371 20.9321 16.9767 20.8244 16.8692C20.7169 16.7614 20.6561 16.6156 20.6561 16.4632V15.4998H21.7269C21.7699 15.4998 21.8044 15.5343 21.8044 15.5773L21.8043 15.5773Z" fill="white"/>
<path fill-rule="evenodd" clip-rule="evenodd" d="M18.1075 15.1498V16.4632C18.1075 16.8011 18.2419 17.1253 18.4808 17.3642C18.7196 17.6031 19.0436 17.7373 19.3815 17.7373H19.3816C19.7194 17.7373 20.0437 17.6031 20.2825 17.3642C20.5214 17.1253 20.6557 16.8012 20.6557 16.4632V15.1498C20.6557 14.9567 20.4988 14.7998 20.3057 14.7998C20.1125 14.7998 19.9557 14.9567 19.9557 15.1498V16.4632C19.9557 16.6156 19.8952 16.7614 19.7877 16.8692C19.6799 16.9767 19.5341 17.0371 19.3818 17.0371H19.3816C19.2294 17.0371 19.0835 16.9767 18.9758 16.8692C18.868 16.7614 18.8075 16.6156 18.8075 16.4632V15.1498C18.8075 14.9567 18.6507 14.7998 18.4575 14.7998C18.2644 14.7998 18.1075 14.9567 18.1075 15.1498H18.1075Z" fill="white"/>
<path fill-rule="evenodd" clip-rule="evenodd" d="M30.5639 22.4482C30.5861 22.3447 30.5605 22.2368 30.4941 22.1546C30.4275 22.0722 30.3275 22.0244 30.2217 22.0244H23.7505C23.5744 22.0244 23.4076 22.1043 23.2966 22.2411C23.186 22.3783 23.143 22.5582 23.1802 22.7305C23.3426 23.485 23.7861 25.5479 23.9679 26.3929C24.0488 26.7693 24.3816 27.0379 24.7663 27.0379H28.9167C29.3017 27.0379 29.6342 26.7693 29.7151 26.3929C29.9397 25.3491 30.5637 22.4482 30.5637 22.4482L30.5639 22.4482ZM23.8951 22.7244H29.7887L29.0311 26.2457C29.0197 26.2996 28.972 26.3378 28.9172 26.3378H24.7668C24.7119 26.3378 24.6643 26.2996 24.6527 26.2457L23.8954 22.7244H23.8951Z" fill="white"/>
<path fill-rule="evenodd" clip-rule="evenodd" d="M30.4814 22.8347L30.7183 21.7336C30.73 21.68 30.7774 21.6414 30.8324 21.6414H31.5522C31.7453 21.6414 31.9022 21.4845 31.9022 21.2914C31.9022 21.0983 31.7453 20.9414 31.5522 20.9414H30.8324C30.4475 20.9414 30.1149 21.2102 30.0339 21.5864L29.7971 22.6878C29.7564 22.8766 29.8769 23.0628 30.0657 23.1034C30.2544 23.1442 30.4408 23.0239 30.4815 22.8349L30.4814 22.8347Z" fill="white"/>
<path fill-rule="evenodd" clip-rule="evenodd" d="M24.1635 24.8812H29.5771C29.7702 24.8812 29.9271 24.7243 29.9271 24.5312C29.9271 24.338 29.7702 24.1812 29.5771 24.1812H24.1635C23.9704 24.1812 23.8135 24.338 23.8135 24.5312C23.8135 24.7243 23.9704 24.8812 24.1635 24.8812Z" fill="white"/>
<path fill-rule="evenodd" clip-rule="evenodd" d="M27.5792 22.3744V26.688C27.5792 26.8811 27.7361 27.038 27.9292 27.038C28.1223 27.038 28.2792 26.8811 28.2792 26.688V22.3744C28.2792 22.1813 28.1223 22.0244 27.9292 22.0244C27.7361 22.0244 27.5792 22.1813 27.5792 22.3744Z" fill="white"/>
<path fill-rule="evenodd" clip-rule="evenodd" d="M25.5363 22.3744V26.688C25.5363 26.8811 25.6931 27.038 25.8863 27.038C26.0794 27.038 26.2363 26.8811 26.2363 26.688V22.3744C26.2363 22.1813 26.0794 22.0244 25.8863 22.0244C25.6931 22.0244 25.5363 22.1813 25.5363 22.3744Z" fill="white"/>
<path fill-rule="evenodd" clip-rule="evenodd" d="M25.2206 27.7378C24.6034 27.7378 24.1027 28.2387 24.1027 28.8558C24.1027 29.473 24.6035 29.9737 25.2206 29.9737C25.8375 29.9737 26.3386 29.4729 26.3386 28.8558C26.3386 28.2389 25.8377 27.7378 25.2206 27.7378ZM25.2206 28.4378C25.4511 28.4378 25.6386 28.6251 25.6386 28.8558C25.6386 29.0865 25.4512 29.2737 25.2206 29.2737C24.9898 29.2737 24.8027 29.0865 24.8027 28.8558C24.8027 28.6253 24.9898 28.4378 25.2206 28.4378Z" fill="white"/>
<path fill-rule="evenodd" clip-rule="evenodd" d="M28.5871 27.7378C27.9699 27.7378 27.4691 28.2387 27.4691 28.8558C27.4691 29.473 27.9699 29.9737 28.5871 29.9737C29.204 29.9737 29.705 29.4729 29.705 28.8558C29.705 28.2389 29.2041 27.7378 28.5871 27.7378ZM28.5871 28.4378C28.8175 28.4378 29.005 28.6251 29.005 28.8558C29.005 29.0865 28.8177 29.2737 28.5871 29.2737C28.3563 29.2737 28.1691 29.0865 28.1691 28.8558C28.1691 28.6253 28.3563 28.4378 28.5871 28.4378Z" fill="white"/>
</svg>
