<svg width="41" height="42" viewBox="0 0 41 42" fill="none" xmlns="http://www.w3.org/2000/svg">
<circle cx="20.3235" cy="21" r="20.1176" fill="#37DE8E"/>
<path d="M11.9417 18.4858V16.3902C11.9417 14.303 13.6265 12.6182 15.7137 12.6182H17.8093" stroke="white" stroke-width="1.67647" stroke-linecap="round" stroke-linejoin="round"/>
<path d="M22.8381 12.6182H24.9337C27.0209 12.6182 28.7058 14.303 28.7058 16.3902V18.4858" stroke="white" stroke-width="1.67647" stroke-linecap="round" stroke-linejoin="round"/>
<path d="M28.7062 24.3535V25.6109C28.7062 27.6981 27.0213 29.3829 24.9341 29.3829H23.6768" stroke="white" stroke-width="1.67647" stroke-linecap="round" stroke-linejoin="round"/>
<path d="M17.8093 29.3823H15.7137C13.6265 29.3823 11.9417 27.6974 11.9417 25.6102V23.5146" stroke="white" stroke-width="1.67647" stroke-linecap="round" stroke-linejoin="round"/>
<g opacity="0.4">
<path d="M24.5152 18.9048V23.096C24.5152 24.7725 23.6769 25.6107 22.0005 25.6107H18.6475C16.971 25.6107 16.1328 24.7725 16.1328 23.096V18.9048C16.1328 17.2284 16.971 16.3901 18.6475 16.3901H22.0005C23.6769 16.3901 24.5152 17.2284 24.5152 18.9048Z" stroke="white" stroke-width="1.67647" stroke-linecap="round" stroke-linejoin="round"/>
<path d="M26.1913 21.0005H14.4561" stroke="white" stroke-width="1.67647" stroke-linecap="round" stroke-linejoin="round"/>
</g>
</svg>
