<svg width="26" height="26" viewBox="0 0 26 26" fill="none" xmlns="http://www.w3.org/2000/svg">
<path d="M5.39829 7.79633C6.70739 7.79633 7.76862 6.7351 7.76862 5.426C7.76862 4.1169 6.70739 3.05566 5.39829 3.05566C4.08919 3.05566 3.02795 4.1169 3.02795 5.426C3.02795 6.7351 4.08919 7.79633 5.39829 7.79633Z" fill="white"/>
<path d="M10.0054 9.59258V22.7432H14.0885V16.2399C14.0885 14.5239 14.4113 12.8621 16.539 12.8621C18.6374 12.8621 18.6634 14.824 18.6634 16.3482V22.7442H22.7486V15.5325C22.7486 11.99 21.986 9.26758 17.8455 9.26758C15.8576 9.26758 14.5251 10.3585 13.9801 11.3909H13.9249V9.59258H10.0054ZM3.35156 9.59258H7.44115V22.7432H3.35156V9.59258Z" fill="white"/>
</svg>
