<svg width="632" height="47" viewBox="0 0 632 47" fill="none" xmlns="http://www.w3.org/2000/svg">
<path fill-rule="evenodd" clip-rule="evenodd" d="M60.3976 6.27552L52.6191 7.94487V1.63844L60.3976 0V6.27552ZM28.7879 3.5858L21.2264 5.19332L21.1954 29.9554C21.1954 34.5306 24.6353 37.9002 29.2218 37.9002C31.7629 37.9002 33.6223 37.4365 34.645 36.8801V30.6046C33.6533 31.0064 28.7569 32.4285 28.7569 27.8532V16.8788H34.645V10.2941H28.7569L28.7879 3.5858ZM111.561 23.9281C111.561 16.0141 107.719 9.76953 100.374 9.76953C92.9986 9.76953 88.5361 16.0141 88.5361 23.8663C88.5361 33.1714 93.8044 37.8703 101.366 37.8703C105.054 37.8703 107.843 37.0356 109.95 35.8609V29.6781C107.843 30.7292 105.425 31.3784 102.358 31.3784C99.3515 31.3784 96.6864 30.3273 96.3455 26.6794H111.499C111.499 26.5091 111.511 26.1222 111.523 25.6765V25.6762V25.6761V25.676C111.541 25.0701 111.561 24.3555 111.561 23.9281ZM96.2529 20.9911C96.2529 17.4979 98.3912 16.0449 100.344 16.0449C102.234 16.0449 104.248 17.4979 104.248 20.9911H96.2529ZM10.4745 16.478C8.83208 16.478 7.8404 16.9417 7.8404 18.1474C7.8404 19.4637 9.54709 20.0428 11.6644 20.7612C15.1162 21.9323 19.6593 23.4738 19.6785 29.1837C19.6785 34.7172 15.247 37.9014 8.80109 37.9014C6.13597 37.9014 3.22293 37.3758 0.340887 36.1393V28.7818C2.94403 30.2038 6.22894 31.2549 8.80109 31.2549C10.5365 31.2549 11.7761 30.7912 11.7761 29.3691C11.7761 27.911 9.92602 27.2445 7.69248 26.4399C4.29093 25.2145 0 23.6687 0 18.5183C0 13.0466 4.18361 9.7697 10.4745 9.7697C13.0467 9.7697 15.5878 10.1716 18.16 11.1917V18.4565C15.8048 17.189 12.8298 16.478 10.4745 16.478ZM44.2853 12.5808L43.7895 10.2932H37.0957V37.3429H44.8431V19.0109C46.6715 16.6305 49.7705 17.0633 50.7312 17.4034V10.2932C49.7395 9.92221 46.1137 9.2421 44.2853 12.5808ZM52.6191 10.293H60.3976V37.3426H52.6191V10.293ZM70.5009 12.1808C71.5855 11.1916 73.5379 9.76953 76.5749 9.76953C81.998 9.76953 87.1113 14.6539 87.1423 23.619C87.1423 33.4187 82.091 37.8703 76.5439 37.8703C73.8168 37.8703 72.1743 36.7265 71.0587 35.9227L71.0277 44.6714L63.2803 46.3098V10.2642H70.098L70.5009 12.1808ZM71.0603 29.6166C71.804 30.4204 72.8887 31.0696 74.7171 31.0696C77.5681 31.0696 79.4895 27.9782 79.4895 23.8357C79.4895 19.786 77.5371 16.6328 74.7171 16.6328C72.9507 16.6328 71.835 17.2511 71.0293 18.1476L71.0603 29.6166Z" fill="#6772E5"/>
<path d="M222.587 22.3436V35.1438H218.523V3.52564H229.296C231.895 3.47035 234.406 4.4564 236.272 6.26263C238.162 7.96287 239.226 10.3957 239.184 12.9346C239.24 15.4919 238.175 17.9432 236.272 19.648C234.388 21.445 232.061 22.3436 229.296 22.3389L222.587 22.3436ZM222.587 7.41916V18.4592H229.398C230.909 18.5053 232.365 17.9109 233.416 16.8235C235.549 14.75 235.6 11.3357 233.522 9.20235C233.485 9.16549 233.452 9.12862 233.416 9.09637C232.379 7.98591 230.914 7.37769 229.398 7.41916H222.587ZM248.547 12.8056C251.552 12.8056 253.92 13.6073 255.657 15.2108C257.394 16.8143 258.26 19.0168 258.26 21.8091V35.1438H254.376V32.1396H254.201C252.519 34.6139 250.28 35.8488 247.488 35.8488C245.105 35.8488 243.11 35.1438 241.507 33.7292C239.949 32.416 239.065 30.4716 239.101 28.4303C239.101 26.191 239.949 24.4124 241.64 23.09C243.331 21.7676 245.589 21.1041 248.418 21.1041C250.828 21.1041 252.819 21.5464 254.376 22.4265V21.4957C254.385 20.1042 253.768 18.7864 252.699 17.9017C251.625 16.9341 250.225 16.4042 248.778 16.4226C246.511 16.4226 244.714 17.381 243.391 19.2932L239.816 17.0401C241.779 14.2155 244.691 12.8056 248.547 12.8056ZM243.29 28.5225C243.285 29.5731 243.788 30.5591 244.635 31.1719C245.534 31.8769 246.649 32.2547 247.792 32.2317C249.506 32.2271 251.151 31.5452 252.362 30.3333C253.708 29.0662 254.381 27.5825 254.381 25.8731C253.114 24.864 251.349 24.3571 249.082 24.3571C247.432 24.3571 246.055 24.7534 244.953 25.5505C243.843 26.3615 243.29 27.3429 243.29 28.5225ZM280.562 13.5106L267.001 44.6818H262.808L267.84 33.7753L258.919 13.5106H263.333L269.78 29.0524H269.867L276.138 13.5106H280.562Z" fill="#5F6368"/>
<path d="M206.17 19.5792C206.17 18.3397 206.069 17.1048 205.857 15.8838H188.726V22.8783H198.535C198.13 25.1361 196.821 27.1312 194.909 28.3983V32.9416H200.766C204.194 29.7853 206.17 25.1084 206.17 19.5792Z" fill="#4285F4"/>
<path d="M188.725 37.333C193.628 37.333 197.757 35.7249 200.765 32.9464L194.909 28.4032C193.278 29.5091 191.181 30.1403 188.725 30.1403C183.989 30.1403 179.966 26.9472 178.529 22.6436H172.497V27.325C175.58 33.4625 181.86 37.333 188.725 37.333Z" fill="#34A853"/>
<path d="M178.528 22.6433C177.768 20.3901 177.768 17.9434 178.528 15.6902V11.0088H172.497C169.916 16.1418 169.916 22.1917 172.497 27.3247L178.528 22.6433Z" fill="#FBBC04"/>
<path d="M188.725 8.19375C191.315 8.15228 193.817 9.12911 195.692 10.9169L200.881 5.73323C197.591 2.64606 193.236 0.95042 188.725 1.0011C181.86 1.0011 175.58 4.87619 172.497 11.0091L178.529 15.6905C179.966 11.3869 183.989 8.19375 188.725 8.19375Z" fill="#EA4335"/>
<path fill-rule="evenodd" clip-rule="evenodd" d="M415.804 33.9356C408.688 39.1967 398.339 41.9997 389.412 41.9997C376.906 41.9997 365.694 37.3855 357.156 29.7095C356.509 29.1058 357.07 28.2865 357.889 28.7608C367.074 34.1081 378.416 37.2993 390.145 37.2993C398.037 37.2993 406.748 35.6606 414.769 32.2538C415.976 31.7795 416.968 33.0732 415.804 33.9356Z" fill="#FF9900"/>
<path fill-rule="evenodd" clip-rule="evenodd" d="M418.779 30.5287C417.873 29.3644 412.742 29.9681 410.456 30.27C409.766 30.3562 409.637 29.7525 410.284 29.3212C414.38 26.432 421.065 27.2944 421.841 28.2431C422.617 29.1919 421.625 35.9191 417.787 39.1103C417.183 39.5846 416.623 39.3259 416.882 38.6791C417.744 36.5229 419.685 31.7361 418.779 30.5287Z" fill="#FF9900"/>
<path fill-rule="evenodd" clip-rule="evenodd" d="M410.586 9.05361V6.25058C410.586 5.81934 410.888 5.5606 411.276 5.5606H423.782C424.17 5.5606 424.515 5.86247 424.515 6.25058V8.62238C424.515 9.01049 424.17 9.52797 423.566 10.3904L417.098 19.6189C419.513 19.5758 422.057 19.9207 424.213 21.1282C424.687 21.3869 424.817 21.8182 424.86 22.2063V25.1818C424.86 25.6131 424.429 26.0874 423.954 25.8287C420.116 23.8019 414.985 23.5862 410.759 25.8718C410.327 26.0874 409.853 25.6562 409.853 25.2249V22.3788C409.853 21.9475 409.853 21.1713 410.327 20.4814L417.831 9.74359H411.319C410.931 9.74359 410.586 9.44172 410.586 9.05361ZM365.004 26.4324H361.21C360.865 26.3893 360.563 26.1305 360.52 25.7855V6.29371C360.52 5.90559 360.865 5.60373 361.253 5.60373H364.789C365.177 5.60373 365.436 5.90559 365.479 6.25058V8.79487H365.565C366.471 6.33682 368.239 5.17249 370.567 5.17249C372.939 5.17249 374.448 6.33682 375.483 8.79487C376.389 6.33682 378.502 5.17249 380.745 5.17249C382.34 5.17249 384.065 5.81934 385.143 7.32867C386.351 8.96736 386.092 11.3392 386.092 13.4522V25.7855C386.092 26.1737 385.747 26.4755 385.359 26.4755H381.607C381.219 26.4324 380.917 26.1305 380.917 25.7855V15.4359C380.917 14.6165 381.003 12.5466 380.831 11.7704C380.529 10.4767 379.71 10.0886 378.588 10.0886C377.683 10.0886 376.691 10.6923 376.303 11.6842C375.915 12.676 375.958 14.3147 375.958 15.4359V25.7855C375.958 26.1737 375.613 26.4755 375.225 26.4755H371.43C371.042 26.4324 370.74 26.1305 370.74 25.7855V15.4359C370.74 13.2797 371.085 10.0454 368.411 10.0454C365.694 10.0454 365.781 13.1503 365.781 15.4359V25.7855C365.738 26.1305 365.436 26.4324 365.004 26.4324ZM435.296 5.17249C440.945 5.17249 444.007 10.0023 444.007 16.169C444.007 22.12 440.643 26.8636 435.296 26.8636C429.776 26.8636 426.757 22.0338 426.757 15.9965C426.714 9.91608 429.776 5.17249 435.296 5.17249ZM435.296 9.18298C432.493 9.18298 432.32 13.021 432.32 15.3928C432.32 17.7646 432.277 22.8531 435.253 22.8531C438.185 22.8531 438.358 18.7564 438.358 16.2552C438.358 14.6166 438.271 12.6329 437.797 11.0804C437.366 9.70047 436.503 9.18298 435.296 9.18298ZM451.295 26.4324H447.5C447.112 26.3893 446.81 26.0874 446.81 25.7424V6.20745C446.853 5.86247 447.155 5.5606 447.543 5.5606H451.079C451.424 5.5606 451.683 5.81935 451.769 6.12121V9.09674H451.855C452.933 6.42308 454.4 5.17249 457.03 5.17249C458.712 5.17249 460.394 5.77622 461.472 7.45803C462.464 9.01048 462.464 11.641 462.464 13.5385V25.8287C462.421 26.1737 462.119 26.4324 461.731 26.4324H457.936C457.591 26.3893 457.289 26.1305 457.246 25.8287V15.2203C457.246 13.0641 457.504 9.95921 454.874 9.95921C453.968 9.95921 453.106 10.5629 452.675 11.5117C452.157 12.7191 452.071 13.8834 452.071 15.2203V25.7424C452.028 26.1305 451.683 26.4324 451.295 26.4324ZM400.624 17.1177C400.624 18.5839 400.668 19.8345 399.934 21.1713C399.331 22.2494 398.382 22.8963 397.304 22.8963C395.838 22.8963 394.975 21.7751 394.975 20.1364C394.975 16.9021 397.865 16.2984 400.624 16.2984V17.1177ZM404.462 26.3893C404.204 26.6049 403.859 26.648 403.557 26.4755C402.306 25.4406 402.048 24.9231 401.358 23.9312C399.288 26.0443 397.778 26.6911 395.105 26.6911C391.914 26.6911 389.412 24.7075 389.412 20.7832C389.412 17.6783 391.094 15.6084 393.466 14.5734C395.536 13.6678 398.425 13.4953 400.624 13.2366V12.7622C400.624 11.8566 400.711 10.7786 400.15 10.0023C399.676 9.31236 398.813 9.01048 398.037 9.01048C396.571 9.01048 395.277 9.74359 394.975 11.296C394.889 11.641 394.673 11.986 394.328 11.986L390.663 11.5979C390.361 11.5117 390.016 11.296 390.102 10.8217C390.965 6.33683 394.975 5 398.598 5C400.452 5 402.867 5.47436 404.333 6.89743C406.187 8.62238 406.015 10.9511 406.015 13.4522V19.3601C406.015 21.1282 406.748 21.9044 407.438 22.8963C407.697 23.2413 407.74 23.6725 407.438 23.8881C406.619 24.535 405.239 25.7424 404.462 26.3893ZM350.817 17.1177C350.817 18.5839 350.86 19.8345 350.127 21.1713C349.523 22.2494 348.574 22.8963 347.496 22.8963C346.03 22.8963 345.168 21.7751 345.168 20.1364C345.168 16.9021 348.057 16.2984 350.817 16.2984V17.1177ZM354.612 26.3893C354.353 26.6049 354.008 26.648 353.706 26.4755C352.455 25.4406 352.197 24.9231 351.507 23.9312C349.437 26.0443 347.927 26.6911 345.254 26.6911C342.063 26.6911 339.562 24.7075 339.562 20.7832C339.562 17.6783 341.243 15.6084 343.615 14.5734C345.685 13.6678 348.574 13.4953 350.774 13.2366V12.7622C350.774 11.8566 350.86 10.7786 350.299 10.0023C349.825 9.31236 348.962 9.01048 348.186 9.01048C346.72 9.01048 345.426 9.74359 345.124 11.296C345.038 11.641 344.823 11.986 344.478 11.986L340.812 11.5979C340.51 11.5117 340.165 11.296 340.252 10.8217C341.114 6.33683 345.124 5 348.747 5C350.601 5 353.016 5.47436 354.482 6.89743C356.337 8.62238 356.164 10.9511 356.164 13.4522V19.3601C356.164 21.1282 356.897 21.9044 357.587 22.8963C357.846 23.2413 357.889 23.6725 357.587 23.8881C356.768 24.535 355.388 25.7424 354.612 26.3893Z" fill="black"/>
<path d="M560.32 39.3137L565.884 6.66699H574.782L569.215 39.3137H560.32Z" fill="#0E4595"/>
<path d="M601.363 7.37115C599.601 6.70976 596.838 6 593.388 6C584.595 6 578.402 10.4278 578.349 16.7738C578.3 21.4647 582.771 24.0816 586.146 25.6432C589.61 27.2437 590.774 28.2641 590.758 29.6928C590.735 31.8813 587.992 32.8807 585.434 32.8807C581.872 32.8807 579.98 32.3859 577.058 31.1674L575.911 30.6484L574.662 37.9566C576.741 38.8681 580.584 39.6574 584.575 39.6985C593.929 39.6985 600.001 35.3212 600.07 28.5445C600.103 24.8306 597.732 22.0046 592.599 19.6745C589.488 18.1643 587.584 17.1565 587.604 15.6273C587.604 14.2703 589.216 12.8192 592.7 12.8192C595.61 12.774 597.718 13.4086 599.36 14.07L600.157 14.4467L601.363 7.37115Z" fill="#0E4595"/>
<path d="M624.262 6.66699H617.386C615.256 6.66699 613.662 7.24834 612.726 9.37428L599.511 39.2925H608.855C608.855 39.2925 610.383 35.2699 610.728 34.3866C611.749 34.3866 620.827 34.4006 622.124 34.4006C622.39 35.5436 623.207 39.2925 623.207 39.2925H631.464L624.262 6.66699ZM613.352 27.7476C614.088 25.8666 616.898 18.6215 616.898 18.6215C616.845 18.7084 617.628 16.7313 618.077 15.5056L618.679 18.3203C618.679 18.3203 620.383 26.1131 620.739 27.7471H613.352V27.7476Z" fill="#0E4595"/>
<path d="M521.578 6.66699L521.464 7.34611C524.981 8.19762 528.123 9.43005 530.874 10.9632L538.769 39.2613L548.184 39.2509L562.193 6.66699H552.767L544.055 28.9296L543.127 24.4051C543.084 24.2653 543.036 24.1253 542.988 23.985L539.96 9.4232C539.421 7.35596 537.859 6.73904 535.926 6.66699H521.578Z" fill="#0E4595"/>
</svg>
