<svg width="329" height="286" viewBox="0 0 329 286" fill="none" xmlns="http://www.w3.org/2000/svg">
<path d="M185.393 28.001H151.748V70.4726H185.393V28.001Z" fill="#F5D9CB"/>
<path d="M171.117 69.5186H166.45V70.6517H171.117V69.5186Z" fill="#E0E0E0"/>
<path d="M169.648 42.6206L163.452 43.5301L161.141 49.3526L165.025 54.2655L171.221 53.3559L173.532 47.5335L169.648 42.6206Z" fill="#F3CAB5"/>
<path d="M172.547 46.3848L166.352 47.2943L164.034 53.1093L167.918 58.0296L174.12 57.1201L176.432 51.2977L172.547 46.3848Z" fill="#FAFAFA"/>
<path d="M171.78 27.4268H167.113V28.3959H171.78V27.4268Z" fill="#F3CAB5"/>
<path d="M227.969 45.2002H205.112V94.1205H227.969V45.2002Z" fill="#EFF5FF"/>
<path d="M256.999 97.542H228.916V144.807H256.999V97.542Z" fill="#EFF5FF"/>
<path d="M260.414 44.3578H287.081V0.961708H288.027V44.3578H312.711V0H260.414V44.3578Z" fill="#EFF5FF"/>
<path d="M227.969 97.542H205.112V144.807H227.969V97.542Z" fill="#EFF5FF"/>
<path d="M312.704 97.542H288.027V144.807H312.704V97.542Z" fill="#EFF5FF"/>
<path d="M256.999 45.2002H228.916V94.1205H256.999V45.2002Z" fill="#EFF5FF"/>
<path d="M312.704 45.2002H288.027V94.1205H312.704V45.2002Z" fill="#EFF5FF"/>
<path d="M227.969 145.659H205.112V188.25H227.969V145.659Z" fill="#EFF5FF"/>
<path d="M227.962 44.3578V0.961708H228.916V44.3578H256.999V0H205.112V44.3578H227.962Z" fill="#EFF5FF"/>
<path d="M256.999 145.659H228.916V188.25H256.999V145.659Z" fill="#EFF5FF"/>
<path d="M312.704 145.659H288.027V188.25H312.704V145.659Z" fill="#EFF5FF"/>
<path d="M287.081 45.2002H260.414V94.1205H287.081V45.2002Z" fill="#EFF5FF"/>
<path d="M287.081 145.659H260.414V188.25H287.081V145.659Z" fill="#EFF5FF"/>
<path d="M287.081 97.542H260.414V144.807H287.081V97.542Z" fill="#EFF5FF"/>
<path d="M51.1641 45.2002H28.3068V94.1205H51.1641V45.2002Z" fill="#EFF5FF"/>
<path d="M80.1936 97.542H52.1103V144.807H80.1936V97.542Z" fill="#F4E5DD"/>
<path d="M83.6087 44.3578H110.276V0.961708H111.23V44.3578H135.906V0H83.6087V44.3578Z" fill="#EFF5FF"/>
<path d="M51.1641 97.542H28.3068V144.807H51.1641V97.542Z" fill="#EFF5FF"/>
<path d="M135.906 97.542H111.23V144.807H135.906V97.542Z" fill="#EFF5FF"/>
<path d="M80.1936 45.2002H52.1103V94.1205H80.1936V45.2002Z" fill="#EFF5FF"/>
<path d="M135.906 45.2002H111.23V94.1205H135.906V45.2002Z" fill="#EFF5FF"/>
<path d="M51.1641 145.659H28.3068V188.25H51.1641V145.659Z" fill="#EFF5FF"/>
<path d="M51.164 44.3578V0.961708H52.1108V44.3578H80.1941V0H28.3067V44.3578H51.164Z" fill="#EFF5FF"/>
<path d="M80.1936 145.659H52.1103V188.25H80.1936V145.659Z" fill="#EFF5FF"/>
<path d="M135.906 145.659H111.23V188.25H135.906V145.659Z" fill="#EFF5FF"/>
<path d="M110.276 45.2002H83.6087V94.1205H110.276V45.2002Z" fill="#EFF5FF"/>
<path d="M110.276 145.659H83.6087V188.25H110.276V145.659Z" fill="#EFF5FF"/>
<path d="M110.276 97.542H83.6087V144.807H110.276V97.542Z" fill="#F4E5DD"/>
<path d="M259.019 263.673V285.583H291.061H326.398V263.673H259.019Z" fill="#EDC486"/>
<path d="M256.193 257.546V263.674H328.754V257.546H291.061H256.193Z" fill="#CB9C55"/>
<path d="M292.478 285.584H326.399V263.673H328.755V257.545H291.062V263.107L292.478 285.584Z" fill="#CB9C55"/>
<path d="M282.115 267.207H268.45V270.502H282.115V267.207Z" fill="#FFDCA8"/>
<path d="M284.24 274.625H266.691V281.588H284.24V274.625Z" fill="#FFDCA8"/>
<path d="M275.667 233.353L275.57 225.123L304.429 227.59L305.331 235.739L275.667 233.353Z" fill="#FAE0D4"/>
<path d="M281.897 228.863L281.771 230.341L299.821 231.886L299.947 230.407L281.897 228.863Z" fill="#F3C3AA"/>
<path d="M272.23 225.533L272.215 217.295L301.051 220.076L301.782 227.442L272.23 225.533Z" fill="#F0D1C2"/>
<path d="M272.223 218.42L272.208 223.974L300.299 226.047L299.829 220.918L272.223 218.42Z" fill="white"/>
<path d="M298.166 223.057C297.827 223.089 297.485 223.089 297.145 223.057L294.387 222.841C292.053 222.64 288.84 222.342 285.284 221.984C281.728 221.626 278.522 221.276 276.196 221.007L273.445 220.664C273.107 220.641 272.772 220.581 272.446 220.485C272.784 220.454 273.123 220.454 273.46 220.485L276.219 220.702C278.552 220.903 281.773 221.209 285.321 221.566C288.87 221.924 292.091 222.267 294.417 222.543L297.168 222.878C297.506 222.902 297.841 222.962 298.166 223.057Z" fill="#F4E5DD"/>
<path d="M298.106 223.751C297.767 223.788 297.424 223.788 297.085 223.751L294.289 223.616C291.941 223.49 288.69 223.288 285.104 223.035C281.518 222.781 278.268 222.535 275.92 222.341L273.146 222.088C272.804 222.072 272.465 222.022 272.132 221.939C272.472 221.902 272.814 221.902 273.154 221.939L275.942 222.073C278.298 222.2 281.548 222.409 285.134 222.655C288.72 222.901 291.963 223.154 294.311 223.355L297.092 223.609C297.434 223.626 297.773 223.673 298.106 223.751Z" fill="#F4E5DD"/>
<path d="M276.002 240.95L275.89 232.712L304.757 235.157L305.577 242.508L276.002 240.95Z" fill="#F0D1C2"/>
<path d="M279.178 241.122C278.937 239.783 278.82 238.426 278.828 237.066C278.707 235.711 278.719 234.348 278.865 232.996C279.108 234.334 279.225 235.691 279.216 237.051C279.337 238.406 279.324 239.769 279.178 241.122Z" fill="#F4E5DD"/>
<path d="M280.266 233.093C280.486 234.43 280.581 235.786 280.55 237.141C280.639 238.493 280.604 239.851 280.445 241.196C280.217 239.86 280.122 238.504 280.162 237.148C280.068 235.796 280.103 234.438 280.266 233.093Z" fill="#F4E5DD"/>
<path d="M282.891 236.708C287.923 237.267 293.842 237.58 298.956 238.035L282.891 236.708Z" fill="white"/>
<path d="M298.956 238.035C298.168 238.082 297.378 238.062 296.593 237.975C295.102 237.901 293.126 237.774 290.905 237.61C288.683 237.446 286.678 237.26 285.231 237.081C284.441 237.032 283.657 236.907 282.891 236.708C283.68 236.684 284.47 236.719 285.254 236.812L290.935 237.222C293.171 237.386 295.162 237.55 296.615 237.707C297.404 237.75 298.187 237.86 298.956 238.035Z" fill="#F4E5DD"/>
<path d="M301.059 242.277C300.813 241.065 300.688 239.831 300.686 238.594C300.558 237.355 300.558 236.106 300.686 234.867C300.937 236.078 301.062 237.312 301.059 238.55C301.196 239.788 301.196 241.038 301.059 242.277Z" fill="#F4E5DD"/>
<path d="M302.84 242.367C302.334 239.937 302.084 237.461 302.095 234.979C302.411 236.181 302.598 237.413 302.654 238.654C302.843 239.882 302.906 241.126 302.84 242.367Z" fill="#F4E5DD"/>
<path d="M287.148 238.556C290.323 238.772 292.746 238.929 295.281 238.989L287.148 238.556Z" fill="white"/>
<path d="M295.348 238.989C292.629 239.103 289.906 238.959 287.214 238.556C288.57 238.425 289.936 238.425 291.292 238.556C292.655 238.573 294.012 238.718 295.348 238.989Z" fill="#F4E5DD"/>
<path d="M277.933 257.038L277.397 248.815L306.345 249.732L307.552 257.031L277.933 257.038Z" fill="#F0D1C1"/>
<path d="M279.081 256.002L307.254 255.599L306.471 250.485L278.552 249.963L279.081 256.002Z" fill="white"/>
<path d="M278.724 248.979L278.455 240.741L307.366 242.627L308.328 249.963L278.724 248.979Z" fill="#F4E5DD"/>
<path d="M284.84 244.337L284.744 245.818L302.822 246.993L302.918 245.513L284.84 244.337Z" fill="#F3C3AA"/>
<path d="M306.762 252.587C306.395 252.649 306.023 252.676 305.651 252.669L302.669 252.744C300.127 252.789 296.608 252.826 292.724 252.841C288.84 252.856 285.328 252.841 282.779 252.841L279.797 252.789C279.428 252.799 279.058 252.777 278.693 252.721C279.058 252.659 279.427 252.632 279.797 252.639L282.779 252.565C285.321 252.52 288.84 252.49 292.724 252.468C296.608 252.446 300.127 252.468 302.669 252.468L305.688 252.52C306.047 252.512 306.407 252.534 306.762 252.587Z" fill="#F0D1C1"/>
<path d="M307.09 254.182C306.723 254.242 306.351 254.262 305.979 254.242H302.938C300.38 254.242 296.839 254.242 292.925 254.16C289.011 254.078 285.47 254.033 282.913 253.966L279.879 253.862C279.507 253.869 279.134 253.839 278.768 253.772C279.136 253.718 279.508 253.698 279.879 253.713H282.913C285.478 253.713 289.019 253.713 292.933 253.795C296.847 253.877 300.388 253.921 302.945 253.989L305.979 254.093C306.351 254.095 306.723 254.125 307.09 254.182Z" fill="#F0D1C1"/>
<path d="M320.822 285.593C320.822 285.705 249 285.787 160.419 285.787C71.8373 285.787 0 285.705 0 285.593C0 285.481 71.8074 285.399 160.419 285.399C249.03 285.399 320.822 285.488 320.822 285.593Z" fill="#263238"/>
<path d="M24.7276 193.031C20.7839 193.664 19.017 198.51 19.36 202.491C19.7029 206.472 21.343 210.364 20.9032 214.337C20.3515 219.377 16.5345 223.641 16.0946 228.696C15.5728 234.66 19.8222 239.946 21.0448 245.798C21.6561 248.646 21.5741 251.65 22.6327 254.364C23.5356 256.672 25.2109 258.596 27.3731 259.807C29.5354 261.019 32.0509 261.443 34.491 261.008C36.9311 260.573 39.1447 259.305 40.7548 257.42C42.3648 255.536 43.2716 253.152 43.3206 250.673C43.4026 246.096 40.5846 241.78 40.9275 237.217C41.181 233.84 43.1641 230.642 42.7317 227.287C42.2247 223.291 38.527 220.458 37.2224 216.648C35.9177 212.839 37.1702 208.642 36.7154 204.638C35.9103 197.459 31.9069 192.449 24.7276 193.031Z" fill="#2EC109"/>
<path d="M4.55452 227.794C3.85375 234.444 6.83579 242.272 10.2502 248.012C13.7199 253.797 18.9426 258.325 25.1604 260.939C25.8537 261.23 26.7185 261.469 27.3075 260.999C27.5145 260.77 27.6702 260.499 27.7641 260.204C27.8579 259.91 27.8878 259.599 27.8517 259.292C27.8968 252.23 25.6526 245.343 21.4554 239.663C17.2581 233.984 11.3337 229.817 4.56944 227.787" fill="#2EC109"/>
<g opacity="0.1">
<path d="M4.55402 227.794C3.85324 234.444 6.83528 242.271 10.2497 248.012C13.7194 253.796 18.9421 258.324 25.1599 260.939C25.8532 261.23 26.718 261.468 27.307 260.999C27.514 260.769 27.6697 260.498 27.7636 260.204C27.8574 259.909 27.8873 259.598 27.8512 259.291C27.8963 252.229 25.6521 245.343 21.4549 239.663C17.2576 233.983 11.3331 229.816 4.56893 227.786" fill="black"/>
</g>
<path d="M33.5396 274.85C33.4597 274.737 33.3945 274.614 33.3457 274.485C33.2264 274.194 33.0624 273.836 32.8761 273.396C32.4735 272.442 31.8771 271.078 31.1167 269.393C29.6256 266.038 27.3444 261.468 24.5114 256.607C22.0802 252.467 19.4428 248.451 16.609 244.575C15.5206 243.084 14.6185 241.898 13.9923 241.086L13.2468 240.132C13.0828 239.915 13.0008 239.796 13.0157 239.789C13.1208 239.88 13.218 239.979 13.3064 240.087L14.0519 240.989C14.7229 241.779 15.6548 242.95 16.7731 244.418C19.6782 248.258 22.3542 252.266 24.7873 256.421C27.2133 260.578 29.3915 264.874 31.3105 269.288C32.056 270.981 32.6002 272.367 32.9581 273.336L33.3681 274.455C33.4378 274.581 33.4952 274.713 33.5396 274.85Z" fill="#263238"/>
<path d="M29.253 211.43C29.2947 211.641 29.3196 211.855 29.3275 212.071C29.3574 212.523 29.4021 213.134 29.4617 213.905C29.5661 215.53 29.7152 217.826 29.8941 220.614C30.252 226.31 30.7589 234.168 31.3852 242.853C32.0114 251.538 32.6003 259.388 33.0402 265.077C33.2564 267.895 33.4278 270.183 33.5546 271.786C33.6068 272.532 33.644 273.165 33.6813 273.613C33.6995 273.826 33.6995 274.04 33.6813 274.254C33.632 274.045 33.5996 273.834 33.5844 273.62C33.5397 273.173 33.4726 272.561 33.3906 271.794C33.2415 270.168 33.0253 267.88 32.7569 265.084C32.2499 259.403 31.6013 251.546 30.99 242.86C30.3787 234.175 29.9463 226.392 29.6257 220.659C29.499 217.834 29.3872 215.537 29.3126 213.912C29.3126 213.167 29.2679 212.526 29.253 212.078C29.2383 211.862 29.2383 211.646 29.253 211.43Z" fill="#263238"/>
<path d="M23.132 265.367H39.7942V277.601C39.7942 279.721 38.9522 281.753 37.4534 283.252C35.9547 284.751 33.9219 285.593 31.8023 285.593C29.7549 285.594 27.785 284.81 26.2983 283.402C24.8115 281.995 23.9211 280.07 23.8105 278.026L23.132 265.367Z" fill="#455A64"/>
<path d="M240.12 164.731C239.193 164.046 238.05 163.717 236.9 163.807C236.9 163.18 236.9 162.8 236.9 162.8H219.306C219.306 162.8 218.754 174.408 227.641 174.818C231.622 175.004 233.895 173.223 235.2 170.979C235.855 171.134 236.525 171.216 237.198 171.225C238.18 171.268 239.15 170.993 239.964 170.442C240.412 170.091 240.767 169.636 240.998 169.116C241.23 168.596 241.33 168.027 241.291 167.46C241.315 166.946 241.223 166.433 241.02 165.961C240.817 165.488 240.51 165.067 240.12 164.731ZM238.913 169.048C238.167 169.607 236.818 169.525 235.931 169.368C236.373 168.134 236.661 166.849 236.788 165.544C237.559 165.455 238.336 165.637 238.987 166.058C239.178 166.235 239.326 166.453 239.419 166.696C239.512 166.939 239.548 167.201 239.524 167.46C239.559 167.754 239.521 168.053 239.415 168.329C239.308 168.606 239.136 168.852 238.913 169.048Z" fill="#FF826E"/>
<path d="M231.734 161.742C231.822 161.611 231.873 161.459 231.883 161.302C231.856 161.077 231.774 160.863 231.644 160.678C231.514 160.494 231.34 160.344 231.137 160.243C230.841 160.099 230.528 159.992 230.205 159.923C229.799 159.834 229.416 159.661 229.08 159.416C228.894 159.254 228.746 159.053 228.647 158.827C228.548 158.602 228.5 158.357 228.506 158.111C228.507 157.568 228.659 157.036 228.946 156.575C229.549 155.599 230.638 154.98 231.406 154.011C231.792 153.481 232.05 152.868 232.16 152.221C232.27 151.575 232.229 150.911 232.039 150.283C231.854 149.601 231.497 148.977 231.003 148.472C230.443 147.978 229.809 147.576 229.125 147.279C228.36 146.964 227.679 146.477 227.134 145.855C226.874 145.506 226.696 145.104 226.612 144.677C226.513 144.228 226.573 143.759 226.784 143.35C226.901 143.139 227.067 142.96 227.268 142.828L227.469 143.164C226.831 143.561 226.327 144.143 226.025 144.832C225.723 145.521 225.636 146.286 225.777 147.025C225.898 147.727 226.244 148.37 226.761 148.859C227.343 149.305 227.858 149.832 228.29 150.425C228.472 150.758 228.56 151.134 228.543 151.513C228.532 151.889 228.432 152.257 228.252 152.587C227.923 153.171 227.458 153.668 226.895 154.033C225.814 154.719 224.704 155.062 223.876 155.688C223.502 155.955 223.19 156.3 222.963 156.699C222.735 157.098 222.596 157.542 222.557 157.999C222.486 158.697 222.608 159.4 222.907 160.034C223.18 160.569 223.57 161.035 224.048 161.399L223.936 161.347C223.834 161.289 223.737 161.224 223.645 161.153C223.28 160.871 222.983 160.512 222.773 160.102C222.436 159.447 222.289 158.711 222.348 157.977C222.38 157.515 222.504 157.063 222.713 156.65C222.956 156.189 223.297 155.786 223.712 155.472C224.569 154.801 225.71 154.428 226.694 153.772C227.205 153.427 227.629 152.968 227.932 152.43C228.087 152.158 228.169 151.849 228.169 151.536C228.169 151.222 228.087 150.914 227.932 150.641C227.504 150.079 227.003 149.578 226.441 149.15C225.863 148.606 225.483 147.884 225.36 147.1C225.205 146.283 225.302 145.437 225.637 144.676C225.973 143.915 226.531 143.273 227.238 142.836L227.432 143.171C227.286 143.269 227.163 143.399 227.074 143.551C226.938 143.898 226.896 144.275 226.954 144.643C227.011 145.012 227.166 145.358 227.402 145.646C227.913 146.216 228.545 146.664 229.251 146.958C229.971 147.273 230.635 147.701 231.219 148.226C231.756 148.777 232.141 149.457 232.338 150.201C232.531 150.882 232.564 151.598 232.435 152.294C232.305 152.99 232.017 153.646 231.592 154.212C230.75 155.233 229.676 155.83 229.117 156.717C228.558 157.604 228.506 158.722 229.154 159.252C229.803 159.781 230.645 159.766 231.152 160.109C231.37 160.226 231.553 160.397 231.684 160.606C231.814 160.816 231.888 161.055 231.898 161.302C231.891 161.429 231.847 161.55 231.771 161.652C231.771 161.719 231.741 161.742 231.734 161.742Z" fill="#263238"/>
<path d="M122.062 69.6899H36.276C34.9461 69.6899 33.868 70.768 33.868 72.0979V92.6814C33.868 94.0113 34.9461 95.0894 36.276 95.0894H122.062C123.392 95.0894 124.47 94.0113 124.47 92.6814V72.0979C124.47 70.768 123.392 69.6899 122.062 69.6899Z" fill="#747474"/>
<path d="M52.9682 86.628C52.2848 87.4783 51.3648 88.1069 50.3243 88.4343C49.2838 88.7618 48.1696 88.7735 47.1225 88.4679C46.0754 88.1623 45.1424 87.5531 44.4414 86.7174C43.7404 85.8817 43.3028 84.8569 43.1841 83.7726C43.0654 82.6883 43.2707 81.5931 43.7742 80.6255C44.2778 79.6578 45.0568 78.8612 46.013 78.3362C46.9691 77.8112 48.0595 77.5815 49.1462 77.676C50.2329 77.7706 51.2671 78.1851 52.1183 78.8673C52.6841 79.3208 53.1549 79.8813 53.5039 80.5169C53.8529 81.1525 54.0731 81.8507 54.1521 82.5715C54.231 83.2923 54.1671 84.0216 53.9639 84.7176C53.7608 85.4137 53.4224 86.0629 52.9682 86.628Z" fill="white"/>
<path d="M51.7681 81.2974C50.8685 82.4431 49.8707 83.5083 48.786 84.4807C48.5325 84.7193 48.2865 84.9504 48.0405 85.1815L47.9063 85.3157L47.7721 85.1815C46.9451 84.4258 46.1958 83.5891 45.5356 82.684C46.4407 83.3442 47.2774 84.0935 48.0331 84.9205H47.7647L48.5102 84.175C49.5097 83.1221 50.5998 82.1592 51.7681 81.2974Z" fill="#FF681A"/>
<path d="M115.636 80.5298C115.636 80.6341 104.118 80.7236 89.9084 80.7236C75.699 80.7236 64.1883 80.6341 64.1883 80.5298C64.1883 80.4254 75.699 80.3359 89.9084 80.3359C104.118 80.3359 115.636 80.4179 115.636 80.5298Z" fill="white"/>
<path d="M94.5302 85.5542C94.5302 85.6586 87.8728 85.748 79.6648 85.748C71.4567 85.748 64.7546 85.6586 64.7546 85.5542C64.7546 85.4498 71.412 85.3604 79.6648 85.3604C87.9175 85.3604 94.5302 85.4796 94.5302 85.5542Z" fill="white"/>
<path d="M122.062 98.7422H36.2759C34.946 98.7422 33.8679 99.8203 33.8679 101.15V121.734C33.8679 123.064 34.946 124.142 36.2759 124.142H122.062C123.392 124.142 124.47 123.064 124.47 121.734V101.15C124.47 99.8203 123.392 98.7422 122.062 98.7422Z" fill="#747474"/>
<path d="M52.9682 115.68C52.2848 116.531 51.3648 117.159 50.3243 117.487C49.2838 117.814 48.1696 117.826 47.1225 117.52C46.0754 117.215 45.1424 116.605 44.4414 115.77C43.7404 114.934 43.3028 113.909 43.1841 112.825C43.0654 111.741 43.2707 110.645 43.7742 109.678C44.2778 108.71 45.0568 107.913 46.013 107.388C46.9691 106.863 48.0595 106.634 49.1462 106.728C50.2329 106.823 51.2671 107.237 52.1183 107.92C53.2593 108.837 53.9896 110.169 54.149 111.624C54.3083 113.079 53.8836 114.538 52.9682 115.68Z" fill="white"/>
<path d="M51.7681 110.358C50.8694 111.502 49.8715 112.565 48.786 113.534L48.0405 114.279L47.9063 114.406L47.7721 114.272C46.9451 113.516 46.1958 112.679 45.5356 111.774C46.4391 112.437 47.2756 113.186 48.0331 114.011H47.7647L48.5102 113.265C49.506 112.2 50.5964 111.227 51.7681 110.358Z" fill="#FF681A"/>
<path d="M115.636 109.582C115.636 109.694 104.118 109.776 89.9084 109.776C75.699 109.776 64.1883 109.694 64.1883 109.582C64.1883 109.47 75.699 109.388 89.9084 109.388C104.118 109.388 115.636 109.478 115.636 109.582Z" fill="white"/>
<path d="M94.5302 114.607C94.5302 114.719 87.8728 114.801 79.6648 114.801C71.4567 114.801 64.7546 114.719 64.7546 114.607C64.7546 114.495 71.412 114.413 79.6648 114.413C87.9175 114.413 94.5302 114.503 94.5302 114.607Z" fill="white"/>
<path d="M122.062 127.802H36.2759C34.946 127.802 33.8679 128.88 33.8679 130.21V150.794C33.8679 152.124 34.946 153.202 36.2759 153.202H122.062C123.392 153.202 124.47 152.124 124.47 150.794V130.21C124.47 128.88 123.392 127.802 122.062 127.802Z" fill="#747474"/>
<path d="M52.9682 144.74C52.2848 145.591 51.3648 146.219 50.3243 146.547C49.2838 146.874 48.1696 146.886 47.1225 146.58C46.0754 146.275 45.1424 145.665 44.4414 144.83C43.7404 143.994 43.3028 142.969 43.1841 141.885C43.0654 140.801 43.2707 139.705 43.7742 138.738C44.2778 137.77 45.0568 136.974 46.013 136.449C46.9691 135.924 48.0595 135.694 49.1462 135.788C50.2329 135.883 51.2671 136.297 52.1183 136.98C52.6841 137.433 53.1549 137.994 53.5039 138.629C53.8529 139.265 54.0731 139.963 54.1521 140.684C54.231 141.405 54.1671 142.134 53.9639 142.83C53.7608 143.526 53.4224 144.175 52.9682 144.74Z" fill="white"/>
<path d="M51.7681 139.41C50.8729 140.56 49.8748 141.625 48.786 142.593L48.0405 143.294L47.9063 143.428L47.7721 143.294C46.9451 142.539 46.1958 141.702 45.5356 140.797C46.4407 141.457 47.2774 142.206 48.0331 143.033H47.7647L48.5102 142.288C49.5097 141.235 50.5998 140.272 51.7681 139.41Z" fill="#FF681A"/>
<path d="M115.636 138.643C115.636 138.747 104.118 138.836 89.9084 138.836C75.699 138.836 64.1883 138.747 64.1883 138.643C64.1883 138.538 75.699 138.449 89.9084 138.449C104.118 138.449 115.636 138.538 115.636 138.643Z" fill="white"/>
<path d="M94.5302 143.667C94.5302 143.771 87.8728 143.861 79.6648 143.861C71.4567 143.861 64.7546 143.771 64.7546 143.667C64.7546 143.563 71.412 143.473 79.6648 143.473C87.9175 143.473 94.5302 143.563 94.5302 143.667Z" fill="white"/>
<path d="M175.821 223.981L174.397 285.582H171.684L171.855 224.138L175.821 223.981Z" fill="#263238"/>
<path d="M185.639 223.295L198.85 285.582H201.877L190.88 223.295H185.639Z" fill="#263238"/>
<path d="M160.873 223.98L146.254 285.581H143.227L156.49 223.727L160.873 223.98Z" fill="#263238"/>
<path d="M202.793 156.258C202.793 156.258 219.537 155.304 217.867 174.68C216.197 194.055 215.236 213.707 209.011 220.417C202.786 227.126 140.103 227.357 134.84 221.856C129.577 216.354 144.889 216.592 147.76 216.592C150.63 216.592 168.336 218.262 174.076 203.173C179.817 188.084 178.385 155.304 202.793 156.258Z" fill="#1F1F1F"/>
<path d="M203.867 156.303C203.867 156.303 216.667 158.927 215.474 172.324C214.282 185.721 210.927 209.175 204.702 215.154C198.477 221.133 174.136 222.437 160.918 221.617C145.605 220.656 135.944 217.741 135.944 217.741C135.944 217.741 133.148 219.537 133.99 220.723C134.833 221.908 142.303 226.538 178.497 225.762C214.692 224.987 212.179 219.649 213.678 213.834C215.176 208.019 218.337 176.902 217.897 170.065C217.458 163.229 214.013 157.466 203.867 156.303Z" fill="#5A5A5A"/>
<path d="M167.904 99.4431C169.918 98.7487 172.105 98.7376 174.127 99.4114C176.148 100.085 177.891 101.406 179.086 103.171C180.704 105.676 181.084 108.822 182.732 111.304C183.902 113.056 185.632 114.346 187.063 115.897C188.495 117.447 189.665 119.497 189.3 121.577C188.957 123.523 187.309 125.253 187.637 127.206C187.95 129.032 189.874 130.225 190.284 132.044C190.724 134.184 188.666 136.182 186.504 136.517C184.342 136.853 182.195 136.018 180.16 135.213C178.125 134.408 175.963 133.602 173.808 133.99C171.311 134.445 169.395 136.406 167.21 137.718C164.907 139.034 162.271 139.65 159.623 139.493C156.976 139.335 154.431 138.41 152.3 136.83C150.66 135.571 149.221 133.617 149.624 131.612C149.997 129.718 151.86 128.406 152.352 126.55C153.143 123.791 150.861 120.973 151.197 118.118C151.659 114.286 156.415 112.534 158.115 109.075C158.943 107.413 159.017 105.474 159.74 103.767C160.464 102.06 162.372 100.539 164.072 101.27" fill="#263238"/>
<path d="M166.293 134.318C166.539 132.953 166.1 127.213 166.1 127.213C166.1 127.213 161.015 126.572 160.792 121.376C160.568 116.179 161.09 104.229 161.09 104.229L170.461 99.7559L178.661 109.075L178.818 134.265L166.293 134.318Z" fill="#FFBE9D"/>
<path d="M161.753 113.392C161.755 113.519 161.793 113.643 161.865 113.749C161.936 113.854 162.037 113.936 162.155 113.984C162.273 114.033 162.402 114.045 162.527 114.021C162.652 113.996 162.767 113.935 162.858 113.845C162.948 113.756 163.01 113.642 163.036 113.517C163.063 113.393 163.051 113.263 163.004 113.145C162.957 113.026 162.876 112.925 162.772 112.852C162.667 112.779 162.544 112.739 162.417 112.736C162.242 112.736 162.074 112.805 161.95 112.928C161.826 113.05 161.755 113.217 161.753 113.392Z" fill="#263238"/>
<path d="M161.336 112.229C161.418 112.318 161.91 111.908 162.603 111.878C163.296 111.849 163.818 112.206 163.893 112.109C163.967 112.013 163.848 111.908 163.617 111.744C163.314 111.533 162.951 111.429 162.583 111.446C162.215 111.464 161.863 111.603 161.582 111.841C161.365 112.02 161.298 112.191 161.336 112.229Z" fill="#263238"/>
<path d="M169.358 113.391C169.348 113.482 169.357 113.573 169.385 113.66C169.413 113.747 169.459 113.826 169.52 113.894C169.581 113.962 169.655 114.016 169.738 114.053C169.821 114.09 169.911 114.109 170.002 114.109C170.093 114.109 170.183 114.09 170.267 114.053C170.35 114.016 170.424 113.962 170.485 113.894C170.546 113.826 170.592 113.747 170.62 113.66C170.648 113.573 170.657 113.482 170.647 113.391C170.657 113.301 170.648 113.209 170.62 113.123C170.592 113.036 170.546 112.956 170.485 112.889C170.424 112.821 170.35 112.767 170.267 112.73C170.183 112.693 170.093 112.673 170.002 112.673C169.911 112.673 169.821 112.693 169.738 112.73C169.655 112.767 169.581 112.821 169.52 112.889C169.459 112.956 169.413 113.036 169.385 113.123C169.357 113.209 169.348 113.301 169.358 113.391Z" fill="#263238"/>
<path d="M169.059 112.363C169.141 112.453 169.633 112.042 170.327 112.013C171.02 111.983 171.542 112.341 171.616 112.244C171.691 112.147 171.572 112.042 171.34 111.878C171.04 111.669 170.678 111.564 170.312 111.58C169.943 111.598 169.59 111.734 169.305 111.968C169.097 112.154 169.022 112.318 169.059 112.363Z" fill="#263238"/>
<path d="M166.443 118.357C166.075 118.247 165.693 118.19 165.309 118.185C165.13 118.185 164.959 118.141 164.929 118.014C164.913 117.816 164.951 117.617 165.041 117.44C165.198 116.978 165.369 116.486 165.54 115.949C166.008 114.695 166.384 113.41 166.666 112.102C166.102 113.307 165.631 114.553 165.257 115.83C165.093 116.351 164.929 116.843 164.773 117.321C164.669 117.555 164.643 117.816 164.698 118.066C164.722 118.132 164.761 118.191 164.813 118.238C164.866 118.285 164.928 118.318 164.996 118.335C165.095 118.348 165.196 118.348 165.294 118.335C165.674 118.397 166.061 118.405 166.443 118.357Z" fill="#263238"/>
<path d="M166.099 127.229C168.506 127.15 170.837 126.373 172.809 124.992C172.809 124.992 171.229 128.779 166.159 128.474L166.099 127.229Z" fill="#EB996E"/>
<path d="M166.696 120.191C166.739 119.972 166.834 119.766 166.975 119.592C167.115 119.418 167.296 119.28 167.501 119.192C167.643 119.128 167.797 119.094 167.952 119.094C168.108 119.094 168.262 119.128 168.403 119.192C168.54 119.26 168.652 119.367 168.725 119.501C168.799 119.634 168.829 119.786 168.813 119.938C168.771 120.112 168.678 120.269 168.545 120.389C168.412 120.508 168.245 120.585 168.068 120.609C167.721 120.654 167.368 120.629 167.032 120.534C166.937 120.519 166.846 120.486 166.763 120.437C166.723 120.411 166.69 120.375 166.671 120.331C166.651 120.287 166.644 120.239 166.651 120.191" fill="#EB996E"/>
<path d="M168.425 118.335C168.47 118.335 168.552 118.521 168.529 118.856C168.488 119.306 168.284 119.724 167.955 120.034C167.63 120.342 167.203 120.52 166.755 120.534C166.412 120.534 166.218 120.444 166.233 120.4C166.248 120.355 167.046 120.355 167.687 119.751C168.328 119.147 168.313 118.327 168.425 118.335Z" fill="#263238"/>
<path d="M160.664 103.641C160.851 105.146 161.581 106.531 162.715 107.537C163.85 108.543 165.313 109.101 166.83 109.105L165.421 106.004C166.673 107.458 167.97 108.986 169.693 109.821C171.415 110.656 173.659 110.79 175.12 109.538C175.597 110.813 175.59 112.222 176.029 113.504C176.469 114.786 177.52 120.094 178.833 119.885C180.145 119.677 180.942 114.361 181.255 113.176C181.632 111.49 181.607 109.74 181.184 108.066C180.76 106.392 179.95 104.84 178.818 103.536C177.483 101.98 175.805 100.755 173.916 99.9582C172.027 99.1613 169.979 98.8141 167.933 98.9441C166.109 99.0246 164.35 99.6447 162.879 100.726C161.622 101.728 160.746 103.13 160.396 104.699" fill="#263238"/>
<path d="M153.702 127.05C153.579 127.042 153.458 127.014 153.344 126.968C153.013 126.867 152.693 126.732 152.39 126.565C151.251 125.957 150.309 125.036 149.676 123.911C149.186 123.08 148.888 122.15 148.806 121.188C148.723 120.227 148.857 119.259 149.199 118.357C149.603 117.29 150.254 116.335 151.1 115.569C152.007 114.744 153.12 114.18 154.321 113.936C154.878 113.857 155.398 113.61 155.812 113.228C156.16 112.806 156.361 112.283 156.386 111.737C156.475 110.641 156.043 109.575 155.923 108.501C155.793 107.468 156.006 106.421 156.527 105.519C156.986 104.739 157.655 104.103 158.458 103.685C159.204 103.305 159.867 103.059 160.441 102.806C160.944 102.61 161.424 102.36 161.873 102.06C162.24 101.788 162.568 101.467 162.849 101.106C162.808 101.221 162.75 101.329 162.678 101.427C162.474 101.716 162.222 101.969 161.932 102.172C161.488 102.501 161.008 102.779 160.501 103C159.927 103.268 159.248 103.536 158.563 103.917C157.815 104.324 157.197 104.934 156.781 105.676C156.298 106.52 156.109 107.501 156.244 108.464C156.363 109.485 156.818 110.552 156.736 111.774C156.711 112.409 156.475 113.018 156.065 113.504C155.599 113.946 155.008 114.234 154.373 114.331C153.275 114.562 152.254 115.065 151.401 115.793C150.548 116.521 149.891 117.451 149.49 118.499C149.16 119.355 149.023 120.273 149.089 121.188C149.155 122.103 149.421 122.992 149.87 123.792C150.465 124.892 151.346 125.811 152.42 126.453C153.21 126.886 153.702 127.012 153.702 127.05Z" fill="#263238"/>
<path d="M187.451 133.879C187.451 133.879 187.89 133.58 188.658 133.029C189.77 132.292 190.653 131.259 191.208 130.047C191.547 129.205 191.599 128.275 191.357 127.4C191.222 126.927 190.965 126.497 190.611 126.155C190.209 125.802 189.763 125.502 189.284 125.26C188.734 124.965 188.27 124.531 187.938 124.002C187.606 123.472 187.417 122.865 187.391 122.241C187.339 120.892 188.174 119.774 188.472 118.573C188.726 117.367 188.527 116.109 187.913 115.04C187.345 114.021 186.585 113.123 185.676 112.393C183.969 110.962 182.187 109.91 180.957 108.665C179.943 107.739 179.188 106.565 178.765 105.258C178.663 104.901 178.603 104.534 178.586 104.163C178.567 104.034 178.567 103.903 178.586 103.775C178.648 104.262 178.748 104.743 178.885 105.214C179.351 106.467 180.119 107.586 181.121 108.472C182.344 109.642 184.103 110.649 185.878 112.102C186.819 112.857 187.606 113.786 188.196 114.838C188.864 115.989 189.079 117.347 188.8 118.648C188.457 119.952 187.659 121.026 187.719 122.211C187.737 122.791 187.911 123.354 188.222 123.843C188.533 124.333 188.969 124.729 189.486 124.992C189.988 125.251 190.457 125.572 190.88 125.946C191.264 126.336 191.542 126.819 191.685 127.348C191.93 128.288 191.862 129.283 191.491 130.181C191.177 130.905 190.718 131.557 190.142 132.097C189.709 132.504 189.24 132.87 188.74 133.193C188.338 133.454 187.995 133.64 187.793 133.752C187.685 133.809 187.57 133.851 187.451 133.879Z" fill="#263238"/>
<path d="M160.493 109.858C161.213 109.259 161.721 108.443 161.939 107.532C162.152 106.625 162.264 105.698 162.275 104.766C162.275 104.498 162.275 104.147 161.991 104.08C161.708 104.013 161.529 104.267 161.41 104.498C160.498 106.224 160.176 108.2 160.493 110.126L160.657 109.97" fill="#263238"/>
<path d="M147.484 281.892L147.342 275.182L159.897 274.839L160.202 284.643L159.457 284.717C155.998 285.001 141.848 285.925 139.514 285.284C136.883 284.576 147.484 281.892 147.484 281.892Z" fill="#E49A74"/>
<g opacity="0.5">
<path d="M155.648 284.68C155.805 283.614 156.352 282.644 157.183 281.958C157.992 281.272 159.031 280.917 160.091 280.967L160.188 284.471L155.648 284.68Z" fill="white"/>
</g>
<g opacity="0.4">
<path d="M142.31 283.391C142.31 283.391 138.583 284.569 139.082 285.172C139.582 285.776 153.895 285.381 160.202 284.651V284.375L143.481 284.979C143.481 284.979 143.041 283.398 142.31 283.391Z" fill="white"/>
</g>
<path d="M160.412 284.359H160.195L159.577 284.411L157.295 284.575C155.372 284.694 152.71 284.829 149.766 284.918C146.821 285.007 144.159 285.015 142.229 285H139.947H139.329H139.112H139.329H139.947H142.229C144.159 285 146.821 284.948 149.766 284.866C152.71 284.784 155.364 284.665 157.295 284.575L159.577 284.456H160.195L160.412 284.359Z" fill="#263238"/>
<path d="M143.473 285.172C143.359 284.796 143.204 284.434 143.011 284.091C142.781 283.776 142.513 283.491 142.214 283.241C142.595 283.396 142.921 283.664 143.146 284.009C143.371 284.354 143.485 284.76 143.473 285.172Z" fill="#263238"/>
<path d="M147.126 283.189C147.089 283.189 146.902 283.003 146.716 282.72C146.53 282.436 146.395 282.19 146.433 282.16C146.47 282.131 146.649 282.354 146.843 282.638C146.975 282.8 147.071 282.987 147.126 283.189Z" fill="#263238"/>
<path d="M148.125 282.622C148.125 282.66 147.894 282.533 147.678 282.339C147.462 282.145 147.298 281.974 147.32 281.944C147.342 281.914 147.551 282.033 147.775 282.227C147.998 282.421 148.155 282.593 148.125 282.622Z" fill="#263238"/>
<path d="M148.736 281.422C148.529 281.507 148.304 281.543 148.08 281.526C147.86 281.552 147.637 281.535 147.424 281.474C147.851 281.352 148.301 281.334 148.736 281.422Z" fill="#263238"/>
<path d="M148.93 280.58C148.713 280.736 148.452 280.818 148.185 280.811C147.934 280.858 147.675 280.832 147.439 280.737C147.685 280.689 147.934 280.664 148.185 280.662C148.431 280.616 148.68 280.589 148.93 280.58Z" fill="#263238"/>
<path d="M146.664 282.108C146.398 282.152 146.126 282.152 145.859 282.108C145.567 282.079 145.277 282.024 144.995 281.944C144.824 281.899 144.66 281.836 144.502 281.757C144.406 281.703 144.332 281.616 144.294 281.511C144.279 281.452 144.282 281.389 144.302 281.331C144.321 281.273 144.357 281.221 144.406 281.183C144.708 281.024 145.056 280.973 145.391 281.04C145.726 281.106 146.028 281.286 146.247 281.549C146.375 281.704 146.469 281.884 146.523 282.078C146.539 282.151 146.539 282.228 146.523 282.302C146.433 282.055 146.302 281.826 146.135 281.623C145.949 281.413 145.705 281.263 145.434 281.191C145.114 281.093 144.769 281.125 144.473 281.28C144.353 281.385 144.406 281.534 144.547 281.616C144.695 281.691 144.85 281.751 145.009 281.795C145.282 281.881 145.561 281.946 145.844 281.988C146.359 282.093 146.664 282.078 146.664 282.108Z" fill="#263238"/>
<path d="M146.462 282.153C146.353 281.989 146.312 281.787 146.351 281.594C146.371 281.382 146.44 281.178 146.552 280.997C146.617 280.876 146.713 280.773 146.829 280.699C146.945 280.625 147.078 280.581 147.215 280.572C147.298 280.587 147.372 280.633 147.421 280.702C147.469 280.77 147.489 280.855 147.476 280.938C147.457 281.066 147.414 281.19 147.35 281.303C147.246 281.482 147.121 281.647 146.977 281.795C146.859 281.945 146.705 282.063 146.53 282.138C146.53 282.138 146.686 281.989 146.902 281.728C147.023 281.573 147.13 281.408 147.223 281.236C147.327 281.057 147.394 280.751 147.223 280.721C147.051 280.692 146.82 280.915 146.701 281.079C146.594 281.239 146.52 281.419 146.485 281.609C146.456 281.788 146.449 281.971 146.462 282.153Z" fill="#263238"/>
<path d="M160.023 280.93C160.023 280.93 159.666 280.93 159.099 280.99C158.36 281.089 157.664 281.397 157.093 281.877C156.523 282.358 156.102 282.991 155.878 283.703C155.707 284.247 155.692 284.605 155.67 284.605C155.647 284.605 155.67 284.516 155.67 284.352C155.683 284.122 155.723 283.894 155.789 283.673C155.993 282.929 156.416 282.264 157.004 281.765C157.597 281.271 158.324 280.965 159.092 280.885C159.322 280.859 159.555 280.859 159.785 280.885C159.866 280.888 159.947 280.903 160.023 280.93Z" fill="#263238"/>
<path d="M158.577 275.741C158.692 276.596 158.751 277.458 158.756 278.321C158.809 279.18 158.809 280.041 158.756 280.9C158.646 280.047 158.586 279.188 158.577 278.328C158.529 277.467 158.529 276.603 158.577 275.741Z" fill="#263238"/>
<path d="M154.037 283.495C153.443 283.658 152.828 283.736 152.211 283.726C151.596 283.776 150.977 283.746 150.369 283.637C150.369 283.592 151.197 283.637 152.203 283.577C153.21 283.517 154.03 283.45 154.037 283.495Z" fill="#263238"/>
<path d="M156.497 283.427C156.497 283.427 156.438 283.599 156.356 283.793C156.274 283.987 156.236 284.151 156.192 284.151C156.147 284.151 156.124 283.949 156.192 283.733C156.259 283.517 156.467 283.398 156.497 283.427Z" fill="#263238"/>
<path d="M157.429 282.25C157.429 282.25 157.384 282.406 157.258 282.54C157.131 282.675 157.004 282.764 156.974 282.734C156.944 282.704 157.019 282.578 157.146 282.436C157.273 282.294 157.362 282.22 157.429 282.25Z" fill="#263238"/>
<path d="M158.704 281.683C158.704 281.728 158.533 281.728 158.346 281.795C158.16 281.862 158.033 281.974 158.003 281.944C157.974 281.914 158.07 281.735 158.294 281.653C158.518 281.571 158.719 281.646 158.704 281.683Z" fill="#263238"/>
<path d="M159.666 281.407C159.666 281.445 159.614 281.512 159.509 281.556C159.405 281.601 159.308 281.601 159.293 281.556C159.278 281.512 159.345 281.452 159.45 281.407C159.554 281.363 159.666 281.37 159.666 281.407Z" fill="#263238"/>
<path d="M117.172 246.025L120.079 239.987L131.433 245.369L127.266 254.248L126.52 253.958C123.307 252.653 110.268 247.069 108.479 245.444C106.496 243.632 117.172 246.025 117.172 246.025Z" fill="#E49A74"/>
<g opacity="0.5">
<path d="M123.188 252.206C123.81 251.33 124.734 250.714 125.782 250.476C126.814 250.235 127.9 250.389 128.824 250.909L127.333 254.085L123.188 252.206Z" fill="white"/>
</g>
<g opacity="0.4">
<path d="M111.871 245.019C111.871 245.019 108.032 244.393 108.188 245.146C108.345 245.899 121.302 252.034 127.259 254.241L127.363 253.98L112.184 246.95C112.184 246.95 112.52 245.362 111.871 245.019Z" fill="white"/>
</g>
<path d="M127.542 254.062C127.472 254.05 127.404 254.028 127.341 253.995L126.759 253.764L124.627 252.877C122.853 252.131 120.422 251.028 117.754 249.768C115.085 248.508 112.706 247.323 110.999 246.436L108.971 245.377L108.427 245.079L108.241 244.959L108.442 245.049L109.001 245.317L111.044 246.339C112.774 247.196 115.159 248.374 117.821 249.634C120.482 250.894 122.905 251.99 124.672 252.772L126.752 253.704L127.318 253.965L127.542 254.062Z" fill="#263238"/>
<path d="M112.102 247.136C112.173 246.753 112.201 246.363 112.184 245.973C112.114 245.588 112.004 245.211 111.856 244.848C112.143 245.149 112.312 245.543 112.333 245.958C112.406 246.366 112.324 246.786 112.102 247.136Z" fill="#263238"/>
<path d="M116.255 247.024C116.21 247.024 116.143 246.755 116.106 246.42C116.068 246.084 116.061 245.801 116.106 245.793C116.197 245.982 116.248 246.188 116.255 246.397C116.299 246.74 116.299 247.016 116.255 247.024Z" fill="#263238"/>
<path d="M117.403 246.972C117.365 246.972 117.246 246.786 117.127 246.517C117.008 246.249 116.955 246.018 117 246.003C117.045 245.988 117.157 246.189 117.269 246.457C117.38 246.726 117.44 246.957 117.403 246.972Z" fill="#263238"/>
<path d="M118.492 246.175C118.27 246.155 118.056 246.086 117.865 245.973C117.653 245.903 117.46 245.786 117.299 245.63C117.52 245.65 117.734 245.719 117.925 245.832C118.26 245.988 118.514 246.137 118.492 246.175Z" fill="#263238"/>
<path d="M119.05 245.519C118.794 245.528 118.538 245.485 118.299 245.392C118.059 245.3 117.841 245.161 117.656 244.982C118.12 245.163 118.585 245.341 119.05 245.519Z" fill="#263238"/>
<path d="M116.337 245.854C116.069 245.782 115.817 245.663 115.591 245.503C115.342 245.346 115.107 245.166 114.89 244.967C114.76 244.845 114.641 244.713 114.533 244.571C114.471 244.48 114.447 244.367 114.466 244.258C114.477 244.198 114.507 244.143 114.551 244.1C114.595 244.057 114.651 244.029 114.712 244.02C114.934 244.016 115.154 244.061 115.356 244.153C115.558 244.245 115.737 244.381 115.88 244.551C116.023 244.721 116.126 244.921 116.182 245.136C116.238 245.351 116.245 245.576 116.203 245.794C116.203 245.928 116.135 246.003 116.128 245.995C116.159 245.747 116.146 245.494 116.091 245.25C116.015 244.98 115.865 244.737 115.658 244.549C115.541 244.433 115.401 244.343 115.247 244.282C115.093 244.222 114.929 244.194 114.764 244.199C114.607 244.199 114.585 244.385 114.682 244.519C114.776 244.654 114.884 244.778 115.002 244.892C115.209 245.093 115.431 245.277 115.666 245.444C116.068 245.697 116.352 245.831 116.337 245.854Z" fill="#263238"/>
<path d="M116.135 245.801C116.114 245.605 116.167 245.408 116.284 245.249C116.401 245.071 116.556 244.92 116.739 244.81C116.852 244.731 116.983 244.682 117.119 244.668C117.256 244.653 117.395 244.674 117.521 244.728C117.588 244.779 117.632 244.855 117.644 244.938C117.657 245.021 117.637 245.106 117.589 245.175C117.516 245.28 117.422 245.369 117.313 245.436C117.139 245.554 116.951 245.649 116.754 245.719C116.579 245.793 116.391 245.826 116.202 245.816C116.202 245.816 116.403 245.756 116.716 245.615C116.897 245.536 117.07 245.439 117.231 245.324C117.402 245.22 117.603 244.974 117.432 244.854C117.328 244.821 117.218 244.812 117.11 244.826C117.002 244.84 116.898 244.878 116.806 244.936C116.64 245.033 116.493 245.159 116.373 245.309C116.275 245.463 116.195 245.628 116.135 245.801Z" fill="#263238"/>
<path d="M128.779 250.849C128.779 250.849 128.474 250.663 127.929 250.484C127.226 250.241 126.468 250.203 125.744 250.373C125.019 250.543 124.358 250.915 123.837 251.446C123.427 251.848 123.255 252.191 123.233 252.154C123.257 252.071 123.295 251.993 123.345 251.923C123.462 251.726 123.6 251.541 123.755 251.371C124.275 250.801 124.956 250.401 125.707 250.224C126.459 250.047 127.246 250.101 127.967 250.38C128.181 250.462 128.386 250.567 128.578 250.693C128.72 250.782 128.787 250.842 128.779 250.849Z" fill="#263238"/>
<path d="M129.846 245.571C129.557 246.383 129.221 247.177 128.839 247.949C128.504 248.741 128.123 249.512 127.698 250.26C127.987 249.448 128.323 248.654 128.705 247.882C129.036 247.088 129.417 246.317 129.846 245.571Z" fill="#263238"/>
<path d="M122.278 250.424C121.677 250.295 121.096 250.087 120.549 249.805C119.979 249.567 119.44 249.259 118.946 248.888C118.946 248.851 119.691 249.246 120.608 249.671C121.525 250.096 122.293 250.387 122.278 250.424Z" fill="#263238"/>
<path d="M124.508 251.475C124.508 251.52 124.373 251.602 124.217 251.736C124.06 251.87 123.949 252.005 123.911 251.982C123.874 251.96 123.911 251.774 124.12 251.624C124.329 251.475 124.5 251.438 124.508 251.475Z" fill="#263238"/>
<path d="M125.842 250.827C125.842 250.871 125.723 250.953 125.551 251.013C125.38 251.073 125.223 251.102 125.208 251.058C125.193 251.013 125.327 250.938 125.499 250.871C125.67 250.804 125.827 250.789 125.842 250.827Z" fill="#263238"/>
<path d="M127.266 250.923C127.266 250.923 127.087 250.878 126.893 250.863C126.699 250.849 126.535 250.863 126.52 250.863C126.505 250.863 126.669 250.714 126.916 250.744C127.162 250.774 127.296 250.893 127.266 250.923Z" fill="#263238"/>
<path d="M128.227 251.102C128.227 251.102 128.13 251.169 128.019 251.161C127.907 251.154 127.817 251.109 127.825 251.072C127.832 251.035 127.922 250.997 128.026 251.005C128.13 251.012 128.227 251.057 128.227 251.102Z" fill="#263238"/>
<path d="M199.923 158.287L197.254 144.868C195.316 133.938 179.958 133.193 179.958 133.193L167.866 132.992C167.866 132.992 158.92 131.791 153.411 138.009C147.707 144.443 140.692 152.054 140.692 152.054L146.045 165.526L158.719 155.088C157.659 156.948 157.075 159.04 157.019 161.179C157.019 164.75 160.746 166.398 160.746 166.398L161.902 177.23L158.174 194.772L197.545 193.191C196.88 187.308 194.89 181.651 191.722 176.649L192.468 158.287H199.923Z" fill="#E49A74"/>
<path d="M183.052 143.279C183.157 143.555 183.228 143.843 183.261 144.136C183.387 144.77 183.537 145.553 183.723 146.485C184.125 148.557 184.647 151.256 185.214 154.238C185.78 157.22 186.287 160.023 186.601 162.021C186.765 163.02 186.876 163.833 186.943 164.392C186.997 164.682 187.015 164.977 186.996 165.271C186.897 164.994 186.83 164.706 186.794 164.414C186.668 163.78 186.511 162.998 186.332 162.066C185.93 159.993 185.408 157.294 184.841 154.312C184.275 151.33 183.768 148.535 183.455 146.529C183.29 145.53 183.179 144.725 183.112 144.159C183.063 143.868 183.043 143.573 183.052 143.279Z" fill="#263238"/>
<path d="M200.154 157.585C197.735 157.793 195.306 157.867 192.878 157.809C190.452 157.881 188.023 157.824 185.602 157.637C188.022 157.435 190.451 157.363 192.878 157.421C195.305 157.349 197.734 157.404 200.154 157.585Z" fill="#263238"/>
<path d="M201.653 169.722C200.907 163.296 199.841 157.794 199.841 157.794H185.9C185.9 157.794 187.63 165.995 187.25 167.858C186.907 169.506 159.897 170.594 152.859 170.706C152.434 170.393 151.83 170.922 151.286 170.445C150.806 170.019 150.4 169.515 150.086 168.954C149.671 168.274 149.347 167.542 149.124 166.777C149.098 166.634 149.03 166.502 148.929 166.397C148.829 166.292 148.699 166.218 148.557 166.186C148.416 166.153 148.267 166.163 148.131 166.214C147.994 166.265 147.876 166.354 147.79 166.472C147.506 167.076 147.827 169.081 149.161 171.019C150.496 172.958 146.992 171.951 145.71 171.608C144.427 171.265 140.402 170.393 139.992 170.714C139.38 171.183 139.761 171.936 141.05 172.249C142.34 172.562 146.15 173.74 145.941 174.486C145.732 175.231 139.231 173.315 139.231 173.315C139.231 173.315 137.904 172.697 137.636 173.479C137.159 174.896 144.219 176.327 144.897 176.462C145.367 176.551 145.166 177.304 144.666 177.207C144.167 177.11 138.21 175.216 137.71 176.655C137.323 177.759 143.511 177.893 144.532 178.981C145.553 180.07 139.85 178.392 139.522 179.458C139.403 179.861 141.759 180.04 145.188 180.525C148.694 180.859 152.216 180.984 155.737 180.897C163.647 181.33 191.618 181.911 197.59 181.486C204.538 180.957 201.921 171.959 201.653 169.722Z" fill="#FFBE9D"/>
<path d="M157.355 158.667C157.464 158.053 157.623 157.449 157.832 156.862C157.996 156.303 158.197 155.647 158.451 154.924C158.578 154.566 158.719 154.179 158.876 153.798C158.965 153.59 159.077 153.411 159.129 153.239C159.188 153.051 159.214 152.854 159.204 152.658C159.167 152.242 159.105 151.829 159.018 151.42C158.943 151.018 158.868 150.63 158.794 150.25C158.675 149.504 158.555 148.863 158.451 148.252C158.313 147.642 158.238 147.02 158.227 146.396C158.456 146.977 158.621 147.582 158.719 148.2C158.854 148.804 158.995 149.467 159.144 150.175L159.39 151.353C159.492 151.779 159.559 152.213 159.592 152.65C159.604 152.89 159.571 153.131 159.495 153.359C159.417 153.56 159.327 153.757 159.226 153.948C159.07 154.32 158.921 154.693 158.786 155.051C158.54 155.729 158.302 156.363 158.093 156.944C157.92 157.547 157.672 158.125 157.355 158.667Z" fill="#263238"/>
<path d="M173.607 107.845C174.68 109.232 175.843 110.827 175.612 112.564C175.426 114.055 174.211 115.435 174.412 116.955C174.65 118.707 176.648 119.855 176.783 121.622C176.865 123.113 175.605 124.217 174.718 125.35C174.067 126.188 173.587 127.146 173.307 128.169C173.027 129.193 172.951 130.261 173.085 131.314C173.232 132.361 173.615 133.36 174.205 134.237C174.795 135.114 175.577 135.846 176.492 136.376C177.419 136.889 178.463 137.153 179.523 137.143C180.582 137.132 181.621 136.847 182.538 136.316C184.154 135.189 185.331 133.537 185.87 131.642C186.705 129.241 186.929 126.423 185.505 124.306C184.924 123.456 184.081 122.726 183.895 121.712C183.656 120.429 184.566 119.222 184.707 117.925C184.901 116.187 183.701 114.6 182.374 113.451C181.047 112.303 179.481 111.394 178.49 109.955" fill="#263238"/>
<g opacity="0.3">
<path d="M183.522 146.91C184.007 154.365 184.268 161.261 184.447 168.739C185.442 168.696 186.408 168.392 187.25 167.859C187.63 164.668 185.214 154.954 183.522 146.91Z" fill="black"/>
</g>
<path d="M165.347 143.473C165.238 142.904 165.298 142.316 165.518 141.781C165.772 140.871 166.167 140.208 166.264 140.253C166.231 140.814 166.105 141.366 165.891 141.885C165.794 142.44 165.611 142.976 165.347 143.473Z" fill="#FAFAFA"/>
<path d="M157.429 143.451C157.369 143.541 156.84 143.28 156.326 142.788C155.811 142.296 155.513 141.781 155.58 141.722C155.647 141.662 156.08 142.042 156.572 142.504C157.064 142.967 157.481 143.362 157.429 143.451Z" fill="#FAFAFA"/>
<path d="M149.862 149.639C149.862 149.639 149.795 149.572 149.75 149.438H149.922C150.038 150.046 150.038 150.671 149.922 151.279C149.877 151.975 149.617 152.639 149.176 153.18C149.264 152.516 149.396 151.858 149.571 151.212C149.706 150.466 149.735 149.766 149.78 149.445H149.952C149.907 149.594 149.892 149.631 149.862 149.639Z" fill="#FAFAFA"/>
<path d="M149.526 157.377C148.957 157.353 148.4 157.206 147.894 156.945C147.029 156.609 146.358 156.259 146.403 156.154C146.975 156.177 147.535 156.324 148.043 156.587C148.893 156.922 149.564 157.273 149.526 157.377Z" fill="#FAFAFA"/>
<path d="M155.938 153.091C155.834 153.091 155.848 152.42 156.094 151.652C156.341 150.884 156.683 150.332 156.78 150.377C156.877 150.422 156.691 151.026 156.46 151.764C156.229 152.502 156.012 153.106 155.938 153.091Z" fill="#FAFAFA"/>
<path d="M162.648 136.122C162.648 136.227 162.089 136.339 161.388 136.376C160.687 136.413 160.12 136.376 160.113 136.242C160.106 136.108 160.672 136.018 161.373 135.988C162.074 135.958 162.648 136.011 162.648 136.122Z" fill="#FAFAFA"/>
<path d="M164.012 150.682C163.945 150.757 163.341 150.309 162.938 149.489C162.637 149.021 162.53 148.454 162.64 147.909C162.752 147.909 162.908 148.572 163.281 149.318C163.654 150.063 164.094 150.6 164.012 150.682Z" fill="#FAFAFA"/>
<path d="M177.252 147.558C177.327 147.633 176.857 148.229 176.149 148.84C175.441 149.452 174.777 149.825 174.717 149.735C174.658 149.646 175.202 149.139 175.895 148.542C176.589 147.946 177.178 147.484 177.252 147.558Z" fill="#FAFAFA"/>
<path d="M170.707 145.501C170.766 145.59 170.356 146 169.782 146.425C169.208 146.85 168.686 147.133 168.627 147.044C168.567 146.955 168.977 146.544 169.551 146.12C170.125 145.695 170.639 145.419 170.707 145.501Z" fill="#FAFAFA"/>
<path d="M173.92 140.148C173.315 140.021 172.761 139.714 172.332 139.268C171.587 138.605 171.132 137.889 171.222 137.829C171.311 137.77 171.848 138.344 172.586 138.97C173.324 139.596 173.972 140.051 173.92 140.148Z" fill="#FAFAFA"/>
<path d="M181.456 138.061C181.516 138.143 181.099 138.575 180.51 139.015C179.921 139.455 179.391 139.761 179.324 139.671C179.257 139.582 179.682 139.157 180.271 138.71C180.86 138.262 181.389 137.972 181.456 138.061Z" fill="#FAFAFA"/>
<path d="M187.749 141.043C187.739 140.504 187.82 139.967 187.988 139.455C188.159 138.597 188.271 137.889 188.383 137.897C188.548 138.428 188.548 138.998 188.383 139.529C188.196 140.424 187.846 141.08 187.749 141.043Z" fill="#FAFAFA"/>
<path d="M188.86 148.222C188.785 148.297 188.114 147.797 187.369 147.097C186.623 146.396 186.049 145.77 186.124 145.695C186.198 145.62 186.869 146.112 187.615 146.813C188.36 147.514 188.934 148.14 188.86 148.222Z" fill="#FAFAFA"/>
<path d="M193.96 145.203C193.863 145.158 194.056 144.457 194.392 143.712C194.727 142.966 195.085 142.31 195.182 142.355C195.155 142.878 195.007 143.389 194.75 143.846C194.407 144.636 194.049 145.247 193.96 145.203Z" fill="#FAFAFA"/>
<path d="M194.22 153.828C194.347 153.204 194.601 152.613 194.965 152.091C195.216 151.512 195.578 150.988 196.031 150.548C195.905 151.17 195.651 151.759 195.286 152.277C195.036 152.859 194.674 153.386 194.22 153.828Z" fill="#FAFAFA"/>
<path d="M189.195 155.148C189.106 155.215 188.599 154.678 188.047 153.948C187.495 153.217 187.13 152.584 187.212 152.516C187.294 152.449 187.816 152.986 188.36 153.717C188.904 154.447 189.277 155.081 189.195 155.148Z" fill="#FAFAFA"/>
<path d="M179.713 158.838C179.892 158.056 180.241 157.323 180.734 156.691C181.124 155.992 181.663 155.389 182.314 154.924C181.966 155.626 181.546 156.291 181.062 156.907C180.679 157.595 180.227 158.241 179.713 158.838Z" fill="#FAFAFA"/>
<path d="M172.898 158.152C172.442 157.65 172.086 157.065 171.847 156.43C171.495 155.849 171.255 155.206 171.139 154.537C171.95 155.619 172.547 156.846 172.898 158.152Z" fill="#FAFAFA"/>
<path d="M164.318 156.154C163.89 156.777 163.361 157.324 162.752 157.772C162.229 158.317 161.616 158.768 160.94 159.107C160.866 159.025 161.567 158.301 162.499 157.481C163.024 156.937 163.639 156.488 164.318 156.154Z" fill="#FAFAFA"/>
<path d="M167.575 165.473C167.486 165.54 166.875 164.847 166.084 164.042C165.294 163.237 164.593 162.61 164.661 162.551C165.321 162.809 165.909 163.224 166.375 163.759C166.91 164.223 167.322 164.812 167.575 165.473Z" fill="#FAFAFA"/>
<path d="M173.584 165.756C173.627 165.074 173.856 164.416 174.248 163.855C174.807 162.886 175.485 162.26 175.56 162.364C175.292 162.961 174.962 163.529 174.576 164.057C174.304 164.656 173.972 165.226 173.584 165.756Z" fill="#FAFAFA"/>
<path d="M182.031 166.741C181.348 166.419 180.726 165.983 180.19 165.451C179.571 165.015 179.029 164.478 178.587 163.863C179.272 164.185 179.897 164.621 180.436 165.153C181.052 165.59 181.592 166.126 182.031 166.741Z" fill="#FAFAFA"/>
<path d="M181.286 144.539C180.701 144.445 180.155 144.187 179.713 143.794C178.922 143.22 178.438 142.586 178.512 142.511C178.587 142.437 179.183 142.929 179.944 143.481C180.704 144.032 181.286 144.442 181.286 144.539Z" fill="#FAFAFA"/>
<path d="M169.081 182.747C169.126 182.851 168.522 183.172 167.851 183.671C167.18 184.171 166.681 184.64 166.599 184.573C166.517 184.506 166.897 183.887 167.62 183.358C168.343 182.829 169.052 182.65 169.081 182.747Z" fill="#FAFAFA"/>
<path d="M178.102 186.429C177.452 185.422 177.032 184.284 176.872 183.097C177.519 184.105 177.938 185.242 178.102 186.429Z" fill="#FAFAFA"/>
<path d="M187.197 183.209C187.279 183.283 186.809 183.895 186.161 184.573C185.512 185.252 184.923 185.744 184.849 185.669C184.774 185.594 185.236 184.983 185.885 184.305C186.533 183.626 187.122 183.142 187.197 183.209Z" fill="#FAFAFA"/>
<path d="M193.959 188.114C193.877 188.196 193.273 187.719 192.379 187.548C191.484 187.376 190.746 187.548 190.709 187.451C190.959 187.27 191.247 187.151 191.551 187.102C191.855 187.052 192.167 187.075 192.461 187.168C193.445 187.369 194.011 188.055 193.959 188.114Z" fill="#FAFAFA"/>
<path d="M197.634 191.432C197.634 191.432 146.149 180.644 141.162 183.007C136.174 185.371 113.19 242.186 113.19 242.186L131.701 250.148L151.614 201.869C151.614 201.869 187.659 215.034 193.959 213.707C200.258 212.38 197.634 191.432 197.634 191.432Z" fill="#494949"/>
<path d="M174.62 194.458C173.838 194.719 144.055 206.968 141.952 210.897C139.85 214.826 145.009 280.185 145.009 280.185H161.947L160.903 222.102L193.959 213.708L174.62 194.458Z" fill="#494949"/>
<path d="M194.131 213.864C193.968 213.858 193.806 213.838 193.646 213.804L192.26 213.558C191.059 213.335 189.322 212.992 187.183 212.537C182.911 211.635 177.021 210.301 170.61 208.429C167.404 207.505 164.378 206.536 161.664 205.596C158.95 204.657 156.498 203.718 154.492 202.86C153.478 202.45 152.576 202.04 151.786 201.682C150.996 201.325 150.295 201.019 149.766 200.736L148.513 200.102C148.361 200.036 148.216 199.953 148.081 199.856C148.239 199.903 148.394 199.963 148.543 200.035L149.833 200.601C150.384 200.855 151.07 201.153 151.868 201.489C152.666 201.824 153.575 202.234 154.589 202.607C156.609 203.434 159.062 204.307 161.783 205.261C164.504 206.215 167.539 207.132 170.729 208.057C177.133 209.898 183 211.3 187.257 212.269L192.304 213.409L193.676 213.722C193.832 213.754 193.984 213.802 194.131 213.864Z" fill="#263238"/>
<path d="M141.96 225.911C141.877 225.591 141.824 225.264 141.804 224.934C141.729 224.226 141.632 223.324 141.52 222.251C141.408 221.177 141.289 219.753 141.155 218.277C140.927 216.642 140.927 214.984 141.155 213.349C141.485 211.697 142.353 210.2 143.623 209.092C144.633 208.192 145.777 207.455 147.015 206.908C147.835 206.535 148.673 206.204 149.527 205.916C149.835 205.793 150.155 205.701 150.481 205.641C150.481 205.708 149.169 206.177 147.134 207.132C145.941 207.693 144.84 208.432 143.869 209.323C142.673 210.394 141.855 211.821 141.535 213.394C141.327 214.995 141.327 216.616 141.535 218.217C141.647 219.708 141.744 221.043 141.826 222.198C141.908 223.354 141.945 224.181 141.982 224.89C142.013 225.23 142.005 225.572 141.96 225.911Z" fill="#263238"/>
<path d="M156.818 220.298C158.248 220.646 159.606 221.244 160.828 222.065C159.399 221.713 158.042 221.115 156.818 220.298Z" fill="#263238"/>
<path d="M158.317 218.509C158.799 219.121 159.25 219.758 159.666 220.417C160.412 221.439 161.209 222.147 161.157 222.236C160.427 221.882 159.811 221.333 159.375 220.648C158.827 220.05 158.46 219.308 158.317 218.509Z" fill="#263238"/>
<path d="M164.817 221.163C164.817 221.163 164.765 221.304 164.556 221.431C164.254 221.591 163.915 221.671 163.572 221.662C163.102 221.646 162.632 221.658 162.163 221.699C161.912 221.736 161.685 221.868 161.528 222.068C161.371 222.268 161.297 222.52 161.321 222.773C161.378 224.284 161.308 225.798 161.112 227.298C160.921 225.79 160.861 224.269 160.933 222.751C160.937 222.404 161.049 222.068 161.254 221.789C161.473 221.542 161.776 221.383 162.104 221.342C162.601 221.315 163.1 221.33 163.595 221.386C164.015 221.417 164.436 221.34 164.817 221.163Z" fill="#263238"/>
<path opacity="0.3" d="M160.754 182.671L195.845 185.489L194.347 181.561L161.097 181.083L160.754 182.671Z" fill="black"/>
<path d="M255.732 174.971H48.8604V180.488H59.9238L54.2206 285.411L57.3667 285.582L63.0847 180.488H244.452L249.313 285.5H252.474L247.606 180.488H255.732V174.971Z" fill="#263238"/>
<path d="M109.195 142.348L120.668 175.866H172.615L172.228 174.144L151.227 173.487L141.55 142.325L109.195 142.348Z" fill="#263238"/>
<path d="M132.216 158.085C132.559 159.464 131.97 160.806 130.904 161.067C129.838 161.328 128.667 160.471 128.347 159.092C128.026 157.712 128.593 156.378 129.659 156.109C130.725 155.841 131.873 156.713 132.216 158.085Z" fill="white"/>
</svg>
