<svg width="260" height="267" viewBox="0 0 260 267" fill="none" xmlns="http://www.w3.org/2000/svg">
<path d="M196.635 92.9381C193.242 97.4897 188.576 100.933 183.226 102.833C177.876 104.734 172.083 105.005 166.58 103.614C161.076 102.222 156.108 99.2301 152.304 95.0158C148.5 90.8014 146.031 85.554 145.209 79.9368C144.387 74.3195 145.249 68.5846 147.685 63.457C150.122 58.3294 154.024 54.0393 158.898 51.1289C163.773 48.2186 169.401 46.8187 175.07 47.1062C180.74 47.3937 186.197 49.3556 190.752 52.7441H190.784C193.809 54.9982 196.36 57.8262 198.291 61.0666C200.222 64.3069 201.495 67.896 202.039 71.6288C202.582 75.3615 202.384 79.1648 201.457 82.8211C200.53 86.4775 198.891 89.9153 196.635 92.9381Z" fill="#F0F0F0"/>
<path d="M191.156 88.8484C188.569 92.3206 185.01 94.9477 180.93 96.3973C176.85 97.8469 172.432 98.0539 168.234 96.9921C164.036 95.9303 160.248 93.6475 157.348 90.4323C154.447 87.2171 152.566 83.2141 151.941 78.9295C151.316 74.6449 151.976 70.2712 153.837 66.3617C155.698 62.4522 158.677 59.1824 162.397 56.966C166.116 54.7496 170.41 53.6862 174.734 53.9102C179.058 54.1342 183.219 55.6355 186.69 58.2244C188.995 59.9409 190.939 62.0949 192.412 64.5634C193.884 67.032 194.855 69.7665 195.27 72.6107C195.685 75.4548 195.535 78.3529 194.829 81.1391C194.123 83.9252 192.875 86.545 191.156 88.8484Z" fill="#F5F5F5"/>
<path d="M191.563 88.2871C191.455 88.217 191.953 87.3876 192.674 85.8372C193.69 83.6592 194.364 81.3371 194.671 78.9532C194.868 77.3183 194.888 75.6668 194.728 74.0278C194.54 72.1558 194.111 70.3159 193.452 68.5538C192.731 66.6086 191.723 64.7827 190.46 63.1372C189.802 62.2612 189.074 61.4398 188.284 60.6809C187.468 59.904 186.598 59.1855 185.681 58.5308C184.749 57.895 183.775 57.3237 182.765 56.821C181.782 56.3398 180.762 55.9366 179.716 55.6152C178.707 55.2965 177.675 55.0597 176.628 54.907C175.626 54.7465 174.612 54.6655 173.597 54.6645C171.717 54.6338 169.84 54.8482 168.015 55.3025C166.42 55.7123 164.875 56.2964 163.409 57.0443C161.275 58.1494 159.325 59.5785 157.628 61.2806C156.416 62.4928 155.816 63.2456 155.714 63.1946C155.612 63.1436 156.052 62.2567 157.15 60.8723C158.734 58.9202 160.665 57.2784 162.847 56.0299C166.119 54.1479 169.823 53.1455 173.597 53.1206C175.83 53.0952 178.054 53.4071 180.194 54.0457C181.328 54.3836 182.433 54.8102 183.499 55.3217C184.591 55.8568 185.642 56.4709 186.645 57.1591C187.634 57.868 188.572 58.6462 189.452 59.4878C190.298 60.3105 191.077 61.2002 191.78 62.1483C192.466 63.0596 193.074 64.0263 193.599 65.0384C195.894 69.3558 196.69 74.3128 195.864 79.1318C195.438 81.6104 194.56 83.9894 193.273 86.1498C192.329 87.6491 191.64 88.3509 191.563 88.2871Z" fill="#E0E0E0"/>
<path d="M93.8605 135.397C94.8136 141.882 93.822 148.505 91.0111 154.426C88.2002 160.348 83.6962 165.303 78.0689 168.664C72.4416 172.026 65.9438 173.643 59.3974 173.311C52.8509 172.979 46.5499 170.713 41.2914 166.8C36.0329 162.887 32.0531 157.502 29.8553 151.326C27.6576 145.151 27.3407 138.462 28.9448 132.107C30.5488 125.751 34.0017 120.014 38.8667 115.621C43.7316 111.228 49.7902 108.377 56.2759 107.427H56.3397C60.6408 106.798 65.0238 107.021 69.2384 108.085C73.453 109.149 77.4168 111.033 80.9033 113.629C84.3899 116.226 87.3309 119.483 89.5585 123.216C91.7861 126.948 93.2566 131.083 93.886 135.385L93.8605 135.397Z" fill="#F0F0F0"/>
<path d="M86.0571 136.526C86.7871 141.467 86.0356 146.513 83.8976 151.027C81.7596 155.541 78.3312 159.319 74.0459 161.884C69.7606 164.449 64.8109 165.686 59.8226 165.438C54.8344 165.19 50.0317 163.468 46.0219 160.491C42.0121 157.514 38.9753 153.414 37.2954 148.71C35.6156 144.007 35.3682 138.911 36.5845 134.067C37.8009 129.223 40.4263 124.849 44.1288 121.497C47.8313 118.145 52.4447 115.966 57.3854 115.236H57.4428C64.0603 114.267 70.7918 115.965 76.1576 119.957C81.5233 123.95 85.0841 129.909 86.0571 136.526Z" fill="#F5F5F5"/>
<path d="M85.9358 135.748C85.7827 135.748 85.5211 134.696 84.8385 132.839C83.8877 130.234 82.5405 127.792 80.8446 125.598C79.6726 124.104 78.342 122.741 76.8762 121.534C75.1902 120.166 73.3355 119.021 71.3575 118.127C70.291 117.642 69.1908 117.234 68.0654 116.908C66.8961 116.562 65.7015 116.309 64.4926 116.149C63.2413 115.978 61.9784 115.905 60.7157 115.932C59.4155 115.963 58.1192 116.086 56.8366 116.302C55.5588 116.543 54.299 116.871 53.0661 117.285C51.87 117.699 50.7075 118.204 49.589 118.797C48.5101 119.355 47.4757 119.994 46.4947 120.711C45.5497 121.402 44.6582 122.163 43.8278 122.988C42.278 124.51 40.9313 126.225 39.8212 128.092C38.8559 129.726 38.0749 131.461 37.4925 133.266C36.6515 135.909 36.2211 138.666 36.2165 141.439C36.2165 143.417 36.3441 144.521 36.2165 144.546C36.0889 144.572 35.7252 143.506 35.4892 141.478C35.1894 138.595 35.4251 135.681 36.1846 132.884C37.3158 128.679 39.5134 124.838 42.5646 121.731C43.4395 120.827 44.3845 119.993 45.3909 119.237C47.5172 117.614 49.8854 116.335 52.4089 115.447C53.7361 114.987 55.097 114.631 56.4794 114.382C57.8628 114.146 59.2616 114.011 60.6646 113.98C62.0284 113.967 63.3911 114.056 64.7415 114.248C66.038 114.438 67.3178 114.728 68.5695 115.115C69.7733 115.48 70.9466 115.938 72.0785 116.487C74.1745 117.497 76.1251 118.785 77.8779 120.315C79.3964 121.636 80.7502 123.136 81.91 124.781C83.5912 127.143 84.8179 129.798 85.5275 132.609C86.0315 134.6 86.0443 135.729 85.9358 135.748Z" fill="#E0E0E0"/>
<path d="M160.946 20.3022C160.362 23.4869 158.846 26.4267 156.591 28.7501C154.336 31.0734 151.443 32.6759 148.277 33.3548C145.111 34.0337 141.815 33.7586 138.805 32.5643C135.796 31.37 133.208 29.3101 131.369 26.6451C129.53 23.9801 128.523 20.8297 128.475 17.5922C128.426 14.3547 129.339 11.1756 131.097 8.45688C132.856 5.73813 135.381 3.60184 138.353 2.31816C141.326 1.03449 144.612 0.661065 147.797 1.24512H147.835C149.947 1.63354 151.961 2.43421 153.762 3.60136C155.564 4.76851 157.118 6.27926 158.336 8.04728C159.553 9.8153 160.411 11.8059 160.859 13.9054C161.306 16.0049 161.336 18.172 160.946 20.283V20.3022Z" fill="#F0F0F0"/>
<path d="M157.119 19.588C156.673 22.0143 155.518 24.254 153.8 26.0238C152.081 27.7937 149.877 29.0142 147.465 29.5312C145.053 30.0481 142.541 29.8382 140.249 28.928C137.956 28.0178 135.984 26.4481 134.584 24.4175C133.183 22.387 132.416 19.9866 132.379 17.5201C132.343 15.0535 133.038 12.6315 134.378 10.5603C135.718 8.48906 137.642 6.86169 139.907 5.88392C142.172 4.90616 144.676 4.62192 147.102 5.06714C148.714 5.36201 150.251 5.97165 151.627 6.8612C153.003 7.75076 154.19 8.90277 155.12 10.2514C156.05 11.6 156.706 13.1187 157.049 14.7208C157.392 16.3228 157.415 17.9768 157.119 19.588Z" fill="#F5F5F5"/>
<path d="M157.182 19.2052C157.116 18.6954 157.101 18.1804 157.137 17.6676C157.111 16.2982 156.876 14.9407 156.442 13.6418C156.134 12.7498 155.729 11.8941 155.236 11.0898C154.663 10.1835 153.977 9.35377 153.194 8.62078C152.775 8.22042 152.325 7.85351 151.848 7.52342C151.349 7.17943 150.822 6.87848 150.272 6.62384C149.715 6.34318 149.137 6.10641 148.543 5.91566C147.929 5.72395 147.302 5.57682 146.667 5.47544C146.034 5.38089 145.394 5.33397 144.753 5.33508C144.129 5.33507 143.506 5.38628 142.89 5.4882C142.295 5.57875 141.709 5.71744 141.136 5.9029C140.582 6.07394 140.043 6.28723 139.522 6.5409C137.699 7.42009 136.122 8.73485 134.928 10.3689C134.105 11.4694 133.459 12.6922 133.014 13.9927C132.892 14.4911 132.721 14.9762 132.504 15.441C132.439 14.9193 132.492 14.3897 132.657 13.8907C132.97 12.4925 133.544 11.1658 134.348 9.97972C134.894 9.15551 135.536 8.39945 136.262 7.72758C137.112 6.96635 138.06 6.32261 139.082 5.81358C139.635 5.52995 140.208 5.28894 140.798 5.09264C141.423 4.88741 142.063 4.72959 142.712 4.62052C143.376 4.50672 144.048 4.44698 144.722 4.44188C146.113 4.42987 147.496 4.64538 148.817 5.07988C149.463 5.26731 150.092 5.50626 150.7 5.79444C151.831 6.37591 152.869 7.12199 153.781 8.0083C155.318 9.51596 156.452 11.3849 157.08 13.4441C157.489 14.8165 157.64 16.2528 157.526 17.6804C157.521 18.2074 157.404 18.7273 157.182 19.2052Z" fill="#E0E0E0"/>
<path d="M259.958 266.584C259.958 266.68 177.554 266.75 122.679 266.75C67.805 266.75 0.132324 266.68 0.132324 266.584C0.132324 266.488 67.7603 266.418 122.679 266.418C177.598 266.418 259.958 266.495 259.958 266.584Z" fill="#263238"/>
<path d="M47.8403 240.515C58.7884 232.859 61.2766 218.663 60.8428 205.897C60.7726 203.766 61.0023 201.52 59.9942 199.644C58.9862 197.769 56.6128 196.499 54.7052 197.399C53.123 198.145 52.4339 199.983 51.5471 201.507C50.3598 203.535 48.6266 205.189 46.5452 206.28C45.1926 206.981 43.5147 207.415 42.1749 206.675C40.3375 205.661 40.1205 203.122 40.1333 201.003C40.1588 197.052 40.1822 193.101 40.2035 189.149C40.2035 187.031 40.2035 184.868 39.5655 182.859C38.9275 180.849 37.4473 178.973 35.4313 178.393C33.4152 177.812 30.9206 178.992 30.4995 181.066C30.4177 181.942 30.3964 182.822 30.4357 183.701C30.3783 184.581 29.97 185.557 29.1597 185.8C28.3494 186.042 27.4626 185.449 26.831 184.83C24.6427 182.686 23.1561 179.93 21.7717 177.174C20.3872 174.418 19.0346 171.623 17.0505 169.288C15.0663 166.953 12.3229 165.103 9.28601 164.931C6.24913 164.759 3.01447 166.634 2.26801 169.614C1.52155 172.593 3.24415 175.637 5.13901 178.055C7.95402 181.642 11.2717 184.805 14.9897 187.446C15.7147 187.842 16.2922 188.462 16.6358 189.213C17.0951 190.629 15.7617 192.033 14.3645 192.499C12.7822 193.022 11.0724 192.856 9.41999 193.054C7.76757 193.252 5.97479 193.979 5.34955 195.536C4.48187 197.705 6.29379 200.002 8.07381 201.463C11.6452 204.441 15.7026 206.783 20.0682 208.385C21.6313 208.959 23.2582 209.457 24.5342 210.554C25.8102 211.652 26.5503 213.553 25.8102 215.02C25.0701 216.488 23.0987 216.992 21.4654 216.692C19.8322 216.392 18.3711 215.499 16.8144 214.912C13.9051 213.814 10.1409 214.012 8.27797 216.532C7.04663 218.185 6.94455 220.494 7.56341 222.466C8.26657 224.407 9.35121 226.188 10.7534 227.704C15.3725 233.247 21.3778 237.467 28.1581 239.934C34.9145 242.276 41.1732 242.907 47.8914 240.451" fill="#2EC109"/>
<path d="M5.28589 166.762C5.34405 166.839 5.41278 166.908 5.49005 166.966L6.12805 167.527C6.68311 168.019 7.49975 168.74 8.52693 169.703C11.4421 172.408 14.1485 175.33 16.6231 178.443C18.2054 180.409 19.8131 182.629 21.5549 185.047C23.2966 187.465 25.083 190.074 26.8886 192.881C28.7925 195.805 30.5368 198.829 32.1138 201.941C32.9304 203.562 33.6641 205.252 34.4042 206.981L36.6563 212.238C39.5526 218.897 42.0724 225.713 44.2039 232.654C45.9251 238.328 47.1085 244.151 47.7384 250.046C48.1519 254.023 48.2181 258.027 47.9362 262.015C47.8277 263.431 47.7193 264.522 47.6172 265.263C47.5789 265.62 47.547 265.901 47.5215 266.105C47.5151 266.202 47.5151 266.3 47.5215 266.398C47.5467 266.304 47.5659 266.208 47.5789 266.111C47.6094 265.83 47.6563 265.551 47.7193 265.275C47.8405 264.535 47.9745 263.444 48.1084 262.028C48.4498 258.032 48.4242 254.012 48.0319 250.021C47.4413 244.1 46.2811 238.25 44.5676 232.552C42.4426 225.582 39.9183 218.74 37.0072 212.06L34.7551 206.803C34.0086 205.074 33.275 203.364 32.4519 201.737C30.8637 198.618 29.1043 195.589 27.182 192.665C25.3637 189.851 23.5391 187.254 21.8165 184.836C20.0939 182.418 18.4287 180.204 16.8337 178.246C14.3304 175.141 11.5848 172.239 8.62263 169.569C7.57631 168.625 6.74691 167.916 6.17271 167.451L5.53471 166.915L5.28589 166.762Z" fill="#263238"/>
<path d="M32.3376 201.731C32.4391 201.437 32.5097 201.134 32.5482 200.825C32.6566 200.238 32.7906 199.39 32.9373 198.331C33.2372 196.225 33.5753 193.297 33.888 190.037C34.2006 186.776 34.577 183.893 34.9088 181.794C35.0683 180.741 35.2086 179.88 35.3171 179.305C35.3906 179.005 35.4291 178.696 35.4319 178.387C35.3159 178.673 35.2283 178.97 35.1703 179.274C35.0172 179.854 34.8322 180.696 34.6408 181.743C34.2325 183.842 33.8369 186.764 33.4988 189.998C33.1606 193.233 32.8608 196.066 32.663 198.292C32.5609 199.288 32.4716 200.123 32.395 200.8C32.344 201.107 32.3247 201.419 32.3376 201.731Z" fill="#263238"/>
<path d="M5.08838 196.639C5.44547 196.713 5.8084 196.756 6.17298 196.767C6.87478 196.83 7.8892 196.913 9.1333 197.06C11.6279 197.328 15.0667 197.819 18.8309 198.527C22.5951 199.236 25.9765 200.04 28.4009 200.684C29.6195 200.997 30.5956 201.277 31.2783 201.469C31.6228 201.587 31.9772 201.675 32.3374 201.73C32.014 201.56 31.6741 201.423 31.3229 201.322C30.6849 201.086 29.6897 200.767 28.4775 200.416C26.0594 199.701 22.678 198.859 18.9075 198.145C15.6859 197.521 12.4341 197.065 9.1652 196.779C7.8892 196.671 6.89392 196.626 6.19212 196.613C5.82442 196.58 5.45416 196.589 5.08838 196.639Z" fill="#263238"/>
<path d="M44.2102 232.01C44.2881 231.909 44.3505 231.797 44.3952 231.678L44.861 230.696C45.2629 229.834 45.8116 228.577 46.4687 227.021C47.783 223.895 49.461 219.524 51.2537 214.682C53.0465 209.839 54.6798 205.45 55.9239 202.311L57.4168 198.585C57.5763 198.183 57.7039 197.845 57.8124 197.571C57.8696 197.456 57.9084 197.334 57.9272 197.207C57.8493 197.308 57.787 197.42 57.7422 197.539L57.2765 198.528C56.8745 199.383 56.3258 200.639 55.6687 202.203C54.3544 205.322 52.6765 209.693 50.8837 214.541C49.0909 219.39 47.4576 223.767 46.2135 226.912L44.7206 230.632L44.325 231.646C44.2678 231.761 44.2291 231.883 44.2102 232.01Z" fill="#263238"/>
<path d="M7.99731 220.354C8.10936 220.418 8.22951 220.467 8.35459 220.5L9.40729 220.851L13.2863 222.127C16.5593 223.193 21.0636 224.679 26.0463 226.395C31.0291 228.112 35.5462 229.585 38.8446 230.555C40.497 231.053 41.8305 231.442 42.7619 231.691L43.8338 231.971C43.9579 232.011 44.0865 232.034 44.2166 232.042C44.1023 231.977 43.98 231.928 43.8529 231.895L42.8066 231.544L38.9276 230.268C35.6546 229.203 31.1503 227.716 26.1676 226C21.1848 224.284 16.6677 222.81 13.4076 221.846C11.7551 221.349 10.4217 220.96 9.49023 220.704L8.42477 220.424C8.28622 220.381 8.14236 220.357 7.99731 220.354Z" fill="#263238"/>
<path d="M151.874 234.734L81.0555 234.409C79.0305 234.399 77.0271 233.991 75.1597 233.208C73.2923 232.424 71.5975 231.281 70.1721 229.842C68.7467 228.404 67.6186 226.699 66.8522 224.824C66.0857 222.95 65.696 220.943 65.7052 218.918L66.4836 41.388C66.5039 37.2971 68.1476 33.3816 71.0535 30.502C73.9593 27.6224 77.8897 26.0144 81.9806 26.0314L152.799 26.3568C156.889 26.3753 160.804 28.0176 163.684 30.9225C166.564 33.8274 168.172 37.757 168.155 41.8474L167.402 219.377C167.395 221.403 166.988 223.407 166.206 225.275C165.424 227.143 164.281 228.838 162.843 230.264C161.405 231.691 159.7 232.819 157.825 233.586C155.951 234.353 153.943 234.743 151.918 234.734H151.874Z" fill="#263238"/>
<path d="M152.665 32.4882L138.942 32.4244C138.494 32.4318 138.053 32.5274 137.642 32.7055C137.232 32.8837 136.861 33.141 136.549 33.4627C136.238 33.7844 135.994 34.1642 135.83 34.5805C135.665 34.9968 135.585 35.4413 135.592 35.8887V38.3833C135.608 39.2875 135.264 40.1609 134.636 40.8116C134.008 41.4623 133.147 41.8372 132.243 41.854L105.485 41.7264C104.581 41.7013 103.724 41.3195 103.102 40.6643C102.479 40.0091 102.141 39.134 102.161 38.2302V35.7356C102.183 34.8324 101.847 33.9572 101.225 33.3019C100.603 32.6465 99.7467 32.2644 98.8436 32.2393H94.0139L82.0004 32.1436C80.5819 32.1378 79.1762 32.4113 77.8634 32.9487C76.5507 33.4861 75.3567 34.2768 74.3495 35.2757C73.3424 36.2745 72.5419 37.462 71.9936 38.7702C71.4454 40.0785 71.1602 41.4819 71.1544 42.9003L70.4207 216.181C70.4205 219.041 71.5501 221.786 73.5635 223.817C75.5768 225.848 78.311 227.002 81.171 227.027L151.842 227.353C154.706 227.363 157.458 226.236 159.491 224.219C161.525 222.202 162.675 219.46 162.688 216.596L163.422 43.315C163.429 40.4536 162.3 37.7065 160.283 35.6766C158.266 33.6467 155.527 32.5 152.665 32.4882Z" fill="white"/>
<path d="M136.612 118.185H91.0974V162.028H136.612V118.185Z" fill="#6BE26F"/>
<path d="M103.647 105.968L91.0913 118.185H136.606L145.309 105.968H103.647Z" fill="#6BE26F"/>
<path opacity="0.1" d="M103.647 105.968L91.0913 118.185H136.606L145.309 105.968H103.647Z" fill="black"/>
<path d="M136.606 162.022L145.309 149.645V105.968L136.606 118.185V162.022Z" fill="#6BE26F"/>
<path opacity="0.3" d="M136.606 162.022L145.309 149.645V105.968L136.606 118.185V162.022Z" fill="black"/>
<path d="M124.701 136.387H100.942V139.079H124.701V136.387Z" fill="#6BE26F"/>
<path opacity="0.2" d="M124.701 136.387H100.942V139.079H124.701V136.387Z" fill="black"/>
<path d="M120.408 141.095H105.243V143.634H120.408V141.095Z" fill="#6BE26F"/>
<path opacity="0.2" d="M120.408 141.095H105.243V143.634H120.408V141.095Z" fill="black"/>
<path d="M100.374 104.238C100.315 103.684 100.223 103.135 100.1 102.592C99.7041 101.12 98.8256 99.8234 97.6051 98.9105C96.7765 98.2802 95.81 97.8559 94.7851 97.6728C93.611 97.4637 92.4025 97.5693 91.2825 97.979C90.6763 98.1921 90.1078 98.5001 89.5982 98.8914C89.058 99.2859 88.5842 99.764 88.1946 100.308C87.3528 101.446 86.8985 102.825 86.8985 104.241C86.8985 105.657 87.3528 107.036 88.1946 108.174C88.972 109.238 90.0463 110.048 91.2825 110.503C92.332 110.886 93.4608 111.001 94.5661 110.838C95.6714 110.674 96.7182 110.236 97.6115 109.565C98.8284 108.653 99.7045 107.359 100.1 105.89C100.223 105.345 100.315 104.793 100.374 104.238C100.418 104.804 100.369 105.373 100.227 105.922C99.8707 107.445 98.9983 108.797 97.7582 109.75C96.4251 110.774 94.7665 111.282 93.0884 111.18C91.4103 111.077 89.8259 110.371 88.6274 109.192C87.4289 108.013 86.6972 106.44 86.5672 104.764C86.4373 103.088 86.9178 101.421 87.9202 100.072C88.6991 99.0127 89.7623 98.1964 90.9865 97.7176C92.2107 97.2388 93.5456 97.117 94.8362 97.3666C96.1362 97.6167 97.3364 98.2368 98.2927 99.1524C99.249 100.068 99.9208 101.24 100.227 102.528C100.372 103.086 100.421 103.664 100.374 104.238Z" fill="#263238"/>
<path d="M90.4984 103.293C90.4984 102.336 91.0343 101.698 91.8254 101.698C92.6166 101.698 93.1525 102.336 93.1525 103.293C93.1525 104.25 92.6038 104.888 91.8254 104.888C91.631 104.878 91.4409 104.827 91.2669 104.739C91.093 104.652 90.9389 104.53 90.8144 104.38C90.6898 104.23 90.5975 104.056 90.5432 103.869C90.4888 103.683 90.4735 103.486 90.4984 103.293ZM92.7314 103.293C92.7314 102.528 92.3677 102.075 91.8254 102.075C91.2831 102.075 90.9195 102.534 90.9195 103.293C90.9195 104.052 91.2704 104.505 91.8254 104.505C92.3805 104.505 92.7314 104.052 92.7314 103.293ZM95.3791 101.737H95.8767L91.8637 107.612H91.3661L95.3791 101.737ZM94.1031 106.062C94.1031 105.105 94.6518 104.467 95.4301 104.467C96.2085 104.467 96.7572 105.105 96.7572 106.062C96.7572 107.019 96.2213 107.657 95.4301 107.657C94.639 107.657 94.0967 107.019 94.0967 106.062H94.1031ZM96.3361 106.062C96.3361 105.303 95.9852 104.844 95.4301 104.844C94.8751 104.844 94.5242 105.297 94.5242 106.062C94.5242 106.828 94.8878 107.274 95.4301 107.274C95.9724 107.274 96.3297 106.789 96.3297 106.062H96.3361Z" fill="#263238"/>
<path d="M129.46 176.854C129.46 178.13 128.535 179.215 126.494 179.215C125.532 179.234 124.586 178.967 123.776 178.449L124.414 177.173C125.006 177.594 125.716 177.818 126.443 177.811C127.266 177.811 127.776 177.467 127.776 176.886C127.776 176.306 127.412 175.955 126.117 175.955H124.293L124.663 171.948H129.007V173.269H126.034L125.926 174.621H126.507C128.625 174.641 129.46 175.591 129.46 176.854Z" fill="#263238"/>
<path d="M130.131 175.528C130.131 173.174 131.439 171.841 133.187 171.841C134.935 171.841 136.243 173.174 136.243 175.528C136.243 177.883 134.967 179.216 133.187 179.216C131.407 179.216 130.131 177.883 130.131 175.528ZM134.597 175.528C134.597 173.908 134.029 173.238 133.2 173.238C132.37 173.238 131.815 173.908 131.815 175.528C131.815 177.149 132.39 177.819 133.2 177.819C134.01 177.819 134.584 177.149 134.584 175.528H134.597Z" fill="#263238"/>
<path d="M140.493 173.525C140.534 173.896 140.426 174.269 140.193 174.561C139.959 174.852 139.62 175.04 139.248 175.082C139.17 175.088 139.091 175.088 139.012 175.082C138.732 175.087 138.454 175.019 138.209 174.884L138.457 174.392C138.621 174.495 138.813 174.544 139.006 174.533C139.21 174.545 139.41 174.476 139.563 174.341C139.716 174.206 139.81 174.016 139.823 173.812C139.829 173.772 139.829 173.731 139.823 173.691C139.624 173.87 139.363 173.964 139.095 173.952C138.975 173.963 138.854 173.949 138.739 173.913C138.624 173.877 138.517 173.818 138.425 173.741C138.332 173.663 138.256 173.568 138.2 173.461C138.145 173.354 138.111 173.237 138.1 173.116V173.046C138.103 172.916 138.132 172.787 138.186 172.667C138.239 172.548 138.315 172.44 138.41 172.35C138.504 172.26 138.616 172.189 138.738 172.142C138.86 172.096 138.99 172.073 139.121 172.077H139.217C140.02 172.089 140.493 172.587 140.493 173.525ZM139.746 173.021C139.743 172.903 139.694 172.791 139.609 172.709C139.524 172.626 139.411 172.58 139.293 172.581H139.217C139.159 172.569 139.099 172.569 139.041 172.581C138.984 172.593 138.929 172.616 138.88 172.649C138.832 172.683 138.79 172.725 138.758 172.775C138.727 172.825 138.705 172.88 138.695 172.939C138.686 172.997 138.688 173.056 138.701 173.114C138.715 173.171 138.74 173.225 138.775 173.273C138.81 173.32 138.854 173.36 138.904 173.39C138.955 173.421 139.011 173.44 139.07 173.448H139.217C139.274 173.458 139.334 173.457 139.391 173.444C139.448 173.431 139.502 173.407 139.55 173.373C139.598 173.34 139.639 173.297 139.671 173.247C139.702 173.198 139.723 173.142 139.733 173.085C139.737 173.061 139.737 173.038 139.733 173.014L139.746 173.021Z" fill="#263238"/>
<path d="M143.152 173.525C143.194 173.896 143.086 174.269 142.853 174.56C142.619 174.852 142.28 175.04 141.908 175.081C141.83 175.088 141.751 175.088 141.672 175.081C141.392 175.087 141.114 175.019 140.868 174.884L141.13 174.418C141.291 174.521 141.481 174.57 141.672 174.558C141.773 174.566 141.873 174.554 141.969 174.522C142.064 174.491 142.153 174.441 142.229 174.375C142.305 174.309 142.367 174.229 142.411 174.139C142.456 174.048 142.483 173.95 142.489 173.85C142.495 173.806 142.495 173.76 142.489 173.716C142.393 173.807 142.28 173.877 142.156 173.922C142.032 173.967 141.9 173.986 141.768 173.978C141.647 173.988 141.525 173.975 141.409 173.938C141.293 173.901 141.186 173.842 141.093 173.764C141 173.686 140.923 173.59 140.867 173.482C140.811 173.374 140.777 173.257 140.766 173.135V173.072C140.77 172.941 140.799 172.812 140.852 172.693C140.905 172.573 140.981 172.465 141.076 172.375C141.171 172.285 141.282 172.215 141.404 172.168C141.526 172.121 141.656 172.099 141.787 172.102H141.87C142.661 172.089 143.152 172.587 143.152 173.525ZM142.4 173.021C142.396 172.903 142.347 172.791 142.263 172.709C142.178 172.626 142.065 172.58 141.947 172.58H141.896C141.781 172.58 141.67 172.626 141.589 172.707C141.507 172.789 141.462 172.899 141.462 173.014C141.462 173.129 141.507 173.24 141.589 173.321C141.67 173.402 141.781 173.448 141.896 173.448C141.954 173.457 142.013 173.454 142.069 173.44C142.126 173.426 142.18 173.401 142.227 173.366C142.274 173.331 142.313 173.287 142.343 173.236C142.373 173.186 142.392 173.13 142.4 173.072C142.403 173.053 142.403 173.033 142.4 173.014V173.021Z" fill="#263238"/>
<path d="M143.126 176.083H138.035V176.727H143.126V176.083Z" fill="#263238"/>
<path d="M114.174 174.054H87.8879V174.87H114.174V174.054Z" fill="#263238"/>
<path d="M103.844 176.656H87.8879V177.473H103.844V176.656Z" fill="#263238"/>
<path d="M144.442 210.325L91.8898 210.083C91.3475 210.083 90.9073 209.483 90.9136 208.756L90.9711 195.007C90.9711 194.279 91.4177 193.692 91.96 193.692L144.512 193.941C145.054 193.941 145.495 194.535 145.495 195.262L145.437 209.011C145.431 209.738 144.991 210.325 144.442 210.325Z" fill="#FF681A"/>
<path d="M116.024 202.624C116.024 203.326 115.527 203.721 114.544 203.715H112.732V199.6H114.436C115.31 199.6 115.814 199.995 115.814 200.665C115.821 200.868 115.763 201.068 115.648 201.236C115.533 201.403 115.368 201.53 115.176 201.597C115.421 201.628 115.645 201.752 115.802 201.943C115.96 202.134 116.039 202.377 116.024 202.624ZM115.61 202.585C115.61 202.05 115.24 201.813 114.544 201.813H113.153V203.357H114.544C115.233 203.364 115.61 203.128 115.61 202.585ZM113.16 199.938V201.431H114.436C115.074 201.431 115.431 201.182 115.437 200.691C115.444 200.199 115.074 199.944 114.442 199.938H113.16Z" fill="white"/>
<path d="M116.95 201.967V199.612H117.364V201.954C117.364 202.93 117.798 203.377 118.564 203.383C119.329 203.389 119.776 202.943 119.776 201.967V199.625H120.178V201.986C120.178 203.166 119.54 203.772 118.558 203.772C117.575 203.772 116.943 203.128 116.95 201.967Z" fill="white"/>
<path d="M122.73 202.33V203.765H122.322V202.342L120.759 199.644H121.199L122.545 201.959L123.904 199.656H124.319L122.73 202.33Z" fill="white"/>
<path d="M100.975 70.9658H81.1074V81.11H100.975V70.9658Z" fill="#B967FA"/>
<path d="M85.3948 67.4121L81.1074 70.9658H100.975L103.903 67.4121H85.3948Z" fill="#B967FA"/>
<path opacity="0.2" d="M85.3948 67.4121L81.1074 70.9658H100.975L103.903 67.4121H85.3948Z" fill="black"/>
<path d="M100.975 81.11L103.903 77.2437V67.4121L100.975 70.9658V81.11Z" fill="#B967FA"/>
<path opacity="0.1" d="M100.975 81.11L103.903 77.2437V67.4121L100.975 70.9658V81.11Z" fill="black"/>
<path d="M97.5931 74.2637H84.0483V75.31H97.5931V74.2637Z" fill="#B967FA"/>
<path opacity="0.1" d="M97.5931 74.2637H84.0483V75.31H97.5931V74.2637Z" fill="black"/>
<path d="M95.1354 76.1523H86.7266V77.1987H95.1354V76.1523Z" fill="#B967FA"/>
<path opacity="0.1" d="M95.1354 76.1523H86.7266V77.1987H95.1354V76.1523Z" fill="black"/>
<path d="M95.7798 86.5781H86.7266V87.9626H95.7798V86.5781Z" fill="#263238"/>
<path d="M81.1074 70.9653C81.4263 70.9184 81.7485 70.8971 82.0708 70.9015L84.693 70.844C86.9068 70.844 89.9692 70.7994 93.3443 70.7994L101 70.8376L100.898 70.8823L103.08 68.3303C103.338 68.0037 103.622 67.6985 103.929 67.418C103.714 67.7747 103.468 68.112 103.195 68.426L101.077 71.061L101.039 71.1056H100.975L93.3187 71.1439C89.9437 71.1439 86.8813 71.1439 84.6675 71.0929L82.0453 71.0418C81.7309 71.0483 81.4166 71.0226 81.1074 70.9653Z" fill="#B967FA"/>
<g opacity="0.2">
<path d="M81.1062 70.9653C81.4251 70.9184 81.7473 70.8971 82.0696 70.9015L84.6918 70.844C86.9056 70.844 89.968 70.7994 93.343 70.7994L100.999 70.8376L100.897 70.8823L103.079 68.3303C103.337 68.0037 103.62 67.6985 103.927 67.418C103.713 67.7747 103.467 68.112 103.194 68.426L101.076 71.061L101.037 71.1056H100.974L93.3175 71.1439C89.9425 71.1439 86.8801 71.1439 84.6662 71.0929L82.0441 71.0418C81.7297 71.0483 81.4154 71.0226 81.1062 70.9653Z" fill="black"/>
</g>
<path d="M100.974 81.1107C100.807 79.4255 100.751 77.7311 100.808 76.0386C100.748 74.3354 100.804 72.6302 100.974 70.9346C101.146 72.6301 101.203 74.3353 101.146 76.0386C101.203 77.7312 101.146 79.4258 100.974 81.1107Z" fill="#B967FA"/>
<g opacity="0.2">
<path d="M100.975 81.1107C100.808 79.4255 100.753 77.7311 100.809 76.0386C100.749 74.3354 100.805 72.6302 100.975 70.9346C101.147 72.6301 101.205 74.3353 101.147 76.0386C101.205 77.7312 101.147 79.4258 100.975 81.1107Z" fill="black"/>
</g>
<path d="M124.121 86.5781H115.067V87.9626H124.121V86.5781Z" fill="#263238"/>
<path d="M112.193 65.3399L112.062 81.0469L126.308 81.1662L126.439 65.4592L112.193 65.3399Z" fill="#6AFA67"/>
<path d="M116.343 62.1738L112.139 65.4021H126.385L129.314 62.1738H116.343Z" fill="#6AFA67"/>
<path d="M126.386 81.1097L129.314 77.2434V62.1738L126.386 65.4021V81.1097Z" fill="#6AFA67"/>
<path d="M122.43 71.751H115.227V72.7973H122.43V71.751Z" fill="#6AFA67"/>
<path opacity="0.2" d="M122.43 71.751H115.227V72.7973H122.43V71.751Z" fill="black"/>
<path d="M121.129 73.6455H116.657V74.6918H121.129V73.6455Z" fill="#6AFA67"/>
<path opacity="0.2" d="M121.129 73.6455H116.657V74.6918H121.129V73.6455Z" fill="black"/>
<path d="M112.139 65.4028C112.38 65.356 112.626 65.3346 112.872 65.339L114.863 65.2815C116.547 65.2496 118.87 65.2305 121.441 65.2305H126.385L126.277 65.2752C127.17 64.3118 127.916 63.5207 128.446 62.972C128.706 62.6669 128.997 62.389 129.314 62.1426C129.096 62.4791 128.848 62.7952 128.574 63.0868C128.076 63.6674 127.361 64.484 126.494 65.4666L126.449 65.5176H121.441C118.889 65.5176 116.547 65.5176 114.863 65.4666L112.872 65.4155C112.628 65.44 112.382 65.4357 112.139 65.4028Z" fill="#6AFA67"/>
<g opacity="0.3">
<path d="M112.139 65.4028C112.38 65.356 112.626 65.3346 112.872 65.339L114.863 65.2815C116.547 65.2496 118.87 65.2305 121.441 65.2305H126.385L126.277 65.2752C127.17 64.3118 127.916 63.5207 128.446 62.972C128.706 62.6669 128.997 62.389 129.314 62.1426C129.096 62.4791 128.848 62.7952 128.574 63.0868C128.076 63.6674 127.361 64.484 126.494 65.4666L126.449 65.5176H121.441C118.889 65.5176 116.547 65.5176 114.863 65.4666L112.872 65.4155C112.628 65.44 112.382 65.4357 112.139 65.4028Z" fill="black"/>
</g>
<path d="M126.385 81.1109C126.289 81.1109 126.213 77.5955 126.213 73.2571C126.213 68.9187 126.289 65.4033 126.385 65.4033C126.481 65.4033 126.557 68.9187 126.557 73.2571C126.557 77.5955 126.455 81.1109 126.385 81.1109Z" fill="#6AFA67"/>
<g opacity="0.3">
<path d="M126.385 81.1109C126.289 81.1109 126.213 77.5955 126.213 73.2571C126.213 68.9187 126.289 65.4033 126.385 65.4033C126.481 65.4033 126.557 68.9187 126.557 73.2571C126.557 77.5955 126.455 81.1109 126.385 81.1109Z" fill="black"/>
</g>
<path d="M149.347 86.5781H140.294V87.9626H149.347V86.5781Z" fill="#263238"/>
<path d="M138.354 71.2286C139.094 71.1245 139.841 71.0839 140.587 71.1074C141.971 71.1074 143.879 71.0563 145.991 71.0563C147.86 71.0563 149.576 71.0563 150.878 71.0946L150.782 71.1393C151.363 70.5013 151.835 70.0291 152.173 69.691C152.332 69.5008 152.517 69.3334 152.722 69.1934C152.601 69.4093 152.453 69.6087 152.282 69.7867C151.982 70.1567 151.535 70.6799 151.006 71.3115L150.967 71.3562H150.903C149.627 71.3562 147.886 71.3945 146.016 71.3945C143.905 71.3945 141.997 71.3945 140.613 71.3434C139.858 71.3626 139.103 71.3242 138.354 71.2286Z" fill="#BFF975"/>
<path d="M150.884 71.2275H138.354V81.1165H150.884V71.2275Z" fill="#BFF975"/>
<path opacity="0.2" d="M150.884 71.2275H138.354V81.1165H150.884V71.2275Z" fill="black"/>
<path d="M141.002 69.1934L138.354 71.2222H150.884L152.722 69.1934H141.002Z" fill="#BFF975"/>
<path d="M150.885 81.1112L152.723 78.6804V69.1934L150.885 71.2222V81.1112Z" fill="#BFF975"/>
<path opacity="0.1" d="M150.885 81.1112L152.723 78.6804V69.1934L150.885 71.2222V81.1112Z" fill="black"/>
<path d="M147.637 74.999H141.902V75.7646H147.637V74.999Z" fill="#BFF975"/>
<path d="M146.598 76.3896H143.038V77.1552H146.598V76.3896Z" fill="#BFF975"/>
<path d="M150.885 81.1102C150.708 79.4683 150.646 77.8161 150.7 76.1657C150.642 74.5176 150.7 72.8676 150.872 71.2275C151.035 72.8682 151.091 74.5178 151.038 76.1657C151.095 77.8154 151.044 79.4671 150.885 81.1102Z" fill="#BFF975"/>
<path d="M168.768 23.582L167.466 25.9554L165.093 27.2505L167.466 28.5521L168.768 30.919L170.063 28.5521L172.436 27.2505L170.063 25.9554L168.768 23.582Z" fill="#FF681A"/>
<path d="M57.7747 84.6328L56.4732 87.0062L54.0999 88.3013L56.4732 89.5965L57.7747 91.9698L59.0699 89.5965L61.4432 88.3013L59.0699 87.0062L57.7747 84.6328Z" fill="#FF681A"/>
<path d="M178.223 33.6494L177.426 35.1041L175.971 35.9016L177.426 36.6991L178.223 38.1601L179.027 36.6991L180.482 35.9016L179.027 35.1041L178.223 33.6494Z" fill="#FF681A"/>
<path d="M50.6555 70.9922L49.858 72.4468L48.4033 73.2443L49.858 74.0418L50.6555 75.5029L51.453 74.0418L52.9076 73.2443L51.453 72.4468L50.6555 70.9922Z" fill="#FF681A"/>
<path d="M230.89 236.942L226.194 233.248L233.053 224.412L239.975 229.739L239.586 230.314C237.831 232.866 230.475 243.125 228.74 244.35C226.749 245.785 230.89 236.942 230.89 236.942Z" fill="#FF681A"/>
<path d="M228.12 244.266C228.037 244.203 230.558 240.859 233.748 236.802C236.938 232.744 239.592 229.509 239.675 229.573C239.758 229.637 237.237 232.98 234.047 237.038C230.857 241.095 228.203 244.33 228.12 244.266Z" fill="#263238"/>
<path d="M231.726 237.874C231.726 237.976 231.401 238.014 231.043 238.014C230.686 238.014 230.374 237.963 230.361 237.861C230.348 237.759 230.648 237.625 231.043 237.631C231.439 237.637 231.726 237.771 231.726 237.874Z" fill="#263238"/>
<path d="M231.592 238.677C231.56 238.779 231.222 238.772 230.826 238.715C230.431 238.658 230.099 238.581 230.099 238.479C230.099 238.377 230.45 238.281 230.877 238.339C231.305 238.396 231.624 238.575 231.592 238.677Z" fill="#263238"/>
<path d="M237.557 232.196C237.506 232.196 237.398 232.011 237.27 231.666C237.098 231.205 237.014 230.716 237.021 230.224C237.028 229.71 237.213 229.214 237.544 228.821C237.806 228.527 238.048 228.457 238.074 228.502C238.099 228.546 237.934 228.693 237.761 228.98C237.536 229.368 237.413 229.807 237.404 230.256C237.405 230.712 237.448 231.167 237.532 231.615C237.589 231.953 237.608 232.183 237.557 232.196Z" fill="#263238"/>
<path d="M230.82 237.204C230.782 237.108 230.973 236.936 231.222 236.776C231.471 236.617 231.713 236.515 231.783 236.591C231.854 236.668 231.713 236.917 231.433 237.102C231.152 237.287 230.858 237.306 230.82 237.204Z" fill="#263238"/>
<path d="M230.449 236.712C230.373 236.636 230.494 236.349 230.717 236.074C230.941 235.8 231.202 235.609 231.292 235.672C231.381 235.736 231.253 236.017 231.017 236.31C230.781 236.604 230.552 236.783 230.449 236.712Z" fill="#263238"/>
<path d="M199.781 161.02C199.781 161.02 185.745 198.24 187.659 205.195C189.573 212.149 227.33 239.761 227.33 239.761L237.582 224.998C237.582 224.998 208.12 201.679 208.024 200.397C207.928 199.115 219.725 168.184 219.725 168.184L199.781 161.02Z" fill="#263238"/>
<path d="M226.679 228.412L226.545 228.342C226.449 228.271 226.328 228.195 226.175 228.099L224.771 227.136C223.566 226.287 221.817 225.049 219.667 223.48C215.418 220.341 209.644 215.862 203.52 210.618C201.988 209.304 200.502 208.008 199.054 206.752L196.967 204.882C196.255 204.31 195.646 203.619 195.168 202.841C194.774 202.038 194.682 201.122 194.907 200.257C195.066 199.434 195.277 198.662 195.474 197.903C195.876 196.403 196.278 195.012 196.642 193.743L198.39 187.739C198.581 187.05 198.735 186.501 198.849 186.1L198.964 185.672C198.944 185.666 198.928 185.653 198.917 185.635C198.906 185.618 198.903 185.597 198.907 185.576C198.912 185.556 198.925 185.539 198.943 185.528C198.961 185.517 198.982 185.514 199.003 185.519C199.023 185.524 199.04 185.537 199.051 185.555C199.062 185.573 199.065 185.594 199.06 185.615C199.057 185.629 199.05 185.641 199.039 185.652C199.029 185.662 199.017 185.669 199.003 185.672C198.986 185.819 198.956 185.964 198.913 186.106C198.83 186.482 198.703 187.044 198.518 187.758C198.154 189.194 197.586 191.255 196.878 193.8C196.527 195.076 196.138 196.461 195.749 197.966C195.557 198.713 195.353 199.498 195.2 200.295C194.997 201.095 195.085 201.941 195.449 202.681C195.914 203.423 196.5 204.081 197.184 204.627L199.277 206.484C200.7 207.76 202.186 209.036 203.743 210.344C209.861 215.582 215.603 220.086 219.814 223.269L224.829 227.014L226.194 228.029L226.545 228.297C226.622 228.373 226.685 228.412 226.679 228.412Z" fill="#455A64"/>
<path d="M223.259 232.91C223.183 232.853 225.129 230.167 227.604 226.913C230.079 223.659 232.153 221.063 232.23 221.12C232.306 221.177 230.354 223.863 227.878 227.124C225.403 230.384 223.336 232.968 223.259 232.91Z" fill="#455A64"/>
<path d="M224.523 90.2402C225.799 92.7412 226.437 94.9104 228.913 96.1992C230.029 96.7861 231.394 97.1179 232.103 98.177C232.836 99.3381 232.492 101.016 233.417 102.005C234.77 103.479 237.526 102.286 239.038 103.581C240.39 104.742 239.956 107.23 241.417 108.251C242.234 108.832 243.331 108.704 244.288 109.061C245.82 109.655 246.547 111.422 246.745 113.049C246.956 114.355 246.79 115.694 246.266 116.909C245.999 117.511 245.584 118.037 245.06 118.437C244.536 118.838 243.92 119.099 243.268 119.199C241.526 119.384 239.561 118.185 238.164 119.199C237.709 119.62 237.315 120.101 236.99 120.628C236.634 121.081 236.192 121.459 235.69 121.741C235.188 122.022 234.635 122.202 234.063 122.271C233.492 122.339 232.912 122.294 232.358 122.138C231.804 121.982 231.285 121.718 230.833 121.362C230.425 121.035 230.079 120.638 229.812 120.188C228.842 118.567 228.906 116.36 227.484 115.084C226.677 114.517 225.773 114.102 224.817 113.859C223.892 113.514 222.935 112.94 222.66 111.996C222.341 111.161 221.889 110.383 221.32 109.693C220.612 108.634 219.668 109.929 218.724 109.406C217.78 108.883 218.143 107.862 218.086 106.79" fill="#263238"/>
<path d="M208.018 126.402L195.896 122.351C195.896 122.351 190.543 137.765 188.878 137.918C179.793 138.747 170.07 135.729 166.663 134.543C166.312 134.154 165.916 133.688 165.476 133.114C165.101 132.621 164.812 132.069 164.621 131.48C164.358 130.757 164.195 130.002 164.136 129.235C164.154 129.047 164.097 128.86 163.978 128.714C163.858 128.568 163.686 128.476 163.498 128.456C163.392 128.448 163.284 128.463 163.184 128.5C163.084 128.538 162.993 128.597 162.918 128.673C162.529 129.184 162.427 131.129 163.32 133.228C164.213 135.328 161.042 133.656 159.875 133.069C158.707 132.482 155.013 130.836 154.547 131.053C153.865 131.372 154.082 132.157 155.262 132.718C156.442 133.28 159.862 135.2 159.517 135.8C159.173 136.399 153.284 133.324 153.284 133.324C153.284 133.324 152.123 132.469 151.708 133.152C150.962 134.383 157.45 137.178 158.088 137.427C158.528 137.605 158.184 138.269 157.725 138.065C157.265 137.86 151.983 134.875 151.191 136.151C150.592 137.108 156.525 138.505 157.291 139.736C158.056 140.967 152.901 138.224 152.372 139.162C152.174 139.506 152.072 139.8 155.262 140.948C157.6 141.676 159.974 142.281 162.376 142.76V142.792C162.376 142.792 194.237 157.045 201.115 143.309C208.388 128.686 208.018 126.402 208.018 126.402Z" fill="#E5BAAB"/>
<path d="M219.992 113.636L225.281 113.731L229.479 125.771L226.06 139.564C225.058 143.59 229.601 151.654 229.479 156.101L199.825 160.905L199.187 141.095V140.457L188.922 135.353L192.309 127.059C197.522 114.848 206.626 114.108 206.626 114.108L219.992 113.636Z" fill="#FF681A"/>
<g opacity="0.2">
<path d="M219.992 113.636L225.281 113.731L229.479 125.771L226.06 139.564C225.058 143.59 229.601 151.654 229.479 156.101L199.825 160.905L199.187 141.095V140.457L188.922 135.353L192.309 127.059C197.522 114.848 206.626 114.108 206.626 114.108L219.992 113.636Z" fill="#FF1A1A"/>
</g>
<path d="M225.499 113.764C225.437 113.773 225.378 113.797 225.327 113.834C225.157 113.892 224.985 113.941 224.81 113.981C224.132 114.103 223.445 114.171 222.756 114.185L222.819 114.064L224.842 117.349L224.982 117.566L224.721 117.522C223.549 117.318 222.355 117.279 221.173 117.407L221.294 117.254C221.339 118.602 221.531 119.941 221.869 121.247L221.958 121.515L221.677 121.452C220.33 121.164 219.031 120.687 217.817 120.035L218.066 119.927C217.824 121.113 217.575 122.358 217.32 123.627L217.262 123.902L217.045 123.729C216.51 123.303 216.001 122.845 215.521 122.358C215.046 121.883 214.601 121.38 214.187 120.852L214.43 120.884L211.035 123.557L210.825 123.723L210.767 123.461C210.525 122.281 210.295 121.133 210.072 120.035L210.276 120.15L206.646 121.426L206.397 121.515L206.467 121.26C206.85 119.812 207.201 118.498 207.52 117.33L207.609 117.47L204.458 116.928H204.33L204.4 116.82L205.778 114.804L206.148 114.287C206.231 114.172 206.282 114.115 206.289 114.121C206.295 114.127 206.225 114.249 206.187 114.312L205.855 114.848L204.547 116.909L204.49 116.781L207.648 117.26H207.775V117.388L206.767 121.33L206.589 121.158L210.2 119.882L210.372 119.818L210.41 119.997L211.125 123.423L210.857 123.327L214.245 120.641L214.379 120.533L214.487 120.667C214.884 121.17 215.31 121.65 215.763 122.102C216.235 122.579 216.733 123.029 217.256 123.449L216.988 123.551C217.243 122.275 217.498 121.037 217.741 119.85L217.785 119.621L217.99 119.742C219.173 120.379 220.44 120.847 221.754 121.133L221.569 121.33C221.233 120.003 221.049 118.642 221.02 117.273V117.132H221.161C222.37 117.01 223.591 117.063 224.784 117.292L224.663 117.47C223.891 116.194 223.234 115.046 222.698 114.146L222.634 114.032H222.762C223.447 114.037 224.131 113.994 224.81 113.904C225.037 113.845 225.267 113.798 225.499 113.764Z" fill="#455A64"/>
<path d="M231.356 118.822C231.149 118.734 230.936 118.662 230.718 118.605C230.106 118.436 229.461 118.425 228.843 118.574L228.894 118.503C229.015 119.205 229.206 120.047 229.468 121.011C229.73 121.974 230.049 123.065 230.336 124.296L230.38 124.475L230.195 124.424C228.683 123.984 226.903 123.652 225.034 123.02L225.206 122.88C225.404 124.698 225.391 126.708 225.5 128.877V129.062H225.308C223.604 128.766 221.928 128.325 220.3 127.742C220.096 127.684 219.86 127.601 219.802 127.691C219.674 127.844 219.579 128.022 219.522 128.214L218.992 129.49C218.641 130.351 218.277 131.225 217.914 132.105L217.805 132.373L217.627 132.15L214.233 127.939L213.977 127.627H214.207L208.759 131.378L208.58 131.499L208.503 131.295C207.865 129.522 207.291 127.812 206.717 126.153L206.959 126.236C205.053 127.474 203.016 128.499 200.886 129.292L200.662 129.381V129.12C201.051 126.357 201.402 123.875 201.702 121.732L201.862 121.853C200.311 122.466 198.646 122.733 196.981 122.638H196.873L196.911 122.535L198.053 119.46C198.187 119.135 198.283 118.873 198.359 118.676C198.39 118.584 198.431 118.497 198.48 118.414C198.462 118.507 198.436 118.599 198.404 118.688C198.334 118.893 198.244 119.154 198.136 119.492C197.881 120.22 197.498 121.259 197.058 122.593L196.987 122.484C198.624 122.55 200.255 122.265 201.772 121.649L201.957 121.572V121.77C201.67 123.92 201.319 126.395 200.975 129.164L200.777 129.011C202.881 128.213 204.892 127.188 206.774 125.955L206.947 125.847L207.017 126.038L208.816 131.142L208.561 131.066L214.016 127.308L214.15 127.218L214.245 127.34L214.5 127.652L217.888 131.869L217.601 131.908L218.686 129.292L219.215 128.016C219.292 127.775 219.425 127.556 219.604 127.378C219.669 127.321 219.749 127.283 219.834 127.269H220.051C220.17 127.295 220.287 127.327 220.402 127.365C222.015 127.943 223.673 128.387 225.359 128.692L225.181 128.852C225.085 126.695 225.104 124.673 224.925 122.867V122.657L225.123 122.727C226.973 123.365 228.741 123.716 230.265 124.175L230.125 124.303C229.857 123.084 229.545 121.993 229.302 121.017C229.06 120.041 228.881 119.199 228.773 118.465V118.408H228.83C229.464 118.265 230.126 118.296 230.744 118.497C230.961 118.579 231.167 118.688 231.356 118.822Z" fill="#455A64"/>
<path d="M199.353 140.284C199.12 140.216 198.903 140.101 198.715 139.946C198.172 139.569 197.706 139.09 197.344 138.536C196.805 137.695 196.561 136.699 196.648 135.704C196.69 134.619 197.011 133.564 197.582 132.64C198.152 131.717 198.951 130.957 199.902 130.434L199.813 130.561C200.055 128.743 200.278 127.18 200.451 126.095C200.514 125.503 200.623 124.916 200.776 124.341C200.781 124.939 200.739 125.536 200.648 126.127C200.54 127.237 200.355 128.807 200.132 130.632V130.708L200.049 130.753C199.159 131.263 198.412 131.987 197.874 132.859C197.335 133.732 197.024 134.725 196.967 135.748C196.871 136.683 197.076 137.625 197.554 138.434C197.894 138.983 198.325 139.468 198.83 139.87C199.012 139.999 199.186 140.137 199.353 140.284Z" fill="#455A64"/>
<path d="M200.464 126.919C200.381 126.963 200.088 126.536 199.826 125.975C199.565 125.413 199.392 124.922 199.482 124.877C199.571 124.833 199.858 125.26 200.12 125.828C200.381 126.396 200.56 126.881 200.464 126.919Z" fill="#455A64"/>
<path d="M219.636 113.808L220.548 92.9649L212.254 86.6934L204.732 90.3682C204.732 90.3682 204.477 99.817 204.732 103.919C204.987 108.022 209.115 108.449 209.115 108.449C209.115 108.449 209.019 110.854 208.923 113.375C208.868 114.786 209.374 116.163 210.33 117.203C211.287 118.243 212.616 118.862 214.027 118.925H214.295C215.673 118.923 216.997 118.39 217.991 117.437C218.986 116.484 219.575 115.185 219.636 113.808Z" fill="#E5BAAB"/>
<path d="M205.568 97.2585C205.566 97.3632 205.596 97.466 205.653 97.5537C205.711 97.6415 205.792 97.7104 205.889 97.7516C205.985 97.7928 206.091 97.8046 206.194 97.7854C206.297 97.7662 206.392 97.7169 206.467 97.6438C206.542 97.5706 206.594 97.4769 206.615 97.3744C206.637 97.2719 206.628 97.1654 206.589 97.0681C206.55 96.9709 206.483 96.8874 206.397 96.8281C206.31 96.7689 206.208 96.7366 206.104 96.7354C205.965 96.7354 205.832 96.7905 205.734 96.8886C205.636 96.9867 205.58 97.1198 205.58 97.2585H205.568Z" fill="#263238"/>
<path d="M205.058 96.6846C205.122 96.7548 205.511 96.423 206.072 96.3911C206.634 96.3592 207.061 96.6336 207.125 96.557C207.189 96.4804 207.08 96.4039 206.895 96.2763C206.646 96.1141 206.351 96.0359 206.053 96.0531C205.756 96.0703 205.472 96.1821 205.243 96.372C205.077 96.5251 205.019 96.6591 205.058 96.6846Z" fill="#263238"/>
<path d="M211.642 97.2585C211.642 97.362 211.673 97.4631 211.73 97.5492C211.788 97.6352 211.869 97.7022 211.965 97.7418C212.06 97.7814 212.166 97.7918 212.267 97.7716C212.369 97.7514 212.462 97.7016 212.535 97.6284C212.608 97.5553 212.658 97.4621 212.678 97.3606C212.698 97.2591 212.688 97.1539 212.648 97.0583C212.609 96.9627 212.542 96.881 212.456 96.8235C212.37 96.766 212.268 96.7354 212.165 96.7354C212.026 96.7354 211.893 96.7905 211.795 96.8886C211.697 96.9867 211.642 97.1198 211.642 97.2585Z" fill="#263238"/>
<path d="M211.31 96.6846C211.373 96.7548 211.763 96.423 212.33 96.3911C212.898 96.3592 213.313 96.6336 213.377 96.557C213.44 96.4804 213.332 96.4039 213.147 96.2763C212.897 96.1141 212.602 96.0359 212.305 96.0531C212.008 96.0703 211.724 96.1821 211.495 96.372C211.442 96.4063 211.397 96.4523 211.365 96.5066C211.333 96.5608 211.314 96.6218 211.31 96.6846Z" fill="#263238"/>
<path d="M211.143 101.986C210.282 102.427 209.363 102.745 208.413 102.931C208.621 103.214 208.918 103.42 209.257 103.516C209.595 103.612 209.956 103.592 210.282 103.46C210.433 103.426 210.575 103.362 210.701 103.272C210.826 103.182 210.933 103.069 211.015 102.938C211.097 102.807 211.152 102.661 211.177 102.509C211.203 102.356 211.198 102.201 211.163 102.05L211.143 101.986Z" fill="white"/>
<path d="M209.122 108.449C211.069 108.37 212.953 107.734 214.551 106.618C214.551 106.618 213.32 109.63 209.211 109.457L209.122 108.449Z" fill="#D78776"/>
<path d="M232.472 104.742C231.955 104.762 231.443 104.645 230.985 104.404C230.31 104.042 229.749 103.498 229.365 102.835C228.888 102.005 228.482 101.136 228.153 100.238C227.387 98.3239 226.813 96.5694 226.417 95.2806C226.36 95.0765 226.302 94.8914 226.251 94.7128C226.2 94.5342 226.181 94.2981 226.143 94.1514C223.904 85.6085 216.413 84.0135 214.908 84.0135C213.402 84.0135 210.531 83.1395 206.467 87.3567C205.853 87.9895 205.333 88.7071 204.923 89.4876C204.025 90.6146 203.404 91.9367 203.111 93.3475C202.933 94.0111 202.9 94.7053 203.015 95.3827C203.092 95.3827 203.105 94.6043 203.424 93.4177C203.617 92.7202 203.882 92.0445 204.215 91.4016C203.859 92.9801 204.004 94.6305 204.63 96.1228L206.084 95.7208L211.303 93.9472C210.831 92.3267 211.526 90.3234 211.941 89.3855L211.979 89.3536C212.273 91.0571 213.099 92.6235 214.34 93.8273C215.58 95.0312 217.171 95.8103 218.882 96.0526L219.846 109.451C226.781 107.97 226.621 98.6875 226.577 96.7991C226.896 97.8645 227.304 99.0831 227.815 100.365C228.155 101.284 228.583 102.169 229.09 103.007C229.522 103.712 230.149 104.278 230.896 104.634C231.399 104.87 231.961 104.952 232.51 104.87C232.714 104.85 232.908 104.775 233.072 104.653C232.875 104.7 232.674 104.73 232.472 104.742Z" fill="#263238"/>
<path d="M209.275 101.457C208.975 101.38 208.666 101.341 208.356 101.342C208.21 101.342 208.069 101.31 208.037 101.208C208.019 101.05 208.048 100.89 208.12 100.748L208.503 99.5809C208.777 98.7451 209.007 97.9859 209.141 97.4372C209.249 97.1452 209.319 96.8408 209.352 96.5312C209.193 96.7987 209.07 97.0862 208.988 97.3862C208.796 97.9285 208.541 98.6622 208.267 99.5107C208.139 99.919 208.018 100.315 207.897 100.685C207.813 100.869 207.795 101.076 207.846 101.272C207.865 101.322 207.897 101.368 207.938 101.403C207.98 101.439 208.029 101.464 208.082 101.476C208.164 101.488 208.248 101.488 208.331 101.476C208.645 101.508 208.962 101.501 209.275 101.457Z" fill="#263238"/>
<path d="M220.982 101.283C220.918 100.601 220.994 99.9128 221.205 99.2608C221.314 98.9356 221.508 98.6456 221.767 98.4211C222.027 98.1966 222.341 98.0459 222.679 97.9848C223.072 97.9685 223.457 98.0963 223.763 98.3442C224.068 98.5921 224.273 98.943 224.338 99.331C224.385 99.7226 224.315 100.12 224.135 100.471C223.956 100.822 223.675 101.112 223.33 101.302C222.98 101.485 222.593 101.586 222.198 101.597C221.803 101.609 221.411 101.529 221.052 101.366" fill="#E5BAAB"/>
<path d="M222.156 100.685C222.156 100.64 222.379 100.742 222.673 100.653C222.856 100.593 223.016 100.477 223.131 100.321C223.245 100.166 223.308 99.9781 223.311 99.785C223.326 99.6883 223.32 99.5896 223.295 99.4951C223.27 99.4006 223.225 99.3125 223.164 99.2363C223.037 99.1369 222.878 99.089 222.717 99.1023C222.411 99.1342 222.194 99.2108 222.175 99.1597C222.156 99.1087 222.315 98.9683 222.679 98.8662C222.796 98.8355 222.919 98.8315 223.039 98.8547C223.158 98.8779 223.271 98.9276 223.368 99.0002C223.476 99.1016 223.558 99.2277 223.607 99.3677C223.656 99.5077 223.67 99.6574 223.649 99.8041C223.634 100.086 223.526 100.355 223.342 100.57C223.191 100.749 222.976 100.863 222.743 100.889C222.328 100.933 222.156 100.71 222.156 100.685Z" fill="#D78776"/>
<path d="M215.897 263.623V257.651L227.088 257.581L227.177 266.315L226.488 266.366C223.4 266.558 210.78 267.119 208.713 266.507C206.41 265.824 215.897 263.623 215.897 263.623Z" fill="#FF681A"/>
<path d="M208.452 265.958C208.452 265.856 212.637 265.767 217.799 265.767C222.96 265.767 227.139 265.856 227.139 265.958C227.139 266.06 222.96 266.149 217.799 266.149C212.637 266.149 208.452 266.066 208.452 265.958Z" fill="#263238"/>
<path d="M215.706 264.842C215.61 264.893 215.393 264.676 215.17 264.389C214.947 264.102 214.8 263.84 214.87 263.751C214.94 263.662 215.234 263.834 215.476 264.147C215.719 264.459 215.776 264.791 215.706 264.842Z" fill="#263238"/>
<path d="M214.991 265.237C214.889 265.275 214.691 265.001 214.487 264.656C214.283 264.312 214.143 264.018 214.226 263.936C214.309 263.853 214.596 264.089 214.813 264.465C215.03 264.842 215.087 265.199 214.991 265.237Z" fill="#263238"/>
<path d="M223.77 265.919C223.731 265.887 223.821 265.677 224.012 265.364C224.267 264.943 224.6 264.575 224.995 264.28C225.403 263.968 225.905 263.806 226.417 263.82C226.813 263.82 227.017 263.992 226.998 264.037C226.979 264.082 226.756 264.037 226.424 264.088C225.986 264.148 225.571 264.32 225.218 264.586C224.858 264.867 224.527 265.183 224.229 265.53C223.98 265.792 223.814 265.951 223.77 265.919Z" fill="#263238"/>
<path d="M215.667 263.738C215.724 263.648 215.973 263.693 216.254 263.789C216.534 263.885 216.764 264.012 216.745 264.114C216.726 264.216 216.445 264.261 216.107 264.152C215.769 264.044 215.616 263.808 215.667 263.738Z" fill="#263238"/>
<path d="M215.846 263.139C215.846 263.037 216.153 262.954 216.516 262.96C216.88 262.967 217.154 263.056 217.154 263.158C217.154 263.26 216.861 263.349 216.484 263.343C216.108 263.337 215.834 263.247 215.846 263.139Z" fill="#263238"/>
<path d="M205.906 160L199.781 161.027L203.31 165.366C204.324 185.782 204.075 205.591 205.013 215.461C205.153 216.961 211.482 263.949 210.851 262.871L229.487 263.649L223.923 216.437L226.558 174.502C229.416 169.547 230.253 163.68 228.893 158.124L228.434 156.242" fill="#455A64"/>
<path d="M218.748 86.2084C218.284 86.0297 217.868 85.7433 217.535 85.373C217.203 85.0026 216.962 84.5586 216.834 84.0775C216.718 83.593 216.735 83.086 216.885 82.6106C217.034 82.1353 217.31 81.7095 217.683 81.3788C218.065 81.0599 218.535 80.8642 219.03 80.8175C219.525 80.7708 220.023 80.8753 220.458 81.1172C221.124 81.5775 221.611 82.2535 221.836 83.0312C222.047 83.5328 222.104 84.0855 222.002 84.6198C221.874 85.0044 221.649 85.3493 221.348 85.621C221.047 85.8926 220.681 86.0818 220.286 86.1701C219.492 86.3284 218.676 86.35 217.874 86.2339" fill="#263238"/>
<path d="M235.19 97.5768C235.26 97.3038 235.273 97.0193 235.228 96.7411C235.155 96.4255 235.004 96.1336 234.788 95.8925C234.489 95.5815 234.109 95.3605 233.69 95.2545C233.175 95.1293 232.642 95.0926 232.115 95.1461C231.534 95.1843 230.915 95.2864 230.239 95.2992C229.514 95.3438 228.793 95.1729 228.165 94.8079C227.537 94.3372 227.096 93.659 226.921 92.8939C226.5 91.5457 225.805 90.299 224.88 89.2318C224.121 88.3614 223.23 87.6164 222.238 87.0243C221.301 86.5133 220.313 86.1007 219.291 85.793H219.514C219.731 85.8102 219.945 85.853 220.152 85.9206C220.925 86.1171 221.669 86.413 222.366 86.801C223.4 87.3793 224.332 88.1253 225.122 89.0085C226.091 90.092 226.819 91.3683 227.259 92.7536C227.408 93.4471 227.797 94.0661 228.357 94.5017C228.936 94.8394 229.601 94.9992 230.271 94.961C230.909 94.961 231.547 94.8653 232.134 94.8398C232.692 94.7971 233.253 94.8511 233.792 94.9993C234.247 95.127 234.655 95.3841 234.966 95.7394C235.194 96.0138 235.344 96.3443 235.4 96.6964C235.432 96.9106 235.413 97.1294 235.343 97.3344C235.254 97.5194 235.196 97.5832 235.19 97.5768Z" fill="#263238"/>
<path d="M223.432 101.246C223.432 101.214 223.738 101.457 223.738 102.005C223.734 102.167 223.698 102.326 223.631 102.473C223.564 102.62 223.468 102.751 223.349 102.86C223.205 103 223.03 103.105 222.838 103.165C222.646 103.225 222.443 103.238 222.245 103.205C222.048 103.171 221.861 103.092 221.698 102.975C221.536 102.858 221.402 102.705 221.307 102.528C221.231 102.387 221.184 102.232 221.169 102.072C221.154 101.912 221.17 101.75 221.218 101.597C221.251 101.457 221.316 101.327 221.408 101.216C221.5 101.105 221.616 101.017 221.747 100.959C221.594 101.158 221.493 101.393 221.454 101.642C221.409 101.889 221.454 102.145 221.582 102.363C221.662 102.49 221.767 102.599 221.891 102.683C222.015 102.768 222.155 102.826 222.303 102.854C222.451 102.875 222.602 102.866 222.746 102.825C222.89 102.784 223.023 102.714 223.138 102.618C223.331 102.455 223.458 102.229 223.496 101.98C223.534 101.54 223.355 101.272 223.432 101.246Z" fill="#E0E0E0"/>
<path d="M221.754 87.0123C220.388 85.6511 218.646 84.7291 216.752 84.3646C217.745 84.3261 218.731 84.5507 219.609 85.0156C220.488 85.4806 221.228 86.1694 221.754 87.0123Z" fill="#FF681A"/>
<path d="M224.133 100.461C224.133 100.416 224.318 100.403 224.433 100.614C224.461 100.677 224.476 100.745 224.476 100.815C224.476 100.884 224.461 100.952 224.433 101.016C224.391 101.095 224.329 101.161 224.253 101.209C224.176 101.256 224.089 101.282 223.999 101.284C223.863 101.292 223.729 101.247 223.626 101.157C223.524 101.068 223.46 100.941 223.451 100.805C223.444 100.771 223.444 100.737 223.451 100.703C223.451 100.486 223.604 100.416 223.636 100.441C223.668 100.467 223.636 100.569 223.693 100.697C223.703 100.767 223.738 100.83 223.792 100.875C223.847 100.92 223.916 100.943 223.987 100.939C224.013 100.941 224.04 100.937 224.066 100.929C224.091 100.92 224.115 100.906 224.135 100.888C224.155 100.871 224.171 100.849 224.183 100.825C224.195 100.801 224.202 100.774 224.203 100.748C224.203 100.748 224.203 100.716 224.203 100.697C224.197 100.575 224.12 100.512 224.133 100.461Z" fill="#E0E0E0"/>
<path d="M219.769 113.17C219.834 113.393 219.858 113.627 219.839 113.859C219.825 114.495 219.7 115.123 219.469 115.716C219.171 116.481 218.708 117.17 218.111 117.735C217.515 118.299 216.801 118.725 216.021 118.98C215.241 119.236 214.413 119.315 213.599 119.213C212.784 119.111 212.002 118.829 211.309 118.389C210.506 117.873 209.847 117.162 209.395 116.322C209.093 115.761 208.893 115.152 208.802 114.522C208.757 114.295 208.757 114.061 208.802 113.833C208.936 114.665 209.21 115.467 209.612 116.207C210.072 116.984 210.711 117.64 211.475 118.121C212.423 118.691 213.521 118.96 214.625 118.892C215.728 118.825 216.786 118.425 217.657 117.744C218.36 117.174 218.916 116.443 219.278 115.613C219.574 114.831 219.74 114.006 219.769 113.17Z" fill="#455A64"/>
<path d="M218.43 259.381C218.411 259.325 218.398 259.267 218.392 259.208C218.392 259.074 218.347 258.909 218.322 258.698C218.258 258.226 218.168 257.569 218.06 256.739C217.843 255.036 217.556 252.573 217.218 249.517C216.535 243.418 215.699 234.984 214.947 225.65C214.194 216.316 213.671 207.843 213.377 201.712C213.218 198.65 213.115 196.168 213.058 194.451C213.033 193.601 213.013 192.944 213.001 192.48V191.963C212.994 191.906 212.994 191.848 213.001 191.791C213.007 191.848 213.007 191.906 213.001 191.963C212.997 192.134 213.01 192.305 213.039 192.474C213.071 192.952 213.109 193.609 213.167 194.445C213.269 196.187 213.409 198.656 213.588 201.699C213.958 207.824 214.519 216.284 215.266 225.618C216.012 234.952 216.816 243.392 217.428 249.492C217.741 252.529 217.99 254.991 218.168 256.727C218.251 257.556 218.315 258.213 218.36 258.692C218.365 258.863 218.38 259.033 218.404 259.202C218.422 259.26 218.431 259.32 218.43 259.381Z" fill="#263238"/>
<path d="M228.843 259.424C228.609 259.487 228.369 259.521 228.128 259.526C227.669 259.565 226.999 259.609 226.176 259.648C224.523 259.731 222.239 259.769 219.719 259.731C217.199 259.692 214.915 259.616 213.269 259.552L211.317 259.456C211.074 259.463 210.832 259.437 210.596 259.38C210.832 259.329 211.075 259.309 211.317 259.322H213.275C214.921 259.322 217.205 259.361 219.725 259.399C222.246 259.437 224.517 259.437 226.169 259.399H228.122C228.362 259.379 228.604 259.387 228.843 259.424Z" fill="#263238"/>
<path d="M225.499 113.763C224.62 114.086 223.691 114.252 222.755 114.254L222.876 114.024L224.108 116.021L224.886 117.297L225.071 117.61L224.714 117.54C223.534 117.367 222.346 117.266 221.154 117.24C221.481 117.132 221.824 117.078 222.168 117.08C223.038 117.025 223.912 117.072 224.771 117.221L224.605 117.463L223.814 116.187L222.621 114.171L222.487 113.948H222.742C223.559 113.91 224.254 113.859 224.733 113.814C224.986 113.771 225.242 113.754 225.499 113.763Z" fill="#455A64"/>
<path d="M231.356 118.823C231.356 118.881 230.43 118.657 228.842 118.619L228.95 118.498C229.327 119.991 229.824 121.981 230.405 124.278L230.469 124.546L230.207 124.476L226.149 123.379L225.046 123.072L225.263 122.9C225.352 125.101 225.435 127.143 225.505 128.897V129.089L225.326 129.038L221.428 127.947L220.35 127.628C220.221 127.595 220.096 127.546 219.98 127.481C220.114 127.483 220.247 127.504 220.376 127.545L221.473 127.794L225.384 128.763L225.212 128.91C225.122 127.156 225.02 125.114 224.912 122.919V122.683L225.141 122.747L226.245 123.053L230.29 124.182L230.092 124.38C229.556 122.064 229.097 120.061 228.746 118.555L228.714 118.428H228.855C229.479 118.458 230.099 118.537 230.711 118.664C230.931 118.695 231.147 118.748 231.356 118.823Z" fill="#455A64"/>
<path d="M232.16 135.002C231.98 134.871 231.825 134.709 231.701 134.524C231.433 134.186 231.14 133.624 230.718 132.974H230.891C229.858 134.99 228.65 136.911 227.28 138.716L227.152 138.888L227.018 138.716C226.38 137.92 225.742 137.07 225.104 136.164L223.637 134.25H223.879L221.518 136.329L220.459 137.242L219.968 137.669L219.732 137.873L219.675 137.924H219.604C219.604 137.982 219.394 137.848 219.439 137.79V137.752C219.439 137.752 219.483 137.861 219.502 137.854L219.394 137.886L219.356 137.765C218.979 136.489 218.718 135.481 218.558 134.754C218.449 134.383 218.406 133.997 218.431 133.612C218.499 133.986 218.586 134.356 218.692 134.722C218.89 135.43 219.19 136.444 219.604 137.688L219.458 137.599C219.504 137.586 219.552 137.586 219.598 137.599C219.63 137.61 219.658 137.63 219.677 137.658C219.697 137.685 219.707 137.718 219.707 137.752C219.713 137.782 219.713 137.812 219.707 137.841H219.675L219.585 137.803C219.579 137.779 219.566 137.757 219.547 137.739L219.509 137.701L219.56 137.65L219.796 137.44L220.281 137.006C220.612 136.706 220.957 136.368 221.321 136.074L223.649 134.001L223.783 133.88L223.898 134.026L225.366 135.94C226.042 136.821 226.693 137.676 227.28 138.492H227.018C228.388 136.707 229.623 134.822 230.712 132.852L230.801 132.699L230.891 132.846C231.299 133.529 231.529 134.122 231.79 134.447C232.052 134.773 232.179 134.983 232.16 135.002Z" fill="#455A64"/>
<path d="M220.88 125.931C220.876 126.148 220.839 126.363 220.771 126.569C220.676 126.964 220.529 127.526 220.325 128.221C219.923 129.606 219.298 131.507 218.494 133.555C217.69 135.603 216.848 137.421 216.197 138.71C215.872 139.348 215.597 139.871 215.393 140.222C215.304 140.412 215.19 140.59 215.055 140.751C215.321 140.019 215.63 139.304 215.98 138.608C216.573 137.293 217.371 135.475 218.175 133.434C218.979 131.392 219.636 129.51 220.089 128.145C220.305 127.39 220.569 126.651 220.88 125.931Z" fill="#455A64"/>
<path d="M225.499 113.763C224.62 114.086 223.691 114.252 222.755 114.254L222.876 114.024L224.108 116.021L224.886 117.297L225.071 117.61L224.714 117.54C223.534 117.367 222.346 117.266 221.154 117.24C221.481 117.132 221.824 117.078 222.168 117.08C223.038 117.025 223.912 117.072 224.771 117.221L224.605 117.463L223.814 116.187L222.621 114.171L222.487 113.948H222.742C223.559 113.91 224.254 113.859 224.733 113.814C224.986 113.771 225.242 113.754 225.499 113.763Z" fill="#455A64"/>
<path d="M220.88 125.931C220.876 126.148 220.839 126.363 220.771 126.569C220.676 126.964 220.529 127.526 220.325 128.221C219.923 129.606 219.298 131.507 218.494 133.555C217.69 135.603 216.848 137.421 216.197 138.71C215.872 139.348 215.597 139.871 215.393 140.222C215.304 140.412 215.19 140.59 215.055 140.751C215.321 140.019 215.63 139.304 215.98 138.608C216.573 137.293 217.371 135.475 218.175 133.434C218.979 131.392 219.636 129.51 220.089 128.145C220.305 127.39 220.569 126.651 220.88 125.931Z" fill="#455A64"/>
<path d="M161.777 117.816L146.947 168.697C146.182 171.322 147.69 174.07 150.315 174.836L233.671 199.132C236.296 199.897 239.045 198.389 239.81 195.764L254.64 144.883C255.406 142.258 253.898 139.509 251.273 138.744L167.916 114.448C165.291 113.683 162.543 115.191 161.777 117.816Z" fill="#ABABAB"/>
<path d="M158.854 154.066L157.348 159.221L156.819 159.068L158.184 154.385L156.965 154.028L157.106 153.556L158.854 154.066Z" fill="white"/>
<path d="M164.097 160.294L163.957 160.766L160.314 159.745L160.422 159.369L163.178 157.895C163.931 157.493 164.142 157.174 164.244 156.823C164.416 156.223 164.103 155.738 163.319 155.509C163.061 155.416 162.785 155.382 162.513 155.409C162.24 155.437 161.977 155.525 161.743 155.668L161.462 155.234C161.767 155.054 162.108 154.943 162.46 154.908C162.813 154.872 163.169 154.914 163.504 155.03C164.55 155.336 165.054 156.064 164.78 156.944C164.639 157.435 164.352 157.831 163.465 158.31L161.207 159.522L164.097 160.294Z" fill="white"/>
<path d="M169.757 161.021L168.723 160.721L168.328 162.073L167.798 161.92L168.194 160.561L165.284 159.745L165.393 159.362L169.125 156.746L169.712 156.918L166.107 159.47L168.347 160.108L168.691 158.915L169.208 159.068L168.864 160.261L169.891 160.561L169.757 161.021Z" fill="white"/>
<path d="M177.656 163.298L176.622 162.992L176.227 164.351L175.697 164.198L176.093 162.839L173.184 161.99L173.298 161.608L177.024 158.985L177.611 159.158L174.007 161.71L176.246 162.348L176.591 161.155L177.107 161.301L176.763 162.501L177.79 162.801L177.656 163.298Z" fill="white"/>
<path d="M182.21 164.446C181.949 165.32 181.138 165.83 179.881 165.46C179.194 165.29 178.6 164.86 178.223 164.261L178.605 163.916C178.764 164.179 178.974 164.408 179.221 164.589C179.468 164.771 179.749 164.902 180.047 164.975C180.921 165.23 181.515 164.937 181.693 164.337C181.872 163.738 181.598 163.138 180.283 162.761L179.186 162.436L180.207 159.929L183.027 160.752L182.893 161.224L180.532 160.535L179.894 162.13L180.532 162.321C182.063 162.749 182.472 163.533 182.21 164.446Z" fill="white"/>
<path d="M187.308 165.906C187.18 166.33 186.889 166.686 186.5 166.896C186.11 167.107 185.653 167.154 185.228 167.029L185.088 166.978C183.716 166.583 183.251 165.415 183.723 163.788C184.233 162.04 185.458 161.402 186.855 161.81C187.288 161.913 187.683 162.134 187.997 162.448L187.659 162.812C187.409 162.545 187.085 162.358 186.728 162.276C185.618 161.951 184.692 162.461 184.291 163.858C184.252 163.999 184.214 164.139 184.188 164.286C184.42 164.046 184.716 163.877 185.041 163.801C185.366 163.726 185.706 163.745 186.019 163.858C186.23 163.895 186.432 163.972 186.613 164.086C186.794 164.201 186.95 164.349 187.073 164.524C187.197 164.699 187.284 164.896 187.331 165.105C187.378 165.314 187.383 165.53 187.347 165.741L187.308 165.906ZM186.779 165.772C186.823 165.625 186.837 165.469 186.82 165.316C186.804 165.163 186.757 165.014 186.683 164.879C186.609 164.744 186.509 164.624 186.388 164.528C186.268 164.432 186.129 164.36 185.981 164.318C185.925 164.299 185.868 164.286 185.809 164.28C185.669 164.211 185.517 164.17 185.361 164.16C185.206 164.15 185.05 164.171 184.902 164.222C184.755 164.272 184.619 164.351 184.502 164.454C184.385 164.557 184.289 164.682 184.22 164.822C184.152 164.962 184.111 165.114 184.101 165.269C184.091 165.425 184.112 165.581 184.162 165.728C184.213 165.876 184.292 166.012 184.395 166.129C184.498 166.246 184.623 166.342 184.763 166.41C184.89 166.474 185.029 166.513 185.171 166.525C185.455 166.652 185.778 166.661 186.069 166.55C186.36 166.438 186.594 166.216 186.721 165.932C186.747 165.881 186.766 165.828 186.779 165.772Z" fill="white"/>
<path d="M194.345 168.038C194.096 168.899 193.273 169.378 192.029 169.014C191.342 168.84 190.747 168.411 190.364 167.815L190.747 167.464C191.063 167.992 191.574 168.374 192.17 168.529C193.024 168.778 193.611 168.529 193.803 167.891C193.994 167.253 193.662 166.736 192.705 166.462L192.335 166.354L192.45 165.964L194.403 164.586L191.768 163.821L191.902 163.349L195.219 164.312L195.111 164.688L193.114 166.124C194.205 166.456 194.588 167.196 194.345 168.038Z" fill="white"/>
<path d="M199.532 169.473C199.467 169.684 199.361 169.88 199.221 170.05C199.08 170.22 198.908 170.36 198.713 170.464C198.518 170.567 198.304 170.63 198.085 170.651C197.865 170.671 197.644 170.649 197.433 170.583L197.305 170.539C195.94 170.143 195.474 168.976 195.946 167.349C196.457 165.594 197.682 164.963 199.079 165.365C199.509 165.473 199.903 165.693 200.221 166.003L199.883 166.366C199.628 166.104 199.306 165.919 198.951 165.83C197.841 165.511 196.916 166.015 196.508 167.413C196.47 167.553 196.438 167.693 196.412 167.84C196.642 167.597 196.938 167.427 197.264 167.352C197.59 167.277 197.931 167.3 198.243 167.419C198.455 167.455 198.658 167.533 198.84 167.648C199.022 167.763 199.179 167.913 199.302 168.089C199.426 168.266 199.513 168.465 199.559 168.675C199.605 168.885 199.609 169.102 199.57 169.314C199.563 169.368 199.55 169.422 199.532 169.473ZM199.002 169.333C199.045 169.183 199.058 169.026 199.039 168.871C199.021 168.716 198.972 168.567 198.896 168.431C198.819 168.295 198.716 168.176 198.593 168.08C198.47 167.984 198.33 167.913 198.179 167.872L198.033 167.84C197.893 167.771 197.741 167.731 197.585 167.721C197.43 167.711 197.274 167.732 197.126 167.782C196.979 167.833 196.842 167.911 196.725 168.014C196.608 168.117 196.513 168.242 196.444 168.382C196.375 168.522 196.335 168.674 196.325 168.83C196.315 168.985 196.336 169.141 196.386 169.289C196.437 169.437 196.515 169.573 196.618 169.69C196.721 169.807 196.846 169.902 196.986 169.971C197.114 170.034 197.253 170.073 197.395 170.086C197.536 170.148 197.688 170.183 197.842 170.186C197.997 170.19 198.15 170.163 198.294 170.108C198.438 170.052 198.57 169.968 198.682 169.862C198.793 169.755 198.883 169.627 198.945 169.486C198.945 169.429 198.99 169.371 199.002 169.314V169.333Z" fill="white"/>
<path d="M205.325 167.234L205.216 167.61L201.669 171.764L201.095 171.598L204.578 167.528L201.924 166.762L201.644 167.725L201.12 167.572L201.542 166.137L205.325 167.234Z" fill="white"/>
<path d="M212.694 169.384L212.586 169.76L209.039 173.907L208.464 173.742L211.948 169.677L209.294 168.906L209.013 169.869L208.49 169.716L208.911 168.28L212.694 169.384Z" fill="white"/>
<path d="M216.689 174.584C216.421 175.496 215.483 175.86 214.252 175.477C213.02 175.094 212.427 174.329 212.695 173.417C212.775 173.121 212.955 172.863 213.204 172.685C213.453 172.507 213.755 172.421 214.06 172.44C213.842 172.295 213.678 172.082 213.591 171.835C213.505 171.587 213.502 171.318 213.582 171.069C213.824 170.233 214.692 169.914 215.783 170.233C216.874 170.552 217.448 171.286 217.199 172.147C217.131 172.402 216.981 172.627 216.772 172.788C216.564 172.949 216.308 173.038 216.044 173.04C216.31 173.188 216.517 173.42 216.634 173.701C216.751 173.981 216.77 174.292 216.689 174.584ZM216.147 174.418C216.332 173.78 215.898 173.225 214.985 172.957C214.073 172.689 213.416 172.957 213.231 173.595C213.046 174.233 213.467 174.788 214.386 175.056C215.304 175.324 215.955 175.056 216.147 174.418ZM215.139 172.536C215.942 172.772 216.529 172.536 216.689 171.994C216.848 171.452 216.453 170.909 215.681 170.686C214.909 170.463 214.303 170.686 214.137 171.241C213.971 171.796 214.303 172.306 215.139 172.536Z" fill="white"/>
<path d="M222.041 174.853C221.531 176.607 220.306 177.245 218.902 176.837C218.473 176.731 218.081 176.51 217.766 176.199L218.104 175.835C218.353 176.102 218.675 176.288 219.03 176.371C220.146 176.697 221.065 176.186 221.473 174.789C221.511 174.649 221.55 174.508 221.575 174.362C221.346 174.605 221.05 174.775 220.724 174.85C220.398 174.925 220.057 174.902 219.744 174.783C219.534 174.747 219.334 174.669 219.154 174.555C218.974 174.441 218.819 174.293 218.697 174.118C218.575 173.944 218.488 173.747 218.442 173.539C218.397 173.331 218.392 173.117 218.43 172.907C218.437 172.848 218.449 172.791 218.468 172.735C218.594 172.312 218.882 171.956 219.27 171.746C219.657 171.535 220.112 171.487 220.535 171.612L220.688 171.663C222.047 172.059 222.513 173.226 222.041 174.853ZM221.607 173.622C221.673 173.29 221.604 172.946 221.416 172.665C221.229 172.384 220.937 172.189 220.605 172.122H220.567C220.281 172.015 219.964 172.024 219.684 172.147C219.404 172.271 219.183 172.498 219.068 172.782C218.953 173.065 218.954 173.382 219.069 173.665C219.185 173.949 219.406 174.176 219.687 174.298C219.765 174.33 219.846 174.354 219.929 174.368C220.085 174.432 220.251 174.464 220.419 174.463C220.587 174.462 220.753 174.428 220.907 174.363C221.062 174.298 221.202 174.202 221.32 174.083C221.438 173.963 221.531 173.822 221.594 173.666C221.595 173.651 221.599 173.635 221.607 173.622Z" fill="white"/>
<path d="M228.006 173.843L226.5 178.998L225.971 178.845L227.336 174.162L226.118 173.805L226.258 173.333L228.006 173.843Z" fill="white"/>
<path d="M230.89 180.071L230.75 180.543L227.132 179.522L227.241 179.146L229.997 177.672C230.75 177.27 230.96 176.951 231.062 176.6C231.235 176.007 230.922 175.516 230.137 175.286C229.879 175.193 229.604 175.159 229.331 175.187C229.059 175.214 228.795 175.303 228.561 175.445L228.281 175.012C228.586 174.833 228.927 174.722 229.28 174.688C229.632 174.654 229.988 174.697 230.322 174.814C231.369 175.114 231.873 175.841 231.598 176.728C231.452 177.219 231.171 177.615 230.284 178.093L228.026 179.305L230.89 180.071Z" fill="white"/>
<path d="M235.553 180.415C235.298 181.276 234.481 181.755 233.237 181.391C232.554 181.205 231.967 180.765 231.598 180.16L231.98 179.815C232.136 180.078 232.341 180.307 232.586 180.49C232.83 180.673 233.108 180.806 233.403 180.881C234.258 181.13 234.845 180.881 235.03 180.243C235.215 179.605 234.896 179.088 233.939 178.814L233.569 178.705L233.684 178.31L235.63 176.938L232.995 176.172L233.135 175.7L236.446 176.664L236.338 177.04L234.347 178.45C235.432 178.846 235.815 179.586 235.553 180.415Z" fill="white"/>
<path d="M195.707 174.19L195.056 176.426L236.348 188.453L236.999 186.218L195.707 174.19Z" fill="white"/>
<path d="M214.523 184.507L213.87 186.749L235.052 192.919L235.705 190.677L214.523 184.507Z" fill="white"/>
<path d="M159.867 138.829L157.866 145.695C157.377 147.373 158.341 149.13 160.019 149.619L171.27 152.899C172.948 153.388 174.705 152.424 175.194 150.746L177.195 143.88C177.684 142.202 176.721 140.445 175.043 139.956L163.791 136.677C162.113 136.187 160.356 137.151 159.867 138.829Z" fill="#CACACA"/>
<path d="M158.036 145.147L158.279 144.318L167.211 146.921C167.707 147.065 168.24 147.007 168.692 146.759C169.145 146.511 169.481 146.093 169.626 145.597C169.77 145.101 169.712 144.568 169.464 144.115C169.216 143.662 168.798 143.327 168.302 143.182L159.37 140.585L159.612 139.756L168.544 142.353C169.229 142.587 169.797 143.076 170.13 143.718C170.464 144.36 170.537 145.105 170.335 145.8C170.133 146.495 169.671 147.085 169.046 147.448C168.42 147.811 167.678 147.919 166.975 147.75L158.036 145.147Z" fill="white"/>
<path d="M170.139 145.285L169.896 146.118L176.019 147.909L176.263 147.076L170.139 145.285Z" fill="white"/>
<path d="M165.913 125.737L164.799 129.56L209.359 142.548L210.473 138.726L165.913 125.737Z" fill="white"/>
<path d="M232.473 134.805L221.518 127.608C221.518 127.608 216.165 143.022 214.5 143.176C205.415 144.005 195.692 140.987 192.285 139.801C191.94 139.411 191.545 138.946 191.105 138.371C190.729 137.879 190.44 137.327 190.25 136.738C189.984 136.016 189.82 135.26 189.765 134.492C189.783 134.305 189.726 134.118 189.606 133.972C189.487 133.826 189.314 133.733 189.127 133.714C189.02 133.706 188.913 133.721 188.812 133.758C188.712 133.796 188.621 133.855 188.546 133.931C188.151 134.441 188.049 136.387 188.948 138.486C189.848 140.585 186.67 138.914 185.503 138.327C184.335 137.74 180.635 136.094 180.169 136.311C179.493 136.63 179.704 137.414 180.884 137.976C182.064 138.537 185.484 140.458 185.146 141.057C184.808 141.657 178.906 138.582 178.906 138.582C178.906 138.582 177.751 137.727 177.337 138.41C176.584 139.641 183.079 142.436 183.717 142.684C184.15 142.863 183.806 143.527 183.347 143.322C182.887 143.118 177.528 140.132 176.756 141.37C176.163 142.327 182.096 143.724 182.862 144.956C183.627 146.187 178.466 143.444 177.936 144.375C177.739 144.726 177.643 145.013 180.833 146.168C183.169 146.896 185.541 147.501 187.94 147.98V148.012C187.94 148.012 220.516 162.596 226.679 148.528C233.276 133.535 232.473 134.805 232.473 134.805Z" fill="#E5BAAB"/>
<path d="M225.282 113.731C225.282 113.731 235.234 114.905 234.214 126.747C233.548 134.067 231.49 141.194 228.153 147.743L215.099 140.891C218.038 135.028 220.249 128.827 221.683 122.427L225.345 113.731H225.282Z" fill="#FF681A"/>
<g opacity="0.2">
<path d="M225.281 113.731C225.281 113.731 235.234 114.905 234.213 126.747C233.547 134.067 231.49 141.194 228.152 147.743L215.099 140.891C218.038 135.028 220.249 128.827 221.683 122.427L225.345 113.731H225.281Z" fill="#FF1A1A"/>
</g>
<path d="M231.356 118.823C231.356 118.881 230.43 118.657 228.842 118.619L228.95 118.498C229.327 119.991 229.824 121.981 230.405 124.278L230.469 124.546L230.207 124.476L226.149 123.379L225.046 123.072L225.263 122.9C225.352 125.101 225.435 127.143 225.505 128.897V129.089L225.326 129.038L221.428 127.947L220.35 127.628C220.221 127.595 220.096 127.546 219.98 127.481C220.114 127.483 220.247 127.504 220.376 127.545L221.473 127.794L225.384 128.763L225.212 128.91C225.122 127.156 225.02 125.114 224.912 122.919V122.683L225.141 122.747L226.245 123.053L230.29 124.182L230.092 124.38C229.556 122.064 229.097 120.061 228.746 118.555L228.714 118.428H228.855C229.479 118.458 230.099 118.537 230.711 118.664C230.931 118.695 231.147 118.748 231.356 118.823Z" fill="#455A64"/>
<path d="M232.16 135.002C231.98 134.871 231.825 134.709 231.701 134.524C231.433 134.186 231.14 133.624 230.718 132.974H230.891C229.858 134.99 228.65 136.911 227.28 138.716L227.152 138.888L227.018 138.716C226.38 137.92 225.742 137.07 225.104 136.164L223.637 134.25H223.879L221.518 136.329L220.459 137.242L219.968 137.669L219.732 137.873L219.675 137.924H219.604C219.604 137.982 219.394 137.848 219.439 137.79V137.752C219.439 137.752 219.483 137.861 219.502 137.854L219.394 137.886L219.356 137.765C218.979 136.489 218.718 135.481 218.558 134.754C218.449 134.383 218.406 133.997 218.431 133.612C218.499 133.986 218.586 134.356 218.692 134.722C218.89 135.43 219.19 136.444 219.604 137.688L219.458 137.599C219.504 137.586 219.552 137.586 219.598 137.599C219.63 137.61 219.658 137.63 219.677 137.658C219.697 137.685 219.707 137.718 219.707 137.752C219.713 137.782 219.713 137.812 219.707 137.841H219.675L219.585 137.803C219.579 137.779 219.566 137.757 219.547 137.739L219.509 137.701L219.56 137.65L219.796 137.44L220.281 137.006C220.612 136.706 220.957 136.368 221.321 136.074L223.649 134.001L223.783 133.88L223.898 134.026L225.366 135.94C226.042 136.821 226.693 137.676 227.28 138.492H227.018C228.388 136.707 229.623 134.822 230.712 132.852L230.801 132.699L230.891 132.846C231.299 133.529 231.529 134.122 231.79 134.447C232.052 134.773 232.179 134.983 232.16 135.002Z" fill="#455A64"/>
</svg>
