<svg width="229" height="232" viewBox="0 0 229 232" fill="none" xmlns="http://www.w3.org/2000/svg">
<path d="M29.6715 16.0059H10.7993V22.0121H29.6715V16.0059Z" fill="#EBEBEB"/>
<path d="M212.059 69.794H192.65V63.251H212.059V69.794ZM193.187 69.2572H211.523V63.7877H193.187V69.2572Z" fill="#EBEBEB"/>
<path d="M19.1459 8.43294C16.0113 8.48662 7.97611 8.62081 4.94884 8.65838H0.273742L0.520647 8.41147V14.4177L0.252271 14.1493C3.38689 14.1493 11.3791 14.1923 14.4064 14.2352L19.1244 14.2943L18.9956 14.4177L19.1244 8.41147L19.1459 8.43294ZM19.1459 8.43294L19.2693 14.4392V14.568H19.1405C16.7842 14.6002 12.0554 14.6539 9.70445 14.67L0.268375 14.7076H0V14.4392V8.43294V8.19141H0.241536H5.00251C8.00832 8.22361 16.0059 8.3578 19.1137 8.41147L19.1459 8.43294Z" fill="#EBEBEB"/>
<path d="M50.6854 151.648C47.5508 151.702 39.5103 151.836 36.4884 151.874H31.8133L32.0548 151.627V157.633L31.7865 157.365C34.9211 157.365 42.9133 157.408 45.9406 157.451L50.6586 157.51L50.5298 157.633L50.6586 151.627L50.6854 151.648ZM50.6854 151.648L50.8089 157.655V157.783H50.6801C48.3237 157.816 43.595 157.869 41.244 157.891L31.8079 157.923H31.5396V157.649V151.643V151.401H31.7865H36.5474C39.5532 151.434 47.5508 151.573 50.6586 151.621L50.6854 151.648Z" fill="#EBEBEB"/>
<path d="M40.1537 144.075C37.0191 144.129 28.9839 144.263 25.962 144.3H21.2869L21.5285 144.054V150.06L21.2601 149.791C24.3893 149.791 32.3816 149.834 35.4088 149.877L40.1269 149.936L40.0034 150.06L40.1269 144.054L40.1537 144.075ZM40.1537 144.075L40.2825 150.081V150.21H40.1483C37.7974 150.242 33.0686 150.296 30.7123 150.317L21.2816 150.35H21.0132V150.076V144.07V143.828H21.2601H26.0157C29.0269 143.86 37.0245 144 40.1269 144.048L40.1537 144.075Z" fill="#EBEBEB"/>
<path d="M29.6712 151.648H10.7991V157.655H29.6712V151.648Z" fill="#EBEBEB"/>
<path d="M222.316 8.43262H203.444V14.4389H222.316V8.43262Z" fill="#EBEBEB"/>
<path d="M211.791 218.817H192.919V224.824H211.791V218.817Z" fill="#EBEBEB"/>
<path d="M222.317 211.243C219.182 211.297 211.147 211.431 208.12 211.469H203.445L203.692 211.222V217.228L203.423 216.96C206.558 216.96 214.55 216.997 217.577 217.046L222.295 217.099L222.167 217.228L222.295 211.222L222.317 211.243ZM222.317 211.243L222.446 217.25V217.379H222.317C219.96 217.411 215.237 217.464 212.881 217.481L203.445 217.518H203.176V217.266L203.203 211.26V211.013H203.445H208.206C211.211 211.045 219.214 211.179 222.317 211.233V211.243Z" fill="#EBEBEB"/>
<path d="M19.1461 218.818C16.0115 218.872 7.97636 219.006 4.94908 219.038L0.273986 219.065L0.520891 218.818V224.824L0.252515 224.556C3.38714 224.556 11.3794 224.594 14.4066 224.637L19.1247 224.696L18.9958 224.824L19.1247 218.818H19.1461ZM19.1461 218.818L19.2696 224.824V224.953H19.1408C16.7844 224.985 12.0557 225.039 9.70469 225.055L0.268619 225.093H0.000244141V224.824V218.818V218.571H0.24178H5.00276C8.00856 218.603 16.0061 218.738 19.1139 218.791L19.1461 218.818Z" fill="#EBEBEB"/>
<path d="M1.01465 231.249C71.6671 230.921 150.924 230.916 221.576 231.249C150.924 231.581 71.6671 231.576 1.01465 231.249Z" fill="#263238"/>
<path d="M182.371 215.392V16.7517C182.371 12.9306 179.273 9.83301 175.452 9.83301L47.131 9.83301C43.3098 9.83301 40.2122 12.9306 40.2122 16.7517V215.392C40.2122 219.213 43.3098 222.311 47.131 222.311H175.452C179.273 222.311 182.371 219.213 182.371 215.392Z" fill="#37474F"/>
<path d="M176.375 24.7061H46.3789V207.572H176.375V24.7061Z" fill="white"/>
<path d="M126.763 18.8989V18.0293C126.763 17.6588 126.462 17.3584 126.092 17.3584L96.4953 17.3584C96.1248 17.3584 95.8244 17.6588 95.8244 18.0293V18.8989C95.8244 19.2694 96.1248 19.5698 96.4953 19.5698H126.092C126.462 19.5698 126.763 19.2694 126.763 18.8989Z" fill="#263238"/>
<path d="M114.123 217.581C115.684 216.019 115.684 213.487 114.123 211.925C112.561 210.364 110.029 210.364 108.468 211.925C106.906 213.487 106.906 216.019 108.468 217.581C110.029 219.142 112.561 219.142 114.123 217.581Z" fill="#263238"/>
<path d="M176.375 24.7061H46.3789V207.572H176.375V24.7061Z" fill="white"/>
<path d="M176.375 24.7061H46.3789V29.1718H176.375V24.7061Z" fill="#263238"/>
<path d="M50.3725 26.9393C50.3725 27.1253 50.3173 27.3072 50.2138 27.4617C50.1104 27.6163 49.9634 27.7367 49.7914 27.8076C49.6195 27.8786 49.4303 27.8969 49.248 27.8602C49.0656 27.8235 48.8983 27.7335 48.7671 27.6016C48.636 27.4697 48.5469 27.3018 48.5113 27.1193C48.4757 26.9367 48.495 26.7477 48.5669 26.5761C48.6389 26.4046 48.7601 26.2583 48.9153 26.1557C49.0704 26.0531 49.2526 25.999 49.4386 26C49.5617 26 49.6836 26.0243 49.7972 26.0716C49.9109 26.1189 50.0141 26.1882 50.1009 26.2755C50.1877 26.3627 50.2564 26.4663 50.303 26.5803C50.3496 26.6942 50.3732 26.8162 50.3725 26.9393Z" fill="#C7C7C7"/>
<path d="M54.1992 26.9393C54.1992 27.1251 54.1441 27.3067 54.0409 27.4612C53.9377 27.6156 53.791 27.736 53.6193 27.8071C53.4477 27.8782 53.2588 27.8968 53.0766 27.8606C52.8944 27.8243 52.727 27.7349 52.5957 27.6035C52.4643 27.4721 52.3748 27.3048 52.3386 27.1226C52.3024 26.9404 52.321 26.7515 52.3921 26.5799C52.4632 26.4082 52.5835 26.2615 52.738 26.1583C52.8925 26.0551 53.0741 26 53.2599 26C53.509 26 53.7479 26.099 53.9241 26.2751C54.1002 26.4513 54.1992 26.6902 54.1992 26.9393Z" fill="white"/>
<path d="M58.021 26.9393C58.021 27.1251 57.9659 27.3067 57.8627 27.4612C57.7594 27.6157 57.6127 27.736 57.4411 27.8071C57.2695 27.8782 57.0806 27.8968 56.8984 27.8606C56.7162 27.8243 56.5488 27.7349 56.4174 27.6035C56.2861 27.4722 56.1966 27.3048 56.1604 27.1226C56.1241 26.9404 56.1427 26.7515 56.2138 26.5799C56.2849 26.4082 56.4053 26.2615 56.5598 26.1583C56.7143 26.0551 56.8959 26 57.0816 26C57.2052 25.9993 57.3277 26.0231 57.4419 26.0701C57.5562 26.117 57.6601 26.1862 57.7474 26.2735C57.8348 26.3609 57.904 26.4647 57.9509 26.579C57.9979 26.6933 58.0217 26.8158 58.021 26.9393Z" fill="#FF681A"/>
<path d="M129.463 65.6769C128.171 66.3913 126.734 66.8004 125.26 66.8729C123.786 66.9453 122.315 66.6792 120.96 66.0948C119.604 65.5104 118.401 64.6234 117.442 63.5018C116.483 62.3802 115.794 61.0537 115.427 59.6243C115.06 58.1949 115.026 56.7004 115.326 55.2556C115.627 53.8108 116.254 52.454 117.161 51.2894C118.067 50.1247 119.228 49.1832 120.555 48.537C121.881 47.8908 123.339 47.5571 124.814 47.5616V57.2231L129.463 65.6769Z" fill="#263238"/>
<path d="M130.536 49.4455L124.814 57.2123V47.5508C126.876 47.5504 128.882 48.2148 130.536 49.4455Z" fill="#FF681A"/>
<path d="M134.46 57.2121C134.466 59.6376 133.553 61.9753 131.905 63.7551L124.814 57.2121L130.536 49.4453C131.754 50.3408 132.744 51.5106 133.426 52.8599C134.108 54.2093 134.462 55.7003 134.46 57.2121Z" fill="#DBDBDB"/>
<path d="M135.373 68.232C134.67 69.0028 133.845 69.652 132.93 70.1535L128.288 61.6943L135.373 68.232Z" fill="#455A64"/>
<path d="M98.7601 47.9319L96.1085 57.2123V66.8738C93.5461 66.8738 91.0887 65.8559 89.2768 64.044C87.4649 62.2321 86.447 59.7747 86.447 57.2123C86.447 54.6499 87.4649 52.1925 89.2768 50.3806C91.0887 48.5687 93.5461 47.5508 96.1085 47.5508C97.0057 47.5554 97.8979 47.6836 98.7601 47.9319Z" fill="#DBDBDB"/>
<path d="M101.826 64.9899C100.171 66.2134 98.1671 66.8721 96.1094 66.8685V57.207L101.826 64.9899Z" fill="#263238"/>
<path d="M105.76 57.2127C105.763 58.7273 105.408 60.221 104.724 61.5724C104.04 62.9239 103.047 64.0949 101.826 64.9903L96.1094 57.2127L103.624 51.1475C105.013 52.8627 105.768 55.0052 105.76 57.2127Z" fill="#455A64"/>
<path d="M105.76 48.0169L98.2456 54.0875L100.897 44.8018C102.811 45.3472 104.509 46.47 105.76 48.0169Z" fill="#FF681A"/>
<path d="M67.4094 47.5615V57.223L60.9094 64.3457C59.476 63.032 58.4722 61.3164 58.0295 59.4231C57.5867 57.5298 57.7255 55.547 58.4277 53.7339C59.1298 51.9207 60.3627 50.3616 61.9652 49.2604C63.5677 48.1592 65.4651 47.5671 67.4094 47.5615Z" fill="#455A64"/>
<path d="M74.3174 50.4761L67.4094 57.2123V47.5508C68.6981 47.5507 69.9737 47.8097 71.1604 48.3122C72.347 48.8147 73.4206 49.5506 74.3174 50.4761Z" fill="#FF681A"/>
<path d="M77.0602 57.2118C77.0597 58.6444 76.7406 60.059 76.1261 61.3531C75.5115 62.6472 74.6169 63.7884 73.5069 64.6941L67.4094 57.2118L74.3174 50.4756C76.0781 52.2755 77.0628 54.694 77.0602 57.2118Z" fill="#DBDBDB"/>
<path d="M73.5065 67.2284C71.7124 68.6875 69.4546 69.4547 67.143 69.3906C64.8314 69.3266 62.6195 68.4356 60.9089 66.8795L67.409 59.7461L73.5065 67.2284Z" fill="#263238"/>
<path d="M153.515 47.5615V66.8845C150.952 66.8845 148.495 65.8666 146.683 64.0548C144.871 62.2429 143.853 59.7854 143.853 57.223C143.853 54.6606 144.871 52.2032 146.683 50.3913C148.495 48.5794 150.952 47.5615 153.515 47.5615Z" fill="#FF681A"/>
<path d="M155.952 47.8728L153.515 57.2123V47.5508C154.337 47.5559 155.156 47.6641 155.952 47.8728Z" fill="#263238"/>
<path d="M164.829 56.6588C164.831 57.8691 164.605 59.069 164.164 60.196L155.179 56.6588L157.616 47.3193C159.681 47.8602 161.509 49.07 162.814 50.7597C164.119 52.4494 164.828 54.5238 164.829 56.6588Z" fill="#455A64"/>
<path d="M162.494 60.755C161.783 62.5568 160.546 64.1032 158.945 65.1934C157.344 66.2836 155.452 66.8672 153.515 66.8685V57.207L162.494 60.755Z" fill="#DBDBDB"/>
<path d="M75.6421 73.6797H64.3757V74.7639H75.6421V73.6797Z" fill="#EBEBEB"/>
<path d="M71.8529 75.9385H64.376V77.0227H71.8529V75.9385Z" fill="#EBEBEB"/>
<path d="M62.5456 73.6631H59.1748V77.0339H62.5456V73.6631Z" fill="#455A64"/>
<path d="M104.343 73.6797H93.0769V74.7639H104.343V73.6797Z" fill="#EBEBEB"/>
<path d="M100.554 75.9385H93.0771V77.0227H100.554V75.9385Z" fill="#EBEBEB"/>
<path d="M91.2455 73.6631H87.8748V77.0339H91.2455V73.6631Z" fill="#DBDBDB"/>
<path d="M133.499 73.6797H122.233V74.7639H133.499V73.6797Z" fill="#EBEBEB"/>
<path d="M129.709 75.9385H122.232V77.0227H129.709V75.9385Z" fill="#EBEBEB"/>
<path d="M120.408 73.6631H117.037V77.0339H120.408V73.6631Z" fill="#263238"/>
<path d="M162.581 73.6797H151.314V74.7639H162.581V73.6797Z" fill="#EBEBEB"/>
<path d="M158.791 75.9385H151.314V77.0227H158.791V75.9385Z" fill="#EBEBEB"/>
<path d="M149.484 73.6631H146.113V77.0339H149.484V73.6631Z" fill="#FF681A"/>
<path d="M88.1653 164.696C88.1655 167.502 87.3402 170.246 85.7921 172.587C84.244 174.927 82.0416 176.76 79.4592 177.857L73.8716 164.696H88.1653Z" fill="#FF681A"/>
<path d="M72.0415 163.719L77.6291 176.875C77.6291 176.875 77.6291 176.875 77.6022 176.875C77.1621 177.052 76.7273 177.219 76.2872 177.353C73.5219 178.212 70.5611 178.212 67.7958 177.353C64.8854 176.446 62.3411 174.633 60.5344 172.178C58.7277 169.723 57.7532 166.754 57.7532 163.706C57.7532 160.658 58.7277 157.689 60.5344 155.234C62.3411 152.779 64.8854 150.966 67.7958 150.059C70.5611 149.2 73.5219 149.2 76.2872 150.059C78.4998 150.746 80.5123 151.96 82.1514 153.597C83.7905 155.235 85.0071 157.246 85.6964 159.458C86.1197 160.833 86.3367 162.264 86.3405 163.703L72.0415 163.719Z" fill="#FF681A"/>
<path d="M72.0412 163.72L77.6288 176.876C77.6288 176.876 77.6288 176.876 77.602 176.876C77.1618 177.053 76.7271 177.219 76.2869 177.354C73.4107 178.248 70.3254 178.211 67.4713 177.249C64.6172 176.286 62.1399 174.446 60.3929 171.993C58.6459 169.539 57.7184 166.596 57.7427 163.584C57.7669 160.572 58.7417 157.645 60.528 155.22C62.3143 152.794 64.8208 150.995 67.6901 150.078C70.5594 149.162 73.6448 149.175 76.5063 150.115C79.3678 151.056 81.8591 152.876 83.6251 155.316C85.391 157.756 86.3412 160.692 86.3403 163.704L72.0412 163.72Z" fill="#DBDBDB"/>
<path d="M72.0466 163.719L62.734 174.556C60.9208 172.993 59.5293 171 58.6873 168.759C57.8454 166.518 57.5799 164.102 57.9154 161.731C58.2509 159.361 59.1765 157.113 60.6072 155.194C62.038 153.275 63.928 151.746 66.1037 150.747C68.2795 149.749 70.6712 149.313 73.0592 149.48C75.4472 149.647 77.755 150.411 79.7707 151.703C81.7863 152.994 83.4452 154.771 84.595 156.871C85.7448 158.971 86.3486 161.325 86.351 163.719H72.0466Z" fill="#455A64"/>
<path d="M95.5615 182.655H84.7621L71.3916 169.285L71.5902 169.092L84.8748 182.382H95.5615V182.655Z" fill="#263238"/>
<path d="M72.2397 168.438H70.7368V169.94H72.2397V168.438Z" fill="#263238"/>
<path d="M95.5622 172.312H83.3941L77.6187 166.537L77.8119 166.344L83.5068 172.039H95.5622V172.312Z" fill="#263238"/>
<path d="M78.4665 165.689H76.9636V167.192H78.4665V165.689Z" fill="#263238"/>
<path d="M95.5561 162.077H77.1616V162.351H95.5561V162.077Z" fill="#263238"/>
<path d="M77.7146 161.465H76.2117V162.968H77.7146V161.465Z" fill="#263238"/>
<path d="M113.108 160.708H99.7432V161.953H113.108V160.708Z" fill="#EBEBEB"/>
<path d="M117.086 163.301H99.7432V164.546H117.086V163.301Z" fill="#EBEBEB"/>
<path d="M109.013 165.898H99.7432V167.144H109.013V165.898Z" fill="#EBEBEB"/>
<path d="M97.0644 160.708H94.0479V163.725H97.0644V160.708Z" fill="#455A64"/>
<path d="M114.735 170.751H99.7432V171.996H114.735V170.751Z" fill="#EBEBEB"/>
<path d="M112.244 173.349H99.7432V174.594H112.244V173.349Z" fill="#EBEBEB"/>
<path d="M117.086 175.941H99.7432V177.187H117.086V175.941Z" fill="#EBEBEB"/>
<path d="M97.0644 170.751H94.0479V173.768H97.0644V170.751Z" fill="#FF681A"/>
<path d="M114.735 180.794H99.7432V182.039H114.735V180.794Z" fill="#EBEBEB"/>
<path d="M112.244 183.392H99.7432V184.637H112.244V183.392Z" fill="#EBEBEB"/>
<path d="M117.086 185.989H99.7432V187.235H117.086V185.989Z" fill="#EBEBEB"/>
<path d="M97.0644 180.794H94.0479V183.81H97.0644V180.794Z" fill="#DBDBDB"/>
<path d="M57.7583 88.3603L94.1446 88.2744C106.275 88.3066 118.406 88.2744 130.536 88.3603C118.406 88.4408 106.275 88.4193 94.1446 88.4515L57.7583 88.3603Z" fill="#DBDBDB"/>
<path d="M57.7583 91.0805L94.1446 90.9893C106.275 91.0215 118.406 90.9893 130.536 91.0805C118.406 91.1556 106.275 91.1395 94.1446 91.1664L57.7583 91.0805Z" fill="#DBDBDB"/>
<path d="M57.7583 93.8134L94.1446 93.7275C106.275 93.7597 118.406 93.7275 130.536 93.8134C118.406 93.8886 106.275 93.8725 94.1446 93.9047L57.7583 93.8134Z" fill="#DBDBDB"/>
<path d="M57.7581 96.4965L94.1444 96.4053C106.275 96.4375 118.406 96.4053 130.536 96.4965C118.406 96.5717 106.275 96.5502 94.1444 96.5824L57.7581 96.4965Z" fill="#DBDBDB"/>
<path d="M57.7581 99.2343L94.1444 99.1484C106.275 99.1753 118.406 99.1484 130.536 99.2343C118.406 99.3095 106.275 99.2934 94.1444 99.3256L57.7581 99.2343Z" fill="#DBDBDB"/>
<path d="M57.7581 101.95L94.1444 101.864C106.275 101.896 118.406 101.864 130.536 101.95C118.406 102.031 106.275 102.009 94.1444 102.041L57.7581 101.95Z" fill="#DBDBDB"/>
<path d="M57.7583 104.671L94.1446 104.58C106.275 104.612 118.406 104.58 130.536 104.671C118.406 104.746 106.275 104.73 94.1446 104.757L57.7583 104.671Z" fill="#DBDBDB"/>
<path d="M57.7581 107.388L94.1444 107.302C106.275 107.334 118.406 107.302 130.536 107.388C118.406 107.468 106.275 107.447 94.1444 107.479L57.7581 107.388Z" fill="#DBDBDB"/>
<path d="M57.7583 110.109L94.1446 110.018C106.275 110.05 118.406 110.018 130.536 110.109C118.406 110.184 106.275 110.163 94.1446 110.195L57.7583 110.109Z" fill="#DBDBDB"/>
<path d="M57.7581 112.824L94.1444 112.738C106.275 112.765 118.406 112.738 130.536 112.824C118.406 112.899 106.275 112.883 94.1444 112.915L57.7581 112.824Z" fill="#DBDBDB"/>
<path d="M57.7583 115.546L94.1446 115.455C106.275 115.487 118.406 115.455 130.536 115.546C118.406 115.621 106.275 115.6 94.1446 115.632L57.7583 115.546Z" fill="#DBDBDB"/>
<path d="M57.7581 118.262L94.1444 118.171C106.275 118.203 118.406 118.171 130.536 118.262C118.406 118.337 106.275 118.321 94.1444 118.348L57.7581 118.262Z" fill="#DBDBDB"/>
<path d="M57.7583 120.978L94.1446 120.893C106.275 120.925 118.406 120.893 130.536 120.978C118.406 121.059 106.275 121.038 94.1446 121.07L57.7583 120.978Z" fill="#DBDBDB"/>
<path d="M57.7583 123.699L94.1446 123.607C106.275 123.64 118.406 123.607 130.536 123.699C118.406 123.774 106.275 123.752 94.1446 123.785L57.7583 123.699Z" fill="#DBDBDB"/>
<path d="M57.7583 126.416L94.1446 126.33C106.275 126.362 118.406 126.33 130.536 126.416C118.406 126.491 106.275 126.475 94.1446 126.507L57.7583 126.416Z" fill="#DBDBDB"/>
<path d="M70.9729 107.388H65.4551V129.582H70.9729V107.388Z" fill="#FF681A"/>
<path d="M81.2092 98H75.6914V129.582H81.2092V98Z" fill="#263238"/>
<path d="M91.4443 104.763H85.9265V129.582H91.4443V104.763Z" fill="#DBDBDB"/>
<path d="M101.686 96.5186H96.168V129.588H101.686V96.5186Z" fill="#FF681A"/>
<path d="M111.922 100.951H106.404V129.587H111.922V100.951Z" fill="#263238"/>
<path d="M122.163 117.173H116.645V129.583H122.163V117.173Z" fill="#DBDBDB"/>
<path d="M59.7336 86.4541L59.8839 97.2374L59.9859 108.021C60.0557 115.208 60.0772 122.395 60.0933 129.587L59.7336 129.255H77.4464L95.1592 129.292L112.872 129.4L130.585 129.598L112.872 129.791L95.1592 129.899L77.4464 129.936H59.7336H59.374V129.609C59.374 122.416 59.4062 115.229 59.4814 108.042L59.5834 97.2589L59.7336 86.4541Z" fill="#DBDBDB"/>
<path d="M70.9729 131.863H65.4551V132.32H70.9729V131.863Z" fill="#DBDBDB"/>
<path d="M81.2092 131.863H75.6914V132.32H81.2092V131.863Z" fill="#DBDBDB"/>
<path d="M91.4443 131.863H85.9265V132.32H91.4443V131.863Z" fill="#DBDBDB"/>
<path d="M101.686 131.863H96.168V132.32H101.686V131.863Z" fill="#DBDBDB"/>
<path d="M111.922 131.863H106.404V132.32H111.922V131.863Z" fill="#DBDBDB"/>
<path d="M122.163 131.863H116.645V132.32H122.163V131.863Z" fill="#DBDBDB"/>
<path d="M164.126 90.0449H144.207V91.1292H164.126V90.0449Z" fill="#EBEBEB"/>
<path d="M160.337 92.3047H144.207V93.3889H160.337V92.3047Z" fill="#EBEBEB"/>
<path d="M141.808 90.0283H138.437V93.3991H141.808V90.0283Z" fill="#FF681A"/>
<path d="M164.126 101.14H144.207V102.224H164.126V101.14Z" fill="#EBEBEB"/>
<path d="M160.337 103.399H144.207V104.484H160.337V103.399Z" fill="#EBEBEB"/>
<path d="M141.808 101.123H138.437V104.494H141.808V101.123Z" fill="#263238"/>
<path d="M164.126 112.234H144.207V113.319H164.126V112.234Z" fill="#EBEBEB"/>
<path d="M160.337 114.494H144.208V115.578H160.337V114.494Z" fill="#EBEBEB"/>
<path d="M141.808 112.218H138.437V115.589H141.808V112.218Z" fill="#DBDBDB"/>
<path d="M143.644 151.401C143.646 151.708 143.622 152.015 143.574 152.319C143.334 153.914 142.484 155.353 141.204 156.334C139.924 157.316 138.313 157.763 136.711 157.581C135.108 157.399 133.638 156.603 132.61 155.361C131.582 154.118 131.076 152.525 131.199 150.917C131.321 149.308 132.062 147.81 133.266 146.737C134.47 145.664 136.043 145.099 137.655 145.162C139.266 145.225 140.791 145.91 141.908 147.073C143.025 148.237 143.647 149.788 143.644 151.401Z" fill="#455A64"/>
<path d="M143.644 151.401C143.645 151.708 143.622 152.015 143.574 152.318L137.38 151.401V145.137C138.203 145.136 139.018 145.298 139.778 145.612C140.538 145.927 141.229 146.388 141.811 146.97C142.392 147.552 142.854 148.242 143.168 149.003C143.483 149.763 143.644 150.578 143.644 151.401Z" fill="#FF681A"/>
<path d="M137.38 155.732C139.772 155.732 141.712 153.793 141.712 151.401C141.712 149.009 139.772 147.069 137.38 147.069C134.988 147.069 133.048 149.009 133.048 151.401C133.048 153.793 134.988 155.732 137.38 155.732Z" fill="white"/>
<path d="M139.183 150.44H135.576V150.95H139.183V150.44Z" fill="#263238"/>
<path d="M140.074 151.857H134.68V152.367H140.074V151.857Z" fill="#A6A6A6"/>
<path d="M143.643 167.579C143.642 169.098 143.089 170.565 142.086 171.706C141.083 172.847 139.699 173.584 138.193 173.78C136.686 173.976 135.16 173.618 133.898 172.771C132.637 171.925 131.726 170.648 131.336 169.18C130.946 167.712 131.104 166.152 131.779 164.791C132.455 163.43 133.602 162.362 135.008 161.785C136.413 161.207 137.98 161.161 139.417 161.654C140.854 162.148 142.062 163.147 142.817 164.465C143.359 165.413 143.644 166.487 143.643 167.579Z" fill="#455A64"/>
<path d="M143.644 167.579C143.643 168.847 143.259 170.084 142.541 171.128C141.824 172.173 140.806 172.975 139.623 173.43L137.38 167.579V161.315C138.203 161.315 139.018 161.476 139.778 161.791C140.538 162.105 141.229 162.567 141.811 163.149C142.392 163.73 142.854 164.421 143.168 165.181C143.483 165.942 143.644 166.757 143.644 167.579Z" fill="#FF681A"/>
<path d="M137.38 171.91C139.772 171.91 141.712 169.971 141.712 167.579C141.712 165.186 139.772 163.247 137.38 163.247C134.988 163.247 133.048 165.186 133.048 167.579C133.048 169.971 134.988 171.91 137.38 171.91Z" fill="white"/>
<path d="M139.183 166.618H135.576V167.128H139.183V166.618Z" fill="#263238"/>
<path d="M140.074 168.035H134.68V168.545H140.074V168.035Z" fill="#A6A6A6"/>
<path d="M143.643 183.762C143.641 185.281 143.086 186.747 142.083 187.887C141.079 189.027 139.695 189.763 138.189 189.958C136.682 190.153 135.156 189.794 133.895 188.947C132.634 188.1 131.725 186.823 131.335 185.355C130.946 183.887 131.104 182.327 131.78 180.967C132.456 179.607 133.604 178.539 135.009 177.962C136.414 177.385 137.981 177.339 139.418 177.832C140.854 178.326 142.062 179.325 142.817 180.643C143.361 181.592 143.646 182.668 143.643 183.762Z" fill="#455A64"/>
<path d="M143.644 183.761C143.645 184.96 143.303 186.134 142.656 187.144C142.01 188.154 141.088 188.958 139.999 189.459C138.91 189.96 137.7 190.139 136.512 189.972C135.325 189.806 134.21 189.303 133.301 188.522L137.369 183.761V177.492C138.192 177.491 139.008 177.653 139.768 177.968C140.529 178.283 141.22 178.745 141.802 179.327C142.384 179.91 142.845 180.601 143.159 181.362C143.473 182.123 143.634 182.938 143.633 183.761H143.644Z" fill="#FF681A"/>
<path d="M141.669 184.268C141.96 181.894 140.272 179.733 137.898 179.441C135.523 179.149 133.362 180.838 133.07 183.212C132.779 185.587 134.467 187.748 136.842 188.04C139.216 188.331 141.377 186.643 141.669 184.268Z" fill="white"/>
<path d="M139.183 182.796H135.576V183.306H139.183V182.796Z" fill="#263238"/>
<path d="M140.074 184.213H134.68V184.723H140.074V184.213Z" fill="#A6A6A6"/>
<path d="M164.829 149.474H147.46V149.957H164.829V149.474Z" fill="#EBEBEB"/>
<path d="M164.829 151.164H147.46V151.647H164.829V151.164Z" fill="#EBEBEB"/>
<path d="M164.829 152.85H147.46V153.333H164.829V152.85Z" fill="#EBEBEB"/>
<path d="M164.829 165.651H147.46V166.134H164.829V165.651Z" fill="#EBEBEB"/>
<path d="M164.829 167.343H147.46V167.826H164.829V167.343Z" fill="#EBEBEB"/>
<path d="M164.829 169.027H147.46V169.51H164.829V169.027Z" fill="#EBEBEB"/>
<path d="M164.829 181.829H147.46V182.312H164.829V181.829Z" fill="#EBEBEB"/>
<path d="M164.829 183.52H147.46V184.003H164.829V183.52Z" fill="#EBEBEB"/>
<path d="M164.829 185.205H147.46V185.688H164.829V185.205Z" fill="#EBEBEB"/>
<path d="M29.9923 184.83C29.3844 187.056 28.9819 189.332 28.79 191.631C28.8544 191.744 28.8437 192.168 28.79 192.049C28.79 192.42 28.2103 192.355 28.205 191.985C28.205 191.744 28.205 191.507 28.205 191.271C26.8738 189.623 24.9469 188.587 23.3742 187.144C22.1194 186.017 21.2063 184.561 20.7388 182.941C19.4452 178.486 20.6529 173.762 19.1285 169.318C17.7866 165.486 15.3713 162.153 13.3424 158.68C11.1953 155.003 9.5851 151.165 9.45091 146.844C9.32745 143.549 9.71928 139.158 12.2259 136.694C14.9097 134.075 18.1838 136.034 20.2235 138.369C26.1277 145.148 28.8544 153.709 29.9601 162.464C30.572 167.295 31.2 172.184 31.0336 177.08C30.9476 179.691 30.5988 182.288 29.9923 184.83Z" fill="#FF681A"/>
<path d="M28.8168 193.407C29.134 188.839 29.0729 184.252 28.6343 179.693C28.6343 179.693 28.6343 179.661 28.6343 179.64C28.7094 175.931 29.0047 172.233 28.8597 168.518C28.6865 164.502 28.1475 160.51 27.2495 156.592C27.2518 156.586 27.2526 156.58 27.2519 156.574C27.2513 156.568 27.2491 156.562 27.2457 156.557C27.2423 156.552 27.2376 156.547 27.2322 156.545C27.2268 156.542 27.2207 156.54 27.2146 156.54C27.2085 156.54 27.2024 156.542 27.197 156.545C27.1916 156.547 27.1869 156.552 27.1835 156.557C27.18 156.562 27.1779 156.568 27.1772 156.574C27.1766 156.58 27.1774 156.586 27.1797 156.592C27.9028 160.442 28.3352 164.341 28.4733 168.255C28.5484 170.356 28.5305 172.453 28.4196 174.546C28.3874 175.228 28.323 175.915 28.2747 176.602C26.7376 166.184 22.9777 156.218 17.2498 147.381C17.1747 147.258 16.96 147.381 17.0351 147.51C21.127 154.226 24.1577 161.533 26.0203 169.173C23.1809 163.913 18.8923 159.587 15.7147 154.536C15.7147 154.509 15.6503 154.536 15.6664 154.563C18.5219 160.193 23.2453 164.627 26.2565 170.172C26.7932 172.431 27.2065 174.712 27.5232 177.01C27.9461 180.158 28.1738 183.329 28.2049 186.505C26.4766 183.284 24.6838 180.177 23.2668 176.757C23.2292 176.666 23.1004 176.757 23.1326 176.822C24.3403 180.375 25.9505 184.197 28.2156 187.208C28.2156 189.459 28.153 191.706 28.0278 193.95C27.6789 199.945 26.6537 205.86 26.1813 211.834C26.1876 211.866 26.2047 211.894 26.2297 211.915C26.2546 211.935 26.2859 211.946 26.3182 211.946C26.3505 211.946 26.3818 211.935 26.4067 211.915C26.4317 211.894 26.4488 211.866 26.4551 211.834C27.6585 205.752 28.4476 199.596 28.8168 193.407Z" fill="#263238"/>
<path d="M22.4513 147.188C22.4513 147.145 22.3708 147.188 22.3869 147.22C23.4604 150.247 24.0991 153.312 24.8935 156.415C24.8985 156.445 24.9152 156.471 24.9398 156.489C24.9645 156.507 24.9951 156.514 25.025 156.509C25.0549 156.504 25.0816 156.487 25.0992 156.462C25.1168 156.438 25.1239 156.407 25.119 156.377C24.7969 153.232 23.6697 150.092 22.4513 147.188Z" fill="#263238"/>
<path d="M50.2502 159.877C49.522 161.652 48.6812 163.378 47.7328 165.046C45.7629 168.626 43.7072 171.905 43.3368 176.076C43.1704 177.938 43.1114 179.806 42.5424 181.599C42.0257 183.142 41.2842 184.599 40.3418 185.925C38.1948 189.038 35.511 191.717 33.5519 194.948C31.4958 198.318 29.9748 201.986 29.0432 205.823C28.9949 206.032 28.6674 205.973 28.7158 205.764C28.7188 205.748 28.7188 205.731 28.7158 205.715C28.7119 205.701 28.7119 205.686 28.7158 205.672C28.3937 196.735 29.1076 187.745 31.8557 179.157C33.0474 175.395 34.4817 171.714 36.1497 168.137C37.6097 165.035 39.4293 162.051 41.995 159.732C43.6535 158.234 47.2658 155.395 49.6329 156.898C50.7869 157.617 50.7011 158.76 50.2502 159.877Z" fill="#FF681A"/>
<path d="M41.2688 180.139C39.6925 182.732 37.9573 185.226 36.0731 187.605C35.2089 188.732 34.334 189.854 33.4699 190.981C33.0619 191.518 32.6003 192.055 32.23 192.624C32.4661 191.684 32.6916 190.745 32.9331 189.806C34.0871 185.286 35.1928 180.735 36.9104 176.387C38.6727 172.182 40.7505 168.116 43.126 164.224C43.185 164.122 43.0187 164.047 42.9542 164.149C41.0702 167.252 39.1487 170.354 37.5867 173.628C36.7081 175.454 35.9427 177.333 35.2948 179.253C36.0062 175.181 37.0089 171.164 38.2952 167.235C38.2952 167.198 38.2577 167.176 38.2416 167.209C36.5349 171.185 35.4679 175.405 35.0801 179.715C34.6937 180.874 34.3358 182.044 34.0066 183.225C32.6003 188.228 31.3658 193.279 30.2172 198.351C30.199 195.018 30.4883 191.69 31.0813 188.41C31.0813 188.335 30.9793 188.319 30.9632 188.41C30.0897 191.83 29.7976 195.371 30.0991 198.888C29.6697 200.816 29.2474 202.747 28.8323 204.679C27.9574 208.796 26.8786 212.993 26.3633 217.175C26.3633 217.282 26.4975 217.304 26.5297 217.202C27.1416 214.947 27.5119 212.612 28.0111 210.326C28.5103 208.039 29.0309 205.753 29.5677 203.466C30.3406 200.144 31.1779 196.826 31.9831 193.515C32.5198 192.296 33.5933 191.217 34.4092 190.203C35.2894 189.081 36.1697 187.965 37.0231 186.827C38.6277 184.725 40.0636 182.499 41.3172 180.171C41.3762 180.123 41.2957 180.091 41.2688 180.139Z" fill="#263238"/>
<path d="M41.6504 176.312C39.685 178.824 37.9818 181.531 36.5674 184.39C36.5674 184.428 36.605 184.465 36.6264 184.428C38.3387 181.744 40.0241 179.06 41.7309 176.376C41.7578 176.317 41.6826 176.274 41.6504 176.312Z" fill="#263238"/>
<path d="M3.6058 168.347C4.75981 170.344 6.08559 172.738 5.58641 175.137C5.26972 176.651 4.16402 177.88 3.97616 179.431C3.53065 182.845 6.93365 185.099 9.39197 186.71C15.5324 190.741 23.9486 194.326 25.0651 202.549C25.108 202.844 25.6018 202.769 25.5696 202.485C25.5721 202.467 25.5721 202.449 25.5696 202.431C25.5696 202.431 25.6018 202.404 25.6018 202.383C26.4056 198.231 26.3654 193.959 25.4837 189.823C24.5713 185.582 22.7195 181.771 20.5403 178.052C16.826 171.75 12.9077 165.299 7.32011 160.473C5.77427 159.137 2.60744 156.716 1.37828 159.749C0.149125 162.781 2.18341 165.916 3.6058 168.347Z" fill="#FF681A"/>
<path d="M9.22075 181.706C13.2893 186.113 19.7572 188.582 23.2621 193.515C21.1849 185.952 17.7497 179.157 12.4735 173.253C12.4436 173.223 12.4265 173.184 12.426 173.142C12.4255 173.1 12.4416 173.06 12.4708 173.03C12.5 173 12.5398 172.983 12.5816 172.982C12.6234 172.982 12.6636 172.998 12.6935 173.027C16.4403 176.666 19.4365 181.004 21.5123 185.797C20.5435 182.452 19.2734 179.202 17.7175 176.087C17.6585 175.969 17.8302 175.867 17.8946 175.985C19.8279 179.383 21.2102 183.066 21.99 186.897C26.6061 198.072 27.0301 211.174 26.064 222.95C26.064 223.117 25.7956 223.122 25.801 222.95C26.064 213.67 25.9137 204.229 23.6915 195.163L23.5466 194.599C19.7357 189.291 13.2947 186.827 9.15097 181.782C9.1134 181.728 9.17781 181.658 9.22075 181.706Z" fill="#263238"/>
<path d="M8.27634 177.922C10.4233 179.881 12.5167 181.889 14.6583 183.826C14.6583 183.826 14.6583 183.88 14.6261 183.864C12.2044 182.234 10.0251 180.269 8.15289 178.029C8.14857 178.013 8.14894 177.996 8.15396 177.979C8.15897 177.963 8.16843 177.949 8.18127 177.937C8.19412 177.926 8.20982 177.919 8.22662 177.916C8.24342 177.913 8.26064 177.916 8.27634 177.922Z" fill="#263238"/>
<path d="M7.94255 169.436C9.83018 172.533 11.9663 175.472 14.3299 178.223C14.3621 178.26 14.3299 178.314 14.2762 178.276C11.6282 175.754 9.44761 172.783 7.8352 169.5C7.83412 169.487 7.8367 169.474 7.84265 169.463C7.84859 169.451 7.85767 169.441 7.86884 169.435C7.88001 169.428 7.89284 169.425 7.90586 169.425C7.91889 169.425 7.9316 169.429 7.94255 169.436Z" fill="#263238"/>
<path d="M17.5562 231.249H36.2673L33.7445 206.075H20.4385L17.5562 231.249Z" fill="#455A64"/>
<path d="M19.9712 210.171H34.1575L33.7442 206.075H20.4382L19.9712 210.171Z" fill="#263238"/>
<path d="M18.1465 207.305H35.6821V203.284H18.1465V207.305Z" fill="#455A64"/>
<path d="M202.355 120.507H152.185V169.093H202.355V120.507Z" fill="white"/>
<path d="M202.355 120.507C202.355 120.641 202.484 169.104 202.484 169.227C202.484 169.351 152.244 169.227 152.185 169.292H151.986V169.099C151.986 168.959 152.045 120.501 152.051 120.378C152.056 120.254 202.264 120.582 202.355 120.507ZM202.355 120.507L152.185 120.641C152.518 119.803 152.287 169.281 152.378 169.093L152.185 168.9L202.355 168.964C202.038 169.78 202.436 120.335 202.355 120.507Z" fill="#263238"/>
<path d="M202.355 120.507H152.185V123.588H202.355V120.507Z" fill="#263238"/>
<path d="M155.094 122.048C155.094 122.164 155.06 122.277 154.995 122.373C154.931 122.469 154.84 122.544 154.733 122.588C154.626 122.633 154.508 122.644 154.395 122.622C154.281 122.599 154.177 122.543 154.095 122.462C154.013 122.38 153.958 122.276 153.935 122.162C153.912 122.049 153.924 121.931 153.968 121.824C154.013 121.717 154.088 121.626 154.184 121.561C154.28 121.497 154.393 121.463 154.509 121.463C154.664 121.463 154.813 121.525 154.923 121.634C155.032 121.744 155.094 121.893 155.094 122.048Z" fill="#C7C7C7"/>
<path d="M157.482 122.048C157.482 122.164 157.448 122.277 157.384 122.373C157.319 122.469 157.228 122.544 157.121 122.588C157.014 122.633 156.896 122.644 156.783 122.622C156.669 122.599 156.565 122.543 156.483 122.462C156.402 122.38 156.346 122.276 156.323 122.162C156.301 122.049 156.312 121.931 156.357 121.824C156.401 121.717 156.476 121.626 156.572 121.561C156.668 121.497 156.781 121.463 156.897 121.463C157.052 121.463 157.201 121.525 157.311 121.634C157.42 121.744 157.482 121.893 157.482 122.048Z" fill="white"/>
<path d="M159.865 122.048C159.865 122.164 159.831 122.277 159.767 122.373C159.703 122.469 159.611 122.544 159.504 122.588C159.397 122.633 159.28 122.644 159.166 122.622C159.053 122.599 158.948 122.543 158.867 122.462C158.785 122.38 158.729 122.276 158.707 122.162C158.684 122.049 158.696 121.931 158.74 121.824C158.784 121.717 158.859 121.626 158.955 121.561C159.052 121.497 159.165 121.463 159.28 121.463C159.436 121.463 159.584 121.525 159.694 121.634C159.804 121.744 159.865 121.893 159.865 122.048Z" fill="#FF681A"/>
<path d="M179.21 131.328L175.909 142.879V154.886C172.768 154.819 169.778 153.525 167.579 151.28C165.381 149.035 164.15 146.018 164.15 142.876C164.15 139.734 165.381 136.717 167.579 134.472C169.778 132.227 172.768 130.933 175.909 130.866C177.025 130.868 178.136 131.023 179.21 131.328Z" fill="#FF681A"/>
<path d="M183.026 152.55C180.966 154.073 178.471 154.891 175.909 154.885V142.878L183.026 152.55Z" fill="#C7C7C7"/>
<path d="M187.922 142.878C187.921 144.76 187.477 146.615 186.627 148.293C185.777 149.972 184.543 151.426 183.026 152.54L175.909 142.878L185.249 135.326C186.983 137.46 187.928 140.128 187.922 142.878Z" fill="#37474F"/>
<path d="M187.922 131.44L178.582 138.986L181.883 127.436C184.259 128.119 186.367 129.517 187.922 131.44Z" fill="#263238"/>
<path d="M165.592 160.715H163.655V162.653H165.592V160.715Z" fill="#263238"/>
<path d="M188.174 160.715H166.94V161.289H188.174V160.715Z" fill="#455A64"/>
<path d="M180.66 162.078H166.94V162.652H180.66V162.078Z" fill="#455A64"/>
<path d="M63.5197 61.2109H1.01514V109.798H63.5197V61.2109Z" fill="white"/>
<path d="M63.5255 61.2114C63.5255 61.3456 63.6596 109.809 63.6596 109.932C63.6596 110.056 1.07991 109.932 1.02086 109.997H0.822266V109.798C0.822266 109.658 0.881308 61.206 0.886675 61.0772C0.892043 60.9484 63.4396 61.2758 63.5255 61.2114ZM63.5255 61.2114L1.02086 61.3456C1.34291 60.5082 1.13358 109.986 1.21946 109.798L1.02086 109.605L63.5255 109.669C63.2249 110.485 63.6006 61.0396 63.5255 61.2114Z" fill="#263238"/>
<path d="M21.9494 101.388H20.0117V103.325H21.9494V101.388Z" fill="#FF681A"/>
<path d="M44.5307 101.388H23.2969V101.962H44.5307V101.388Z" fill="#455A64"/>
<path d="M37.0162 102.751H23.2969V103.325H37.0162V102.751Z" fill="#455A64"/>
<path d="M7.98779 74.1092C16.082 74.0609 24.1762 74.0716 32.2704 74.0501C40.3646 74.0287 48.4588 74.0501 56.553 74.1092C48.4588 74.1575 40.3646 74.1467 32.2704 74.1629C24.1762 74.179 16.082 74.1575 7.98779 74.1092Z" fill="#455A64"/>
<path d="M7.98755 78.8172C16.0817 78.7689 24.1759 78.7796 32.2701 78.7581C40.3643 78.7367 48.4585 78.7581 56.5527 78.8172C48.4585 78.8655 40.3643 78.8548 32.2701 78.8762C24.1759 78.8977 16.0817 78.8655 7.98755 78.8172Z" fill="#455A64"/>
<path d="M7.98755 83.5245C16.0817 83.4762 24.1759 83.4869 32.2701 83.4708C40.3643 83.4547 48.4585 83.4708 56.5527 83.5245C48.4585 83.5782 40.3643 83.5621 32.2701 83.5835C24.1759 83.605 16.0817 83.5728 7.98755 83.5245Z" fill="#455A64"/>
<path d="M7.98779 88.2371C16.082 88.1834 24.1762 88.1995 32.2704 88.1781C40.3646 88.1566 48.4588 88.1781 56.553 88.2371C48.4588 88.2854 40.3646 88.2693 32.2704 88.2908C24.1762 88.3123 16.082 88.2854 7.98779 88.2371Z" fill="#455A64"/>
<path d="M7.98755 92.9441C16.0817 92.8958 24.1759 92.9066 32.2701 92.8851C40.3643 92.8636 48.4585 92.8851 56.5527 92.9441C48.4585 92.9924 40.3643 92.9817 32.2701 93.0032C24.1759 93.0246 16.0817 92.9924 7.98755 92.9441Z" fill="#455A64"/>
<path d="M17.7618 71.0449C17.837 75.4463 17.8155 79.8476 17.8477 84.2436C17.8799 88.6396 17.8477 93.0463 17.7618 97.4477C17.692 93.0463 17.7081 88.645 17.6813 84.2436C17.6545 79.8423 17.692 75.4463 17.7618 71.0449Z" fill="#455A64"/>
<path d="M26.162 71.0449C26.2317 75.4463 26.2156 79.8476 26.2479 84.2436C26.2801 88.6396 26.2479 93.0463 26.162 97.4477C26.0922 93.0463 26.1083 88.645 26.0815 84.2436C26.0546 79.8423 26.0922 75.4463 26.162 71.0449Z" fill="#455A64"/>
<path d="M34.5413 71.0449C34.6111 75.4463 34.595 79.8476 34.6218 84.2436C34.6486 88.6396 34.6218 93.0463 34.5413 97.4477C34.4661 93.0463 34.4876 88.645 34.4554 84.2436C34.4232 79.8423 34.4876 75.4463 34.5413 71.0449Z" fill="#455A64"/>
<path d="M42.9624 71.0449C43.0322 75.4463 43.0107 79.8476 43.0429 84.2436C43.0751 88.6396 43.0429 93.0463 42.9624 97.4477C42.8873 93.0463 42.9087 88.645 42.8765 84.2436C42.8443 79.8423 42.8873 75.4463 42.9624 71.0449Z" fill="#455A64"/>
<path d="M51.3578 71.0449C51.4329 75.4463 51.4115 79.8476 51.4437 84.2436C51.4759 88.6396 51.4437 93.0463 51.3578 97.4477C51.288 93.0463 51.3041 88.645 51.2773 84.2436C51.2504 79.8423 51.288 75.4463 51.3578 71.0449Z" fill="#455A64"/>
<path opacity="0.5" d="M9.2063 89.5192C10.6931 89.5192 11.5734 84.7314 13.6774 84.7314C15.7815 84.7314 15.9962 88.2256 17.7621 88.2256C19.528 88.2256 19.4743 82.0959 21.8521 82.0959C24.2299 82.0959 23.6771 84.5811 26.1461 84.5811C28.6152 84.5811 27.692 78.8057 30.2899 78.8057C32.8877 78.8057 31.8572 86.771 34.5409 86.771C36.2532 86.771 36.9134 84.2429 38.9584 84.2429C40.3164 84.2429 41.1054 85.5097 42.882 85.5097C44.6587 85.5097 45.029 80.6521 47.2512 80.6521C49.4733 80.6521 49.7095 83.5237 51.3358 83.5237C52.9622 83.5237 53.5473 78.8164 56.5316 78.8164V97.447H9.2063V89.5192Z" fill="#FF681A"/>
<path d="M9.2063 89.7557V89.2995C9.65717 89.2995 10.2798 88.1777 10.7253 87.3618C11.5036 85.9609 12.3033 84.517 13.6774 84.517C15.0515 84.517 15.6419 85.5905 16.2163 86.5137C16.6725 87.2437 17.1395 88.0059 17.7621 88.0059C18.3847 88.0059 18.798 86.5298 19.1469 85.4563C19.7212 83.6958 20.3117 81.8762 21.8307 81.8762C22.3135 81.8638 22.7908 81.9818 23.2121 82.218C23.6334 82.4542 23.9832 82.7997 24.2246 83.2181C24.6862 83.83 25.0834 84.3614 26.1408 84.3614C27.0962 84.3614 27.4719 83.0141 27.8315 81.7098C28.2609 80.1747 28.6957 78.5859 30.2845 78.5859C31.8733 78.5859 32.2597 80.5826 32.6891 82.7028C33.0327 84.4097 33.4621 86.5406 34.5409 86.5406C35.185 86.5406 35.711 86.0038 36.2693 85.4671C36.9509 84.7908 37.7185 84.0232 38.953 84.0232C39.6276 84.06 40.2809 84.2729 40.8477 84.6405C41.4553 85.0305 42.1554 85.2527 42.8767 85.2846C43.4886 85.2846 44.0468 84.1306 44.4869 83.202C45.1471 81.8386 45.8288 80.427 47.2351 80.427C48.6414 80.427 49.3069 81.3448 49.9188 82.15C50.359 82.7404 50.7776 83.2986 51.3251 83.2986C51.7921 83.2986 52.3235 82.4076 52.7904 81.6186C53.5902 80.2713 54.5832 78.5913 56.5209 78.5913V79.0529C55.0287 79.0529 54.1645 80.5075 53.4077 81.7903C52.7529 82.8638 52.2376 83.7602 51.3251 83.7602C50.4126 83.7602 49.8652 83.0839 49.3284 82.3647C48.7917 81.6454 48.2227 80.8832 47.2404 80.8832C46.2582 80.8832 45.6839 82.1929 45.1256 83.3469C44.4976 84.6351 43.9609 85.7462 42.8713 85.7462C42.0069 85.7201 41.1653 85.4624 40.4344 85.0001C39.9919 84.699 39.4805 84.5144 38.9476 84.4634C38.0566 84.4634 37.4179 85.1021 36.8006 85.714C36.1834 86.3259 35.5178 86.9914 34.5248 86.9914C32.8663 86.9914 32.453 84.9357 32.0128 82.7511C31.68 81.0979 31.2667 79.0368 30.2684 79.0368C29.27 79.0368 28.8245 80.4968 28.4703 81.785C28.0355 83.3415 27.6276 84.8122 26.1247 84.8122C25.6202 84.8288 25.1207 84.7083 24.6793 84.4635C24.2379 84.2187 23.8711 83.8588 23.6181 83.4221C23.1725 82.8316 22.7861 82.3486 21.8146 82.3486C20.8431 82.3486 20.2043 84.1359 19.7588 85.5691C19.2221 87.1793 18.8088 88.4729 17.7245 88.4729C16.6403 88.4729 16.1143 87.6141 15.5775 86.7016C15.0408 85.7891 14.504 84.984 13.6452 84.984C12.7864 84.984 11.9437 86.401 11.3157 87.5389C10.6609 88.7735 10.1134 89.7557 9.2063 89.7557Z" fill="#FF681A"/>
<path d="M9.20644 71.334C9.26011 75.687 9.30842 80.0347 9.31379 84.3878L9.3621 97.4469L9.20644 97.3396L32.8825 97.3664H44.691L56.4995 97.4254L44.691 97.4845H32.8825L9.20644 97.5704H9.05078V97.463L9.09909 84.4039C9.10982 80.0347 9.15276 75.687 9.20644 71.334Z" fill="#455A64"/>
<path d="M63.5197 61.2109H1.01514V64.2919H63.5197V61.2109Z" fill="#263238"/>
<path d="M3.94656 62.7515C3.9423 62.8652 3.90494 62.9753 3.83906 63.0681C3.77318 63.161 3.68164 63.2326 3.57566 63.2742C3.46968 63.3158 3.35386 63.3256 3.24241 63.3023C3.13096 63.2791 3.02872 63.2238 2.94821 63.1433C2.86771 63.0628 2.81244 62.9605 2.78919 62.8491C2.76594 62.7376 2.7757 62.6218 2.8173 62.5158C2.85889 62.4099 2.9305 62.3183 3.02335 62.2524C3.11621 62.1866 3.22626 62.1492 3.34003 62.1449C3.42049 62.1419 3.50071 62.1556 3.57566 62.185C3.65061 62.2144 3.71868 62.259 3.77561 62.3159C3.83254 62.3728 3.87711 62.4409 3.90653 62.5158C3.93594 62.5908 3.94957 62.671 3.94656 62.7515Z" fill="#C7C7C7"/>
<path d="M6.31279 62.752C6.30858 62.8667 6.27072 62.9777 6.20392 63.071C6.13713 63.1644 6.04435 63.236 5.93714 63.277C5.82994 63.318 5.71304 63.3266 5.601 63.3016C5.48896 63.2767 5.38673 63.2194 5.30704 63.1367C5.22735 63.0541 5.17373 62.9499 5.15284 62.837C5.13195 62.7242 5.14472 62.6077 5.18956 62.502C5.23441 62.3963 5.30934 62.3062 5.40503 62.2428C5.50072 62.1794 5.61295 62.1456 5.72773 62.1455C5.8064 62.1455 5.88428 62.1613 5.95669 62.192C6.02911 62.2227 6.09459 62.2678 6.14921 62.3244C6.20383 62.381 6.24646 62.4481 6.27457 62.5215C6.30268 62.595 6.31568 62.6734 6.31279 62.752Z" fill="white"/>
<path d="M8.7017 62.752C8.69749 62.8667 8.65963 62.9777 8.59284 63.071C8.52605 63.1644 8.43327 63.236 8.32606 63.277C8.21885 63.318 8.10195 63.3266 7.98991 63.3016C7.87787 63.2767 7.77565 63.2194 7.69596 63.1367C7.61627 63.0541 7.56264 62.9499 7.54175 62.837C7.52086 62.7242 7.53364 62.6077 7.57848 62.502C7.62332 62.3963 7.69826 62.3062 7.79395 62.2428C7.88964 62.1794 8.00186 62.1456 8.11665 62.1455C8.19532 62.1455 8.27319 62.1613 8.34561 62.192C8.41803 62.2227 8.48351 62.2678 8.53812 62.3244C8.59274 62.381 8.63538 62.4481 8.66349 62.5215C8.69159 62.595 8.70459 62.6734 8.7017 62.752Z" fill="#FF681A"/>
<path d="M173.938 63.3493C173.467 63.7002 173.125 63.9588 172.71 64.2728C172.294 64.5868 171.925 64.8176 171.528 65.0854C170.734 65.6118 169.921 66.1013 169.099 66.5908C167.436 67.5679 165.718 68.4497 163.955 69.232C162.114 70.0559 160.208 70.7262 158.257 71.236C157.213 71.5145 156.152 71.7242 155.08 71.864C154.535 71.9287 153.963 71.9564 153.381 72.0026H152.457H151.885L151.275 71.9564C149.861 71.787 148.492 71.3514 147.239 70.6727C146.219 70.1277 145.257 69.481 144.367 68.7426C142.815 67.4378 141.403 65.9737 140.156 64.3744C137.838 61.3967 135.887 58.1502 134.347 54.7052L138.605 52.0547C140.825 54.5634 143.184 56.9466 145.669 59.1934C146.797 60.2234 148.015 61.1506 149.308 61.964C149.83 62.2886 150.384 62.5579 150.961 62.7674C151.293 62.8994 151.648 62.9592 152.005 62.9429H152.097L152.531 62.8782C152.836 62.8228 153.141 62.7674 153.455 62.6751C154.092 62.5181 154.757 62.3149 155.431 62.084C156.861 61.5521 158.258 60.9353 159.614 60.237C161.018 59.5074 162.431 58.7317 163.816 57.8821C164.491 57.4942 165.193 57.0232 165.885 56.5891L166.901 55.9242L169.672 54.0772L173.938 63.3493Z" fill="#FF681A"/>
<path opacity="0.2" d="M173.938 63.3493C173.467 63.7002 173.125 63.9588 172.71 64.2728C172.294 64.5868 171.925 64.8176 171.528 65.0854C170.734 65.6118 169.921 66.1013 169.099 66.5908C167.436 67.5679 165.718 68.4497 163.955 69.232C162.114 70.0559 160.208 70.7262 158.257 71.236C157.213 71.5145 156.152 71.7242 155.08 71.864C154.535 71.9287 153.963 71.9564 153.381 72.0026H152.457H151.885L151.275 71.9564C149.861 71.787 148.492 71.3514 147.239 70.6727C146.219 70.1277 145.257 69.481 144.367 68.7426C142.815 67.4378 141.403 65.9737 140.156 64.3744C137.838 61.3967 135.887 58.1502 134.347 54.7052L138.605 52.0547C140.825 54.5634 143.184 56.9466 145.669 59.1934C146.797 60.2234 148.015 61.1506 149.308 61.964C149.83 62.2886 150.384 62.5579 150.961 62.7674C151.293 62.8994 151.648 62.9592 152.005 62.9429H152.097L152.531 62.8782C152.836 62.8228 153.141 62.7674 153.455 62.6751C154.092 62.5181 154.757 62.3149 155.431 62.084C156.861 61.5521 158.258 60.9353 159.614 60.237C161.018 59.5074 162.431 58.7317 163.816 57.8821C164.491 57.4942 165.193 57.0232 165.885 56.5891L166.901 55.9242L169.672 54.0772L173.938 63.3493Z" fill="black"/>
<path d="M136.277 55.0643L132.288 53.1526L135.501 48.1934C135.501 48.1934 138.872 50.9639 139.195 53.7991L136.277 55.0643Z" fill="#FF8B7B"/>
<path d="M127.966 49.9294L130.662 46.8633L135.511 48.2024L132.288 53.1524L127.966 49.9294Z" fill="#FF8B7B"/>
<path d="M212.227 230.995C212.653 229.975 213.253 229.038 214 228.224C214 228.224 217.001 223.062 214.683 214.094L218.811 210.465C219.937 210.473 221.016 210.917 221.822 211.702C222.348 212.281 222.83 212.898 223.263 213.549C224.777 216.144 228.093 222.101 228.093 222.101L227.474 222.443C226.384 220.68 225.194 218.981 223.909 217.354C222.552 215.83 222.579 218.546 223.078 220.845C223.577 223.145 222.099 226.783 218.165 229.157C213.612 232.001 211.59 232.897 212.227 230.995Z" fill="#263238"/>
<path d="M219.79 218.712C219.79 220.236 220.816 222.923 219.458 224.927C218.854 225.853 218.05 226.631 217.106 227.205C216.161 227.779 215.1 228.133 214 228.242C214 228.242 216.346 224.225 215.293 217.114C215.14 216.104 214.937 215.102 214.683 214.113C214.683 214.113 218.267 211.462 219.91 211.093L220.779 213.457C220.637 215.025 220.327 216.573 219.855 218.075C219.792 218.281 219.77 218.497 219.79 218.712Z" fill="#FF8B7B"/>
<path d="M220.779 213.456C220.637 215.024 220.327 216.572 219.855 218.074C219.783 218.278 219.752 218.495 219.763 218.711L216.383 220.143L215.265 217.113L211.294 206.318L217.214 203.806L219.883 211.092L220.779 213.456Z" fill="#FF8B7B"/>
<path opacity="0.2" d="M217.241 203.814L211.321 206.317L213.344 211.803H213.417C214.511 211.854 215.602 211.671 216.619 211.265C217.635 210.858 218.553 210.239 219.309 209.448L217.241 203.814Z" fill="black"/>
<path d="M167.141 227.614C168.047 227.018 169.046 226.575 170.096 226.303C170.096 226.303 175.406 223.578 178.278 214.768L183.819 213.65C184.304 213.888 184.735 214.221 185.086 214.631C185.437 215.041 185.7 215.518 185.86 216.033C185.907 217 185.888 217.969 185.805 218.933C185.713 221.953 185.214 229.775 185.214 229.775H184.503C184.554 227.372 184.48 224.967 184.281 222.572C183.958 220.558 182.517 222.849 181.695 225.065C180.873 227.281 177.678 229.526 173.07 229.424C167.723 229.193 165.552 228.851 167.141 227.614Z" fill="#263238"/>
<path d="M182.96 217.99C182.336 219.077 181.526 220.045 180.569 220.853C179.46 221.694 179.091 225.286 176.505 226.394C175.497 226.856 174.399 227.087 173.29 227.071C172.181 227.055 171.09 226.793 170.096 226.302C170.096 226.302 174.095 224.252 177.041 217.935C177.715 216.472 177.909 214.833 177.595 213.253L175.637 202.993L182.36 202.115L184.059 214.361C184.175 215.667 183.782 216.968 182.96 217.99Z" fill="#FF8B7B"/>
<path opacity="0.2" d="M175.065 199.104L176.616 208.117L177.198 208.256C178.197 208.483 179.234 208.493 180.237 208.286C181.241 208.079 182.188 207.659 183.016 207.055L181.871 198.328L175.065 199.104Z" fill="black"/>
<path d="M197.487 58.4996C197.483 58.2432 197.464 57.9873 197.432 57.733C197.31 56.6374 196.973 55.5766 196.44 54.6116C195.907 53.6466 195.189 52.7964 194.327 52.1099C193.464 51.4233 192.475 50.914 191.415 50.6111C190.355 50.3082 189.245 50.2178 188.15 50.3449H188.003C187.439 50.4096 186.857 50.4927 186.285 50.5758C182.377 51.0885 178.51 51.8785 174.713 52.94C174.067 53.1155 173.402 53.3279 172.755 53.5403C171.878 53.8358 171.001 54.1406 170.17 54.4638C168.27 55.162 166.686 56.5231 165.71 58.2964C164.735 60.0698 164.432 62.136 164.859 64.1145C166.166 71.3267 168.499 78.3147 171.786 84.8659C172.875 87.0269 173.042 91.4043 173.965 94.101L199.417 88.9478V88.994C198.217 80.9779 197.7 67.3745 197.487 58.4996Z" fill="#263238"/>
<path d="M173.984 94.0468C173.984 94.0468 172.571 126.554 171.306 151.508C170.309 171.354 174.178 205.256 174.178 205.256C177.69 206.151 181.414 205.634 184.549 203.816C184.697 205.413 186.082 172.601 184.549 153.706C191.697 126.065 202.179 99.9388 194.44 89.7617L173.984 94.0468Z" fill="#263238"/>
<path opacity="0.3" d="M186.091 113.127L196.592 107.17C195.169 117.024 191.318 129.408 187.578 142.624C184.66 132.105 183.302 121.143 186.091 113.127Z" fill="black"/>
<path d="M178.547 94.8398C178.547 94.8398 185.51 120.024 189.998 144.155C191.947 161.499 210.611 208.912 210.611 208.912L213.825 208.303C215.35 208.007 216.763 207.295 217.907 206.243L218.987 205.255C218.987 205.255 213.446 170.891 208.099 157.509C208.228 129.545 208.746 99.4112 198.236 90.0283L178.547 94.8398Z" fill="#263238"/>
<path d="M186.839 50.3821C186.839 50.3821 184.171 80.1469 190.921 118.824C202.004 118.159 208.847 115.083 208.847 115.083C208.847 115.083 206.575 94.1104 199.741 83.4161C198.568 75.9172 199.621 59.922 198.919 54.0854C198.792 53.0621 198.33 52.1095 197.605 51.3762C196.88 50.6429 195.933 50.17 194.911 50.0311C192.216 49.837 189.507 49.9547 186.839 50.3821Z" fill="#FF681A"/>
<path opacity="0.1" d="M186.839 50.3821C186.839 50.3821 184.171 80.1469 190.921 118.824C202.004 118.159 208.847 115.083 208.847 115.083C208.847 115.083 206.575 94.1104 199.741 83.4161C198.568 75.9172 199.621 59.922 198.919 54.0854C198.792 53.0621 198.33 52.1095 197.605 51.3762C196.88 50.6429 195.933 50.17 194.911 50.0311C192.216 49.837 189.507 49.9547 186.839 50.3821Z" fill="black"/>
<path d="M174.612 52.5342C174.612 52.5342 173.162 66.6362 182.231 119.554C178.639 121.456 170.965 120.8 170.965 120.8C170.965 120.8 171.094 103.18 172.294 89.1053C172.876 82.2621 167.917 81.2462 165.119 73.6826C163.743 64.9277 164.574 57.8074 165.811 56.8008C167.815 55.1847 171.103 52.9775 174.612 52.5342Z" fill="#FF681A"/>
<path opacity="0.1" d="M174.612 52.5342C174.612 52.5342 173.162 66.6362 182.231 119.554C178.639 121.456 170.965 120.8 170.965 120.8C170.965 120.8 171.094 103.18 172.294 89.1053C172.876 82.2621 167.917 81.2462 165.119 73.6826C163.743 64.9277 164.574 57.8074 165.811 56.8008C167.815 55.1847 171.103 52.9775 174.612 52.5342Z" fill="black"/>
<path opacity="0.7" d="M186.719 50.2995C186.719 50.2995 186.202 62.4807 186.387 71.3926C187.31 65.085 189.545 59.0545 189.481 57.0597C188.837 56.7179 188.22 56.3289 187.634 55.896C188.344 55.3148 189.119 54.816 189.942 54.4092C190.053 52.9157 190.074 51.417 190.007 49.9209C188.225 50.0779 186.719 50.2995 186.719 50.2995Z" fill="white"/>
<path opacity="0.7" d="M174.714 52.4229C174.531 59.4699 174.84 66.521 175.638 73.5251C173.671 67.9009 171.131 62.5261 171.362 60.4112C172.387 59.5524 173.292 58.5642 173.292 58.5642C172.639 58.1568 171.92 57.8662 171.168 57.7053C171.196 56.1327 171.316 54.5631 171.528 53.0047C173.274 52.6814 174.714 52.4229 174.714 52.4229Z" fill="white"/>
<path d="M195.954 54.6393C195.12 56.1106 194.886 57.8469 195.301 59.4864C195.716 61.1259 196.747 62.5423 198.18 63.4403H198.235C200.082 64.5763 201.837 65.7214 203.555 66.8943C205.272 68.0672 206.953 69.2862 208.477 70.496C209.192 71.0751 209.877 71.6916 210.527 72.343C210.787 72.5948 211.034 72.8599 211.266 73.1372C211.46 73.3589 211.552 73.5251 211.525 73.4143L211.284 72.1491C211.376 72.9492 211.211 73.7577 210.813 74.4579C210.239 75.6707 209.533 76.8166 208.708 77.8749C207.804 79.0831 206.833 80.2393 205.799 81.338C204.774 82.4832 203.619 83.6284 202.566 84.6904L205.291 88.8924C206.89 88.1532 208.434 87.2982 209.908 86.3342C211.421 85.3627 212.857 84.2759 214.203 83.0835C215.684 81.7976 216.994 80.3264 218.1 78.706C218.814 77.6302 219.385 76.466 219.799 75.2428C220.191 74.0707 220.379 72.8399 220.353 71.6042V71.0963L220.132 70.4406C219.857 69.635 219.492 68.8635 219.042 68.141C218.572 67.395 218.047 66.685 217.472 66.017C216.632 65.0374 215.732 64.112 214.775 63.2464C213.036 61.6478 211.208 60.1493 209.299 58.7581C207.452 57.3821 205.559 56.0984 203.656 54.8701C201.754 53.6419 199.851 52.4782 197.801 51.3516L195.954 54.6393Z" fill="#FF681A"/>
<path d="M205.753 84.8111C203.743 84.1259 201.554 84.1849 199.584 84.9773L201.911 92.0238L205.541 88.8746L205.753 84.8111Z" fill="#FF8B7B"/>
<path d="M201.911 92.0239L199.584 84.9775L196.01 88.9209L199.021 93.7879L201.911 92.0239Z" fill="#FF8B7B"/>
<path d="M171.269 49.6804C169.804 40.994 171.032 32.0674 174.788 24.0991C179.184 14.864 197.534 21.3286 194.763 36.8251C193.129 45.9587 189.222 44.4072 196.121 50.5116C200.101 54.0209 188.364 54.9352 187.394 52.5895C187.394 52.5895 183.201 52.9866 180.292 50.6316C180.255 50.6316 172.008 54.4642 171.269 49.6804Z" fill="#263238"/>
<path d="M178.408 58.8786C182.407 59.5251 184.975 54.4088 185.981 51.8784H185.529C184.384 48.6923 185.196 43.5114 185.944 40.4453L178.556 46.2542C179.009 48.6184 179.083 51.0749 176.894 52.3863C176.451 52.4602 175.97 52.5526 175.573 52.6449C175.084 54.9907 175.038 58.343 178.408 58.8786Z" fill="#FF8B7B"/>
<path opacity="0.2" d="M182.768 42.8281L178.409 46.2636C178.556 46.9509 178.649 47.6488 178.686 48.3507C180.293 48.1845 182.758 46.8546 182.999 45.1831C183.061 44.3906 182.982 43.5934 182.768 42.8281Z" fill="black"/>
<path d="M189.869 34.997C187.514 40.8152 186.646 43.3087 182.629 45.3773C176.58 48.4619 169.94 44.3061 170.503 37.8969C171.011 32.1249 174.77 23.5732 181.373 23.1207C182.83 23.0207 184.289 23.295 185.611 23.9173C186.932 24.5397 188.073 25.4895 188.924 26.6766C189.775 27.8637 190.309 29.2487 190.474 30.7001C190.64 32.1515 190.432 33.6211 189.869 34.9693V34.997Z" fill="#FF8B7B"/>
<path d="M176.008 33.1309C175.206 34.0934 174.273 34.9389 173.237 35.6428C173.42 35.9063 173.659 36.1259 173.936 36.2856C174.214 36.4453 174.524 36.5412 174.844 36.5663L176.008 33.1309Z" fill="#D85B5B"/>
<path d="M182.102 32.2816C182.144 32.2957 182.19 32.2957 182.232 32.2816C182.262 32.2696 182.289 32.2515 182.312 32.2285C182.335 32.2055 182.354 32.178 182.366 32.1478C182.378 32.1175 182.384 32.0852 182.383 32.0526C182.382 32.02 182.374 31.988 182.361 31.9584C182.183 31.5264 181.903 31.1433 181.547 30.8412C181.19 30.5392 180.766 30.3269 180.311 30.2222C180.245 30.2112 180.177 30.2269 180.122 30.2658C180.068 30.3048 180.031 30.3639 180.02 30.43C180.009 30.4961 180.024 30.5639 180.063 30.6185C180.102 30.673 180.161 30.7099 180.228 30.7209C180.603 30.8123 180.95 30.9914 181.243 31.2435C181.535 31.4955 181.763 31.8134 181.908 32.1708C181.93 32.2031 181.959 32.2299 181.992 32.2492C182.026 32.2684 182.064 32.2795 182.102 32.2816Z" fill="#263238"/>
<path d="M173.024 28.6703C173.066 28.6799 173.11 28.6799 173.153 28.6703C173.506 28.5185 173.89 28.452 174.273 28.4761C174.657 28.5001 175.029 28.6141 175.36 28.8088C175.387 28.8285 175.417 28.8427 175.449 28.8505C175.481 28.8584 175.515 28.8598 175.547 28.8546C175.58 28.8494 175.611 28.8379 175.639 28.8205C175.667 28.8031 175.692 28.7803 175.711 28.7534C175.747 28.6978 175.761 28.6304 175.749 28.565C175.737 28.4997 175.7 28.4415 175.646 28.4025C175.246 28.1588 174.794 28.014 174.326 27.9803C173.859 27.9466 173.39 28.0248 172.959 28.2086C172.928 28.2189 172.9 28.2353 172.876 28.2569C172.851 28.2784 172.832 28.3047 172.818 28.334C172.804 28.3633 172.796 28.3952 172.795 28.4276C172.794 28.46 172.8 28.4923 172.811 28.5226C172.828 28.5671 172.857 28.6062 172.894 28.6356C172.931 28.6649 172.976 28.6833 173.024 28.6888V28.6703Z" fill="#263238"/>
<path d="M179.692 33.4731C179.535 33.9533 179.147 34.258 178.824 34.1565C178.501 34.0549 178.381 33.5746 178.556 33.0852C178.732 32.5957 179.101 32.3002 179.415 32.4018C179.729 32.5034 179.858 32.9836 179.692 33.4731Z" fill="#263238"/>
<path d="M174.225 31.6449C174.059 32.1251 173.671 32.4299 173.357 32.3283C173.043 32.2267 172.913 31.7465 173.08 31.2662C173.246 30.786 173.625 30.472 173.939 30.5828C174.253 30.6937 174.391 31.1554 174.225 31.6449Z" fill="#263238"/>
<path d="M174.067 30.6461L173.024 29.9258C173.024 29.9258 173.319 31.034 174.067 30.6461Z" fill="#263238"/>
<path d="M179.545 32.4752L178.492 31.7549C178.492 31.7549 178.787 32.8631 179.545 32.4752Z" fill="#263238"/>
<path d="M178.454 40.0202C178.77 39.9338 179.079 39.8227 179.378 39.6877C179.419 39.6676 179.452 39.6329 179.469 39.5902C179.486 39.5475 179.486 39.4999 179.47 39.4568C179.45 39.4155 179.415 39.3831 179.373 39.366C179.33 39.3489 179.282 39.3484 179.239 39.3645C178.561 39.683 177.818 39.838 177.069 39.8172C176.32 39.7963 175.586 39.6002 174.926 39.2444C174.907 39.2311 174.885 39.2217 174.862 39.2168C174.839 39.2119 174.815 39.2116 174.792 39.2159C174.769 39.2202 174.747 39.229 174.727 39.2418C174.707 39.2546 174.69 39.2712 174.677 39.2906C174.664 39.31 174.654 39.3319 174.649 39.3549C174.645 39.3779 174.644 39.4017 174.649 39.4249C174.653 39.448 174.662 39.4701 174.674 39.4898C174.687 39.5096 174.704 39.5266 174.723 39.54C175.859 40.1726 177.195 40.3445 178.454 40.0202Z" fill="#263238"/>
<path d="M179.249 24.977C179.249 24.977 177.227 26.6485 178.427 28.2647C179.628 29.8808 183.35 29.1882 184.061 32.282C184.772 35.3757 183.424 37.7676 185.668 38.7465C187.912 39.7255 190.064 36.6594 190.064 36.6594C190.064 36.6594 193.601 29.456 189.232 25.5772C184.864 21.6985 179.785 20.3409 176.747 22.0956C173.708 23.8503 172.009 25.1155 173.136 25.8728C174.262 26.6301 176.017 27.1749 176.774 26.4176C177.443 25.7083 178.302 25.2079 179.249 24.977Z" fill="#263238"/>
<path d="M189.703 40.159C188.997 41.1371 187.936 41.8 186.748 42.0061C185.16 42.2647 184.541 40.8055 185.123 39.3925C185.649 38.1365 187.108 36.465 188.641 36.8436C189.169 36.9942 189.617 37.3479 189.885 37.8273C190.153 38.3066 190.221 38.8727 190.073 39.4018C190.007 39.6785 189.881 39.9372 189.703 40.159Z" fill="#FF8B7B"/>
<path d="M174.623 52.7474C175.177 52.4105 175.821 52.2495 176.47 52.2856C176.47 52.2856 174.678 57.9745 178.76 58.2977C182.842 58.6209 185.917 51.6392 185.917 51.6392C186.197 51.5331 186.497 51.4929 186.795 51.5218C187.093 51.5506 187.38 51.6476 187.635 51.8054C187.635 51.8054 184.403 59.8954 178.778 59.6645C173.154 59.4336 174.623 52.7474 174.623 52.7474Z" fill="#FF681A"/>
<path opacity="0.7" d="M174.623 52.7474C175.177 52.4105 175.821 52.2495 176.47 52.2856C176.47 52.2856 174.678 57.9745 178.76 58.2977C182.842 58.6209 185.917 51.6392 185.917 51.6392C186.197 51.5331 186.497 51.4929 186.795 51.5218C187.093 51.5506 187.38 51.6476 187.635 51.8054C187.635 51.8054 184.403 59.8954 178.778 59.6645C173.154 59.4336 174.623 52.7474 174.623 52.7474Z" fill="white"/>
<path d="M186.341 35.2369L182.416 33.7131C182.287 32.6049 180.883 32.0601 180.283 31.8199C179.683 31.5798 178.159 30.998 177.328 31.8661L175.961 31.3397C175.961 30.1391 174.437 29.5481 173.809 29.308C173.181 29.0679 171.149 28.2736 170.503 29.936C170.306 30.6239 170.373 31.3606 170.69 32.0018C171.008 32.6431 171.554 33.1426 172.221 33.4025C172.887 33.6625 173.627 33.6643 174.295 33.4074C174.963 33.1505 175.511 32.6536 175.831 32.0139C175.866 31.927 175.894 31.8374 175.915 31.7461L177.087 32.1986C177.04 32.278 177 32.3614 176.967 32.4479C176.77 33.1359 176.837 33.8726 177.155 34.5138C177.473 35.155 178.018 35.6545 178.685 35.9145C179.352 36.1745 180.092 36.1762 180.759 35.9194C181.427 35.6625 181.975 35.1655 182.296 34.5258C182.349 34.3984 182.386 34.2651 182.407 34.1287L186.193 35.6063C186.714 35.8056 187.149 36.1815 187.422 36.6684L187.763 36.4744C187.445 35.9108 186.943 35.4738 186.341 35.2369ZM172.378 33.002C171.791 32.8113 171.303 32.3971 171.019 31.8491C170.736 31.3012 170.68 30.6636 170.863 30.0745C171.214 29.151 172.054 29.0494 173.634 29.6774C175.213 30.3054 175.785 30.9611 175.434 31.8661C175.172 32.4149 174.706 32.8402 174.136 33.0521C173.565 33.2641 172.935 33.2461 172.378 33.002ZM178.842 35.514C178.256 35.3252 177.768 34.9128 177.485 34.3663C177.201 33.8199 177.145 33.1835 177.328 32.5957C177.688 31.6722 178.519 31.5613 180.098 32.1893C181.677 32.8173 182.25 33.473 181.899 34.3781C181.638 34.9285 181.173 35.3553 180.602 35.5675C180.03 35.7797 179.399 35.7605 178.842 35.514Z" fill="#263238"/>
</svg>
