<svg width="26" height="26" viewBox="0 0 26 26" fill="none" xmlns="http://www.w3.org/2000/svg">
<path d="M22.1742 6.06376C23.1908 5.45433 23.9715 4.48936 24.3392 3.3396C23.3878 3.90381 22.334 4.31361 21.2124 4.53449C20.3142 3.57751 19.0345 2.97949 17.6183 2.97949C14.8989 2.97949 12.6942 5.18412 12.6942 7.90336C12.6942 8.28928 12.7378 8.6651 12.8217 9.02547C8.7294 8.82013 5.10119 6.85982 2.67262 3.88081C2.24878 4.60805 2.00595 5.45389 2.00595 6.35627C2.00595 8.06454 2.87532 9.57169 4.19653 10.4547C3.38932 10.4291 2.63013 10.2076 1.96619 9.83883C1.96583 9.85937 1.96583 9.88 1.96583 9.90072C1.96583 12.2865 3.66313 14.2766 5.91569 14.7289C5.50247 14.8414 5.06748 14.9016 4.61836 14.9016C4.30109 14.9016 3.9926 14.8708 3.69202 14.8133C4.31856 16.7695 6.13701 18.1931 8.29168 18.2329C6.6065 19.5535 4.48334 20.3407 2.17644 20.3407C1.77902 20.3407 1.38705 20.3174 1.00183 20.2719C3.18091 21.669 5.76917 22.4841 8.54987 22.4841C17.6068 22.4841 22.5595 14.9811 22.5595 8.47434C22.5595 8.26083 22.5547 8.04847 22.5453 7.83734C23.5072 7.14311 24.3421 6.27585 25.0023 5.28841C24.1192 5.68003 23.1702 5.94472 22.1742 6.06376Z" fill="white"/>
</svg>
