<svg width="49" height="48" viewBox="0 0 49 48" fill="none" xmlns="http://www.w3.org/2000/svg">
<path d="M13.5756 11.5503C9.97563 11.5503 7.05078 14.4752 7.05078 18.0003C7.05078 21.6003 9.97572 24.4503 13.5756 24.4503C17.1755 24.4503 20.1005 21.5253 20.1005 18.0003C20.1005 14.4752 17.1755 11.5503 13.5756 11.5503V11.5503ZM13.5756 17.3252C14.9257 17.3252 16.0506 18.4502 16.0506 19.7253C16.0506 20.7753 15.3007 21.6754 14.3256 22.0505V22.5004C14.3256 22.9503 13.9506 23.2503 13.5756 23.2503C13.1257 23.2503 12.8256 22.9503 12.8256 22.5004V22.0505C11.8506 21.7504 11.1005 20.8506 11.1005 19.7253C11.1005 19.2754 11.4755 18.9753 11.8505 18.9753C12.3004 18.9753 12.6005 19.2754 12.6005 19.7253C12.6005 20.2501 13.0504 20.6255 13.5755 20.6255C14.1004 20.6255 14.5506 20.1756 14.5506 19.7253C14.5506 19.2004 14.1007 18.8251 13.5755 18.8251C12.2255 18.8251 11.1005 17.7001 11.1005 16.3501C11.1005 15.3 11.8505 14.3999 12.8256 14.0249V13.575C12.8256 13.1251 13.1257 12.825 13.5756 12.825C13.9506 12.825 14.3255 13.125 14.3255 13.575V14.0249C15.3006 14.3249 16.0506 15.2247 16.0506 16.3501C16.0506 16.8 15.6756 17.1 15.3007 17.1C14.9257 17.1 14.5507 16.8 14.5507 16.3501C14.5507 15.8252 14.1008 15.4499 13.5756 15.4499C13.0508 15.4499 12.6006 15.8998 12.6006 16.3501C12.6006 16.8752 13.0505 17.3251 13.5756 17.3251V17.3252Z" fill="url(#paint0_linear_3862_18502)"/>
<path d="M29.3254 0H2.92494C1.35012 0 0 1.35003 0 2.92494V5.77492H32.2503V2.92494C32.2503 1.35012 30.9006 0 29.3254 0ZM12.5253 3.75018C12.0754 3.75018 11.7005 3.3752 11.7005 2.92529C11.7005 2.47539 12.0754 2.1004 12.5253 2.1004C12.9753 2.1004 13.3502 2.47539 13.3502 2.92529C13.3502 3.3752 12.9753 3.75018 12.5253 3.75018ZM16.1253 3.75018C15.6754 3.75018 15.3005 3.3752 15.3005 2.92529C15.3005 2.47539 15.6754 2.1004 16.1253 2.1004C16.5753 2.1004 16.9502 2.47539 16.9502 2.92529C16.9502 3.3752 16.5753 3.75018 16.1253 3.75018ZM19.6504 3.75018C19.2005 3.75018 18.8255 3.3752 18.8255 2.92529C18.8255 2.47539 19.2005 2.1004 19.6504 2.1004C20.1003 2.1004 20.4753 2.47539 20.4753 2.92529C20.4753 3.3752 20.1003 3.75018 19.6504 3.75018Z" fill="url(#paint1_linear_3862_18502)"/>
<path d="M22.8754 20.7006L31.7254 18.2256C31.9505 18.1507 32.1003 18.1507 32.3255 18.0758V7.3501H0V40.7248H32.2503V37.9497C24.4503 39.0747 22.4254 40.7997 18.9754 39.2997L7.9501 34.3497C5.70023 33.3746 4.57489 30.6748 5.47509 28.4246C6.15012 26.6246 7.87515 25.3495 9.90024 25.3495H10.5004C7.65037 24.1496 5.62528 21.2996 5.62528 17.9994C5.62528 13.5742 9.22528 10.0495 13.6504 10.0495C18.0756 10.0495 21.6756 13.6495 21.6756 17.9994C21.6756 22.4245 18.0756 25.9493 13.6504 25.9493C13.1256 25.9493 12.6754 25.8744 12.2254 25.7995L21.1505 29.3245L22.1256 29.0994C21.0006 28.5745 20.1755 27.5994 19.8004 26.3992C19.4254 25.1994 19.5753 23.9992 20.1005 22.8742C20.6253 21.8249 21.6753 21.0749 22.8756 20.6999L22.8754 20.7006Z" fill="url(#paint2_linear_3862_18502)"/>
<path d="M0 42.2251V44.1752C0 46.2749 1.72509 48 3.82505 48H29.2505C30.9007 48 32.1755 46.65 32.1755 45.0751V42.2251H0ZM17.9253 45.8251H14.3253C13.8754 45.8251 13.5753 45.4501 13.5753 45.0751C13.5753 44.6252 13.8754 44.3252 14.3253 44.3252H17.9253C18.3752 44.3252 18.6753 44.6252 18.6753 45.0751C18.6753 45.525 18.3003 45.8251 17.9253 45.8251Z" fill="url(#paint3_linear_3862_18502)"/>
<path d="M12.1501 25.8749C11.55 25.8 11.0251 25.5749 10.5 25.3501C10.875 25.3501 11.25 25.5 11.625 25.6501L12.1501 25.8749Z" fill="url(#paint4_linear_3862_18502)"/>
<path d="M38.9991 21.0004C38.9242 21.2256 35.8491 36.0008 35.8491 36.0759L34.874 35.8508L22.7995 38.2505C21.6745 38.4756 20.5496 38.3254 19.5745 37.8755L8.54919 33.0005C7.04924 32.3254 6.224 30.5254 6.82411 29.0255C7.42422 27.3754 9.29912 26.4755 11.0242 27.1506L20.9994 30.9756L28.9493 28.8756C29.3992 28.5755 29.3992 28.1256 29.2494 27.7506C29.0995 27.3756 28.7246 27.0756 28.1994 27.2258L24.8241 28.0507C23.2493 28.4256 21.6741 27.5258 21.2241 25.9506C20.6993 24.3005 21.5991 22.5754 23.3242 22.1256L32.1741 19.6505C33.2242 19.3505 34.3491 19.3505 35.3991 19.7255L38.9991 21.0004Z" fill="url(#paint5_linear_3862_18502)"/>
<path d="M48.0002 23.175L45.0003 37.7997C44.7752 38.9247 43.6503 39.5248 42.7504 39.2996L38.9254 38.5497C38.4005 38.4747 37.9503 38.1747 37.7255 37.7248C37.4255 37.2749 37.3505 36.7497 37.4255 36.2998L40.4254 21.6751C40.6505 20.6251 41.7005 19.95 42.6752 20.1752L46.5003 20.9251C47.0251 21 47.4753 21.3001 47.7001 21.75C48.0002 22.125 48.0751 22.6499 48.0002 23.175Z" fill="url(#paint6_linear_3862_18502)"/>
<defs>
<linearGradient id="paint0_linear_3862_18502" x1="13.5756" y1="11.5503" x2="13.5756" y2="24.4503" gradientUnits="userSpaceOnUse">
<stop stop-color="#EE8425"/>
<stop offset="1" stop-color="#FF661A"/>
</linearGradient>
<linearGradient id="paint1_linear_3862_18502" x1="16.1252" y1="0" x2="16.1252" y2="5.77492" gradientUnits="userSpaceOnUse">
<stop stop-color="#EE8425"/>
<stop offset="1" stop-color="#FF661A"/>
</linearGradient>
<linearGradient id="paint2_linear_3862_18502" x1="16.1627" y1="7.3501" x2="16.1627" y2="40.7248" gradientUnits="userSpaceOnUse">
<stop stop-color="#EE8425"/>
<stop offset="1" stop-color="#FF661A"/>
</linearGradient>
<linearGradient id="paint3_linear_3862_18502" x1="16.0877" y1="42.2251" x2="16.0877" y2="48" gradientUnits="userSpaceOnUse">
<stop stop-color="#EE8425"/>
<stop offset="1" stop-color="#FF661A"/>
</linearGradient>
<linearGradient id="paint4_linear_3862_18502" x1="11.3251" y1="25.3501" x2="11.3251" y2="25.8749" gradientUnits="userSpaceOnUse">
<stop stop-color="#EE8425"/>
<stop offset="1" stop-color="#FF661A"/>
</linearGradient>
<linearGradient id="paint5_linear_3862_18502" x1="22.813" y1="19.4341" x2="22.813" y2="38.3539" gradientUnits="userSpaceOnUse">
<stop stop-color="#EE8425"/>
<stop offset="1" stop-color="#FF661A"/>
</linearGradient>
<linearGradient id="paint6_linear_3862_18502" x1="42.7128" y1="20.1318" x2="42.7128" y2="39.3465" gradientUnits="userSpaceOnUse">
<stop stop-color="#EE8425"/>
<stop offset="1" stop-color="#FF661A"/>
</linearGradient>
</defs>
</svg>
