<svg width="22" height="23" viewBox="0 0 22 23" fill="none" xmlns="http://www.w3.org/2000/svg">
<path d="M0 4.70345C0 2.10527 2.10624 -0.000976562 4.70442 -0.000976562C7.3026 -0.000976562 9.40885 2.10526 9.40885 4.70345L9.40885 10.3704C9.40885 11.639 9.17613 12.8967 8.72227 14.0813L6.17536 20.7284C5.8504 21.5765 5.0362 22.1365 4.12797 22.1365C2.59203 22.1365 1.53211 20.598 2.07926 19.1629L3.70846 14.8894C4.18687 13.6345 3.2601 12.2894 1.91711 12.2894C0.858321 12.2894 0 11.4311 0 10.3723L0 4.70345Z" fill="url(#paint0_linear_2002_41210)"/>
<path d="M12.4121 4.70345C12.4121 2.10527 14.5184 -0.000976562 17.1165 -0.000976562C19.7147 -0.000976562 21.821 2.10526 21.821 4.70345V10.3704C21.821 11.639 21.5882 12.8967 21.1344 14.0813L18.5875 20.7284C18.2625 21.5765 17.4483 22.1365 16.5401 22.1365C15.0041 22.1365 13.9442 20.598 14.4914 19.1629L16.1206 14.8894C16.599 13.6345 15.6722 12.2894 14.3292 12.2894C13.2704 12.2894 12.4121 11.4311 12.4121 10.3723L12.4121 4.70345Z" fill="url(#paint1_linear_2002_41210)"/>
<defs>
<linearGradient id="paint0_linear_2002_41210" x1="4.70442" y1="-0.000976563" x2="4.70442" y2="22.1365" gradientUnits="userSpaceOnUse">
<stop stop-color="#EE8425"/>
<stop offset="1" stop-color="#FF661A"/>
</linearGradient>
<linearGradient id="paint1_linear_2002_41210" x1="17.1165" y1="-0.000976563" x2="17.1165" y2="22.1365" gradientUnits="userSpaceOnUse">
<stop stop-color="#EE8425"/>
<stop offset="1" stop-color="#FF661A"/>
</linearGradient>
</defs>
</svg>
