<svg width="22" height="23" viewBox="0 0 22 23" fill="none" xmlns="http://www.w3.org/2000/svg">
<path d="M21.8203 17.4333C21.8203 20.0315 19.7141 22.1377 17.1159 22.1377C14.5177 22.1377 12.4115 20.0315 12.4115 17.4333L12.4115 11.7663C12.4115 10.4978 12.6442 9.24 13.098 8.05545L15.6449 1.40833C15.9699 0.560221 16.7841 0.000259907 17.6923 0.000259815C19.2283 0.000259661 20.2882 1.53867 19.7411 2.97385L18.1119 7.24731C17.6334 8.50219 18.5602 9.84735 19.9032 9.84735C20.962 9.84735 21.8203 10.7057 21.8203 11.7645L21.8203 17.4333Z" fill="url(#paint0_linear_2002_41207)"/>
<path d="M9.4082 17.4333C9.4082 20.0315 7.30196 22.1377 4.70378 22.1377C2.1056 22.1377 -0.00064389 20.0315 -0.000644087 17.4333L-0.000644517 11.7663C-0.000644613 10.4978 0.232068 9.24 0.685937 8.05545L3.23284 1.40833C3.5578 0.560221 4.37201 0.000259907 5.28024 0.000259815C6.81617 0.000259661 7.87609 1.53867 7.32894 2.97385L5.69974 7.24731C5.22133 8.50219 6.1481 9.84735 7.49109 9.84735C8.54988 9.84735 9.4082 10.7057 9.4082 11.7645L9.4082 17.4333Z" fill="url(#paint1_linear_2002_41207)"/>
<defs>
<linearGradient id="paint0_linear_2002_41207" x1="17.1159" y1="22.1377" x2="17.1159" y2="0.000259874" gradientUnits="userSpaceOnUse">
<stop stop-color="#EE8425"/>
<stop offset="1" stop-color="#FF661A"/>
</linearGradient>
<linearGradient id="paint1_linear_2002_41207" x1="4.70378" y1="22.1377" x2="4.70378" y2="0.000259874" gradientUnits="userSpaceOnUse">
<stop stop-color="#EE8425"/>
<stop offset="1" stop-color="#FF661A"/>
</linearGradient>
</defs>
</svg>
