<svg width="49" height="48" viewBox="0 0 49 48" fill="none" xmlns="http://www.w3.org/2000/svg">
<path d="M27.787 24.0263C26.8432 24.7432 25.6902 25.1299 24.505 25.1278C23.312 25.1262 22.1539 24.7251 21.2152 23.9888C20.2003 24.4139 19.2803 25.0382 18.5103 25.8247C16.9828 27.3341 16.1268 29.3948 16.1348 31.5421C16.1348 31.7117 16.2723 31.8495 16.4422 31.8495H32.598C32.6819 31.8505 32.7629 31.8181 32.8228 31.7595C32.877 31.7003 32.9064 31.6224 32.9051 31.5421C32.9104 29.9193 32.424 28.3326 31.5108 26.9912C30.5972 25.6497 29.2992 24.6161 27.7872 24.0263L27.787 24.0263Z" fill="url(#paint0_linear_3862_18498)"/>
<path d="M45.0452 20.5492C44.3658 20.5513 43.702 20.7546 43.138 21.1333C42.574 21.512 42.1348 22.0492 41.8755 22.6775H39.4927C39.2224 19.6069 38.0168 16.6935 36.0384 14.3297L37.7468 12.6287V12.629C38.1626 12.8006 38.6083 12.8896 39.0581 12.8913C39.9687 12.8916 40.8421 12.5303 41.4864 11.8867C42.1304 11.2428 42.4923 10.3696 42.4923 9.45903C42.492 8.5481 42.13 7.67501 41.4857 7.03135C40.7314 6.27365 39.6669 5.91103 38.6068 6.05053C37.5467 6.19004 36.612 6.81559 36.0791 7.74258C35.5462 8.66919 35.4756 9.79157 35.8884 10.778L34.1874 12.4864C31.8239 10.4887 28.9002 9.27131 25.8172 9.00198V6.61917C26.8064 6.21105 27.5494 5.36637 27.8274 4.33305C28.1051 3.30008 27.8866 2.19611 27.2356 1.34709C26.5847 0.498065 25.5757 0 24.5059 0C23.4361 0 22.4272 0.498108 21.7762 1.34709C21.1252 2.19612 20.9068 3.30008 21.1844 4.33305C21.4624 5.36637 22.2054 6.21111 23.1946 6.61917V9.00198C20.1246 9.27094 17.2126 10.4799 14.8545 12.464L13.1461 10.7556C13.3258 10.3418 13.4174 9.89519 13.4157 9.4443C13.4124 8.53542 13.0484 7.66499 12.4042 7.02364C11.7599 6.38269 10.8874 6.02339 9.97856 6.0251C9.06968 6.02644 8.19856 6.3884 7.55593 7.03135C6.91331 7.67631 6.55233 8.54972 6.55268 9.46032C6.55301 10.3709 6.9143 11.244 7.55756 11.8886C8.20085 12.5332 9.07327 12.8962 9.98387 12.8985C10.4368 12.8959 10.885 12.8042 11.3025 12.6289L13.0036 14.3299V14.3296C11.0148 16.6897 9.79846 19.6037 9.51911 22.6774H7.1363C6.72918 21.6845 5.88281 20.9379 4.84718 20.6575C3.81113 20.3775 2.70391 20.5956 1.8518 21.248C0.999769 21.9 0.5 22.9119 0.5 23.9851C0.5 25.0582 0.999778 26.0698 1.8518 26.7222C2.70384 27.3745 3.81113 27.5926 4.84718 27.3123C5.8829 27.0323 6.72926 26.2856 7.1363 25.2927H9.51911C9.79208 28.3636 11.0004 31.2774 12.9811 33.6402L11.2727 35.3412C10.2882 34.9361 9.17124 35.0117 8.25063 35.5463C7.33002 36.0805 6.71016 37.0125 6.57331 38.0682C6.43649 39.124 6.79845 40.1831 7.55285 40.9345C8.3072 41.6855 9.36796 42.0434 10.4231 41.9023C11.4782 41.7614 12.4079 41.1379 12.9384 40.2149C13.469 39.292 13.5402 38.175 13.1311 37.1922L14.8244 35.4911C17.1892 37.4869 20.1123 38.7036 23.1946 38.9756V41.3808C22.2053 41.7889 21.4623 42.634 21.1844 43.6669C20.9067 44.7003 21.1251 45.8039 21.7761 46.6529C22.4271 47.5023 23.4361 48 24.5059 48C25.5757 48 26.5846 47.5022 27.2356 46.6529C27.8866 45.8039 28.105 44.7003 27.8274 43.6669C27.5494 42.634 26.8064 41.7889 25.8172 41.3808V38.9756C28.8878 38.7063 31.8019 37.5003 34.165 35.5213L35.866 37.2223L35.8657 37.222C35.6924 37.6405 35.6007 38.088 35.5961 38.541C35.5967 39.6867 36.1694 40.7569 37.1225 41.3932C38.0752 42.0294 39.2831 42.1479 40.3416 41.7093C41.4004 41.2707 42.1702 40.3327 42.394 39.2091C42.6177 38.0851 42.2658 36.9235 41.456 36.1131C40.9756 35.6317 40.363 35.3039 39.696 35.1704C39.0293 35.0369 38.3379 35.1041 37.7093 35.3637L36.0082 33.6627C38.0013 31.2966 39.218 28.3742 39.4927 25.2929H41.8979C42.2164 26.0623 42.8035 26.6902 43.5505 27.0588C44.2972 27.4275 45.1525 27.5121 45.9571 27.2967C46.7617 27.0812 47.4605 26.5808 47.9231 25.8883C48.3858 25.1959 48.5811 24.3586 48.4721 23.5329C48.3634 22.7073 47.9579 21.9493 47.3317 21.4004C46.7051 20.8514 45.9006 20.549 45.0679 20.5493L45.0452 20.5492ZM24.5056 36.4052C20.1407 36.2978 16.1529 33.9073 14.0012 30.1085C11.8492 26.3096 11.8492 21.6601 14.0012 17.8613C16.1532 14.0625 20.1411 11.672 24.5056 11.5649C28.8706 11.672 32.8584 14.0625 35.0101 17.8613C37.1621 21.6602 37.1621 26.3097 35.0101 30.1085C32.8581 33.9073 28.8702 36.2978 24.5056 36.4052Z" fill="url(#paint1_linear_3862_18498)"/>
<path d="M24.5049 23.1489C25.4375 23.1509 26.3324 22.7823 26.9931 22.1239C27.6534 21.4659 28.0255 20.572 28.0267 19.6397C28.0281 18.707 27.6588 17.8122 27.0001 17.1521C26.3414 16.4921 25.4472 16.1208 24.5149 16.1201C23.5822 16.1194 22.6877 16.4894 22.028 17.1485C21.3687 17.8078 20.998 18.702 20.998 19.6346C21.0001 20.5646 21.3697 21.4564 22.0267 22.1148C22.6838 22.7732 23.5746 23.1448 24.5049 23.1488L24.5049 23.1489Z" fill="url(#paint2_linear_3862_18498)"/>
<defs>
<linearGradient id="paint0_linear_3862_18498" x1="24.5199" y1="23.9888" x2="24.5199" y2="31.8495" gradientUnits="userSpaceOnUse">
<stop stop-color="#EE8425"/>
<stop offset="1" stop-color="#FF661A"/>
</linearGradient>
<linearGradient id="paint1_linear_3862_18498" x1="24.5008" y1="0" x2="24.5008" y2="48" gradientUnits="userSpaceOnUse">
<stop stop-color="#EE8425"/>
<stop offset="1" stop-color="#FF661A"/>
</linearGradient>
<linearGradient id="paint2_linear_3862_18498" x1="24.5124" y1="16.1201" x2="24.5124" y2="23.1489" gradientUnits="userSpaceOnUse">
<stop stop-color="#EE8425"/>
<stop offset="1" stop-color="#FF661A"/>
</linearGradient>
</defs>
</svg>
