<svg width="41" height="42" viewBox="0 0 41 42" fill="none" xmlns="http://www.w3.org/2000/svg">
<circle cx="20.853" cy="21" r="20.1176" fill="#9082E2"/>
<path d="M26.5754 32.8826H14.2026C13.8148 32.8826 13.4426 32.7289 13.1683 32.4552C12.8938 32.1818 12.7397 31.8106 12.7397 31.4239V19.0574L13.0123 18.9287C13.4212 18.7014 13.7083 18.3051 13.7962 17.8465C13.8084 17.8001 13.7977 17.7505 13.7676 17.713C13.729 17.6592 13.6667 17.6273 13.6003 17.6273V16.6738H15.1637V17.6273C15.0967 17.6254 15.0326 17.6556 14.9914 17.7084C14.9607 17.7454 14.95 17.7954 14.9628 17.8418C15.2928 19.0621 16.1246 19.0621 16.3971 19.0621C16.6696 19.0621 17.5014 19.0621 17.8314 17.8465C17.8454 17.8009 17.8367 17.7511 17.8074 17.713C17.7663 17.6603 17.7024 17.6303 17.6354 17.632V16.6738H19.1988V17.6273H19.1986C19.1339 17.6249 19.072 17.6532 19.0312 17.7035C19.0005 17.7426 18.9898 17.7937 19.0026 17.8418C19.3373 19.0574 20.1644 19.0574 20.4369 19.0574C20.7094 19.0574 21.5365 19.0574 21.8712 17.8371C21.8831 17.7905 21.8726 17.7411 21.8426 17.7035C21.8018 17.6532 21.7399 17.6249 21.6752 17.6273V16.6738H23.2576V17.6273C23.1931 17.6258 23.1313 17.6539 23.0903 17.7035C23.0619 17.7418 23.0529 17.7914 23.0664 17.8371C23.1172 18.1789 23.2905 18.4909 23.5541 18.7152C23.8179 18.9395 24.154 19.0613 24.5006 19.0574C24.7732 19.0574 25.5955 19.0574 25.9349 17.8371C25.9468 17.7905 25.9364 17.7411 25.9063 17.7035C25.8655 17.6532 25.8036 17.6249 25.7389 17.6273V16.6738H27.2735V17.6273C27.2065 17.6254 27.1425 17.6556 27.1015 17.7084C27.0705 17.7454 27.0599 17.7954 27.0727 17.8418C27.1649 18.2715 27.4223 18.6482 27.7898 18.8906L28.0335 19.0289V31.4237H28.0337C28.0337 31.8098 27.8803 32.1801 27.6069 32.4533C27.3335 32.7268 26.9628 32.8811 26.5756 32.8824L26.5754 32.8826ZM13.6956 19.6297V31.4241C13.6956 31.7031 13.9225 31.9293 14.2023 31.9293H26.5751C26.7093 31.9293 26.8382 31.8761 26.9334 31.7814C27.0284 31.6865 27.0818 31.558 27.0818 31.4241V19.5632C26.8436 19.3821 26.6423 19.1572 26.4888 18.9007C26.2854 19.251 25.99 19.5394 25.6347 19.735C25.2791 19.9305 24.877 20.0261 24.4715 20.0114C24.066 20.0242 23.6647 19.9278 23.3098 19.7322C22.9546 19.5368 22.659 19.2495 22.4539 18.9007C22.2503 19.251 21.9549 19.5394 21.5995 19.7349C21.2442 19.9305 20.8421 20.0261 20.4363 20.0114C20.0306 20.0261 19.6285 19.9305 19.2731 19.7349C18.9178 19.5393 18.6224 19.251 18.4188 18.9007C18.2128 19.2499 17.9164 19.5373 17.5606 19.7328C17.2048 19.9282 16.8027 20.0244 16.3965 20.0114C15.9908 20.0237 15.5891 19.9265 15.234 19.73C14.8788 19.5338 14.5837 19.2456 14.379 18.8958C14.208 19.1878 13.9745 19.4385 13.6953 19.63L13.6956 19.6297Z" fill="white"/>
<path d="M28.038 13.8138L27.3305 13.3371H13.466L12.7393 13.8138V11.4587C12.7393 11.072 12.8934 10.7009 13.1678 10.4274C13.4421 10.1537 13.8143 10 14.2021 10H26.575C26.9628 10 27.335 10.1537 27.6093 10.4274C27.8837 10.7008 28.0378 11.072 28.0378 11.4587L28.038 13.8138ZM13.6954 12.3837H27.0818V11.4587C27.0818 11.3248 27.0284 11.1963 26.9335 11.1014C26.8383 11.0067 26.7094 10.9535 26.5751 10.9535H14.2023C13.9225 10.9535 13.6956 11.1797 13.6956 11.4587L13.6954 12.3837Z" fill="white"/>
<path d="M29.7492 17.6277H11.0372C10.8338 17.6239 10.6389 17.5473 10.4876 17.4117C10.3365 17.2764 10.2392 17.0912 10.2138 16.8901C10.1881 16.689 10.2362 16.4855 10.3487 16.3168L12.7391 12.7556C12.8097 12.6492 12.9047 12.5609 13.0163 12.4983C13.144 12.4189 13.2914 12.3774 13.4419 12.3791H27.3637C27.5334 12.3751 27.7003 12.4234 27.8418 12.5173C27.9379 12.5764 28.0194 12.6562 28.0809 12.7509L30.4713 16.3072C30.5891 16.4789 30.6392 16.6879 30.6121 16.8941C30.585 17.1004 30.4824 17.2893 30.324 17.4247C30.1656 17.5601 29.9627 17.6324 29.7541 17.6277H29.7492ZM11.2426 16.6743H29.5339L27.3061 13.3372H13.4701L11.2426 16.6743Z" fill="white"/>
<path d="M12.3618 20.011C11.1859 20.011 10.3492 19.3293 10.0049 18.1041C9.91847 17.7738 9.9889 17.4222 10.1961 17.1506C10.4119 16.8537 10.7562 16.6769 11.1237 16.6739H13.6002C13.9626 16.6701 14.306 16.8361 14.5277 17.1221C14.7373 17.3926 14.8097 17.7446 14.7237 18.0755C14.5636 18.804 14.0872 19.4242 13.4232 19.7679C13.0931 19.9292 12.7298 20.0124 12.3618 20.0109L12.3618 20.011ZM11.1235 17.6273H11.1237C11.0591 17.625 10.9969 17.6533 10.9564 17.7035C10.9254 17.7427 10.9148 17.7938 10.9276 17.8419C11.2669 19.0575 12.0942 19.0575 12.3618 19.0575C12.5844 19.0626 12.8051 19.0168 13.0072 18.924C13.4181 18.6978 13.7071 18.3013 13.7961 17.8419C13.8091 17.7938 13.7984 17.7427 13.7675 17.7035C13.7269 17.6533 13.6648 17.625 13.6002 17.6273L11.1235 17.6273Z" fill="white"/>
<path d="M16.3969 20.011C15.8435 20.0144 15.3059 19.8263 14.876 19.4786C14.4462 19.1306 14.1506 18.6449 14.04 18.1041C13.9499 17.7747 14.0187 17.4222 14.2263 17.1507C14.4485 16.8463 14.8052 16.6684 15.1825 16.674H17.6542C18.0318 16.6684 18.3885 16.8463 18.6104 17.1507C18.8181 17.4222 18.887 17.7747 18.7969 18.1041C18.6849 18.6523 18.3831 19.1438 17.9443 19.4923C17.5055 19.8409 16.9578 20.0244 16.3969 20.011L16.3969 20.011ZM15.1635 17.6274C15.0965 17.6255 15.0325 17.6557 14.9913 17.7085C14.9606 17.7455 14.9499 17.7956 14.9627 17.8419C15.2927 19.0622 16.1244 19.0622 16.3969 19.0622C16.6695 19.0622 17.5012 19.0622 17.8312 17.8466C17.844 17.8002 17.8333 17.7504 17.8026 17.7132C17.7614 17.6604 17.6974 17.6304 17.6304 17.6321L15.1635 17.6274Z" fill="white"/>
<path d="M20.4366 20.0109C19.2606 20.0109 18.4239 19.3292 18.0797 18.104C17.9945 17.7731 18.0667 17.4215 18.2756 17.1506C18.4903 16.8552 18.8324 16.6783 19.1983 16.6739H21.6749C22.0371 16.6709 22.3801 16.8365 22.6023 17.1221C22.8144 17.4028 22.8802 17.7674 22.7792 18.104C22.4493 19.3292 21.6126 20.0109 20.4366 20.0109L20.4366 20.0109ZM19.1983 17.6273C19.1336 17.625 19.0717 17.6533 19.031 17.7035C19.0002 17.7427 18.9895 17.7937 19.0024 17.8418C19.337 19.0575 20.1641 19.0575 20.4366 19.0575C20.7091 19.0575 21.5315 19.0575 21.8709 17.8418C21.8837 17.7937 21.873 17.7427 21.8423 17.7035C21.8015 17.6533 21.7396 17.625 21.6749 17.6273H19.1983Z" fill="white"/>
<path d="M24.4718 20.011C23.919 20.0133 23.3827 19.8245 22.9537 19.4768C22.5249 19.1292 22.2302 18.644 22.1196 18.1041C22.0295 17.7746 22.0982 17.4222 22.3059 17.1506C22.5266 16.8469 22.8813 16.6692 23.2574 16.6739H25.7338C26.0964 16.6701 26.4396 16.8361 26.6614 17.1221C26.871 17.3926 26.9433 17.7446 26.8573 18.0756C26.4845 19.3293 25.6478 20.011 24.4718 20.011L24.4718 20.011ZM23.2574 17.6273C23.1929 17.6259 23.131 17.6539 23.09 17.7035C23.0617 17.7418 23.0527 17.7914 23.0661 17.8372C23.1169 18.179 23.2902 18.491 23.5538 18.7153C23.8176 18.9396 24.1538 19.0613 24.5004 19.0575C24.7729 19.0575 25.5953 19.0575 25.9346 17.8419C25.9474 17.7938 25.9368 17.7427 25.906 17.7035C25.8653 17.6533 25.8034 17.625 25.7387 17.6274L23.2574 17.6273Z" fill="white"/>
<path d="M28.5161 20.011C28.1022 20.018 27.6937 19.9178 27.3305 19.7203C26.7331 19.3638 26.3067 18.7805 26.1496 18.1041C26.0595 17.7747 26.1284 17.4222 26.3361 17.1507C26.5581 16.8463 26.9147 16.6684 27.2923 16.674H29.764H29.7638C30.1414 16.6684 30.498 16.8463 30.72 17.1507C30.927 17.4225 30.9959 17.7747 30.9065 18.1041C30.7947 18.6506 30.4944 19.1408 30.0575 19.4892C29.6208 19.8376 29.0753 20.0223 28.5161 20.011L28.5161 20.011ZM27.273 17.6274C27.206 17.6255 27.142 17.6557 27.101 17.7085C27.0701 17.7455 27.0594 17.7955 27.0722 17.8419C27.1644 18.2716 27.4218 18.6483 27.7893 18.8907C28.2083 19.1091 28.7062 19.1157 29.131 18.9086C29.5555 18.7015 29.8562 18.3057 29.9407 17.8419C29.955 17.7962 29.9461 17.7464 29.9168 17.7085C29.8743 17.658 29.8107 17.63 29.7448 17.6321L27.273 17.6274Z" fill="white"/>
<path d="M13.2175 28.1152H27.5601V29.0687H13.2175V28.1152Z" fill="white"/>
<path d="M21.6557 30.9759H19.1219C18.8579 30.9759 18.6438 30.7624 18.6438 30.4992C18.6438 30.2359 18.8579 30.0225 19.1219 30.0225H21.651C21.915 30.0225 22.1291 30.2359 22.1291 30.4992C22.1291 30.7624 21.915 30.9759 21.651 30.9759H21.6557Z" fill="white"/>
<path d="M16.5922 30.9759H16.0855C15.8215 30.9759 15.6074 30.7624 15.6074 30.4992C15.6074 30.2359 15.8215 30.0225 16.0855 30.0225H16.5922C16.8564 30.0225 17.0703 30.2359 17.0703 30.4992C17.0703 30.7624 16.8564 30.9759 16.5922 30.9759Z" fill="white"/>
<path d="M24.6916 30.9759H24.1849C23.9206 30.9759 23.7068 30.7624 23.7068 30.4992C23.7068 30.2359 23.9206 30.0225 24.1849 30.0225H24.6916C24.9556 30.0225 25.1696 30.2359 25.1696 30.4992C25.1696 30.7624 24.9556 30.9759 24.6916 30.9759Z" fill="white"/>
<path d="M21.7374 27.1622H19.0409C18.7483 27.1575 18.4642 27.0637 18.2267 26.8932C17.989 26.7227 17.8095 26.484 17.7119 26.2088L17.0426 24.2638C16.8936 23.8373 16.9592 23.3655 17.2185 22.9954C17.478 22.6255 17.8998 22.402 18.3527 22.395H22.4211C22.8746 22.4006 23.2981 22.6232 23.5584 22.9937C23.819 23.364 23.885 23.8367 23.7358 24.2638L23.0665 26.2087C22.9689 26.4839 22.7894 26.7227 22.5517 26.8932C22.3141 27.0636 22.03 27.1575 21.7374 27.1622L21.7374 27.1622ZM18.3527 23.3484C18.2065 23.3497 18.0699 23.421 17.9853 23.54C17.901 23.6592 17.8793 23.8113 17.9271 23.949L18.6156 25.9083V25.9085C18.6854 26.0836 18.8521 26.2013 19.041 26.2088H21.7375C21.9264 26.2013 22.0931 26.0836 22.1629 25.9085L22.8514 23.9492V23.949C22.8992 23.8113 22.8775 23.6592 22.7932 23.54C22.7086 23.421 22.572 23.3497 22.4258 23.3484H18.3527Z" fill="white"/>
<path d="M23.2572 23.8252C23.0235 23.829 22.8211 23.6637 22.7791 23.4343C22.5861 22.5409 21.9845 21.7892 21.1536 21.4035C21.0319 21.3576 20.9344 21.2641 20.8834 21.145C20.8324 21.0258 20.8322 20.891 20.8827 20.7717C20.9335 20.6523 21.0309 20.5586 21.1523 20.5124C21.2738 20.466 21.4089 20.4712 21.5265 20.5263C22.6574 21.0362 23.4774 22.0522 23.7353 23.2628C23.7602 23.3894 23.7327 23.5207 23.6589 23.6269C23.5848 23.7329 23.471 23.8044 23.3432 23.8253L23.2572 23.8252Z" fill="white"/>
<path d="M17.5205 23.8251H17.4345C17.3067 23.8042 17.1929 23.7327 17.1188 23.6267C17.045 23.5205 17.0175 23.3892 17.0424 23.2626C17.299 22.0544 18.1149 21.0391 19.2416 20.5261C19.4817 20.4354 19.7509 20.5502 19.8512 20.786C19.9515 21.0218 19.8469 21.2944 19.6145 21.4034C18.7892 21.7937 18.1922 22.5439 17.9986 23.4341C17.9566 23.6635 17.7542 23.8289 17.5205 23.825L17.5205 23.8251Z" fill="white"/>
<path d="M17.5203 24.3018H23.2573V25.2552H17.5203V24.3018Z" fill="white"/>
<path d="M18.9546 22.8716H19.9108V26.6854H18.9546V22.8716Z" fill="white"/>
<path d="M20.8667 22.8716H21.8229V26.6854H20.8667V22.8716Z" fill="white"/>
<path d="M14.1735 17.6276C14.1059 17.6274 14.0391 17.6127 13.9776 17.5846C13.8615 17.5336 13.7706 17.4384 13.7247 17.3205C13.679 17.2024 13.6822 17.0711 13.7337 16.9555L15.646 12.665C15.7529 12.4241 16.0355 12.3151 16.2771 12.4218C16.5187 12.5284 16.6278 12.8102 16.5209 13.0511L14.6085 17.3416C14.533 17.5142 14.3624 17.6264 14.1736 17.6276L14.1735 17.6276Z" fill="white"/>
<path d="M18.4761 17.6274H18.4236C18.1626 17.5974 17.9748 17.3633 18.0028 17.103L18.4808 12.8125C18.5099 12.5493 18.7476 12.3592 19.0116 12.3882C19.2757 12.4171 19.466 12.6542 19.437 12.9175L18.9589 17.208C18.9297 17.4506 18.7212 17.6317 18.4761 17.6274L18.4761 17.6274Z" fill="white"/>
<path d="M22.3009 17.6277C22.0561 17.6292 21.8497 17.446 21.8228 17.2034L21.3447 12.9128C21.3157 12.6496 21.5061 12.4127 21.7703 12.3838C22.0343 12.3548 22.2719 12.5447 22.3009 12.8081L22.779 17.0986C22.8069 17.3589 22.6191 17.593 22.3583 17.623L22.3009 17.6277Z" fill="white"/>
<path d="M26.6039 17.6273C26.3983 17.6278 26.2154 17.4973 26.1497 17.3032L24.7154 13.0127C24.6755 12.8925 24.6851 12.7616 24.7419 12.6484C24.7989 12.5354 24.8986 12.4494 25.0189 12.4096C25.2699 12.3268 25.5406 12.4621 25.6238 12.7124L27.058 17.0029C27.1054 17.1479 27.0805 17.3068 26.9906 17.4305C26.9007 17.5541 26.7569 17.6271 26.6039 17.6273L26.6039 17.6273Z" fill="white"/>
</svg>
