<svg width="25" height="25" viewBox="0 0 25 25" fill="none" xmlns="http://www.w3.org/2000/svg">
<path d="M14.8887 13.2446L19.9012 8.24373C20.1207 8.02423 20.244 7.72651 20.244 7.41608C20.244 7.10565 20.1207 6.80794 19.9012 6.58843C19.6817 6.36892 19.384 6.24561 19.0735 6.24561C18.7631 6.24561 18.4654 6.36892 18.2459 6.58843L13.245 11.601L8.24413 6.58843C8.02463 6.36892 7.72691 6.24561 7.41648 6.24561C7.10605 6.24561 6.80834 6.36892 6.58883 6.58843C6.36933 6.80794 6.24601 7.10565 6.24601 7.41608C6.24601 7.72651 6.36933 8.02423 6.58883 8.24373L11.6014 13.2446L6.58883 18.2455C6.47957 18.3539 6.39285 18.4828 6.33367 18.6248C6.27449 18.7669 6.24402 18.9193 6.24402 19.0731C6.24402 19.227 6.27449 19.3794 6.33367 19.5214C6.39285 19.6635 6.47957 19.7924 6.58883 19.9008C6.6972 20.01 6.82613 20.0968 6.96818 20.156C7.11023 20.2151 7.2626 20.2456 7.41648 20.2456C7.57037 20.2456 7.72274 20.2151 7.86479 20.156C8.00684 20.0968 8.13577 20.01 8.24413 19.9008L13.245 14.8883L18.2459 19.9008C18.3543 20.01 18.4832 20.0968 18.6252 20.156C18.7673 20.2151 18.9197 20.2456 19.0735 20.2456C19.2274 20.2456 19.3798 20.2151 19.5218 20.156C19.6639 20.0968 19.7928 20.01 19.9012 19.9008C20.0105 19.7924 20.0972 19.6635 20.1564 19.5214C20.2155 19.3794 20.246 19.227 20.246 19.0731C20.246 18.9193 20.2155 18.7669 20.1564 18.6248C20.0972 18.4828 20.0105 18.3539 19.9012 18.2455L14.8887 13.2446Z" fill="#54585F"/>
</svg>
