<svg width="26" height="26" viewBox="0 0 26 26" fill="none" xmlns="http://www.w3.org/2000/svg">
<path d="M12.0671 3.92995C15.0462 3.92995 15.3712 3.92995 16.5629 3.98411C17.6462 4.03828 18.2421 4.20078 18.6212 4.36328C19.1087 4.52578 19.5421 4.85078 19.9212 5.17578C20.3004 5.55495 20.5712 5.98828 20.7337 6.47578C20.8962 6.85494 21.0587 7.45078 21.1129 8.53411C21.1671 9.72578 21.1671 10.0508 21.1671 13.0299C21.1671 16.0091 21.1671 16.3341 21.1129 17.5258C21.0587 18.6091 20.8962 19.2049 20.7337 19.5841C20.3546 20.5591 19.5962 21.3174 18.6212 21.6966C18.2421 21.8591 17.6462 22.0216 16.5629 22.0758C15.3712 22.1299 15.0462 22.1299 12.0671 22.1299C9.08789 22.1299 8.76289 22.1299 7.57122 22.0758C6.48789 22.0216 5.89206 21.8591 5.51289 21.6966C5.02539 21.5341 4.59206 21.2091 4.21289 20.8841C3.83372 20.5049 3.56289 20.0716 3.40039 19.5841C3.23789 19.2049 3.07539 18.6091 3.02122 17.5258C2.96706 16.3341 2.96706 16.0091 2.96706 13.0299C2.96706 10.0508 2.96706 9.72578 3.02122 8.53411C3.07539 7.45078 3.23789 6.85494 3.40039 6.47578C3.56289 5.98828 3.88789 5.55495 4.21289 5.17578C4.59206 4.79661 5.02539 4.52578 5.51289 4.36328C5.89206 4.20078 6.48789 4.03828 7.57122 3.98411C8.76289 3.92995 9.14206 3.92995 12.0671 3.92995ZM12.0671 1.92578C9.03372 1.92578 8.65456 1.92578 7.46289 1.97995C6.27122 2.03411 5.45872 2.19661 4.75456 2.52161C4.05039 2.79245 3.40039 3.22578 2.85872 3.76745C2.31706 4.30911 1.82956 5.01328 1.55872 5.71745C1.28789 6.42161 1.07122 7.23411 1.01706 8.42578C0.962891 9.61744 0.962891 9.99661 0.962891 13.0299C0.962891 16.0633 0.962891 16.4424 1.01706 17.6341C1.07122 18.8258 1.23372 19.6383 1.55872 20.3424C1.82956 21.0466 2.26289 21.7508 2.85872 22.2924C3.40039 22.8341 4.10456 23.3216 4.80872 23.5924C5.51289 23.8633 6.32539 24.0799 7.51706 24.1341C8.70872 24.1883 9.08789 24.1883 12.1212 24.1883C15.1546 24.1883 15.5337 24.1883 16.7254 24.1341C17.9171 24.0799 18.7296 23.9174 19.4337 23.5924C20.9504 22.9966 22.0879 21.8591 22.6837 20.3424C22.9546 19.6383 23.1712 18.8258 23.2254 17.6341C23.2796 16.4424 23.2796 16.0633 23.2796 13.0299C23.2796 9.99661 23.2796 9.61744 23.2254 8.42578C23.1712 7.23411 23.0087 6.42161 22.6837 5.71745C22.4129 4.95911 21.9796 4.30911 21.3837 3.76745C20.8421 3.22578 20.1379 2.73828 19.4337 2.46745C18.7296 2.19661 17.9171 1.97995 16.7254 1.92578C15.4796 1.92578 15.1004 1.92578 12.0671 1.92578Z" fill="white"/>
<path d="M12.9443 7.25781C9.80267 7.25781 7.25684 9.80365 7.25684 12.9453C7.25684 16.087 9.80267 18.6328 12.9443 18.6328C16.086 18.6328 18.6318 16.087 18.6318 12.9453C18.686 9.80365 16.1402 7.25781 12.9443 7.25781ZM12.9443 16.6828C10.886 16.6828 9.261 15.0036 9.261 12.9995C9.261 10.9411 10.9402 9.31615 12.9443 9.31615C15.0027 9.31615 16.6277 10.9953 16.6277 12.9995C16.6818 15.0036 15.0027 16.6828 12.9443 16.6828Z" fill="white"/>
<path d="M18.9057 8.39583C19.6536 8.39583 20.2598 7.78955 20.2598 7.04167C20.2598 6.29378 19.6536 5.6875 18.9057 5.6875C18.1578 5.6875 17.5515 6.29378 17.5515 7.04167C17.5515 7.78955 18.1578 8.39583 18.9057 8.39583Z" fill="white"/>
</svg>
