<svg width="50" height="48" viewBox="0 0 50 48" fill="none" xmlns="http://www.w3.org/2000/svg">
<path d="M43.5676 36.7599H34.4822V45.0733H30.02V28.3918H20.9367V45.0733H16.4765V20.0234H7.39156V45.0733H2.92569V10.2274L7.5382 13.3857L12.9374 9.54845L17.4062 15.863L18.9195 15.9389C19.805 21.0502 24.2607 24.9532 29.6217 24.9532C32.4412 24.9532 35.005 23.8652 36.9389 22.0987L42.9754 27.5032L37.5938 27.7984L37.7857 31.3049L49.1045 30.6844L48.4697 19.3352L44.964 19.5312L45.26 24.8357L39.1267 19.3451C39.9942 17.7843 40.4927 15.9908 40.4927 14.0819C40.4927 8.08706 35.6157 3.2093 29.6212 3.2093C24.3465 3.2093 19.9406 6.98569 18.9566 11.9762L13.7718 4.6472L7.50054 9.10335L2.92597 5.9716L2.92638 0H0V48H48V45.0736H43.568L43.5676 36.7599ZM29.6213 4.84878C34.7119 4.84878 38.8536 8.99097 38.8536 14.0819C38.8536 19.1733 34.7123 23.3151 29.6213 23.3151C24.5299 23.3151 20.3882 19.1729 20.3882 14.0819C20.3873 8.99055 24.5295 4.84878 29.6213 4.84878Z" fill="url(#paint0_linear_3862_18490)"/>
<path d="M29.4785 16.9138H29.4748C29.0184 16.9138 28.6518 16.799 28.4424 16.5896C28.3113 16.459 28.248 16.2969 28.248 16.0952H26.2582C26.2582 16.8215 26.535 17.4967 27.0359 17.9981C27.4446 18.4059 27.9957 18.677 28.6236 18.8089L28.6224 20.0059L30.6122 20.0075L30.6134 18.7856C31.2911 18.648 31.8476 18.3892 32.2485 17.9867C32.7291 17.5049 32.9826 16.8501 32.9801 16.096C32.9801 13.8584 30.9727 13.3644 29.7732 13.0696C28.4379 12.7406 28.2475 12.5903 28.2475 12.2102C28.248 11.9645 28.3688 11.3933 29.4773 11.3933C29.9312 11.3933 30.9886 11.4729 30.9886 12.2102H32.9785C32.9785 11.1276 32.3322 9.89547 30.611 9.52026L30.6122 8.30811L28.6224 8.30566L28.6212 9.48677C27.0085 9.81093 26.2602 11.0455 26.2578 12.2082C26.2594 14.2531 28.0881 14.7031 29.2985 15.0011C30.7797 15.3657 30.9907 15.5617 30.9907 16.0985C30.9919 16.4292 30.8813 16.5398 30.8405 16.5815C30.6298 16.7926 30.1342 16.9138 29.4786 16.9138L29.4785 16.9138Z" fill="url(#paint1_linear_3862_18490)"/>
<defs>
<linearGradient id="paint0_linear_3862_18490" x1="24.5523" y1="0" x2="24.5523" y2="48" gradientUnits="userSpaceOnUse">
<stop stop-color="#EE8425"/>
<stop offset="1" stop-color="#FF661A"/>
</linearGradient>
<linearGradient id="paint1_linear_3862_18490" x1="29.619" y1="8.30566" x2="29.619" y2="20.0075" gradientUnits="userSpaceOnUse">
<stop stop-color="#EE8425"/>
<stop offset="1" stop-color="#FF661A"/>
</linearGradient>
</defs>
</svg>
