<svg width="28" height="48" viewBox="0 0 28 48" fill="none" xmlns="http://www.w3.org/2000/svg">
<path d="M23.6429 0H4.78571C3.64919 0.000382629 2.5594 0.451915 1.75584 1.25584C0.951886 2.05941 0.500392 3.14919 0.5 4.28571V43.7143C0.500383 44.8508 0.951916 45.9406 1.75584 46.7442C2.55941 47.5481 3.64919 47.9996 4.78571 48H23.6429C24.7794 47.9996 25.8692 47.5481 26.6727 46.7442C27.4767 45.9406 27.9282 44.8508 27.9286 43.7143V4.28571C27.9282 3.14919 27.4767 2.0594 26.6727 1.25584C25.8692 0.451886 24.7794 0.000391837 23.6429 0V0ZM3.92857 17.5719C3.92398 18.0418 3.54133 18.4206 3.07143 18.4206C2.60153 18.4206 2.21888 18.0418 2.21429 17.5719V9.00049C2.21888 8.53059 2.60153 8.15176 3.07143 8.15176C3.54133 8.15176 3.92398 8.53059 3.92857 9.00049V17.5719ZM3.92857 6.42906C3.92398 6.89896 3.54133 7.27779 3.07143 7.27779C2.60153 7.27779 2.21888 6.89896 2.21429 6.42906V4.71478C2.21888 4.24487 2.60153 3.86605 3.07143 3.86605C3.54133 3.86605 3.92398 4.24487 3.92857 4.71478V6.42906ZM11.6429 2.57192H16.7857C17.2556 2.57651 17.6344 2.95916 17.6344 3.42906C17.6344 3.89896 17.2556 4.28161 16.7857 4.2862H11.6429C11.173 4.28161 10.7941 3.89896 10.7941 3.42906C10.7941 2.95916 11.173 2.57651 11.6429 2.57192ZM14.2143 45.4291C13.5324 45.4291 12.878 45.1581 12.396 44.676C11.9139 44.1939 11.6429 43.5395 11.6429 42.8577C11.6429 42.1759 11.9138 41.5214 12.396 41.0394C12.8781 40.5573 13.5325 40.2863 14.2143 40.2863C14.8961 40.2863 15.5505 40.5572 16.0326 41.0394C16.5147 41.5215 16.7857 42.1759 16.7857 42.8577C16.7838 43.5392 16.5121 44.192 16.0303 44.6737C15.5485 45.1555 14.8957 45.4272 14.2142 45.4291L14.2143 45.4291ZM21.8601 29.9829C21.8586 30.4371 21.6776 30.8725 21.3565 31.1935C21.0351 31.515 20.6 31.696 20.1458 31.6971H8.28299C7.82878 31.696 7.39371 31.515 7.07232 31.1935C6.75128 30.8725 6.57028 30.437 6.56875 29.9829V18.0171C6.57028 17.5629 6.75128 17.1275 7.07232 16.8065C7.39374 16.485 7.82882 16.304 8.28299 16.3029H20.1458C20.6001 16.304 21.0351 16.485 21.3565 16.8065C21.6776 17.1275 21.8586 17.563 21.8601 18.0171V29.9829Z" fill="url(#paint0_linear_3862_18493)"/>
<path d="M15.0697 42.8571C15.0697 43.2038 14.8608 43.5165 14.5405 43.6488C14.2202 43.7816 13.8518 43.7085 13.6065 43.4633C13.3612 43.218 13.2881 42.8495 13.4209 42.5292C13.5533 42.2089 13.8659 42 14.2126 42C14.6855 42.0015 15.0682 42.3842 15.0697 42.8571Z" fill="url(#paint1_linear_3862_18493)"/>
<path d="M20.1461 18.0176V29.9833H8.2832V18.0176H10.9147V21.5747C10.9158 21.9156 11.1171 22.2244 11.429 22.3633C12.6802 22.9032 12.492 22.9121 13.4004 22.5091C14.2748 22.8948 14.1802 22.8776 15.029 22.5091C15.9546 22.9205 15.766 22.8948 17.0004 22.3633C17.3123 22.2244 17.5135 21.9156 17.5147 21.5747V18.0176H20.1461Z" fill="url(#paint2_linear_3862_18493)"/>
<path d="M15.8004 18.0177V20.9832C14.9689 20.6231 15.0546 20.6319 14.2147 21.0004C13.3491 20.6231 13.426 20.6319 12.6289 20.9748V18.0176L15.8004 18.0177Z" fill="url(#paint3_linear_3862_18493)"/>
<defs>
<linearGradient id="paint0_linear_3862_18493" x1="14.2143" y1="0" x2="14.2143" y2="48" gradientUnits="userSpaceOnUse">
<stop stop-color="#EE8425"/>
<stop offset="1" stop-color="#FF661A"/>
</linearGradient>
<linearGradient id="paint1_linear_3862_18493" x1="14.2126" y1="42" x2="14.2126" y2="43.7143" gradientUnits="userSpaceOnUse">
<stop stop-color="#EE8425"/>
<stop offset="1" stop-color="#FF661A"/>
</linearGradient>
<linearGradient id="paint2_linear_3862_18493" x1="14.2146" y1="18.0176" x2="14.2146" y2="29.9833" gradientUnits="userSpaceOnUse">
<stop stop-color="#EE8425"/>
<stop offset="1" stop-color="#FF661A"/>
</linearGradient>
<linearGradient id="paint3_linear_3862_18493" x1="14.2147" y1="18.0176" x2="14.2147" y2="21.0004" gradientUnits="userSpaceOnUse">
<stop stop-color="#EE8425"/>
<stop offset="1" stop-color="#FF661A"/>
</linearGradient>
</defs>
</svg>
