<svg width="40" height="66" viewBox="0 0 40 66" fill="none" xmlns="http://www.w3.org/2000/svg">
<path d="M4.76252 12.5436C5.08011 13.0947 5.68726 13.3702 6.58398 13.3702C7.48071 13.3702 8.08319 13.0993 8.39144 12.5576C8.70903 12.0158 8.86783 11.1097 8.86783 9.83938C8.86783 8.55968 8.70436 7.63027 8.37743 7.05113C8.05984 6.472 7.46203 6.18243 6.58398 6.18243C5.70594 6.18243 5.10346 6.472 4.77653 7.05113C4.4496 7.63027 4.28613 8.55501 4.28613 9.82537C4.28613 11.0864 4.44493 11.9924 4.76252 12.5436ZM9.61042 13.5524C9.04063 14.337 8.03182 14.7293 6.58398 14.7293C5.13615 14.7293 4.12267 14.337 3.54353 13.5524C2.9644 12.7584 2.67483 11.5161 2.67483 9.82537C2.67483 8.13467 2.9644 6.87833 3.54353 6.05633C4.13201 5.23433 5.14549 4.82334 6.58398 4.82334C8.02248 4.82334 9.03129 5.23433 9.61042 6.05633C10.1896 6.86899 10.4791 8.12533 10.4791 9.82537C10.4791 11.5254 10.1896 12.7677 9.61042 13.5524ZM12.2901 14.5752V4.97746H15.0083L17.9226 13.2021H18.1328V4.97746H19.688V14.5752H17.0259L14.0415 6.33656H13.8453V14.5752H12.2901ZM25.2162 14.5752H21.8955V4.97746H25.2162C26.692 4.97746 27.7008 5.3511 28.2426 6.09836C28.7844 6.84563 29.0552 8.01791 29.0552 9.6152C29.0552 10.4279 28.9992 11.1191 28.8871 11.6889C28.7844 12.2493 28.5975 12.7584 28.3267 13.2161C27.7942 14.1222 26.7574 14.5752 25.2162 14.5752ZM27.4439 9.6152C27.4439 8.45693 27.2992 7.62092 27.0096 7.10718C26.72 6.59343 26.1222 6.33656 25.2162 6.33656H23.4507V13.2021H25.2162C26.1409 13.2021 26.7574 12.8611 27.0656 12.1793C27.2151 11.8337 27.3132 11.4647 27.3599 11.0724C27.4159 10.6801 27.4439 10.1943 27.4439 9.6152ZM34.0941 14.7293C32.6929 14.7293 31.7402 14.3417 31.2358 13.5664C30.7407 12.7911 30.4932 11.5161 30.4932 9.7413C30.4932 7.96654 30.7454 6.70552 31.2498 5.95825C31.7542 5.20164 32.7023 4.82334 34.0941 4.82334C34.9254 4.82334 35.8408 4.9401 36.8403 5.17362L36.7842 6.43464C35.9435 6.28518 35.1029 6.21045 34.2622 6.21045C33.4215 6.21045 32.8517 6.46266 32.5528 6.96706C32.2539 7.46213 32.1045 8.40089 32.1045 9.78333C32.1045 11.1564 32.2492 12.0952 32.5388 12.5996C32.8284 13.0947 33.3935 13.3422 34.2342 13.3422C35.0748 13.3422 35.9249 13.2721 36.7842 13.132L36.8263 14.4211C35.8642 14.6266 34.9534 14.7293 34.0941 14.7293Z" fill="white"/>
<path d="M30.1205 33.5029L29.6201 25.9552L26.159 28.0819C24.4493 27.79 23.9906 27.79 22.6562 27.1645C21.8639 26.7892 20.8631 27.0394 20.3627 27.3313C19.6121 26.539 14.7331 27.7066 14.191 27.9568C12.7315 27.4981 10.5631 25.8301 10.5631 25.8301L9.8125 34.3369L10.8133 34.5871C10.8967 34.879 11.1469 35.5879 11.1469 35.5879C10.2295 36.7555 11.3137 38.1317 12.3562 37.673C11.8975 38.8406 13.1068 39.9248 14.0659 39.1742C13.9408 40.2584 15.0667 41.0507 15.9007 40.3001C15.5254 41.5928 16.9849 42.5519 17.8607 41.5094C18.4862 41.9264 19.07 42.26 19.5704 42.4268C20.4461 42.8021 21.4052 41.9681 21.2384 40.9256C22.2392 42.0932 23.7404 40.9673 23.4068 39.6746C24.5327 40.5503 25.9088 39.0908 25.1999 37.7981C26.4509 38.507 27.5351 36.5887 26.3258 35.3377L30.1205 33.5029Z" fill="#FCE19D"/>
<path d="M12.4408 34.7136C13.0663 35.0055 13.4834 35.9646 12.8161 36.7986L12.5242 37.1322C12.1906 37.5492 11.857 37.6743 11.5234 37.6743C11.7736 37.7994 12.0655 37.7994 12.3574 37.6743C12.3991 37.5492 12.4825 37.3824 12.6076 37.2573L12.8995 36.9237C13.0663 36.7152 13.2748 36.5484 13.4416 36.465C13.7753 35.5893 13.1914 34.7553 12.4408 34.7136ZM17.1947 38.8419C17.8619 39.0087 18.3623 39.8844 17.8619 40.8435L17.6117 41.2188C17.3615 41.6775 17.0279 41.886 16.6943 41.9277C17.153 42.0528 17.6534 41.886 17.987 41.2605L18.2372 40.8852C18.8627 39.7176 18.0704 38.7585 17.1947 38.8419ZM14.2757 38.5083L14.9429 37.4658C14.9012 36.882 14.4008 36.3816 13.9004 36.3399C14.5259 36.6318 14.9429 37.5909 14.2757 38.4249L13.9838 38.7585C13.6502 39.1755 13.3165 39.3006 12.9412 39.3006C13.2748 39.4674 13.6502 39.4257 14.0255 39.1755C14.0672 38.967 14.1506 38.7168 14.2757 38.5083ZM16.0688 36.6318C16.736 36.8403 17.1947 37.7577 16.6109 38.6751L15.8186 39.9261C15.5267 40.3848 15.1931 40.5516 14.8595 40.5516C15.2765 40.6767 15.8186 40.5516 16.1939 39.9678L16.9862 38.7168C17.6534 37.6326 16.9028 36.5901 16.0688 36.6318ZM21.6149 37.6743C21.6566 37.6743 22.157 37.5909 22.3238 37.5909C21.6983 36.9654 20.6975 37.4658 20.1137 37.1322C20.5307 37.8411 21.4064 37.6743 21.4898 37.6743L22.4906 38.967C23.3246 40.0095 22.6574 41.2188 21.7817 41.3439C22.6991 41.6358 23.6165 40.6767 23.3246 39.6342C23.2829 39.5925 21.6149 37.6743 21.6149 37.6743ZM22.6157 35.2557C22.6157 35.2557 23.2412 35.1306 23.7833 35.1306C23.1578 34.6302 22.1987 35.0889 21.5732 34.6719C21.8234 35.214 22.3655 35.214 22.5323 35.2557L24.4505 37.4658C25.3262 38.4666 24.7007 39.6759 23.825 39.8844C24.8258 40.1763 25.7849 38.8836 25.1594 37.7577C24.7424 37.5909 22.6157 35.2557 22.6157 35.2557Z" fill="#EBA352"/>
<path d="M21.2807 40.0507C20.6551 39.5503 19.7794 39.9256 19.4041 39.6754C19.6126 40.2592 20.4049 40.1341 20.4466 40.1341C21.1556 41.2184 20.4049 42.3443 19.5292 42.4277C20.4049 42.803 21.3641 41.969 21.1973 40.9265C21.1556 40.8848 20.5717 40.1341 20.5717 40.1341C20.6551 40.0924 21.1139 40.0507 21.2807 40.0507ZM29.6624 32.7949C29.6624 32.7949 28.9535 34.2544 26.2013 35.0467C25.826 34.588 25.0337 33.6706 24.1163 32.8783C24.7001 32.7532 24.992 32.2945 25.4507 32.2111C25.2839 32.0443 24.7001 32.1277 24.2414 32.2945C23.4074 32.5864 21.4892 31.252 21.4892 31.252L19.9045 31.4605C18.7786 32.5447 16.36 33.1285 16.2349 31.4605C16.1515 30.2929 18.6952 29.5006 19.4875 28.75C20.4883 27.7909 21.3641 26.5816 22.9904 27.4156C24.3248 28.0828 24.8669 28.0411 26.7017 28.3747C27.3272 28.4998 27.7442 28.7917 28.2029 29.4172C27.8276 28.5415 27.2855 28.1662 26.6183 28.0411L29.5373 26.665L29.579 25.9561L26.1179 27.916C24.5333 27.6658 23.9495 27.6658 22.6568 27.0403C21.8228 26.6233 21.1556 26.7484 20.6134 27.082C19.6126 26.4982 19.0288 26.6233 18.6535 26.7067C17.4859 27.082 15.6094 27.1237 13.9414 27.7909C14.2333 27.8743 14.5252 27.9577 14.7337 27.9577C16.36 27.4573 18.0697 27.499 18.862 27.2071C19.1122 27.1237 19.6126 27.1237 20.1547 27.4156C19.8211 27.7075 19.5292 28.0411 19.1956 28.3747C18.4033 29.1253 15.9847 30.2095 16.1515 31.5856C16.2349 32.2528 17.1523 34.0042 20.1964 32.0443L21.4892 31.8775C21.4892 31.8775 23.8661 33.0034 26.0762 35.5888C26.9519 36.5896 26.4098 37.6738 25.5341 37.924C26.66 38.1325 27.6191 36.5479 26.5349 35.4637L29.162 34.0459L29.6624 32.7949Z" fill="#EBA352"/>
<path d="M28.915 26.3711L30.2912 33.5018L29.1652 34.0022C28.5814 32.4593 27.7057 28.748 27.9142 26.9549L28.915 26.3711Z" fill="#3B946F"/>
<path d="M11.272 35.4224C11.0635 34.922 10.9384 34.2548 10.9384 34.2548L9.8959 33.5459L9.8125 34.3382L10.7299 34.5884C10.855 35.0054 10.9801 35.339 11.1469 35.5892L11.272 35.4224Z" fill="#EBA352"/>
<path d="M9.19141 34.212L11.4432 26.4141L12.4857 27.123C12.6525 28.2906 10.7343 33.6282 10.0254 34.4205L9.19141 34.212Z" fill="#3B946F"/>
<path d="M28.8708 26.3305C28.5371 26.539 29.7465 33.7532 30.2469 33.5447C31.8315 32.8358 32.5404 32.6273 32.5404 32.6273V24.037C32.4987 24.037 31.5396 24.7459 28.8708 26.3305ZM7.47852 23.3281V33.9617C7.47852 33.9617 8.22912 34.0868 9.18823 34.2953C9.73033 34.4204 11.6902 26.5807 11.5651 26.4556C10.1473 25.4965 7.47852 23.3281 7.47852 23.3281Z" fill="#47B892"/>
<path d="M1.59517 62.2666V52.6689H7.54997V54.028H3.15043V57.2646H6.80737V58.6237H3.15043V62.2666H1.59517ZM13.6713 57.4187V60.6133C13.6806 60.8188 13.732 60.9729 13.8254 61.0756C13.9281 61.1691 14.0823 61.2298 14.2878 61.2578L14.2457 62.4207C13.4424 62.4207 12.8212 62.2479 12.3822 61.9023C11.635 62.2479 10.883 62.4207 10.1264 62.4207C8.73462 62.4207 8.03873 61.6781 8.03873 60.1929C8.03873 59.483 8.22554 58.9693 8.59918 58.6517C8.98215 58.3341 9.56596 58.1426 10.3506 58.0772L12.158 57.9231V57.4187C12.158 57.0451 12.074 56.7835 11.9058 56.6341C11.747 56.4846 11.5089 56.4099 11.1913 56.4099C10.5935 56.4099 9.84618 56.4472 8.94946 56.522L8.5011 56.55L8.44505 55.4711C9.46321 55.2283 10.3973 55.1068 11.2473 55.1068C12.1067 55.1068 12.7232 55.2936 13.0968 55.6673C13.4798 56.0316 13.6713 56.6154 13.6713 57.4187ZM10.5327 59.1561C9.88822 59.2121 9.56596 59.5624 9.56596 60.2069C9.56596 60.8515 9.85085 61.1737 10.4206 61.1737C10.8877 61.1737 11.3828 61.099 11.9058 60.9495L12.158 60.8655V59.002L10.5327 59.1561ZM20.4504 56.7041C19.3482 56.5547 18.5496 56.4799 18.0545 56.4799C17.5594 56.4799 17.2138 56.5407 17.0177 56.6621C16.8308 56.7742 16.7374 56.9563 16.7374 57.2085C16.7374 57.4607 16.8402 57.6382 17.0457 57.741C17.2605 57.8437 17.7556 57.9651 18.5309 58.1052C19.3155 58.236 19.8713 58.4462 20.1982 58.7358C20.5252 59.0253 20.6886 59.5391 20.6886 60.277C20.6886 61.0149 20.4504 61.5567 19.974 61.9023C19.507 62.2479 18.8205 62.4207 17.9144 62.4207C17.3446 62.4207 16.6253 62.3413 15.7566 62.1825L15.3223 62.1125L15.3783 60.8374C16.4992 60.9869 17.3072 61.0616 17.8023 61.0616C18.2974 61.0616 18.6476 61.0009 18.8531 60.8795C19.068 60.7581 19.1754 60.5572 19.1754 60.277C19.1754 59.9968 19.0727 59.8053 18.8672 59.7025C18.671 59.5904 18.1899 59.4737 17.424 59.3523C16.6674 59.2215 16.1116 59.0207 15.7566 58.7498C15.4017 58.4789 15.2242 57.9838 15.2242 57.2646C15.2242 56.5453 15.4671 56.0082 15.9528 55.6533C16.4479 55.2983 17.0784 55.1208 17.8443 55.1208C18.4421 55.1208 19.1754 55.1956 20.0441 55.345L20.4785 55.4291L20.4504 56.7041ZM25.9253 56.564H23.9918V59.6465C23.9918 60.2163 24.0338 60.5946 24.1179 60.7814C24.202 60.9682 24.4168 61.0616 24.7624 61.0616L25.9113 61.0196L25.9814 62.2386C25.3555 62.36 24.8792 62.4207 24.5522 62.4207C23.7583 62.4207 23.2118 62.2386 22.9129 61.8743C22.6233 61.51 22.4786 60.8234 22.4786 59.8146V56.564H21.5818V55.261H22.4786V53.2293H23.9918V55.261H25.9253V56.564ZM27.5562 56.0176C28.042 55.4104 28.8453 55.1068 29.9662 55.1068C31.0871 55.1068 31.8857 55.4104 32.3621 56.0176C32.8478 56.6247 33.0907 57.5355 33.0907 58.7498C33.0907 59.9641 32.8572 60.8795 32.3901 61.496C31.9231 62.1125 31.1151 62.4207 29.9662 62.4207C28.8172 62.4207 28.0093 62.1125 27.5422 61.496C27.0752 60.8795 26.8417 59.9641 26.8417 58.7498C26.8417 57.5355 27.0798 56.6247 27.5562 56.0176ZM28.7052 60.5712C28.92 60.9449 29.3403 61.1317 29.9662 61.1317C30.592 61.1317 31.0124 60.9449 31.2272 60.5712C31.442 60.1976 31.5495 59.5858 31.5495 58.7358C31.5495 57.8857 31.4327 57.2833 31.1992 56.9283C30.975 56.5733 30.564 56.3959 29.9662 56.3959C29.3684 56.3959 28.9527 56.5733 28.7192 56.9283C28.495 57.2833 28.3829 57.8857 28.3829 58.7358C28.3829 59.5858 28.4903 60.1976 28.7052 60.5712ZM34.6077 62.2666V55.261H36.121V56.1016C36.9149 55.5879 37.7089 55.2563 38.5029 55.1068V56.6341C37.6996 56.7929 37.013 56.9984 36.4432 57.2506L36.135 57.3767V62.2666H34.6077Z" fill="white"/>
</svg>
