<svg width="52" height="48" viewBox="0 0 52 48" fill="none" xmlns="http://www.w3.org/2000/svg">
<path d="M25.8519 32.2196C19.066 32.1659 20.0353 23.064 20.0353 23.064C20.3047 17.0321 25.3672 17.0859 25.8519 17.0859C26.3365 17.0859 31.3991 17.0321 31.6684 23.064C31.6684 23.064 32.6377 32.1118 25.8519 32.2196C25.9056 32.2196 25.9056 32.2196 25.8519 32.2196ZM41.7397 35.2897C47.2332 35.2359 46.4252 27.9651 46.4252 27.9651C46.2099 23.1182 42.1165 23.1182 41.7397 23.1718C41.3625 23.1718 37.2696 23.1181 37.0542 27.9651C37.0542 27.9651 36.2462 35.2356 41.7397 35.2897V35.2897ZM51.7033 43.6372V43.7451V42.7758V42.668C51.6496 41.1063 51.3802 40.0289 49.7644 39.0059C47.6103 37.6595 45.2405 36.5283 45.2405 36.5283L43.3553 42.5064L42.2241 39.3827C44.163 36.6899 42.0626 36.5283 41.7395 36.5283C41.3623 36.5283 39.316 36.6898 41.2549 39.3827L40.1237 42.5064L38.2389 36.5283C38.2389 36.5283 37.5386 36.8514 36.6231 37.3901C36.4078 37.2285 36.1384 37.0129 35.8691 36.8514C33.23 35.1819 30.2681 33.7276 30.2681 33.7276L27.8983 41.16L26.4981 37.2823C28.9216 33.8892 26.3366 33.7276 25.852 33.7276C25.3674 33.7276 22.7819 33.8892 25.2058 37.2823L23.8056 41.16L21.4358 33.7276C21.4358 33.7276 18.4736 35.1819 15.8349 36.8514C15.5655 37.0129 15.2961 37.2285 15.0809 37.3901C14.1116 36.8514 13.4114 36.5283 13.4114 36.5283L11.5262 42.5064L10.395 39.3827C12.3339 36.6899 10.2335 36.5283 9.91039 36.5283C9.53321 36.5283 7.48692 36.6898 9.42577 39.3827L8.29458 42.5064L6.46276 36.5283C6.46276 36.5283 4.09295 37.6595 1.93886 39.0059C0.323047 40.0293 0.0536648 41.1063 0 42.668V42.8295V43.7988V43.691V47.9996H9.96357L13.4641 48H51.7027L51.7033 43.6372ZM9.96401 35.2897C15.4575 35.2359 14.6495 27.9651 14.6495 27.9651C14.4342 23.1182 10.3408 23.1182 9.96401 23.1718C9.58683 23.1718 5.49387 23.1181 5.27854 27.9651C5.27816 27.9651 4.47046 35.2356 9.96401 35.2897ZM48.9566 15.7934C45.8865 18.8634 41.2552 19.3481 37.7004 17.2476C36.3002 18.3247 34.7923 18.4862 33.769 18.3247C33.4459 18.271 33.3381 17.786 33.6611 17.6244C34.6304 17.1398 35.2228 16.2242 35.5463 15.4703L35.4385 15.4166C32.2069 11.7545 32.3148 6.20684 35.8157 2.70632C39.4241 -0.902107 45.2944 -0.902107 48.9568 2.70632C52.5653 6.31475 52.5653 12.1851 48.9565 15.7936L48.9566 15.7934ZM45.4023 13.2083C45.2945 12.939 45.187 12.6696 45.0251 12.4006C44.9173 12.1854 44.7557 12.0776 44.4864 12.1313C44.1633 12.185 43.8402 12.2928 43.463 12.4006C42.8168 12.5085 42.1703 12.5622 41.5241 12.3469C40.7164 12.0776 40.2855 11.5392 40.0161 10.7853H42.1702C42.3318 10.7853 42.4933 10.6237 42.4933 10.4622V9.76191C42.4933 9.60037 42.3318 9.43883 42.1702 9.43883H39.8004V8.9001H42.1702C42.3318 8.9001 42.4933 8.73856 42.4933 8.57702V7.87676C42.4933 7.71522 42.3318 7.55367 42.1702 7.55367H40.0698C40.3392 6.96123 40.6623 6.53029 41.2547 6.31506C41.9549 6.04569 42.6549 6.04569 43.3551 6.20724C43.6782 6.26096 44.0013 6.36878 44.3785 6.4766C44.6478 6.53032 44.7557 6.4766 44.8631 6.20724C44.9709 5.93787 45.0784 5.66851 45.1862 5.39953C45.294 5.13017 45.2399 4.96863 44.9709 4.80709C44.9172 4.75336 44.8631 4.75336 44.8094 4.69927C43.786 4.32208 42.7627 4.16054 41.7393 4.32208C40.9853 4.4299 40.2851 4.69927 39.6927 5.18388C38.9387 5.77633 38.454 6.53031 38.131 7.44588L38.0773 7.5537H37.0002C36.8387 7.5537 36.6771 7.71525 36.6771 7.87679V8.57705C36.6771 8.73859 36.8387 8.90013 37.0002 8.90013H37.862V9.43886H37.0002C36.8387 9.43886 36.6771 9.6004 36.6771 9.76194V10.4622C36.6771 10.6237 36.8387 10.7853 37.0002 10.7853L38.2392 10.7849C38.293 11.0543 38.4008 11.2695 38.4545 11.5389C38.9932 12.7775 39.8009 13.6393 41.0936 14.0702C42.1706 14.3933 43.2477 14.3933 44.3252 14.1239C44.5946 14.0702 44.8639 13.9624 45.1329 13.8008C45.456 13.693 45.5097 13.4777 45.4023 13.2084L45.4023 13.2083Z" fill="#787C80"/>
</svg>
