<svg width="140" height="42" viewBox="0 0 140 42" fill="none" xmlns="http://www.w3.org/2000/svg">
<path d="M4.67025 19.8111L7.56758 9.00296C8.34501 6.19285 10.463 4.81055 14.0145 4.81055H20.89L19.722 9.09019H14.1378C12.6209 9.09019 11.6311 9.86761 11.1987 11.468L8.94989 19.8111H15.3968L14.316 23.9182H7.86907L4.32325 37.1913H0L3.54583 23.9182L4.67025 19.8111Z" fill="#232F3E"/>
<path d="M20.3634 24.0053L24.4288 8.83598C25.2062 5.89693 27.4626 4.38379 30.9136 4.38379C36.0162 4.38379 38.0489 6.80329 36.7917 11.4735L29.9257 37.1912H25.5949L28.0163 28.1124H23.5641L21.1427 37.1912H16.8195L19.2409 28.1124L20.3634 24.0053ZM30.5249 8.64637C29.3569 8.64637 28.6218 9.25187 28.3197 10.4629L24.6885 23.9958H29.1407L32.5993 11.0678C33.0316 9.47688 32.3907 8.65584 30.5249 8.65584V8.64637Z" fill="#232F3E"/>
<path d="M54.2163 11.4657L53.784 13.195H49.4551L49.9727 11.077C50.3197 9.56008 49.6276 8.65561 48.1145 8.65561C46.9465 8.65561 46.0818 9.34771 45.7367 10.4721L44.5687 14.8333C44.18 16.2592 44.6976 17.2983 46.0382 17.9885L47.9837 18.984C50.4487 20.3227 51.2697 22.5279 50.4051 25.8102L48.6758 32.297C47.7675 35.7992 45.4333 37.6062 41.9311 37.6062C36.9158 37.6062 34.9267 35.1867 36.053 30.5165L36.7015 27.8789H41.0247L40.2909 30.9128C39.9003 32.5131 40.5488 33.3342 42.1492 33.3342C43.4025 33.3342 44.2255 32.7293 44.5706 31.5176L46.0401 25.8102C46.4724 24.2117 45.9965 23.1309 44.7867 22.4388L42.8906 21.4907C40.3383 20.2374 39.3883 18.0776 40.2094 15.0059L41.8515 8.82248C42.6289 6.01995 45.0067 4.37598 48.3363 4.37598C53.1355 4.37598 55.3332 7.01354 54.2163 11.4657Z" fill="#232F3E"/>
<path d="M70.4735 8.91568H66.1123L58.5467 37.1913H54.2158L61.7815 8.91568H57.4203L58.5011 4.80859H71.5581L70.4735 8.91568Z" fill="#232F3E"/>
<path d="M85.6475 11.4657L79.8965 33.1711C79.119 36.1102 76.8626 37.6233 73.368 37.6233C68.2673 37.6233 66.2346 35.2038 67.4899 30.5335L73.2845 8.82817C74.062 5.88911 76.2672 4.37598 79.7694 4.37598C84.8701 4.37598 86.9009 6.79548 85.6475 11.4657ZM81.4532 11.077C81.8855 9.47665 81.2371 8.65561 79.5571 8.65561C78.3037 8.65561 77.4713 9.26049 77.1793 10.4721L71.7259 30.9223C71.2936 32.5226 71.9421 33.3437 73.5841 33.3437C74.8375 33.3437 75.6699 32.7388 76.0055 31.5271L81.4532 11.077Z" fill="#232F3E"/>
<path d="M89.2753 18.1253L92.8211 4.80859H98.6613C103.504 4.80859 105.277 7.18638 104.022 11.9856L102.941 16.0927C102.336 18.3415 100.91 19.6821 98.5798 20.1561C100.569 20.8918 101.217 22.405 100.612 24.7392L97.3264 37.1913H92.9102L96.1527 25.1298C96.6722 23.1843 96.3271 22.2324 95.0719 22.2324H92.4779L88.496 37.1913H84.1727L88.1547 22.2324L89.2753 18.1253ZM97.7056 8.91568H96.0636L93.5985 18.1253H96.1489C97.4041 18.1253 98.2347 17.4332 98.6139 15.9637L99.7383 11.7258C100.218 9.86566 99.5696 8.91568 97.7094 8.91568H97.7056Z" fill="#232F3E"/>
<path d="M126.024 4.14691L115.135 4.12036L125.666 5.28271H125.742H132.623H135.996L138.803 0.0341309H132.76H132.022H130.911L114.907 0L127.435 1.42781L127.219 1.84307L127.124 2.027L114.907 2.00045L126.459 3.3107L126.297 3.62357L126.024 4.14691Z" fill="#232F3E"/>
<path d="M139.489 16.2165H130.192L134.463 8.17676H124.377L117.776 23.001H125.784L117.776 42.0005L139.489 16.2165Z" fill="#232F3E"/>
<g style="mix-blend-mode:multiply">
<path d="M126.024 4.14691L115.135 4.12036L125.666 5.28271H125.742H132.623H135.996L138.803 0.0341309H132.76H132.022H130.911L114.907 0L127.435 1.42781L127.219 1.84307L127.124 2.027L114.907 2.00045L126.459 3.3107L126.297 3.62357L126.024 4.14691Z" fill="#232F3E"/>
<path d="M139.488 16.2165H130.191L134.462 8.17676H124.376L117.775 23.001H125.783L117.775 42.0005L139.488 16.2165Z" fill="#232F3E"/>
</g>
<path d="M4.67025 19.8111L7.56758 9.00296C8.34501 6.19285 10.463 4.81055 14.0145 4.81055H20.89L19.722 9.09019H14.1378C12.6209 9.09019 11.6311 9.86761 11.1987 11.468L8.94989 19.8111H15.3968L14.316 23.9182H7.86907L4.32325 37.1913H0L3.54583 23.9182L4.67025 19.8111Z" fill="url(#paint0_linear_1740_6747)"/>
<path d="M20.3634 24.0053L24.4288 8.83598C25.2062 5.89693 27.4626 4.38379 30.9136 4.38379C36.0162 4.38379 38.0489 6.80329 36.7917 11.4735L29.9257 37.1912H25.5949L28.0163 28.1124H23.5641L21.1427 37.1912H16.8195L19.2409 28.1124L20.3634 24.0053ZM30.5249 8.64637C29.3569 8.64637 28.6218 9.25187 28.3197 10.4629L24.6885 23.9958H29.1407L32.5993 11.0678C33.0316 9.47688 32.3907 8.65584 30.5249 8.65584V8.64637Z" fill="url(#paint1_linear_1740_6747)"/>
<path d="M54.2163 11.4657L53.784 13.195H49.4551L49.9727 11.077C50.3197 9.56008 49.6276 8.65561 48.1145 8.65561C46.9465 8.65561 46.0818 9.34771 45.7367 10.4721L44.5687 14.8333C44.18 16.2592 44.6976 17.2983 46.0382 17.9885L47.9837 18.984C50.4487 20.3227 51.2697 22.5279 50.4051 25.8102L48.6758 32.297C47.7675 35.7992 45.4333 37.6062 41.9311 37.6062C36.9158 37.6062 34.9267 35.1867 36.053 30.5165L36.7015 27.8789H41.0247L40.2909 30.9128C39.9003 32.5131 40.5488 33.3342 42.1492 33.3342C43.4025 33.3342 44.2255 32.7293 44.5706 31.5176L46.0401 25.8102C46.4724 24.2117 45.9965 23.1309 44.7867 22.4388L42.8906 21.4907C40.3383 20.2374 39.3883 18.0776 40.2094 15.0059L41.8515 8.82248C42.6289 6.01995 45.0067 4.37598 48.3363 4.37598C53.1355 4.37598 55.3332 7.01354 54.2163 11.4657Z" fill="url(#paint2_linear_1740_6747)"/>
<path d="M70.4735 8.91568H66.1123L58.5467 37.1913H54.2158L61.7815 8.91568H57.4203L58.5011 4.80859H71.5581L70.4735 8.91568Z" fill="url(#paint3_linear_1740_6747)"/>
<path d="M85.6475 11.4657L79.8965 33.1711C79.119 36.1102 76.8626 37.6233 73.368 37.6233C68.2673 37.6233 66.2346 35.2038 67.4899 30.5335L73.2845 8.82817C74.062 5.88911 76.2672 4.37598 79.7694 4.37598C84.8701 4.37598 86.9009 6.79548 85.6475 11.4657ZM81.4532 11.077C81.8855 9.47665 81.2371 8.65561 79.5571 8.65561C78.3037 8.65561 77.4713 9.26049 77.1793 10.4721L71.7259 30.9223C71.2936 32.5226 71.9421 33.3437 73.5841 33.3437C74.8375 33.3437 75.6699 32.7388 76.0055 31.5271L81.4532 11.077Z" fill="url(#paint4_linear_1740_6747)"/>
<path d="M89.2753 18.1253L92.8211 4.80859H98.6613C103.504 4.80859 105.277 7.18638 104.022 11.9856L102.941 16.0927C102.336 18.3415 100.91 19.6821 98.5798 20.1561C100.569 20.8918 101.217 22.405 100.612 24.7392L97.3264 37.1913H92.9102L96.1527 25.1298C96.6722 23.1843 96.3271 22.2324 95.0719 22.2324H92.4779L88.496 37.1913H84.1727L88.1547 22.2324L89.2753 18.1253ZM97.7056 8.91568H96.0636L93.5985 18.1253H96.1489C97.4041 18.1253 98.2347 17.4332 98.6139 15.9637L99.7383 11.7258C100.218 9.86566 99.5696 8.91568 97.7094 8.91568H97.7056Z" fill="url(#paint5_linear_1740_6747)"/>
<path d="M126.024 4.14691L115.135 4.12036L125.666 5.28271H125.742H132.623H135.996L138.803 0.0341309H132.76H132.022H130.911L114.907 0L127.435 1.42781L127.219 1.84307L127.124 2.027L114.907 2.00045L126.459 3.3107L126.297 3.62357L126.024 4.14691Z" fill="url(#paint6_linear_1740_6747)"/>
<path d="M139.489 16.2165H130.192L134.463 8.17676H124.377L117.776 23.001H125.784L117.776 42.0005L139.489 16.2165Z" fill="url(#paint7_linear_1740_6747)"/>
<g style="mix-blend-mode:multiply">
<path d="M126.024 4.14691L115.135 4.12036L125.666 5.28271H125.742H132.623H135.996L138.803 0.0341309H132.76H132.022H130.911L114.907 0L127.435 1.42781L127.219 1.84307L127.124 2.027L114.907 2.00045L126.459 3.3107L126.297 3.62357L126.024 4.14691Z" fill="url(#paint8_linear_1740_6747)"/>
<path d="M139.488 16.2165H130.191L134.462 8.17676H124.376L117.775 23.001H125.783L117.775 42.0005L139.488 16.2165Z" fill="url(#paint9_linear_1740_6747)"/>
</g>
<defs>
<linearGradient id="paint0_linear_1740_6747" x1="10.4422" y1="35.3805" x2="10.4422" y2="3.67095" gradientUnits="userSpaceOnUse">
<stop stop-color="#FF6519"/>
<stop offset="0.4" stop-color="#FD681A"/>
<stop offset="0.67" stop-color="#F8711D"/>
<stop offset="0.91" stop-color="#EF8023"/>
<stop offset="1" stop-color="#EA8826"/>
</linearGradient>
<linearGradient id="paint1_linear_1740_6747" x1="26.9867" y1="35.3804" x2="26.9867" y2="3.67083" gradientUnits="userSpaceOnUse">
<stop stop-color="#FF6519"/>
<stop offset="0.4" stop-color="#FD681A"/>
<stop offset="0.67" stop-color="#F8711D"/>
<stop offset="0.91" stop-color="#EF8023"/>
<stop offset="1" stop-color="#EA8826"/>
</linearGradient>
<linearGradient id="paint2_linear_1740_6747" x1="45.128" y1="35.3801" x2="45.128" y2="3.6706" gradientUnits="userSpaceOnUse">
<stop stop-color="#FF6519"/>
<stop offset="0.4" stop-color="#FD681A"/>
<stop offset="0.67" stop-color="#F8711D"/>
<stop offset="0.91" stop-color="#EF8023"/>
<stop offset="1" stop-color="#EA8826"/>
</linearGradient>
<linearGradient id="paint3_linear_1740_6747" x1="62.8851" y1="35.3804" x2="62.8851" y2="3.6709" gradientUnits="userSpaceOnUse">
<stop stop-color="#FF6519"/>
<stop offset="0.4" stop-color="#FD681A"/>
<stop offset="0.67" stop-color="#F8711D"/>
<stop offset="0.91" stop-color="#EF8023"/>
<stop offset="1" stop-color="#EA8826"/>
</linearGradient>
<linearGradient id="paint4_linear_1740_6747" x1="76.5687" y1="35.3801" x2="76.5687" y2="3.6706" gradientUnits="userSpaceOnUse">
<stop stop-color="#FF6519"/>
<stop offset="0.4" stop-color="#FD681A"/>
<stop offset="0.67" stop-color="#F8711D"/>
<stop offset="0.91" stop-color="#EF8023"/>
<stop offset="1" stop-color="#EA8826"/>
</linearGradient>
<linearGradient id="paint5_linear_1740_6747" x1="94.2944" y1="35.3804" x2="94.2944" y2="3.6709" gradientUnits="userSpaceOnUse">
<stop stop-color="#FF6519"/>
<stop offset="0.4" stop-color="#FD681A"/>
<stop offset="0.67" stop-color="#F8711D"/>
<stop offset="0.91" stop-color="#EF8023"/>
<stop offset="1" stop-color="#EA8826"/>
</linearGradient>
<linearGradient id="paint6_linear_1740_6747" x1="142.84" y1="25.7139" x2="118.026" y2="-11.2405" gradientUnits="userSpaceOnUse">
<stop offset="0.14" stop-color="#56CCF2"/>
<stop offset="0.33" stop-color="#4EBCF1"/>
<stop offset="0.68" stop-color="#3891EE"/>
<stop offset="0.82" stop-color="#2F80ED"/>
</linearGradient>
<linearGradient id="paint7_linear_1740_6747" x1="131.605" y1="33.2592" x2="106.792" y2="-3.69512" gradientUnits="userSpaceOnUse">
<stop offset="0.14" stop-color="#56CCF2"/>
<stop offset="0.33" stop-color="#4EBCF1"/>
<stop offset="0.68" stop-color="#3891EE"/>
<stop offset="0.82" stop-color="#2F80ED"/>
</linearGradient>
<linearGradient id="paint8_linear_1740_6747" x1="142.568" y1="-2.21282" x2="107.296" y2="7.78944" gradientUnits="userSpaceOnUse">
<stop offset="0.14" stop-color="#56CCF2" stop-opacity="0"/>
<stop offset="0.21" stop-color="#53C7F2" stop-opacity="0.07"/>
<stop offset="0.35" stop-color="#4CB9F1" stop-opacity="0.25"/>
<stop offset="0.54" stop-color="#41A3EF" stop-opacity="0.54"/>
<stop offset="0.78" stop-color="#3185ED" stop-opacity="0.94"/>
<stop offset="0.82" stop-color="#2F80ED"/>
</linearGradient>
<linearGradient id="paint9_linear_1740_6747" x1="148.133" y1="17.4168" x2="112.861" y2="27.4171" gradientUnits="userSpaceOnUse">
<stop offset="0.14" stop-color="#56CCF2" stop-opacity="0"/>
<stop offset="0.21" stop-color="#53C7F2" stop-opacity="0.07"/>
<stop offset="0.35" stop-color="#4CB9F1" stop-opacity="0.25"/>
<stop offset="0.54" stop-color="#41A3EF" stop-opacity="0.54"/>
<stop offset="0.78" stop-color="#3185ED" stop-opacity="0.94"/>
<stop offset="0.82" stop-color="#2F80ED"/>
</linearGradient>
</defs>
</svg>
