<svg width="70" height="70" viewBox="0 0 70 70" fill="none" xmlns="http://www.w3.org/2000/svg">
<path d="M14.5827 43.75C11.841 43.75 9.30352 44.7125 7.29102 46.3167C4.60768 48.4458 2.91602 51.7417 2.91602 55.4167C2.91602 57.6042 3.52852 59.675 4.60769 61.425C6.62019 64.8083 10.3243 67.0833 14.5827 67.0833C17.5285 67.0833 20.2119 66.0042 22.2535 64.1667C23.1577 63.4083 23.9452 62.475 24.5577 61.425C25.6368 59.675 26.2493 57.6042 26.2493 55.4167C26.2493 48.9708 21.0285 43.75 14.5827 43.75ZM20.6202 54.1625L14.4077 59.9083C13.9994 60.2874 13.4452 60.4916 12.9202 60.4916C12.366 60.4916 11.8118 60.2876 11.3743 59.8501L8.48686 56.9626C7.64103 56.1168 7.64103 54.7166 8.48686 53.8707C9.33269 53.0249 10.7327 53.0249 11.5785 53.8707L12.9785 55.2709L17.6452 50.9541C18.5202 50.1374 19.9202 50.1959 20.7369 51.0709C21.5535 51.9459 21.4952 53.3459 20.6202 54.1625Z" fill="#C31AFF"/>
<path opacity="0.4" d="M56.816 37.7707H62.7077V33.5707C62.7077 27.5332 57.7785 22.604 51.741 22.604H18.2577C12.2202 22.604 7.29102 27.5332 7.29102 33.5707V46.3165C9.30352 44.7124 11.841 43.7498 14.5827 43.7498C21.0285 43.7498 26.2493 48.9707 26.2493 55.4165C26.2493 57.604 25.6368 59.6748 24.5577 61.4248C23.9452 62.4748 23.1577 63.4082 22.2535 64.1665H51.741C57.7785 64.1665 62.7077 59.2373 62.7077 53.1998V49.729H57.166C54.016 49.729 51.1285 47.4248 50.866 44.2748C50.691 42.4373 51.391 40.7165 52.616 39.5206C53.6952 38.4123 55.1827 37.7707 56.816 37.7707Z" fill="#C31AFF"/>
<path d="M43.3119 11.5211V22.6044H18.2577C12.2202 22.6044 7.29102 27.5336 7.29102 33.5711V22.8669C7.29102 19.3961 9.42017 16.3043 12.6577 15.0793L35.816 6.32932C39.4327 4.98765 43.3119 7.6419 43.3119 11.5211Z" fill="#C31AFF"/>
<path d="M65.7998 40.7459V46.7544C65.7998 48.3585 64.5164 49.6709 62.8831 49.7293H57.1665C54.0165 49.7293 51.129 47.4251 50.8665 44.2751C50.6915 42.4376 51.3914 40.7168 52.6164 39.5209C53.6956 38.4126 55.1831 37.771 56.8164 37.771H62.8831C64.5164 37.8293 65.7998 39.1417 65.7998 40.7459Z" fill="#C31AFF"/>
<path d="M40.8327 37.1875H20.416C19.2202 37.1875 18.2285 36.1958 18.2285 35C18.2285 33.8042 19.2202 32.8125 20.416 32.8125H40.8327C42.0285 32.8125 43.0202 33.8042 43.0202 35C43.0202 36.1958 42.0285 37.1875 40.8327 37.1875Z" fill="#C31AFF"/>
</svg>
