<svg width="41" height="42" viewBox="0 0 41 42" fill="none" xmlns="http://www.w3.org/2000/svg">
<circle cx="20.1176" cy="21" r="19.5588" fill="url(#paint0_linear_1740_7916)" stroke="#D1D4E2" stroke-width="1.11765"/>
<path d="M26.8077 10H18.0387C16.8301 10 15.8463 10.9676 15.8463 12.1564V19.046L13.8884 20.9717C12.822 22.0205 12.0788 23.3385 11.7398 24.7844L10.0188 32.1191C9.91383 32.5713 10.261 33 10.7309 33H20.231C20.5297 33 20.7973 32.821 20.9105 32.5488L22.4794 28.6874H26.8076C28.0162 28.6874 29 27.7198 29 26.531V12.1563C29 10.9676 28.0162 10 26.8076 10L26.8077 10ZM22.0177 25.9508L19.7362 31.562H11.6496L13.1645 25.1076C13.4413 23.9244 14.0494 22.8465 14.9221 21.9882L15.8463 21.0787V27.2498C15.8463 27.8901 16.6328 28.2099 17.0936 27.7582L20.1562 24.7461C20.5874 24.3229 21.3362 24.3229 21.7659 24.7461C22.0886 25.0619 22.187 25.5357 22.0177 25.9508L22.0177 25.9508ZM22.8001 23.7293C21.8189 22.7627 20.1057 22.7627 19.1239 23.7293L17.3077 25.5146V12.1564C17.3077 11.7603 17.636 11.4374 18.0387 11.4374H23.8849V27.2496H23.0642L23.3757 26.4856C23.762 25.535 23.5347 24.4521 22.8001 23.7296V23.7293ZM27.5386 26.5308C27.5386 26.9269 27.2114 27.2498 26.8077 27.2498H25.3463V11.4376H26.8077C27.2108 11.4376 27.5386 11.7605 27.5386 12.1565V26.5308Z" fill="white"/>
<defs>
<linearGradient id="paint0_linear_1740_7916" x1="0" y1="0.882324" x2="48.5537" y2="20.0879" gradientUnits="userSpaceOnUse">
<stop stop-color="#DDE76D"/>
<stop offset="1" stop-color="#B0C94A"/>
</linearGradient>
</defs>
</svg>
