<svg width="42" height="42" viewBox="0 0 42 42" fill="none" xmlns="http://www.w3.org/2000/svg">
<circle cx="21.0884" cy="21" r="20.1176" fill="#3766DE"/>
<path d="M21.4414 11C15.9184 11 11.4414 15.477 11.4414 21C11.4414 26.523 15.9184 31 21.4414 31C26.9644 31 31.4414 26.523 31.4414 21C31.4414 15.477 26.9644 11 21.4414 11ZM28.3594 17H25.1444C24.9949 15.8748 24.8065 14.7551 24.5794 13.643C26.1673 14.3269 27.4927 15.504 28.3594 17ZM22.4554 13.072C22.5234 13.424 22.8424 15.11 23.1004 17H19.7824C20.0404 15.11 20.3594 13.424 20.4274 13.072C20.7604 13.029 21.0974 13 21.4414 13C21.7854 13 22.1224 13.029 22.4554 13.072ZM23.4414 21C23.4414 21.598 23.3984 22.286 23.3324 23H19.5504C19.4844 22.286 19.4414 21.598 19.4414 21C19.4414 20.402 19.4844 19.714 19.5504 19H23.3324C23.3984 19.714 23.4414 20.402 23.4414 21ZM18.3034 13.643C18.0763 14.7551 17.8879 15.8748 17.7384 17H14.5234C15.3901 15.504 16.7155 14.3269 18.3034 13.643ZM13.7044 19H17.5254C17.4744 19.668 17.4414 20.344 17.4414 21C17.4414 21.656 17.4744 22.332 17.5264 23H13.7044C13.5384 22.359 13.4414 21.692 13.4414 21C13.4414 20.308 13.5394 19.641 13.7044 19ZM14.5234 25H17.7384C17.9264 26.424 18.1584 27.65 18.3034 28.357C16.7155 27.6731 15.3901 26.496 14.5234 25ZM20.4274 28.928C20.1787 27.6244 19.9636 26.3147 19.7824 25H23.1004C22.9187 26.3146 22.7037 27.6243 22.4554 28.928C22.1224 28.971 21.7854 29 21.4414 29C21.0974 29 20.7604 28.971 20.4274 28.928ZM24.5794 28.357C24.7244 27.65 24.9564 26.424 25.1444 25H28.3594C27.4927 26.496 26.1673 27.6731 24.5794 28.357ZM29.1784 23H25.3574C25.4084 22.332 25.4414 21.656 25.4414 21C25.4414 20.344 25.4084 19.668 25.3564 19H29.1774C29.3434 19.641 29.4414 20.308 29.4414 21C29.4414 21.692 29.3444 22.359 29.1784 23Z" fill="white"/>
</svg>
