<svg width="70" height="70" viewBox="0 0 70 70" fill="none" xmlns="http://www.w3.org/2000/svg">
<path opacity="0.4" d="M47.2215 5.8335H22.7798C12.1632 5.8335 5.83398 12.1627 5.83398 22.7793V47.1918C5.83398 57.8377 12.1632 64.1668 22.7798 64.1668H47.1923C57.809 64.1668 64.1382 57.8377 64.1382 47.221V22.7793C64.1673 12.1627 57.8382 5.8335 47.2215 5.8335Z" fill="#1A4CFF"/>
<path d="M45.4414 56.146C44.2456 56.146 43.2539 55.1543 43.2539 53.9585V42.5835C43.2539 41.3877 44.2456 40.396 45.4414 40.396C46.6372 40.396 47.6289 41.3877 47.6289 42.5835V53.9585C47.6289 55.1543 46.6372 56.146 45.4414 56.146Z" fill="#1A4CFF"/>
<path d="M45.4414 23.9165C44.2456 23.9165 43.2539 22.9248 43.2539 21.729V16.0415C43.2539 14.8457 44.2456 13.854 45.4414 13.854C46.6372 13.854 47.6289 14.8457 47.6289 16.0415V21.729C47.6289 22.9248 46.6372 23.9165 45.4414 23.9165Z" fill="#1A4CFF"/>
<path d="M24.5586 56.1455C23.3628 56.1455 22.3711 55.1538 22.3711 53.958V48.2705C22.3711 47.0747 23.3628 46.083 24.5586 46.083C25.7544 46.083 26.7461 47.0747 26.7461 48.2705V53.958C26.7461 55.1538 25.7836 56.1455 24.5586 56.1455Z" fill="#1A4CFF"/>
<path d="M24.5586 29.604C23.3628 29.604 22.3711 28.6123 22.3711 27.4165V16.0415C22.3711 14.8457 23.3628 13.854 24.5586 13.854C25.7544 13.854 26.7461 14.8457 26.7461 16.0415V27.4165C26.7461 28.6123 25.7836 29.604 24.5586 29.604Z" fill="#1A4CFF"/>
<path d="M45.441 21.3794C41.066 21.3794 37.4785 24.9377 37.4785 29.3127C37.4785 33.6877 41.0368 37.2752 45.441 37.2752C49.816 37.2752 53.3743 33.7169 53.3743 29.3127C53.3743 24.9086 49.816 21.3794 45.441 21.3794Z" fill="#1A4CFF"/>
<path d="M24.5564 32.7539C20.1814 32.7539 16.623 36.3122 16.623 40.7164C16.623 45.1206 20.1814 48.6497 24.5564 48.6497C28.9314 48.6497 32.5189 45.0914 32.5189 40.7164C32.5189 36.3414 28.9605 32.7539 24.5564 32.7539Z" fill="#1A4CFF"/>
</svg>
