<svg width="72" height="72" viewBox="0 0 72 72" fill="none" xmlns="http://www.w3.org/2000/svg">
<path opacity="0.4" d="M63.3966 34.1546V51.6254C63.3966 59.6754 56.8633 66.2088 48.8133 66.2088H23.3216C22.6508 66.2088 21.98 66.1505 21.3383 66.063C22.4175 65.5963 23.38 64.9546 24.255 64.1671C24.3716 64.0796 24.4591 63.9921 24.5466 63.8755C25.3341 63.2046 26.0049 62.3587 26.5591 61.4254C27.6382 59.6754 28.2508 57.6046 28.2508 55.4171C28.2508 52.3546 27.0549 49.5838 25.1299 47.4838C24.8383 47.163 24.5174 46.842 24.1674 46.5795C22.1257 44.8003 19.5008 43.7504 16.5841 43.7504C14.5133 43.7504 12.5591 44.3046 10.8674 45.2671C10.3132 45.5588 9.78829 45.9088 9.29246 46.3171C9.08829 46.4629 8.91328 46.6379 8.73828 46.8129V34.3588C10.9549 36.7505 14.105 38.1213 17.5175 38.1213C21.1925 38.1213 24.7216 36.2837 26.9383 33.3379C28.9216 36.2837 32.3049 38.1213 36.0674 38.1213C39.8008 38.1213 43.1257 36.3712 45.1382 33.4545C47.3841 36.342 50.8549 38.1213 54.4716 38.1213C58.0008 38.1213 61.2091 36.6921 63.3966 34.1546Z" fill="#FF1A6C"/>
<path d="M44.7839 4.57861H27.2839L25.1256 26.0452C24.9506 28.0286 25.2422 29.8953 25.9714 31.587C27.663 35.5536 31.6298 38.1203 36.0631 38.1203C40.5548 38.1203 44.434 35.612 46.184 31.6162C46.709 30.362 47.0298 28.9037 47.059 27.4162V26.862L44.7839 4.57861Z" fill="#FF1A6C"/>
<path opacity="0.6" d="M66.2813 25.0545L65.4647 16.9461C64.2397 8.13779 60.2438 4.55029 51.6979 4.55029H40.498L42.6564 26.4253C42.6855 26.717 42.7147 27.0379 42.7147 27.592C42.8897 29.1087 43.3563 30.5087 44.0563 31.7628C46.1563 35.6128 50.2397 38.092 54.498 38.092C58.3772 38.092 61.8773 36.3711 64.0648 33.3378C65.7856 31.0336 66.5729 28.0879 66.2813 25.0545Z" fill="#FF1A6C"/>
<path opacity="0.6" d="M20.2862 4.57861C11.7112 4.57861 7.74443 8.16602 6.49026 17.0619L5.70288 25.0827C5.41122 28.2035 6.25707 31.237 8.09457 33.5995C10.3112 36.487 13.7237 38.1203 17.5153 38.1203C21.7737 38.1203 25.857 35.641 27.9279 31.8494C28.6862 30.5369 29.182 29.0202 29.3278 27.4452L31.6029 4.60781H20.2862V4.57861Z" fill="#FF1A6C"/>
<path d="M28.2364 55.8503C28.2571 55.4172 28.2571 54.9633 28.1953 54.5302C28.0097 51.8284 26.896 49.2299 24.8336 47.1675C23.3693 45.7032 21.5955 44.7133 19.7187 44.1977C19.1206 44.0121 18.502 43.8883 17.8627 43.8265C14.4597 43.4346 10.933 44.5689 8.33441 47.1675C6.78761 48.7143 5.75645 50.6118 5.2821 52.6123C5.13773 53.1279 5.05523 53.6642 5.01398 54.2004C4.99336 54.3035 5.01383 54.4065 4.99321 54.5097C4.70448 57.7683 5.81828 61.1506 8.33441 63.6667C10.4174 65.7497 13.0779 66.8841 15.8209 67.0284C15.9653 67.049 16.0889 67.049 16.2333 67.0284C17.2645 67.1109 18.337 66.9871 19.3888 66.719C21.3893 66.2447 23.2868 65.2135 24.8336 63.6667C26.9991 61.5012 28.1127 58.6964 28.2364 55.8503ZM18.1721 60.0162L16.6253 58.4694L15.0165 60.0782C14.171 60.9237 12.7685 60.9237 11.923 60.0782C11.0774 59.2326 11.0774 57.8301 11.923 56.9846L13.5317 55.3758L11.9849 53.829C11.1393 52.9835 11.1393 51.581 11.9849 50.7354C12.8305 49.8899 14.2329 49.8899 15.0785 50.7354L16.6253 52.2822L18.0895 50.818C18.9351 49.9724 20.3375 49.9724 21.1831 50.818C22.0287 51.6636 22.0287 53.066 21.1831 53.9116L19.7189 55.3758L21.2657 56.9226C22.1112 57.7682 22.1112 59.1706 21.2657 60.0162C20.4201 60.8618 19.0177 60.8618 18.1721 60.0162Z" fill="#FF1A6C"/>
</svg>
