<svg width="42" height="42" viewBox="0 0 42 42" fill="none" xmlns="http://www.w3.org/2000/svg">
<circle cx="21.0586" cy="21" r="19.5588" fill="url(#paint0_linear_1740_7942)" stroke="#D1D4E2" stroke-width="1.11765"/>
<path d="M23.7783 26.7098H20.0772V25.9305H23.7783C24.1005 25.9305 24.3626 25.6686 24.3626 25.3462V14.4375C24.3626 14.1152 24.1005 13.8532 23.7783 13.8532H19.6876L11.3162 13.7801H11.3114C11.1566 13.7801 11.0105 13.8406 10.9004 13.9496C10.7884 14.0606 10.727 14.2077 10.727 14.3645V18.9178H9.94775V14.3634C9.94775 13.9974 10.091 13.6536 10.3511 13.3955C10.611 13.1372 10.9559 12.999 11.3231 13L19.6903 13.0731H23.7772C24.529 13.0731 25.1408 13.6847 25.1408 14.4367V25.3454C25.1408 26.0974 24.529 26.709 23.7772 26.709L23.7783 26.7098Z" fill="white"/>
<path d="M29.0376 29.0459C27.534 29.0459 26.3105 27.8227 26.3105 26.3189C26.3105 24.815 27.534 23.5918 29.0376 23.5918C30.5415 23.5918 31.7649 24.815 31.7649 26.3189C31.7649 27.8227 30.5415 29.0459 29.0376 29.0459ZM29.0376 24.3709C27.9633 24.3709 27.0896 25.2446 27.0896 26.3189C27.0896 27.3932 27.9633 28.2669 29.0376 28.2669C30.1119 28.2669 30.9856 27.3932 30.9856 26.3189C30.9856 25.2446 30.1119 24.3709 29.0376 24.3709Z" fill="white"/>
<path d="M26.7002 25.9297H23.1938V26.709H26.7002V25.9297Z" fill="white"/>
<path d="M32.3493 26.7089H31.3753V25.9296H32.3493C32.6717 25.9296 32.9336 25.6677 32.9336 25.3453V21.6336C32.9336 21.4875 32.8791 21.3472 32.7796 21.2391L29.0396 17.1591C28.9297 17.0382 28.7719 16.9692 28.609 16.9692H24.7522V16.1899H28.609C28.99 16.1899 29.3572 16.3506 29.6143 16.632L33.3543 20.712C33.5852 20.9645 33.7129 21.2918 33.7129 21.6336V25.3453C33.7129 26.0974 33.1011 26.7089 32.3493 26.7089V26.7089Z" fill="white"/>
<path d="M33.3237 21.6445H28.4537C27.7018 21.6445 27.0901 21.0329 27.0901 20.2809V17.7485H27.8694V20.2809C27.8694 20.6033 28.1313 20.8652 28.4537 20.8652H33.3237V21.6445Z" fill="white"/>
<path d="M16.3762 29.3056H8.87676C8.39369 29.3056 8 28.9119 8 28.4288V20.9625C8 20.4794 8.39368 20.0859 8.87676 20.0859H16.3762V29.3065V29.3056ZM8.87676 20.864C8.82308 20.864 8.7793 20.9078 8.7793 20.9612V28.4286C8.7793 28.4823 8.82308 28.5261 8.87676 28.5261H15.5972V20.8645H8.87676V20.864Z" fill="white"/>
<path d="M18.0318 29.3055H15.5969V20.0859H18.0318C18.5149 20.0859 18.9084 20.4794 18.9084 20.9625V28.4299C18.9084 28.9129 18.5149 29.3064 18.0318 29.3064V29.3055ZM16.376 28.5262H18.0318C18.0853 28.5262 18.1293 28.4824 18.1293 28.4288V20.9624C18.1293 20.9089 18.0853 20.8649 18.0318 20.8649H16.376V28.5276V28.5262Z" fill="white"/>
<path d="M13.8434 22.7641H10.5317V20.2959H11.311V21.9848H13.0643V20.2959H13.8434V22.7641Z" fill="white"/>
<defs>
<linearGradient id="paint0_linear_1740_7942" x1="2.76979" y1="3.10002" x2="48.5969" y2="26.7203" gradientUnits="userSpaceOnUse">
<stop stop-color="#71EEEC"/>
<stop offset="1" stop-color="#29CFD7"/>
</linearGradient>
</defs>
</svg>
