<svg width="25" height="25" viewBox="0 0 25 25" fill="none" xmlns="http://www.w3.org/2000/svg">
<path fill-rule="evenodd" clip-rule="evenodd" d="M3.75 6.25C3.75 5.91848 3.8817 5.60054 4.11612 5.36612C4.35054 5.1317 4.66848 5 5 5H20C20.3315 5 20.6495 5.1317 20.8839 5.36612C21.1183 5.60054 21.25 5.91848 21.25 6.25C21.25 6.58152 21.1183 6.89946 20.8839 7.13388C20.6495 7.3683 20.3315 7.5 20 7.5H5C4.66848 7.5 4.35054 7.3683 4.11612 7.13388C3.8817 6.89946 3.75 6.58152 3.75 6.25ZM3.75 12.5C3.75 12.1685 3.8817 11.8505 4.11612 11.6161C4.35054 11.3817 4.66848 11.25 5 11.25H20C20.3315 11.25 20.6495 11.3817 20.8839 11.6161C21.1183 11.8505 21.25 12.1685 21.25 12.5C21.25 12.8315 21.1183 13.1495 20.8839 13.3839C20.6495 13.6183 20.3315 13.75 20 13.75H5C4.66848 13.75 4.35054 13.6183 4.11612 13.3839C3.8817 13.1495 3.75 12.8315 3.75 12.5ZM11.25 18.75C11.25 18.4185 11.3817 18.1005 11.6161 17.8661C11.8505 17.6317 12.1685 17.5 12.5 17.5H20C20.3315 17.5 20.6495 17.6317 20.8839 17.8661C21.1183 18.1005 21.25 18.4185 21.25 18.75C21.25 19.0815 21.1183 19.3995 20.8839 19.6339C20.6495 19.8683 20.3315 20 20 20H12.5C12.1685 20 11.8505 19.8683 11.6161 19.6339C11.3817 19.3995 11.25 19.0815 11.25 18.75Z" fill="#54585F"/>
</svg>
