<svg width="41" height="42" viewBox="0 0 41 42" fill="none" xmlns="http://www.w3.org/2000/svg">
<circle cx="20.5881" cy="21" r="19.5588" fill="#FF681A" stroke="#D1D4E2" stroke-width="1.11765"/>
<path d="M25.3351 9H14.4363C13.6441 9 12.9998 9.64434 12.9998 10.4365V26.8512C12.9998 27.6434 13.6441 28.2877 14.4363 28.2877H14.5962V31.2356C14.5962 32.1793 15.364 32.9471 16.3077 32.9471H23.4643C24.4081 32.9471 25.1758 32.1793 25.1758 31.2356V28.2877H25.3347C26.1269 28.2877 26.7713 27.6434 26.7713 26.8512V25.324L29.0495 24.3793C29.5872 24.1548 29.9343 23.6347 29.9343 23.0522L29.9345 15.3476C29.9345 14.7651 29.5876 14.245 29.0489 14.0205L26.7716 13.0758L26.7714 10.4366C26.7714 9.64439 26.1271 9.00005 25.3349 9.00005L25.3351 9ZM26.7745 14.1139L28.6814 14.9051C28.8609 14.9799 28.977 15.153 28.977 15.3474V23.052C28.977 23.2466 28.8609 23.4195 28.6824 23.4943L26.7744 24.2855L26.7745 14.1139ZM20.6784 31.9846V28.2884H21.6744V31.9846H20.6784ZM15.554 31.2354V28.2884H19.7206V31.9892H16.3078C15.8925 31.9892 15.554 31.6507 15.554 31.2355V31.2354ZM24.2185 31.2354C24.2185 31.6507 23.88 31.9891 23.4648 31.9891H22.6324V28.2883H24.2187L24.2185 31.2354ZM25.814 26.851C25.814 27.1147 25.5989 27.3298 25.3352 27.3298H14.4364C14.1727 27.3298 13.9576 27.1147 13.9576 26.851V10.4364C13.9576 10.1727 14.1727 9.95761 14.4364 9.95761H25.3352C25.5989 9.95761 25.814 10.1727 25.814 10.4364V26.851Z" fill="white"/>
<path d="M24.3774 10.9156H15.3943C15.1296 10.9156 14.9155 11.1298 14.9155 11.3944V15.9509C14.9155 16.2156 15.1298 16.4297 15.3943 16.4297H24.3774C24.6421 16.4297 24.8561 16.2154 24.8561 15.9509L24.8563 11.3945C24.8563 11.1298 24.6421 10.9155 24.3774 10.9155V10.9156ZM23.8986 15.4721H15.8729V11.8733H23.8986V15.4721Z" fill="white"/>
<path d="M16.7855 17.6587H15.3938C15.1291 17.6587 14.915 17.8729 14.915 18.1375C14.915 18.4022 15.1293 18.6163 15.3938 18.6163H16.7855C17.0502 18.6163 17.2643 18.402 17.2643 18.1375C17.2643 17.8729 17.0502 17.6587 16.7855 17.6587Z" fill="white"/>
<path d="M20.5819 17.6587H19.1902C18.9255 17.6587 18.7114 17.8729 18.7114 18.1375C18.7114 18.4022 18.9257 18.6163 19.1902 18.6163H20.5819C20.8466 18.6163 21.0606 18.402 21.0606 18.1375C21.0606 17.8729 20.8466 17.6587 20.5819 17.6587Z" fill="white"/>
<path d="M24.3772 17.6587H22.9866C22.7218 17.6587 22.5078 17.8729 22.5078 18.1375C22.5078 18.4022 22.7221 18.6163 22.9866 18.6163H24.3772C24.642 18.6163 24.856 18.402 24.856 18.1375C24.8562 17.8729 24.642 17.6587 24.3772 17.6587Z" fill="white"/>
<path d="M16.7855 19.8452H15.3938C15.1291 19.8452 14.915 20.0595 14.915 20.324C14.915 20.5887 15.1293 20.8028 15.3938 20.8028H16.7855C17.0502 20.8028 17.2643 20.5885 17.2643 20.324C17.2643 20.0593 17.0502 19.8452 16.7855 19.8452Z" fill="white"/>
<path d="M20.5819 19.8452H19.1902C18.9255 19.8452 18.7114 20.0595 18.7114 20.324C18.7114 20.5887 18.9257 20.8028 19.1902 20.8028H20.5819C20.8466 20.8028 21.0606 20.5885 21.0606 20.324C21.0606 20.0593 20.8466 19.8452 20.5819 19.8452Z" fill="white"/>
<path d="M24.3772 19.8452H22.9866C22.7218 19.8452 22.5078 20.0595 22.5078 20.324C22.5078 20.5887 22.7221 20.8028 22.9866 20.8028H24.3772C24.642 20.8028 24.856 20.5885 24.856 20.324C24.8562 20.0593 24.642 19.8452 24.3772 19.8452Z" fill="white"/>
<path d="M16.7855 22.0317H15.3938C15.1291 22.0317 14.915 22.246 14.915 22.5105C14.915 22.7753 15.1293 22.9893 15.3938 22.9893H16.7855C17.0502 22.9893 17.2643 22.7751 17.2643 22.5105C17.2643 22.246 17.0502 22.0317 16.7855 22.0317Z" fill="white"/>
<path d="M20.5819 22.0317H19.1902C18.9255 22.0317 18.7114 22.246 18.7114 22.5105C18.7114 22.7753 18.9257 22.9893 19.1902 22.9893H20.5819C20.8466 22.9893 21.0606 22.7751 21.0606 22.5105C21.0606 22.246 20.8466 22.0317 20.5819 22.0317Z" fill="white"/>
<path d="M24.3772 22.0317H22.9866C22.7218 22.0317 22.5078 22.246 22.5078 22.5105C22.5078 22.7753 22.7221 22.9893 22.9866 22.9893H24.3772C24.642 22.9893 24.856 22.7751 24.856 22.5105C24.8562 22.246 24.642 22.0317 24.3772 22.0317Z" fill="white"/>
<path d="M16.7855 24.2178H15.3938C15.1291 24.2178 14.915 24.432 14.915 24.6966C14.915 24.9613 15.1293 25.1753 15.3938 25.1753H16.7855C17.0502 25.1753 17.2643 24.9611 17.2643 24.6966C17.2643 24.432 17.0502 24.2178 16.7855 24.2178Z" fill="white"/>
<path d="M20.5819 24.2178H19.1902C18.9255 24.2178 18.7114 24.432 18.7114 24.6966C18.7114 24.9613 18.9257 25.1753 19.1902 25.1753H20.5819C20.8466 25.1753 21.0606 24.9611 21.0606 24.6966C21.0606 24.432 20.8466 24.2178 20.5819 24.2178Z" fill="white"/>
<path d="M24.3772 24.2178H22.9866C22.7218 24.2178 22.5078 24.432 22.5078 24.6966C22.5078 24.9613 22.7221 25.1753 22.9866 25.1753H24.3772C24.642 25.1753 24.856 24.9611 24.856 24.6966C24.8562 24.432 24.642 24.2178 24.3772 24.2178Z" fill="white"/>
</svg>
